<svg width="1728" height="1117" viewBox="0 0 1728 1117" fill="none" xmlns="http://www.w3.org/2000/svg">
<g opacity="0.1">
<circle cx="15.5138" cy="18.8746" r="3.41229" transform="rotate(-4.74681 15.5138 18.8746)" fill="black"/>
<circle cx="65.0353" cy="14.7622" r="3.41229" transform="rotate(-4.74681 65.0353 14.7622)" fill="black"/>
<circle cx="114.556" cy="10.6501" r="3.41229" transform="rotate(-4.74681 114.556 10.6501)" fill="black"/>
<circle cx="164.078" cy="6.53813" r="3.41229" transform="rotate(-4.74681 164.078 6.53813)" fill="black"/>
<circle cx="213.599" cy="2.42607" r="3.41229" transform="rotate(-4.74681 213.599 2.42607)" fill="black"/>
<circle cx="263.121" cy="-1.68611" r="3.41229" transform="rotate(-4.74681 263.121 -1.68611)" fill="black"/>
<circle cx="19.626" cy="68.3959" r="3.41229" transform="rotate(-4.74681 19.626 68.3959)" fill="black"/>
<circle cx="69.1472" cy="64.2837" r="3.41229" transform="rotate(-4.74681 69.1472 64.2837)" fill="black"/>
<circle cx="118.669" cy="60.1717" r="3.41229" transform="rotate(-4.74681 118.669 60.1717)" fill="black"/>
<circle cx="168.19" cy="56.0595" r="3.41229" transform="rotate(-4.74681 168.19 56.0595)" fill="black"/>
<circle cx="217.711" cy="51.9474" r="3.41229" transform="rotate(-4.74681 217.711 51.9474)" fill="black"/>
<circle cx="267.233" cy="47.8354" r="3.41229" transform="rotate(-4.74681 267.233 47.8354)" fill="black"/>
<circle cx="316.754" cy="43.7233" r="3.41229" transform="rotate(-4.74681 316.754 43.7233)" fill="black"/>
<circle cx="366.275" cy="39.6112" r="3.41229" transform="rotate(-4.74681 366.275 39.6112)" fill="black"/>
<circle cx="415.797" cy="35.4988" r="3.41229" transform="rotate(-4.74681 415.797 35.4988)" fill="black"/>
<circle cx="465.318" cy="31.3868" r="3.41229" transform="rotate(-4.74681 465.318 31.3868)" fill="black"/>
<circle cx="514.839" cy="27.2746" r="3.41229" transform="rotate(-4.74681 514.839 27.2746)" fill="black"/>
<circle cx="564.361" cy="23.1625" r="3.41229" transform="rotate(-4.74681 564.361 23.1625)" fill="black"/>
<circle cx="613.882" cy="19.0503" r="3.41229" transform="rotate(-4.74681 613.882 19.0503)" fill="black"/>
<circle cx="663.403" cy="14.9382" r="3.41229" transform="rotate(-4.74681 663.403 14.9382)" fill="black"/>
<circle cx="712.925" cy="10.8261" r="3.41229" transform="rotate(-4.74681 712.925 10.8261)" fill="black"/>
<circle cx="762.446" cy="6.71391" r="3.41229" transform="rotate(-4.74681 762.446 6.71391)" fill="black"/>
<circle cx="811.967" cy="2.60185" r="3.41229" transform="rotate(-4.74681 811.967 2.60185)" fill="black"/>
<circle cx="861.489" cy="-1.51033" r="3.41229" transform="rotate(-4.74681 861.489 -1.51033)" fill="black"/>
<circle cx="23.7379" cy="117.917" r="3.41229" transform="rotate(-4.74681 23.7379 117.917)" fill="black"/>
<circle cx="73.2594" cy="113.805" r="3.41229" transform="rotate(-4.74681 73.2594 113.805)" fill="black"/>
<circle cx="122.781" cy="109.693" r="3.41229" transform="rotate(-4.74681 122.781 109.693)" fill="black"/>
<circle cx="172.302" cy="105.581" r="3.41229" transform="rotate(-4.74681 172.302 105.581)" fill="black"/>
<circle cx="221.823" cy="101.469" r="3.41229" transform="rotate(-4.74681 221.823 101.469)" fill="black"/>
<circle cx="271.345" cy="97.3564" r="3.41229" transform="rotate(-4.74681 271.345 97.3564)" fill="black"/>
<circle cx="320.866" cy="93.2443" r="3.41229" transform="rotate(-4.74681 320.866 93.2443)" fill="black"/>
<circle cx="370.387" cy="89.1324" r="3.41229" transform="rotate(-4.74681 370.387 89.1324)" fill="black"/>
<circle cx="419.909" cy="85.0202" r="3.41229" transform="rotate(-4.74681 419.909 85.0202)" fill="black"/>
<circle cx="469.43" cy="80.9081" r="3.41229" transform="rotate(-4.74681 469.43 80.9081)" fill="black"/>
<circle cx="518.951" cy="76.7959" r="3.41229" transform="rotate(-4.74681 518.951 76.7959)" fill="black"/>
<circle cx="568.473" cy="72.6839" r="3.41229" transform="rotate(-4.74681 568.473 72.6839)" fill="black"/>
<circle cx="617.994" cy="68.5717" r="3.41229" transform="rotate(-4.74681 617.994 68.5717)" fill="black"/>
<circle cx="667.515" cy="64.4596" r="3.41229" transform="rotate(-4.74681 667.515 64.4596)" fill="black"/>
<circle cx="717.037" cy="60.3475" r="3.41229" transform="rotate(-4.74681 717.037 60.3475)" fill="black"/>
<circle cx="766.558" cy="56.2353" r="3.41229" transform="rotate(-4.74681 766.558 56.2353)" fill="black"/>
<circle cx="816.079" cy="52.1232" r="3.41229" transform="rotate(-4.74681 816.079 52.1232)" fill="black"/>
<circle cx="865.601" cy="48.011" r="3.41229" transform="rotate(-4.74681 865.601 48.011)" fill="black"/>
<circle cx="915.122" cy="43.899" r="3.41229" transform="rotate(-4.74681 915.122 43.899)" fill="black"/>
<circle cx="964.643" cy="39.7868" r="3.41229" transform="rotate(-4.74681 964.643 39.7868)" fill="black"/>
<circle cx="1014.16" cy="35.6746" r="3.41229" transform="rotate(-4.74681 1014.16 35.6746)" fill="black"/>
<circle cx="1063.69" cy="31.5625" r="3.41229" transform="rotate(-4.74681 1063.69 31.5625)" fill="black"/>
<circle cx="1113.21" cy="27.4504" r="3.41229" transform="rotate(-4.74681 1113.21 27.4504)" fill="black"/>
<circle cx="1162.73" cy="23.3383" r="3.41229" transform="rotate(-4.74681 1162.73 23.3383)" fill="black"/>
<circle cx="1212.25" cy="19.2261" r="3.41229" transform="rotate(-4.74681 1212.25 19.2261)" fill="black"/>
<circle cx="1261.77" cy="15.1141" r="3.41229" transform="rotate(-4.74681 1261.77 15.1141)" fill="black"/>
<circle cx="1311.29" cy="11.0019" r="3.41229" transform="rotate(-4.74681 1311.29 11.0019)" fill="black"/>
<circle cx="1360.81" cy="6.88969" r="3.41229" transform="rotate(-4.74681 1360.81 6.88969)" fill="black"/>
<circle cx="1410.34" cy="2.77763" r="3.41229" transform="rotate(-4.74681 1410.34 2.77763)" fill="black"/>
<circle cx="1459.86" cy="-1.33455" r="3.41229" transform="rotate(-4.74681 1459.86 -1.33455)" fill="black"/>
<circle cx="27.8503" cy="167.439" r="3.41229" transform="rotate(-4.74681 27.8503 167.439)" fill="black"/>
<circle cx="77.3716" cy="163.326" r="3.41229" transform="rotate(-4.74681 77.3716 163.326)" fill="black"/>
<circle cx="126.893" cy="159.214" r="3.41229" transform="rotate(-4.74681 126.893 159.214)" fill="black"/>
<circle cx="176.414" cy="155.102" r="3.41229" transform="rotate(-4.74681 176.414 155.102)" fill="black"/>
<circle cx="225.936" cy="150.99" r="3.41229" transform="rotate(-4.74681 225.936 150.99)" fill="black"/>
<circle cx="275.457" cy="146.878" r="3.41229" transform="rotate(-4.74681 275.457 146.878)" fill="black"/>
<circle cx="324.978" cy="142.766" r="3.41229" transform="rotate(-4.74681 324.978 142.766)" fill="black"/>
<circle cx="374.5" cy="138.654" r="3.41229" transform="rotate(-4.74681 374.5 138.654)" fill="black"/>
<circle cx="424.021" cy="134.542" r="3.41229" transform="rotate(-4.74681 424.021 134.542)" fill="black"/>
<circle cx="473.542" cy="130.43" r="3.41229" transform="rotate(-4.74681 473.542 130.43)" fill="black"/>
<circle cx="523.064" cy="126.317" r="3.41229" transform="rotate(-4.74681 523.064 126.317)" fill="black"/>
<circle cx="572.585" cy="122.205" r="3.41229" transform="rotate(-4.74681 572.585 122.205)" fill="black"/>
<circle cx="622.106" cy="118.093" r="3.41229" transform="rotate(-4.74681 622.106 118.093)" fill="black"/>
<circle cx="671.628" cy="113.981" r="3.41229" transform="rotate(-4.74681 671.628 113.981)" fill="black"/>
<circle cx="721.149" cy="109.869" r="3.41229" transform="rotate(-4.74681 721.149 109.869)" fill="black"/>
<circle cx="770.67" cy="105.757" r="3.41229" transform="rotate(-4.74681 770.67 105.757)" fill="black"/>
<circle cx="820.191" cy="101.644" r="3.41229" transform="rotate(-4.74681 820.191 101.644)" fill="black"/>
<circle cx="869.713" cy="97.5324" r="3.41229" transform="rotate(-4.74681 869.713 97.5324)" fill="black"/>
<circle cx="919.234" cy="93.4202" r="3.41229" transform="rotate(-4.74681 919.234 93.4202)" fill="black"/>
<circle cx="968.756" cy="89.3083" r="3.41229" transform="rotate(-4.74681 968.756 89.3083)" fill="black"/>
<circle cx="1018.28" cy="85.1958" r="3.41229" transform="rotate(-4.74681 1018.28 85.1958)" fill="black"/>
<circle cx="1067.8" cy="81.0838" r="3.41229" transform="rotate(-4.74681 1067.8 81.0838)" fill="black"/>
<circle cx="1117.32" cy="76.9716" r="3.41229" transform="rotate(-4.74681 1117.32 76.9716)" fill="black"/>
<circle cx="1166.84" cy="72.8595" r="3.41229" transform="rotate(-4.74681 1166.84 72.8595)" fill="black"/>
<circle cx="1216.36" cy="68.7474" r="3.41229" transform="rotate(-4.74681 1216.36 68.7474)" fill="black"/>
<circle cx="1265.88" cy="64.6353" r="3.41229" transform="rotate(-4.74681 1265.88 64.6353)" fill="black"/>
<circle cx="1315.4" cy="60.5231" r="3.41229" transform="rotate(-4.74681 1315.4 60.5231)" fill="black"/>
<circle cx="1364.93" cy="56.4111" r="3.41229" transform="rotate(-4.74681 1364.93 56.4111)" fill="black"/>
<circle cx="1414.45" cy="52.299" r="3.41229" transform="rotate(-4.74681 1414.45 52.299)" fill="black"/>
<circle cx="1463.97" cy="48.1867" r="3.41229" transform="rotate(-4.74681 1463.97 48.1867)" fill="black"/>
<circle cx="1513.49" cy="44.0746" r="3.41229" transform="rotate(-4.74681 1513.49 44.0746)" fill="black"/>
<circle cx="1563.01" cy="39.9624" r="3.41229" transform="rotate(-4.74681 1563.01 39.9624)" fill="black"/>
<circle cx="1612.53" cy="35.8503" r="3.41229" transform="rotate(-4.74681 1612.53 35.8503)" fill="black"/>
<circle cx="1662.05" cy="31.7382" r="3.41229" transform="rotate(-4.74681 1662.05 31.7382)" fill="black"/>
<circle cx="1711.58" cy="27.626" r="3.41229" transform="rotate(-4.74681 1711.58 27.626)" fill="black"/>
<circle cx="31.9623" cy="216.96" r="3.41229" transform="rotate(-4.74681 31.9623 216.96)" fill="black"/>
<circle cx="81.4838" cy="212.848" r="3.41229" transform="rotate(-4.74681 81.4838 212.848)" fill="black"/>
<circle cx="131.005" cy="208.736" r="3.41229" transform="rotate(-4.74681 131.005 208.736)" fill="black"/>
<circle cx="180.526" cy="204.623" r="3.41229" transform="rotate(-4.74681 180.526 204.623)" fill="black"/>
<circle cx="230.048" cy="200.511" r="3.41229" transform="rotate(-4.74681 230.048 200.511)" fill="black"/>
<circle cx="279.569" cy="196.399" r="3.41229" transform="rotate(-4.74681 279.569 196.399)" fill="black"/>
<circle cx="329.09" cy="192.287" r="3.41229" transform="rotate(-4.74681 329.09 192.287)" fill="black"/>
<circle cx="378.612" cy="188.175" r="3.41229" transform="rotate(-4.74681 378.612 188.175)" fill="black"/>
<circle cx="428.133" cy="184.063" r="3.41229" transform="rotate(-4.74681 428.133 184.063)" fill="black"/>
<circle cx="477.654" cy="179.951" r="3.41229" transform="rotate(-4.74681 477.654 179.951)" fill="black"/>
<circle cx="527.176" cy="175.839" r="3.41229" transform="rotate(-4.74681 527.176 175.839)" fill="black"/>
<circle cx="576.697" cy="171.726" r="3.41229" transform="rotate(-4.74681 576.697 171.726)" fill="black"/>
<circle cx="626.218" cy="167.614" r="3.41229" transform="rotate(-4.74681 626.218 167.614)" fill="black"/>
<circle cx="675.74" cy="163.502" r="3.41229" transform="rotate(-4.74681 675.74 163.502)" fill="black"/>
<circle cx="725.261" cy="159.39" r="3.41229" transform="rotate(-4.74681 725.261 159.39)" fill="black"/>
<circle cx="774.782" cy="155.278" r="3.41229" transform="rotate(-4.74681 774.782 155.278)" fill="black"/>
<circle cx="824.304" cy="151.166" r="3.41229" transform="rotate(-4.74681 824.304 151.166)" fill="black"/>
<circle cx="873.825" cy="147.054" r="3.41229" transform="rotate(-4.74681 873.825 147.054)" fill="black"/>
<circle cx="923.346" cy="142.942" r="3.41229" transform="rotate(-4.74681 923.346 142.942)" fill="black"/>
<circle cx="972.868" cy="138.829" r="3.41229" transform="rotate(-4.74681 972.868 138.829)" fill="black"/>
<circle cx="1022.39" cy="134.717" r="3.41229" transform="rotate(-4.74681 1022.39 134.717)" fill="black"/>
<circle cx="1071.91" cy="130.605" r="3.41229" transform="rotate(-4.74681 1071.91 130.605)" fill="black"/>
<circle cx="1121.43" cy="126.493" r="3.41229" transform="rotate(-4.74681 1121.43 126.493)" fill="black"/>
<circle cx="1170.95" cy="122.381" r="3.41229" transform="rotate(-4.74681 1170.95 122.381)" fill="black"/>
<circle cx="1220.47" cy="118.269" r="3.41229" transform="rotate(-4.74681 1220.47 118.269)" fill="black"/>
<circle cx="1270" cy="114.157" r="3.41229" transform="rotate(-4.74681 1270 114.157)" fill="black"/>
<circle cx="1319.52" cy="110.044" r="3.41229" transform="rotate(-4.74681 1319.52 110.044)" fill="black"/>
<circle cx="1369.04" cy="105.933" r="3.41229" transform="rotate(-4.74681 1369.04 105.933)" fill="black"/>
<circle cx="1418.56" cy="101.82" r="3.41229" transform="rotate(-4.74681 1418.56 101.82)" fill="black"/>
<circle cx="1468.08" cy="97.7081" r="3.41229" transform="rotate(-4.74681 1468.08 97.7081)" fill="black"/>
<circle cx="1517.6" cy="93.596" r="3.41229" transform="rotate(-4.74681 1517.6 93.596)" fill="black"/>
<circle cx="1567.12" cy="89.4838" r="3.41229" transform="rotate(-4.74681 1567.12 89.4838)" fill="black"/>
<circle cx="1616.65" cy="85.3716" r="3.41229" transform="rotate(-4.74681 1616.65 85.3716)" fill="black"/>
<circle cx="1666.17" cy="81.2596" r="3.41229" transform="rotate(-4.74681 1666.17 81.2596)" fill="black"/>
<circle cx="1715.69" cy="77.1474" r="3.41229" transform="rotate(-4.74681 1715.69 77.1474)" fill="black"/>
<circle cx="36.0746" cy="266.481" r="3.41229" transform="rotate(-4.74681 36.0746 266.481)" fill="black"/>
<circle cx="85.5958" cy="262.369" r="3.41229" transform="rotate(-4.74681 85.5958 262.369)" fill="black"/>
<circle cx="135.117" cy="258.257" r="3.41229" transform="rotate(-4.74681 135.117 258.257)" fill="black"/>
<circle cx="184.638" cy="254.145" r="3.41229" transform="rotate(-4.74681 184.638 254.145)" fill="black"/>
<circle cx="234.16" cy="250.033" r="3.41229" transform="rotate(-4.74681 234.16 250.033)" fill="black"/>
<circle cx="283.681" cy="245.921" r="3.41229" transform="rotate(-4.74681 283.681 245.921)" fill="black"/>
<circle cx="333.203" cy="241.808" r="3.41229" transform="rotate(-4.74681 333.203 241.808)" fill="black"/>
<circle cx="382.724" cy="237.696" r="3.41229" transform="rotate(-4.74681 382.724 237.696)" fill="black"/>
<circle cx="432.245" cy="233.584" r="3.41229" transform="rotate(-4.74681 432.245 233.584)" fill="black"/>
<circle cx="481.767" cy="229.472" r="3.41229" transform="rotate(-4.74681 481.767 229.472)" fill="black"/>
<circle cx="531.288" cy="225.36" r="3.41229" transform="rotate(-4.74681 531.288 225.36)" fill="black"/>
<circle cx="580.809" cy="221.248" r="3.41229" transform="rotate(-4.74681 580.809 221.248)" fill="black"/>
<circle cx="630.331" cy="217.136" r="3.41229" transform="rotate(-4.74681 630.331 217.136)" fill="black"/>
<circle cx="679.852" cy="213.024" r="3.41229" transform="rotate(-4.74681 679.852 213.024)" fill="black"/>
<circle cx="729.373" cy="208.911" r="3.41229" transform="rotate(-4.74681 729.373 208.911)" fill="black"/>
<circle cx="778.895" cy="204.799" r="3.41229" transform="rotate(-4.74681 778.895 204.799)" fill="black"/>
<circle cx="828.416" cy="200.687" r="3.41229" transform="rotate(-4.74681 828.416 200.687)" fill="black"/>
<circle cx="877.937" cy="196.575" r="3.41229" transform="rotate(-4.74681 877.937 196.575)" fill="black"/>
<circle cx="927.458" cy="192.463" r="3.41229" transform="rotate(-4.74681 927.458 192.463)" fill="black"/>
<circle cx="976.98" cy="188.351" r="3.41229" transform="rotate(-4.74681 976.98 188.351)" fill="black"/>
<circle cx="1026.5" cy="184.239" r="3.41229" transform="rotate(-4.74681 1026.5 184.239)" fill="black"/>
<circle cx="1076.02" cy="180.127" r="3.41229" transform="rotate(-4.74681 1076.02 180.127)" fill="black"/>
<circle cx="1125.54" cy="176.014" r="3.41229" transform="rotate(-4.74681 1125.54 176.014)" fill="black"/>
<circle cx="1175.07" cy="171.902" r="3.41229" transform="rotate(-4.74681 1175.07 171.902)" fill="black"/>
<circle cx="1224.59" cy="167.79" r="3.41229" transform="rotate(-4.74681 1224.59 167.79)" fill="black"/>
<circle cx="1274.11" cy="163.678" r="3.41229" transform="rotate(-4.74681 1274.11 163.678)" fill="black"/>
<circle cx="1323.63" cy="159.566" r="3.41229" transform="rotate(-4.74681 1323.63 159.566)" fill="black"/>
<circle cx="1373.15" cy="155.454" r="3.41229" transform="rotate(-4.74681 1373.15 155.454)" fill="black"/>
<circle cx="1422.67" cy="151.342" r="3.41229" transform="rotate(-4.74681 1422.67 151.342)" fill="black"/>
<circle cx="1472.19" cy="147.229" r="3.41229" transform="rotate(-4.74681 1472.19 147.229)" fill="black"/>
<circle cx="1521.71" cy="143.117" r="3.41229" transform="rotate(-4.74681 1521.71 143.117)" fill="black"/>
<circle cx="1571.24" cy="139.005" r="3.41229" transform="rotate(-4.74681 1571.24 139.005)" fill="black"/>
<circle cx="1620.76" cy="134.893" r="3.41229" transform="rotate(-4.74681 1620.76 134.893)" fill="black"/>
<circle cx="1670.28" cy="130.781" r="3.41229" transform="rotate(-4.74681 1670.28 130.781)" fill="black"/>
<circle cx="1719.8" cy="126.669" r="3.41229" transform="rotate(-4.74681 1719.8 126.669)" fill="black"/>
<circle cx="40.1867" cy="316.003" r="3.41229" transform="rotate(-4.74681 40.1867 316.003)" fill="black"/>
<circle cx="89.708" cy="311.891" r="3.41229" transform="rotate(-4.74681 89.708 311.891)" fill="black"/>
<circle cx="139.229" cy="307.778" r="3.41229" transform="rotate(-4.74681 139.229 307.778)" fill="black"/>
<circle cx="188.751" cy="303.666" r="3.41229" transform="rotate(-4.74681 188.751 303.666)" fill="black"/>
<circle cx="238.272" cy="299.554" r="3.41229" transform="rotate(-4.74681 238.272 299.554)" fill="black"/>
<circle cx="287.793" cy="295.442" r="3.41229" transform="rotate(-4.74681 287.793 295.442)" fill="black"/>
<circle cx="337.315" cy="291.33" r="3.41229" transform="rotate(-4.74681 337.315 291.33)" fill="black"/>
<circle cx="386.836" cy="287.218" r="3.41229" transform="rotate(-4.74681 386.836 287.218)" fill="black"/>
<circle cx="436.357" cy="283.105" r="3.41229" transform="rotate(-4.74681 436.357 283.105)" fill="black"/>
<circle cx="485.879" cy="278.993" r="3.41229" transform="rotate(-4.74681 485.879 278.993)" fill="black"/>
<circle cx="535.4" cy="274.881" r="3.41229" transform="rotate(-4.74681 535.4 274.881)" fill="black"/>
<circle cx="584.921" cy="270.769" r="3.41229" transform="rotate(-4.74681 584.921 270.769)" fill="black"/>
<circle cx="634.443" cy="266.657" r="3.41229" transform="rotate(-4.74681 634.443 266.657)" fill="black"/>
<circle cx="683.964" cy="262.545" r="3.41229" transform="rotate(-4.74681 683.964 262.545)" fill="black"/>
<circle cx="733.485" cy="258.433" r="3.41229" transform="rotate(-4.74681 733.485 258.433)" fill="black"/>
<circle cx="783.007" cy="254.321" r="3.41229" transform="rotate(-4.74681 783.007 254.321)" fill="black"/>
<circle cx="832.528" cy="250.209" r="3.41229" transform="rotate(-4.74681 832.528 250.209)" fill="black"/>
<circle cx="882.049" cy="246.096" r="3.41229" transform="rotate(-4.74681 882.049 246.096)" fill="black"/>
<circle cx="931.571" cy="241.984" r="3.41229" transform="rotate(-4.74681 931.571 241.984)" fill="black"/>
<circle cx="981.092" cy="237.872" r="3.41229" transform="rotate(-4.74681 981.092 237.872)" fill="black"/>
<circle cx="1030.61" cy="233.76" r="3.41229" transform="rotate(-4.74681 1030.61 233.76)" fill="black"/>
<circle cx="1080.13" cy="229.648" r="3.41229" transform="rotate(-4.74681 1080.13 229.648)" fill="black"/>
<circle cx="1129.66" cy="225.536" r="3.41229" transform="rotate(-4.74681 1129.66 225.536)" fill="black"/>
<circle cx="1179.18" cy="221.424" r="3.41229" transform="rotate(-4.74681 1179.18 221.424)" fill="black"/>
<circle cx="1228.7" cy="217.311" r="3.41229" transform="rotate(-4.74681 1228.7 217.311)" fill="black"/>
<circle cx="1278.22" cy="213.199" r="3.41229" transform="rotate(-4.74681 1278.22 213.199)" fill="black"/>
<circle cx="1327.74" cy="209.087" r="3.41229" transform="rotate(-4.74681 1327.74 209.087)" fill="black"/>
<circle cx="1377.26" cy="204.975" r="3.41229" transform="rotate(-4.74681 1377.26 204.975)" fill="black"/>
<circle cx="1426.78" cy="200.863" r="3.41229" transform="rotate(-4.74681 1426.78 200.863)" fill="black"/>
<circle cx="1476.31" cy="196.751" r="3.41229" transform="rotate(-4.74681 1476.31 196.751)" fill="black"/>
<circle cx="1525.83" cy="192.639" r="3.41229" transform="rotate(-4.74681 1525.83 192.639)" fill="black"/>
<circle cx="1575.35" cy="188.527" r="3.41229" transform="rotate(-4.74681 1575.35 188.527)" fill="black"/>
<circle cx="1624.87" cy="184.414" r="3.41229" transform="rotate(-4.74681 1624.87 184.414)" fill="black"/>
<circle cx="1674.39" cy="180.302" r="3.41229" transform="rotate(-4.74681 1674.39 180.302)" fill="black"/>
<circle cx="1723.91" cy="176.19" r="3.41229" transform="rotate(-4.74681 1723.91 176.19)" fill="black"/>
<circle cx="44.2987" cy="365.524" r="3.41229" transform="rotate(-4.74681 44.2987 365.524)" fill="black"/>
<circle cx="93.82" cy="361.412" r="3.41229" transform="rotate(-4.74681 93.82 361.412)" fill="black"/>
<circle cx="143.342" cy="357.3" r="3.41229" transform="rotate(-4.74681 143.342 357.3)" fill="black"/>
<circle cx="192.863" cy="353.188" r="3.41229" transform="rotate(-4.74681 192.863 353.188)" fill="black"/>
<circle cx="242.384" cy="349.075" r="3.41229" transform="rotate(-4.74681 242.384 349.075)" fill="black"/>
<circle cx="291.905" cy="344.963" r="3.41229" transform="rotate(-4.74681 291.905 344.963)" fill="black"/>
<circle cx="341.427" cy="340.851" r="3.41229" transform="rotate(-4.74681 341.427 340.851)" fill="black"/>
<circle cx="390.948" cy="336.739" r="3.41229" transform="rotate(-4.74681 390.948 336.739)" fill="black"/>
<circle cx="440.469" cy="332.627" r="3.41229" transform="rotate(-4.74681 440.469 332.627)" fill="black"/>
<circle cx="489.991" cy="328.515" r="3.41229" transform="rotate(-4.74681 489.991 328.515)" fill="black"/>
<circle cx="539.512" cy="324.402" r="3.41229" transform="rotate(-4.74681 539.512 324.402)" fill="black"/>
<circle cx="589.033" cy="320.29" r="3.41229" transform="rotate(-4.74681 589.033 320.29)" fill="black"/>
<circle cx="638.555" cy="316.178" r="3.41229" transform="rotate(-4.74681 638.555 316.178)" fill="black"/>
<circle cx="688.076" cy="312.066" r="3.41229" transform="rotate(-4.74681 688.076 312.066)" fill="black"/>
<circle cx="737.598" cy="307.954" r="3.41229" transform="rotate(-4.74681 737.598 307.954)" fill="black"/>
<circle cx="787.119" cy="303.842" r="3.41229" transform="rotate(-4.74681 787.119 303.842)" fill="black"/>
<circle cx="836.64" cy="299.73" r="3.41229" transform="rotate(-4.74681 836.64 299.73)" fill="black"/>
<circle cx="886.161" cy="295.618" r="3.41229" transform="rotate(-4.74681 886.161 295.618)" fill="black"/>
<circle cx="935.683" cy="291.506" r="3.41229" transform="rotate(-4.74681 935.683 291.506)" fill="black"/>
<circle cx="985.204" cy="287.393" r="3.41229" transform="rotate(-4.74681 985.204 287.393)" fill="black"/>
<circle cx="1034.73" cy="283.281" r="3.41229" transform="rotate(-4.74681 1034.73 283.281)" fill="black"/>
<circle cx="1084.25" cy="279.169" r="3.41229" transform="rotate(-4.74681 1084.25 279.169)" fill="black"/>
<circle cx="1133.77" cy="275.057" r="3.41229" transform="rotate(-4.74681 1133.77 275.057)" fill="black"/>
<circle cx="1183.29" cy="270.945" r="3.41229" transform="rotate(-4.74681 1183.29 270.945)" fill="black"/>
<circle cx="1232.81" cy="266.833" r="3.41229" transform="rotate(-4.74681 1232.81 266.833)" fill="black"/>
<circle cx="1282.33" cy="262.721" r="3.41229" transform="rotate(-4.74681 1282.33 262.721)" fill="black"/>
<circle cx="1331.85" cy="258.608" r="3.41229" transform="rotate(-4.74681 1331.85 258.608)" fill="black"/>
<circle cx="1381.37" cy="254.497" r="3.41229" transform="rotate(-4.74681 1381.37 254.497)" fill="black"/>
<circle cx="1430.9" cy="250.384" r="3.41229" transform="rotate(-4.74681 1430.9 250.384)" fill="black"/>
<circle cx="1480.42" cy="246.272" r="3.41229" transform="rotate(-4.74681 1480.42 246.272)" fill="black"/>
<circle cx="1529.94" cy="242.16" r="3.41229" transform="rotate(-4.74681 1529.94 242.16)" fill="black"/>
<circle cx="1579.46" cy="238.048" r="3.41229" transform="rotate(-4.74681 1579.46 238.048)" fill="black"/>
<circle cx="1628.98" cy="233.936" r="3.41229" transform="rotate(-4.74681 1628.98 233.936)" fill="black"/>
<circle cx="1678.5" cy="229.824" r="3.41229" transform="rotate(-4.74681 1678.5 229.824)" fill="black"/>
<circle cx="1728.02" cy="225.711" r="3.41229" transform="rotate(-4.74681 1728.02 225.711)" fill="black"/>
<circle cx="-1.11044" cy="419.158" r="3.41229" transform="rotate(-4.74681 -1.11044 419.158)" fill="black"/>
<circle cx="48.4109" cy="415.045" r="3.41229" transform="rotate(-4.74681 48.4109 415.045)" fill="black"/>
<circle cx="97.9322" cy="410.933" r="3.41229" transform="rotate(-4.74681 97.9322 410.933)" fill="black"/>
<circle cx="147.454" cy="406.821" r="3.41229" transform="rotate(-4.74681 147.454 406.821)" fill="black"/>
<circle cx="196.975" cy="402.709" r="3.41229" transform="rotate(-4.74681 196.975 402.709)" fill="black"/>
<circle cx="246.496" cy="398.597" r="3.41229" transform="rotate(-4.74681 246.496 398.597)" fill="black"/>
<circle cx="296.018" cy="394.485" r="3.41229" transform="rotate(-4.74681 296.018 394.485)" fill="black"/>
<circle cx="345.539" cy="390.373" r="3.41229" transform="rotate(-4.74681 345.539 390.373)" fill="black"/>
<circle cx="395.06" cy="386.26" r="3.41229" transform="rotate(-4.74681 395.06 386.26)" fill="black"/>
<circle cx="444.582" cy="382.148" r="3.41229" transform="rotate(-4.74681 444.582 382.148)" fill="black"/>
<circle cx="494.103" cy="378.036" r="3.41229" transform="rotate(-4.74681 494.103 378.036)" fill="black"/>
<circle cx="543.624" cy="373.924" r="3.41229" transform="rotate(-4.74681 543.624 373.924)" fill="black"/>
<circle cx="593.146" cy="369.812" r="3.41229" transform="rotate(-4.74681 593.146 369.812)" fill="black"/>
<circle cx="642.667" cy="365.7" r="3.41229" transform="rotate(-4.74681 642.667 365.7)" fill="black"/>
<circle cx="692.188" cy="361.588" r="3.41229" transform="rotate(-4.74681 692.188 361.588)" fill="black"/>
<circle cx="741.71" cy="357.475" r="3.41229" transform="rotate(-4.74681 741.71 357.475)" fill="black"/>
<circle cx="791.231" cy="353.363" r="3.41229" transform="rotate(-4.74681 791.231 353.363)" fill="black"/>
<circle cx="840.752" cy="349.251" r="3.41229" transform="rotate(-4.74681 840.752 349.251)" fill="black"/>
<circle cx="890.274" cy="345.139" r="3.41229" transform="rotate(-4.74681 890.274 345.139)" fill="black"/>
<circle cx="939.795" cy="341.027" r="3.41229" transform="rotate(-4.74681 939.795 341.027)" fill="black"/>
<circle cx="989.316" cy="336.915" r="3.41229" transform="rotate(-4.74681 989.316 336.915)" fill="black"/>
<circle cx="1038.84" cy="332.803" r="3.41229" transform="rotate(-4.74681 1038.84 332.803)" fill="black"/>
<circle cx="1088.36" cy="328.691" r="3.41229" transform="rotate(-4.74681 1088.36 328.691)" fill="black"/>
<circle cx="1137.88" cy="324.579" r="3.41229" transform="rotate(-4.74681 1137.88 324.579)" fill="black"/>
<circle cx="1187.4" cy="320.466" r="3.41229" transform="rotate(-4.74681 1187.4 320.466)" fill="black"/>
<circle cx="1236.92" cy="316.354" r="3.41229" transform="rotate(-4.74681 1236.92 316.354)" fill="black"/>
<circle cx="1286.44" cy="312.242" r="3.41229" transform="rotate(-4.74681 1286.44 312.242)" fill="black"/>
<circle cx="1335.97" cy="308.13" r="3.41229" transform="rotate(-4.74681 1335.97 308.13)" fill="black"/>
<circle cx="1385.49" cy="304.018" r="3.41229" transform="rotate(-4.74681 1385.49 304.018)" fill="black"/>
<circle cx="1435.01" cy="299.906" r="3.41229" transform="rotate(-4.74681 1435.01 299.906)" fill="black"/>
<circle cx="1484.53" cy="295.793" r="3.41229" transform="rotate(-4.74681 1484.53 295.793)" fill="black"/>
<circle cx="1534.05" cy="291.681" r="3.41229" transform="rotate(-4.74681 1534.05 291.681)" fill="black"/>
<circle cx="1583.57" cy="287.569" r="3.41229" transform="rotate(-4.74681 1583.57 287.569)" fill="black"/>
<circle cx="1633.09" cy="283.457" r="3.41229" transform="rotate(-4.74681 1633.09 283.457)" fill="black"/>
<circle cx="1682.61" cy="279.345" r="3.41229" transform="rotate(-4.74681 1682.61 279.345)" fill="black"/>
<circle cx="3.00162" cy="468.679" r="3.41229" transform="rotate(-4.74681 3.00162 468.679)" fill="black"/>
<circle cx="52.523" cy="464.567" r="3.41229" transform="rotate(-4.74681 52.523 464.567)" fill="black"/>
<circle cx="102.044" cy="460.454" r="3.41229" transform="rotate(-4.74681 102.044 460.454)" fill="black"/>
<circle cx="151.566" cy="456.342" r="3.41229" transform="rotate(-4.74681 151.566 456.342)" fill="black"/>
<circle cx="201.087" cy="452.23" r="3.41229" transform="rotate(-4.74681 201.087 452.23)" fill="black"/>
<circle cx="250.608" cy="448.118" r="3.41229" transform="rotate(-4.74681 250.608 448.118)" fill="black"/>
<circle cx="300.13" cy="444.006" r="3.41229" transform="rotate(-4.74681 300.13 444.006)" fill="black"/>
<circle cx="349.651" cy="439.894" r="3.41229" transform="rotate(-4.74681 349.651 439.894)" fill="black"/>
<circle cx="399.172" cy="435.782" r="3.41229" transform="rotate(-4.74681 399.172 435.782)" fill="black"/>
<circle cx="448.694" cy="431.669" r="3.41229" transform="rotate(-4.74681 448.694 431.669)" fill="black"/>
<circle cx="498.215" cy="427.557" r="3.41229" transform="rotate(-4.74681 498.215 427.557)" fill="black"/>
<circle cx="547.736" cy="423.445" r="3.41229" transform="rotate(-4.74681 547.736 423.445)" fill="black"/>
<circle cx="597.258" cy="419.333" r="3.41229" transform="rotate(-4.74681 597.258 419.333)" fill="black"/>
<circle cx="646.779" cy="415.221" r="3.41229" transform="rotate(-4.74681 646.779 415.221)" fill="black"/>
<circle cx="696.3" cy="411.109" r="3.41229" transform="rotate(-4.74681 696.3 411.109)" fill="black"/>
<circle cx="745.822" cy="406.997" r="3.41229" transform="rotate(-4.74681 745.822 406.997)" fill="black"/>
<circle cx="795.343" cy="402.885" r="3.41229" transform="rotate(-4.74681 795.343 402.885)" fill="black"/>
<circle cx="844.864" cy="398.772" r="3.41229" transform="rotate(-4.74681 844.864 398.772)" fill="black"/>
<circle cx="894.386" cy="394.66" r="3.41229" transform="rotate(-4.74681 894.386 394.66)" fill="black"/>
<circle cx="943.907" cy="390.548" r="3.41229" transform="rotate(-4.74681 943.907 390.548)" fill="black"/>
<circle cx="993.428" cy="386.436" r="3.41229" transform="rotate(-4.74681 993.428 386.436)" fill="black"/>
<circle cx="1042.95" cy="382.324" r="3.41229" transform="rotate(-4.74681 1042.95 382.324)" fill="black"/>
<circle cx="1092.47" cy="378.212" r="3.41229" transform="rotate(-4.74681 1092.47 378.212)" fill="black"/>
<circle cx="1141.99" cy="374.1" r="3.41229" transform="rotate(-4.74681 1141.99 374.1)" fill="black"/>
<circle cx="1191.51" cy="369.988" r="3.41229" transform="rotate(-4.74681 1191.51 369.988)" fill="black"/>
<circle cx="1241.03" cy="365.876" r="3.41229" transform="rotate(-4.74681 1241.03 365.876)" fill="black"/>
<circle cx="1290.56" cy="361.763" r="3.41229" transform="rotate(-4.74681 1290.56 361.763)" fill="black"/>
<circle cx="1340.08" cy="357.651" r="3.41229" transform="rotate(-4.74681 1340.08 357.651)" fill="black"/>
<circle cx="1389.6" cy="353.539" r="3.41229" transform="rotate(-4.74681 1389.6 353.539)" fill="black"/>
<circle cx="1439.12" cy="349.427" r="3.41229" transform="rotate(-4.74681 1439.12 349.427)" fill="black"/>
<circle cx="1488.64" cy="345.315" r="3.41229" transform="rotate(-4.74681 1488.64 345.315)" fill="black"/>
<circle cx="1538.16" cy="341.203" r="3.41229" transform="rotate(-4.74681 1538.16 341.203)" fill="black"/>
<circle cx="1587.68" cy="337.09" r="3.41229" transform="rotate(-4.74681 1587.68 337.09)" fill="black"/>
<circle cx="1637.21" cy="332.978" r="3.41229" transform="rotate(-4.74681 1637.21 332.978)" fill="black"/>
<circle cx="1686.73" cy="328.866" r="3.41229" transform="rotate(-4.74681 1686.73 328.866)" fill="black"/>
<circle cx="7.11381" cy="518.2" r="3.41229" transform="rotate(-4.74681 7.11381 518.2)" fill="black"/>
<circle cx="56.6353" cy="514.088" r="3.41229" transform="rotate(-4.74681 56.6353 514.088)" fill="black"/>
<circle cx="106.156" cy="509.976" r="3.41229" transform="rotate(-4.74681 106.156 509.976)" fill="black"/>
<circle cx="155.678" cy="505.864" r="3.41229" transform="rotate(-4.74681 155.678 505.864)" fill="black"/>
<circle cx="205.199" cy="501.752" r="3.41229" transform="rotate(-4.74681 205.199 501.752)" fill="black"/>
<circle cx="254.72" cy="497.639" r="3.41229" transform="rotate(-4.74681 254.72 497.639)" fill="black"/>
<circle cx="304.242" cy="493.527" r="3.41229" transform="rotate(-4.74681 304.242 493.527)" fill="black"/>
<circle cx="353.763" cy="489.415" r="3.41229" transform="rotate(-4.74681 353.763 489.415)" fill="black"/>
<circle cx="403.284" cy="485.303" r="3.41229" transform="rotate(-4.74681 403.284 485.303)" fill="black"/>
<circle cx="452.806" cy="481.191" r="3.41229" transform="rotate(-4.74681 452.806 481.191)" fill="black"/>
<circle cx="502.327" cy="477.079" r="3.41229" transform="rotate(-4.74681 502.327 477.079)" fill="black"/>
<circle cx="551.849" cy="472.967" r="3.41229" transform="rotate(-4.74681 551.849 472.967)" fill="black"/>
<circle cx="601.37" cy="468.855" r="3.41229" transform="rotate(-4.74681 601.37 468.855)" fill="black"/>
<circle cx="650.891" cy="464.743" r="3.41229" transform="rotate(-4.74681 650.891 464.743)" fill="black"/>
<circle cx="700.413" cy="460.63" r="3.41229" transform="rotate(-4.74681 700.413 460.63)" fill="black"/>
<circle cx="749.934" cy="456.518" r="3.41229" transform="rotate(-4.74681 749.934 456.518)" fill="black"/>
<circle cx="799.455" cy="452.406" r="3.41229" transform="rotate(-4.74681 799.455 452.406)" fill="black"/>
<circle cx="848.976" cy="448.294" r="3.41229" transform="rotate(-4.74681 848.976 448.294)" fill="black"/>
<circle cx="898.498" cy="444.182" r="3.41229" transform="rotate(-4.74681 898.498 444.182)" fill="black"/>
<circle cx="948.019" cy="440.07" r="3.41229" transform="rotate(-4.74681 948.019 440.07)" fill="black"/>
<circle cx="997.54" cy="435.958" r="3.41229" transform="rotate(-4.74681 997.54 435.958)" fill="black"/>
<circle cx="1047.06" cy="431.845" r="3.41229" transform="rotate(-4.74681 1047.06 431.845)" fill="black"/>
<circle cx="1096.58" cy="427.733" r="3.41229" transform="rotate(-4.74681 1096.58 427.733)" fill="black"/>
<circle cx="1146.1" cy="423.621" r="3.41229" transform="rotate(-4.74681 1146.1 423.621)" fill="black"/>
<circle cx="1195.63" cy="419.509" r="3.41229" transform="rotate(-4.74681 1195.63 419.509)" fill="black"/>
<circle cx="1245.15" cy="415.397" r="3.41229" transform="rotate(-4.74681 1245.15 415.397)" fill="black"/>
<circle cx="1294.67" cy="411.285" r="3.41229" transform="rotate(-4.74681 1294.67 411.285)" fill="black"/>
<circle cx="1344.19" cy="407.173" r="3.41229" transform="rotate(-4.74681 1344.19 407.173)" fill="black"/>
<circle cx="1393.71" cy="403.061" r="3.41229" transform="rotate(-4.74681 1393.71 403.061)" fill="black"/>
<circle cx="1443.23" cy="398.948" r="3.41229" transform="rotate(-4.74681 1443.23 398.948)" fill="black"/>
<circle cx="1492.75" cy="394.836" r="3.41229" transform="rotate(-4.74681 1492.75 394.836)" fill="black"/>
<circle cx="1542.28" cy="390.724" r="3.41229" transform="rotate(-4.74681 1542.28 390.724)" fill="black"/>
<circle cx="1591.8" cy="386.612" r="3.41229" transform="rotate(-4.74681 1591.8 386.612)" fill="black"/>
<circle cx="1641.32" cy="382.5" r="3.41229" transform="rotate(-4.74681 1641.32 382.5)" fill="black"/>
<circle cx="1690.84" cy="378.388" r="3.41229" transform="rotate(-4.74681 1690.84 378.388)" fill="black"/>
<circle cx="11.226" cy="567.721" r="3.41229" transform="rotate(-4.74681 11.226 567.721)" fill="black"/>
<circle cx="60.7474" cy="563.609" r="3.41229" transform="rotate(-4.74681 60.7474 563.609)" fill="black"/>
<circle cx="110.269" cy="559.497" r="3.41229" transform="rotate(-4.74681 110.269 559.497)" fill="black"/>
<circle cx="159.79" cy="555.385" r="3.41229" transform="rotate(-4.74681 159.79 555.385)" fill="black"/>
<circle cx="209.311" cy="551.273" r="3.41229" transform="rotate(-4.74681 209.311 551.273)" fill="black"/>
<circle cx="258.833" cy="547.161" r="3.41229" transform="rotate(-4.74681 258.833 547.161)" fill="black"/>
<circle cx="308.354" cy="543.049" r="3.41229" transform="rotate(-4.74681 308.354 543.049)" fill="black"/>
<circle cx="357.875" cy="538.937" r="3.41229" transform="rotate(-4.74681 357.875 538.937)" fill="black"/>
<circle cx="407.397" cy="534.825" r="3.41229" transform="rotate(-4.74681 407.397 534.825)" fill="black"/>
<circle cx="456.918" cy="530.712" r="3.41229" transform="rotate(-4.74681 456.918 530.712)" fill="black"/>
<circle cx="506.439" cy="526.6" r="3.41229" transform="rotate(-4.74681 506.439 526.6)" fill="black"/>
<circle cx="555.961" cy="522.488" r="3.41229" transform="rotate(-4.74681 555.961 522.488)" fill="black"/>
<circle cx="605.482" cy="518.376" r="3.41229" transform="rotate(-4.74681 605.482 518.376)" fill="black"/>
<circle cx="655.003" cy="514.263" r="3.41229" transform="rotate(-4.74681 655.003 514.263)" fill="black"/>
<circle cx="704.525" cy="510.152" r="3.41229" transform="rotate(-4.74681 704.525 510.152)" fill="black"/>
<circle cx="754.046" cy="506.039" r="3.41229" transform="rotate(-4.74681 754.046 506.039)" fill="black"/>
<circle cx="803.567" cy="501.927" r="3.41229" transform="rotate(-4.74681 803.567 501.927)" fill="black"/>
<circle cx="853.089" cy="497.815" r="3.41229" transform="rotate(-4.74681 853.089 497.815)" fill="black"/>
<circle cx="902.61" cy="493.703" r="3.41229" transform="rotate(-4.74681 902.61 493.703)" fill="black"/>
<circle cx="952.131" cy="489.591" r="3.41229" transform="rotate(-4.74681 952.131 489.591)" fill="black"/>
<circle cx="1001.65" cy="485.479" r="3.41229" transform="rotate(-4.74681 1001.65 485.479)" fill="black"/>
<circle cx="1051.17" cy="481.367" r="3.41229" transform="rotate(-4.74681 1051.17 481.367)" fill="black"/>
<circle cx="1100.7" cy="477.254" r="3.41229" transform="rotate(-4.74681 1100.7 477.254)" fill="black"/>
<circle cx="1150.22" cy="473.142" r="3.41229" transform="rotate(-4.74681 1150.22 473.142)" fill="black"/>
<circle cx="1199.74" cy="469.03" r="3.41229" transform="rotate(-4.74681 1199.74 469.03)" fill="black"/>
<circle cx="1249.26" cy="464.918" r="3.41229" transform="rotate(-4.74681 1249.26 464.918)" fill="black"/>
<circle cx="1298.78" cy="460.806" r="3.41229" transform="rotate(-4.74681 1298.78 460.806)" fill="black"/>
<circle cx="1348.3" cy="456.694" r="3.41229" transform="rotate(-4.74681 1348.3 456.694)" fill="black"/>
<circle cx="1397.82" cy="452.582" r="3.41229" transform="rotate(-4.74681 1397.82 452.582)" fill="black"/>
<circle cx="1447.34" cy="448.47" r="3.41229" transform="rotate(-4.74681 1447.34 448.47)" fill="black"/>
<circle cx="1496.87" cy="444.357" r="3.41229" transform="rotate(-4.74681 1496.87 444.357)" fill="black"/>
<circle cx="1546.39" cy="440.245" r="3.41229" transform="rotate(-4.74681 1546.39 440.245)" fill="black"/>
<circle cx="1595.91" cy="436.133" r="3.41229" transform="rotate(-4.74681 1595.91 436.133)" fill="black"/>
<circle cx="1645.43" cy="432.021" r="3.41229" transform="rotate(-4.74681 1645.43 432.021)" fill="black"/>
<circle cx="1694.95" cy="427.909" r="3.41229" transform="rotate(-4.74681 1694.95 427.909)" fill="black"/>
<circle cx="15.338" cy="617.243" r="3.41229" transform="rotate(-4.74681 15.338 617.243)" fill="black"/>
<circle cx="64.8594" cy="613.131" r="3.41229" transform="rotate(-4.74681 64.8594 613.131)" fill="black"/>
<circle cx="114.381" cy="609.018" r="3.41229" transform="rotate(-4.74681 114.381 609.018)" fill="black"/>
<circle cx="163.902" cy="604.906" r="3.41229" transform="rotate(-4.74681 163.902 604.906)" fill="black"/>
<circle cx="213.423" cy="600.794" r="3.41229" transform="rotate(-4.74681 213.423 600.794)" fill="black"/>
<circle cx="262.945" cy="596.682" r="3.41229" transform="rotate(-4.74681 262.945 596.682)" fill="black"/>
<circle cx="312.466" cy="592.57" r="3.41229" transform="rotate(-4.74681 312.466 592.57)" fill="black"/>
<circle cx="361.987" cy="588.458" r="3.41229" transform="rotate(-4.74681 361.987 588.458)" fill="black"/>
<circle cx="411.509" cy="584.346" r="3.41229" transform="rotate(-4.74681 411.509 584.346)" fill="black"/>
<circle cx="461.03" cy="580.233" r="3.41229" transform="rotate(-4.74681 461.03 580.233)" fill="black"/>
<circle cx="510.551" cy="576.121" r="3.41229" transform="rotate(-4.74681 510.551 576.121)" fill="black"/>
<circle cx="560.073" cy="572.009" r="3.41229" transform="rotate(-4.74681 560.073 572.009)" fill="black"/>
<circle cx="609.594" cy="567.897" r="3.41229" transform="rotate(-4.74681 609.594 567.897)" fill="black"/>
<circle cx="659.115" cy="563.785" r="3.41229" transform="rotate(-4.74681 659.115 563.785)" fill="black"/>
<circle cx="708.637" cy="559.673" r="3.41229" transform="rotate(-4.74681 708.637 559.673)" fill="black"/>
<circle cx="758.158" cy="555.561" r="3.41229" transform="rotate(-4.74681 758.158 555.561)" fill="black"/>
<circle cx="807.679" cy="551.449" r="3.41229" transform="rotate(-4.74681 807.679 551.449)" fill="black"/>
<circle cx="857.201" cy="547.336" r="3.41229" transform="rotate(-4.74681 857.201 547.336)" fill="black"/>
<circle cx="906.722" cy="543.224" r="3.41229" transform="rotate(-4.74681 906.722 543.224)" fill="black"/>
<circle cx="956.243" cy="539.112" r="3.41229" transform="rotate(-4.74681 956.243 539.112)" fill="black"/>
<circle cx="1005.76" cy="535" r="3.41229" transform="rotate(-4.74681 1005.76 535)" fill="black"/>
<circle cx="1055.29" cy="530.888" r="3.41229" transform="rotate(-4.74681 1055.29 530.888)" fill="black"/>
<circle cx="1104.81" cy="526.776" r="3.41229" transform="rotate(-4.74681 1104.81 526.776)" fill="black"/>
<circle cx="1154.33" cy="522.664" r="3.41229" transform="rotate(-4.74681 1154.33 522.664)" fill="black"/>
<circle cx="1203.85" cy="518.552" r="3.41229" transform="rotate(-4.74681 1203.85 518.552)" fill="black"/>
<circle cx="1253.37" cy="514.44" r="3.41229" transform="rotate(-4.74681 1253.37 514.44)" fill="black"/>
<circle cx="1302.89" cy="510.327" r="3.41229" transform="rotate(-4.74681 1302.89 510.327)" fill="black"/>
<circle cx="1352.41" cy="506.215" r="3.41229" transform="rotate(-4.74681 1352.41 506.215)" fill="black"/>
<circle cx="1401.94" cy="502.103" r="3.41229" transform="rotate(-4.74681 1401.94 502.103)" fill="black"/>
<circle cx="1451.46" cy="497.991" r="3.41229" transform="rotate(-4.74681 1451.46 497.991)" fill="black"/>
<circle cx="1500.98" cy="493.879" r="3.41229" transform="rotate(-4.74681 1500.98 493.879)" fill="black"/>
<circle cx="1550.5" cy="489.767" r="3.41229" transform="rotate(-4.74681 1550.5 489.767)" fill="black"/>
<circle cx="1600.02" cy="485.655" r="3.41229" transform="rotate(-4.74681 1600.02 485.655)" fill="black"/>
<circle cx="1649.54" cy="481.542" r="3.41229" transform="rotate(-4.74681 1649.54 481.542)" fill="black"/>
<circle cx="1699.06" cy="477.43" r="3.41229" transform="rotate(-4.74681 1699.06 477.43)" fill="black"/>
<circle cx="19.4501" cy="666.764" r="3.41229" transform="rotate(-4.74681 19.4501 666.764)" fill="black"/>
<circle cx="68.9715" cy="662.652" r="3.41229" transform="rotate(-4.74681 68.9715 662.652)" fill="black"/>
<circle cx="118.493" cy="658.54" r="3.41229" transform="rotate(-4.74681 118.493 658.54)" fill="black"/>
<circle cx="168.014" cy="654.428" r="3.41229" transform="rotate(-4.74681 168.014 654.428)" fill="black"/>
<circle cx="217.535" cy="650.316" r="3.41229" transform="rotate(-4.74681 217.535 650.316)" fill="black"/>
<circle cx="267.057" cy="646.203" r="3.41229" transform="rotate(-4.74681 267.057 646.203)" fill="black"/>
<circle cx="316.578" cy="642.091" r="3.41229" transform="rotate(-4.74681 316.578 642.091)" fill="black"/>
<circle cx="366.099" cy="637.979" r="3.41229" transform="rotate(-4.74681 366.099 637.979)" fill="black"/>
<circle cx="415.621" cy="633.867" r="3.41229" transform="rotate(-4.74681 415.621 633.867)" fill="black"/>
<circle cx="465.142" cy="629.755" r="3.41229" transform="rotate(-4.74681 465.142 629.755)" fill="black"/>
<circle cx="514.663" cy="625.643" r="3.41229" transform="rotate(-4.74681 514.663 625.643)" fill="black"/>
<circle cx="564.185" cy="621.531" r="3.41229" transform="rotate(-4.74681 564.185 621.531)" fill="black"/>
<circle cx="613.706" cy="617.419" r="3.41229" transform="rotate(-4.74681 613.706 617.419)" fill="black"/>
<circle cx="663.227" cy="613.306" r="3.41229" transform="rotate(-4.74681 663.227 613.306)" fill="black"/>
<circle cx="712.749" cy="609.194" r="3.41229" transform="rotate(-4.74681 712.749 609.194)" fill="black"/>
<circle cx="762.27" cy="605.082" r="3.41229" transform="rotate(-4.74681 762.27 605.082)" fill="black"/>
<circle cx="811.792" cy="600.97" r="3.41229" transform="rotate(-4.74681 811.792 600.97)" fill="black"/>
<circle cx="861.313" cy="596.858" r="3.41229" transform="rotate(-4.74681 861.313 596.858)" fill="black"/>
<circle cx="910.834" cy="592.746" r="3.41229" transform="rotate(-4.74681 910.834 592.746)" fill="black"/>
<circle cx="960.355" cy="588.634" r="3.41229" transform="rotate(-4.74681 960.355 588.634)" fill="black"/>
<circle cx="1009.88" cy="584.522" r="3.41229" transform="rotate(-4.74681 1009.88 584.522)" fill="black"/>
<circle cx="1059.4" cy="580.409" r="3.41229" transform="rotate(-4.74681 1059.4 580.409)" fill="black"/>
<circle cx="1108.92" cy="576.297" r="3.41229" transform="rotate(-4.74681 1108.92 576.297)" fill="black"/>
<circle cx="1158.44" cy="572.185" r="3.41229" transform="rotate(-4.74681 1158.44 572.185)" fill="black"/>
<circle cx="1207.96" cy="568.073" r="3.41229" transform="rotate(-4.74681 1207.96 568.073)" fill="black"/>
<circle cx="1257.48" cy="563.961" r="3.41229" transform="rotate(-4.74681 1257.48 563.961)" fill="black"/>
<circle cx="1307" cy="559.849" r="3.41229" transform="rotate(-4.74681 1307 559.849)" fill="black"/>
<circle cx="1356.53" cy="555.737" r="3.41229" transform="rotate(-4.74681 1356.53 555.737)" fill="black"/>
<circle cx="1406.05" cy="551.624" r="3.41229" transform="rotate(-4.74681 1406.05 551.624)" fill="black"/>
<circle cx="1455.57" cy="547.512" r="3.41229" transform="rotate(-4.74681 1455.57 547.512)" fill="black"/>
<circle cx="1505.09" cy="543.4" r="3.41229" transform="rotate(-4.74681 1505.09 543.4)" fill="black"/>
<circle cx="1554.61" cy="539.288" r="3.41229" transform="rotate(-4.74681 1554.61 539.288)" fill="black"/>
<circle cx="1604.13" cy="535.176" r="3.41229" transform="rotate(-4.74681 1604.13 535.176)" fill="black"/>
<circle cx="1653.65" cy="531.064" r="3.41229" transform="rotate(-4.74681 1653.65 531.064)" fill="black"/>
<circle cx="1703.18" cy="526.952" r="3.41229" transform="rotate(-4.74681 1703.18 526.952)" fill="black"/>
<circle cx="23.5622" cy="716.285" r="3.41229" transform="rotate(-4.74681 23.5622 716.285)" fill="black"/>
<circle cx="73.0837" cy="712.173" r="3.41229" transform="rotate(-4.74681 73.0837 712.173)" fill="black"/>
<circle cx="122.605" cy="708.061" r="3.41229" transform="rotate(-4.74681 122.605 708.061)" fill="black"/>
<circle cx="172.126" cy="703.949" r="3.41229" transform="rotate(-4.74681 172.126 703.949)" fill="black"/>
<circle cx="221.647" cy="699.837" r="3.41229" transform="rotate(-4.74681 221.647 699.837)" fill="black"/>
<circle cx="271.169" cy="695.725" r="3.41229" transform="rotate(-4.74681 271.169 695.725)" fill="black"/>
<circle cx="320.69" cy="691.613" r="3.41229" transform="rotate(-4.74681 320.69 691.613)" fill="black"/>
<circle cx="370.212" cy="687.501" r="3.41229" transform="rotate(-4.74681 370.212 687.501)" fill="black"/>
<circle cx="419.733" cy="683.388" r="3.41229" transform="rotate(-4.74681 419.733 683.388)" fill="black"/>
<circle cx="469.254" cy="679.276" r="3.41229" transform="rotate(-4.74681 469.254 679.276)" fill="black"/>
<circle cx="518.776" cy="675.164" r="3.41229" transform="rotate(-4.74681 518.776 675.164)" fill="black"/>
<circle cx="568.297" cy="671.052" r="3.41229" transform="rotate(-4.74681 568.297 671.052)" fill="black"/>
<circle cx="617.818" cy="666.94" r="3.41229" transform="rotate(-4.74681 617.818 666.94)" fill="black"/>
<circle cx="667.34" cy="662.828" r="3.41229" transform="rotate(-4.74681 667.34 662.828)" fill="black"/>
<circle cx="716.861" cy="658.715" r="3.41229" transform="rotate(-4.74681 716.861 658.715)" fill="black"/>
<circle cx="766.382" cy="654.603" r="3.41229" transform="rotate(-4.74681 766.382 654.603)" fill="black"/>
<circle cx="815.904" cy="650.491" r="3.41229" transform="rotate(-4.74681 815.904 650.491)" fill="black"/>
<circle cx="865.425" cy="646.379" r="3.41229" transform="rotate(-4.74681 865.425 646.379)" fill="black"/>
<circle cx="914.946" cy="642.267" r="3.41229" transform="rotate(-4.74681 914.946 642.267)" fill="black"/>
<circle cx="964.467" cy="638.155" r="3.41229" transform="rotate(-4.74681 964.467 638.155)" fill="black"/>
<circle cx="1013.99" cy="634.043" r="3.41229" transform="rotate(-4.74681 1013.99 634.043)" fill="black"/>
<circle cx="1063.51" cy="629.931" r="3.41229" transform="rotate(-4.74681 1063.51 629.931)" fill="black"/>
<circle cx="1113.03" cy="625.819" r="3.41229" transform="rotate(-4.74681 1113.03 625.819)" fill="black"/>
<circle cx="1162.55" cy="621.706" r="3.41229" transform="rotate(-4.74681 1162.55 621.706)" fill="black"/>
<circle cx="1212.07" cy="617.594" r="3.41229" transform="rotate(-4.74681 1212.07 617.594)" fill="black"/>
<circle cx="1261.6" cy="613.482" r="3.41229" transform="rotate(-4.74681 1261.6 613.482)" fill="black"/>
<circle cx="1311.12" cy="609.37" r="3.41229" transform="rotate(-4.74681 1311.12 609.37)" fill="black"/>
<circle cx="1360.64" cy="605.258" r="3.41229" transform="rotate(-4.74681 1360.64 605.258)" fill="black"/>
<circle cx="1410.16" cy="601.146" r="3.41229" transform="rotate(-4.74681 1410.16 601.146)" fill="black"/>
<circle cx="1459.68" cy="597.034" r="3.41229" transform="rotate(-4.74681 1459.68 597.034)" fill="black"/>
<circle cx="1509.2" cy="592.921" r="3.41229" transform="rotate(-4.74681 1509.2 592.921)" fill="black"/>
<circle cx="1558.72" cy="588.809" r="3.41229" transform="rotate(-4.74681 1558.72 588.809)" fill="black"/>
<circle cx="1608.24" cy="584.697" r="3.41229" transform="rotate(-4.74681 1608.24 584.697)" fill="black"/>
<circle cx="1657.77" cy="580.585" r="3.41229" transform="rotate(-4.74681 1657.77 580.585)" fill="black"/>
<circle cx="1707.29" cy="576.473" r="3.41229" transform="rotate(-4.74681 1707.29 576.473)" fill="black"/>
<circle cx="27.6745" cy="765.807" r="3.41229" transform="rotate(-4.74681 27.6745 765.807)" fill="black"/>
<circle cx="77.1958" cy="761.695" r="3.41229" transform="rotate(-4.74681 77.1958 761.695)" fill="black"/>
<circle cx="126.717" cy="757.582" r="3.41229" transform="rotate(-4.74681 126.717 757.582)" fill="black"/>
<circle cx="176.238" cy="753.47" r="3.41229" transform="rotate(-4.74681 176.238 753.47)" fill="black"/>
<circle cx="225.76" cy="749.358" r="3.41229" transform="rotate(-4.74681 225.76 749.358)" fill="black"/>
<circle cx="275.281" cy="745.246" r="3.41229" transform="rotate(-4.74681 275.281 745.246)" fill="black"/>
<circle cx="324.803" cy="741.134" r="3.41229" transform="rotate(-4.74681 324.803 741.134)" fill="black"/>
<circle cx="374.324" cy="737.022" r="3.41229" transform="rotate(-4.74681 374.324 737.022)" fill="black"/>
<circle cx="423.845" cy="732.91" r="3.41229" transform="rotate(-4.74681 423.845 732.91)" fill="black"/>
<circle cx="473.366" cy="728.797" r="3.41229" transform="rotate(-4.74681 473.366 728.797)" fill="black"/>
<circle cx="522.888" cy="724.685" r="3.41229" transform="rotate(-4.74681 522.888 724.685)" fill="black"/>
<circle cx="572.409" cy="720.573" r="3.41229" transform="rotate(-4.74681 572.409 720.573)" fill="black"/>
<circle cx="621.931" cy="716.461" r="3.41229" transform="rotate(-4.74681 621.931 716.461)" fill="black"/>
<circle cx="671.452" cy="712.349" r="3.41229" transform="rotate(-4.74681 671.452 712.349)" fill="black"/>
<circle cx="720.973" cy="708.237" r="3.41229" transform="rotate(-4.74681 720.973 708.237)" fill="black"/>
<circle cx="770.495" cy="704.125" r="3.41229" transform="rotate(-4.74681 770.495 704.125)" fill="black"/>
<circle cx="820.016" cy="700.013" r="3.41229" transform="rotate(-4.74681 820.016 700.013)" fill="black"/>
<circle cx="869.537" cy="695.9" r="3.41229" transform="rotate(-4.74681 869.537 695.9)" fill="black"/>
<circle cx="919.058" cy="691.788" r="3.41229" transform="rotate(-4.74681 919.058 691.788)" fill="black"/>
<circle cx="968.58" cy="687.676" r="3.41229" transform="rotate(-4.74681 968.58 687.676)" fill="black"/>
<circle cx="1018.1" cy="683.564" r="3.41229" transform="rotate(-4.74681 1018.1 683.564)" fill="black"/>
<circle cx="1067.62" cy="679.452" r="3.41229" transform="rotate(-4.74681 1067.62 679.452)" fill="black"/>
<circle cx="1117.14" cy="675.34" r="3.41229" transform="rotate(-4.74681 1117.14 675.34)" fill="black"/>
<circle cx="1166.67" cy="671.228" r="3.41229" transform="rotate(-4.74681 1166.67 671.228)" fill="black"/>
<circle cx="1216.19" cy="667.116" r="3.41229" transform="rotate(-4.74681 1216.19 667.116)" fill="black"/>
<circle cx="1265.71" cy="663.003" r="3.41229" transform="rotate(-4.74681 1265.71 663.003)" fill="black"/>
<circle cx="1315.23" cy="658.891" r="3.41229" transform="rotate(-4.74681 1315.23 658.891)" fill="black"/>
<circle cx="1364.75" cy="654.779" r="3.41229" transform="rotate(-4.74681 1364.75 654.779)" fill="black"/>
<circle cx="1414.27" cy="650.667" r="3.41229" transform="rotate(-4.74681 1414.27 650.667)" fill="black"/>
<circle cx="1463.79" cy="646.555" r="3.41229" transform="rotate(-4.74681 1463.79 646.555)" fill="black"/>
<circle cx="1513.31" cy="642.443" r="3.41229" transform="rotate(-4.74681 1513.31 642.443)" fill="black"/>
<circle cx="1562.84" cy="638.331" r="3.41229" transform="rotate(-4.74681 1562.84 638.331)" fill="black"/>
<circle cx="1612.36" cy="634.219" r="3.41229" transform="rotate(-4.74681 1612.36 634.219)" fill="black"/>
<circle cx="1661.88" cy="630.106" r="3.41229" transform="rotate(-4.74681 1661.88 630.106)" fill="black"/>
<circle cx="1711.4" cy="625.994" r="3.41229" transform="rotate(-4.74681 1711.4 625.994)" fill="black"/>
<circle cx="31.7865" cy="815.328" r="3.41229" transform="rotate(-4.74681 31.7865 815.328)" fill="black"/>
<circle cx="81.3079" cy="811.216" r="3.41229" transform="rotate(-4.74681 81.3079 811.216)" fill="black"/>
<circle cx="130.829" cy="807.104" r="3.41229" transform="rotate(-4.74681 130.829 807.104)" fill="black"/>
<circle cx="180.351" cy="802.992" r="3.41229" transform="rotate(-4.74681 180.351 802.992)" fill="black"/>
<circle cx="229.872" cy="798.88" r="3.41229" transform="rotate(-4.74681 229.872 798.88)" fill="black"/>
<circle cx="279.393" cy="794.767" r="3.41229" transform="rotate(-4.74681 279.393 794.767)" fill="black"/>
<circle cx="328.915" cy="790.655" r="3.41229" transform="rotate(-4.74681 328.915 790.655)" fill="black"/>
<circle cx="378.436" cy="786.543" r="3.41229" transform="rotate(-4.74681 378.436 786.543)" fill="black"/>
<circle cx="427.957" cy="782.431" r="3.41229" transform="rotate(-4.74681 427.957 782.431)" fill="black"/>
<circle cx="477.479" cy="778.319" r="3.41229" transform="rotate(-4.74681 477.479 778.319)" fill="black"/>
<circle cx="527" cy="774.207" r="3.41229" transform="rotate(-4.74681 527 774.207)" fill="black"/>
<circle cx="576.521" cy="770.095" r="3.41229" transform="rotate(-4.74681 576.521 770.095)" fill="black"/>
<circle cx="626.043" cy="765.982" r="3.41229" transform="rotate(-4.74681 626.043 765.982)" fill="black"/>
<circle cx="675.564" cy="761.87" r="3.41229" transform="rotate(-4.74681 675.564 761.87)" fill="black"/>
<circle cx="725.085" cy="757.758" r="3.41229" transform="rotate(-4.74681 725.085 757.758)" fill="black"/>
<circle cx="774.607" cy="753.646" r="3.41229" transform="rotate(-4.74681 774.607 753.646)" fill="black"/>
<circle cx="824.128" cy="749.534" r="3.41229" transform="rotate(-4.74681 824.128 749.534)" fill="black"/>
<circle cx="873.649" cy="745.422" r="3.41229" transform="rotate(-4.74681 873.649 745.422)" fill="black"/>
<circle cx="923.171" cy="741.31" r="3.41229" transform="rotate(-4.74681 923.171 741.31)" fill="black"/>
<circle cx="972.692" cy="737.198" r="3.41229" transform="rotate(-4.74681 972.692 737.198)" fill="black"/>
<circle cx="1022.21" cy="733.086" r="3.41229" transform="rotate(-4.74681 1022.21 733.086)" fill="black"/>
<circle cx="1071.73" cy="728.973" r="3.41229" transform="rotate(-4.74681 1071.73 728.973)" fill="black"/>
<circle cx="1121.26" cy="724.861" r="3.41229" transform="rotate(-4.74681 1121.26 724.861)" fill="black"/>
<circle cx="1170.78" cy="720.749" r="3.41229" transform="rotate(-4.74681 1170.78 720.749)" fill="black"/>
<circle cx="1220.3" cy="716.637" r="3.41229" transform="rotate(-4.74681 1220.3 716.637)" fill="black"/>
<circle cx="1269.82" cy="712.525" r="3.41229" transform="rotate(-4.74681 1269.82 712.525)" fill="black"/>
<circle cx="1319.34" cy="708.413" r="3.41229" transform="rotate(-4.74681 1319.34 708.413)" fill="black"/>
<circle cx="1368.86" cy="704.301" r="3.41229" transform="rotate(-4.74681 1368.86 704.301)" fill="black"/>
<circle cx="1418.38" cy="700.189" r="3.41229" transform="rotate(-4.74681 1418.38 700.189)" fill="black"/>
<circle cx="1467.91" cy="696.076" r="3.41229" transform="rotate(-4.74681 1467.91 696.076)" fill="black"/>
<circle cx="1517.43" cy="691.964" r="3.41229" transform="rotate(-4.74681 1517.43 691.964)" fill="black"/>
<circle cx="1566.95" cy="687.852" r="3.41229" transform="rotate(-4.74681 1566.95 687.852)" fill="black"/>
<circle cx="1616.47" cy="683.74" r="3.41229" transform="rotate(-4.74681 1616.47 683.74)" fill="black"/>
<circle cx="1665.99" cy="679.628" r="3.41229" transform="rotate(-4.74681 1665.99 679.628)" fill="black"/>
<circle cx="1715.51" cy="675.516" r="3.41229" transform="rotate(-4.74681 1715.51 675.516)" fill="black"/>
<circle cx="35.8987" cy="864.849" r="3.41229" transform="rotate(-4.74681 35.8987 864.849)" fill="black"/>
<circle cx="85.4201" cy="860.737" r="3.41229" transform="rotate(-4.74681 85.4201 860.737)" fill="black"/>
<circle cx="134.941" cy="856.625" r="3.41229" transform="rotate(-4.74681 134.941 856.625)" fill="black"/>
<circle cx="184.463" cy="852.513" r="3.41229" transform="rotate(-4.74681 184.463 852.513)" fill="black"/>
<circle cx="233.984" cy="848.401" r="3.41229" transform="rotate(-4.74681 233.984 848.401)" fill="black"/>
<circle cx="283.505" cy="844.289" r="3.41229" transform="rotate(-4.74681 283.505 844.289)" fill="black"/>
<circle cx="333.027" cy="840.177" r="3.41229" transform="rotate(-4.74681 333.027 840.177)" fill="black"/>
<circle cx="382.548" cy="836.065" r="3.41229" transform="rotate(-4.74681 382.548 836.065)" fill="black"/>
<circle cx="432.069" cy="831.952" r="3.41229" transform="rotate(-4.74681 432.069 831.952)" fill="black"/>
<circle cx="481.591" cy="827.84" r="3.41229" transform="rotate(-4.74681 481.591 827.84)" fill="black"/>
<circle cx="531.112" cy="823.728" r="3.41229" transform="rotate(-4.74681 531.112 823.728)" fill="black"/>
<circle cx="580.633" cy="819.616" r="3.41229" transform="rotate(-4.74681 580.633 819.616)" fill="black"/>
<circle cx="630.155" cy="815.504" r="3.41229" transform="rotate(-4.74681 630.155 815.504)" fill="black"/>
<circle cx="679.676" cy="811.392" r="3.41229" transform="rotate(-4.74681 679.676 811.392)" fill="black"/>
<circle cx="729.197" cy="807.28" r="3.41229" transform="rotate(-4.74681 729.197 807.28)" fill="black"/>
<circle cx="778.719" cy="803.167" r="3.41229" transform="rotate(-4.74681 778.719 803.167)" fill="black"/>
<circle cx="828.24" cy="799.055" r="3.41229" transform="rotate(-4.74681 828.24 799.055)" fill="black"/>
<circle cx="877.761" cy="794.943" r="3.41229" transform="rotate(-4.74681 877.761 794.943)" fill="black"/>
<circle cx="927.283" cy="790.831" r="3.41229" transform="rotate(-4.74681 927.283 790.831)" fill="black"/>
<circle cx="976.804" cy="786.719" r="3.41229" transform="rotate(-4.74681 976.804 786.719)" fill="black"/>
<circle cx="1026.33" cy="782.607" r="3.41229" transform="rotate(-4.74681 1026.33 782.607)" fill="black"/>
<circle cx="1075.85" cy="778.495" r="3.41229" transform="rotate(-4.74681 1075.85 778.495)" fill="black"/>
<circle cx="1125.37" cy="774.383" r="3.41229" transform="rotate(-4.74681 1125.37 774.383)" fill="black"/>
<circle cx="1174.89" cy="770.27" r="3.41229" transform="rotate(-4.74681 1174.89 770.27)" fill="black"/>
<circle cx="1224.41" cy="766.158" r="3.41229" transform="rotate(-4.74681 1224.41 766.158)" fill="black"/>
<circle cx="1273.93" cy="762.046" r="3.41229" transform="rotate(-4.74681 1273.93 762.046)" fill="black"/>
<circle cx="1323.45" cy="757.934" r="3.41229" transform="rotate(-4.74681 1323.45 757.934)" fill="black"/>
<circle cx="1372.97" cy="753.822" r="3.41229" transform="rotate(-4.74681 1372.97 753.822)" fill="black"/>
<circle cx="1422.5" cy="749.71" r="3.41229" transform="rotate(-4.74681 1422.5 749.71)" fill="black"/>
<circle cx="1472.02" cy="745.597" r="3.41229" transform="rotate(-4.74681 1472.02 745.597)" fill="black"/>
<circle cx="1521.54" cy="741.485" r="3.41229" transform="rotate(-4.74681 1521.54 741.485)" fill="black"/>
<circle cx="1571.06" cy="737.373" r="3.41229" transform="rotate(-4.74681 1571.06 737.373)" fill="black"/>
<circle cx="1620.58" cy="733.261" r="3.41229" transform="rotate(-4.74681 1620.58 733.261)" fill="black"/>
<circle cx="1670.1" cy="729.149" r="3.41229" transform="rotate(-4.74681 1670.1 729.149)" fill="black"/>
<circle cx="1719.62" cy="725.037" r="3.41229" transform="rotate(-4.74681 1719.62 725.037)" fill="black"/>
<circle cx="40.0109" cy="914.371" r="3.41229" transform="rotate(-4.74681 40.0109 914.371)" fill="black"/>
<circle cx="89.5323" cy="910.259" r="3.41229" transform="rotate(-4.74681 89.5323 910.259)" fill="black"/>
<circle cx="139.054" cy="906.147" r="3.41229" transform="rotate(-4.74681 139.054 906.147)" fill="black"/>
<circle cx="188.575" cy="902.034" r="3.41229" transform="rotate(-4.74681 188.575 902.034)" fill="black"/>
<circle cx="238.096" cy="897.922" r="3.41229" transform="rotate(-4.74681 238.096 897.922)" fill="black"/>
<circle cx="287.618" cy="893.81" r="3.41229" transform="rotate(-4.74681 287.618 893.81)" fill="black"/>
<circle cx="337.139" cy="889.698" r="3.41229" transform="rotate(-4.74681 337.139 889.698)" fill="black"/>
<circle cx="386.66" cy="885.586" r="3.41229" transform="rotate(-4.74681 386.66 885.586)" fill="black"/>
<circle cx="436.182" cy="881.474" r="3.41229" transform="rotate(-4.74681 436.182 881.474)" fill="black"/>
<circle cx="485.703" cy="877.362" r="3.41229" transform="rotate(-4.74681 485.703 877.362)" fill="black"/>
<circle cx="535.224" cy="873.25" r="3.41229" transform="rotate(-4.74681 535.224 873.25)" fill="black"/>
<circle cx="584.746" cy="869.138" r="3.41229" transform="rotate(-4.74681 584.746 869.138)" fill="black"/>
<circle cx="634.267" cy="865.025" r="3.41229" transform="rotate(-4.74681 634.267 865.025)" fill="black"/>
<circle cx="683.788" cy="860.913" r="3.41229" transform="rotate(-4.74681 683.788 860.913)" fill="black"/>
<circle cx="733.31" cy="856.801" r="3.41229" transform="rotate(-4.74681 733.31 856.801)" fill="black"/>
<circle cx="782.831" cy="852.689" r="3.41229" transform="rotate(-4.74681 782.831 852.689)" fill="black"/>
<circle cx="832.352" cy="848.577" r="3.41229" transform="rotate(-4.74681 832.352 848.577)" fill="black"/>
<circle cx="881.874" cy="844.465" r="3.41229" transform="rotate(-4.74681 881.874 844.465)" fill="black"/>
<circle cx="931.395" cy="840.353" r="3.41229" transform="rotate(-4.74681 931.395 840.353)" fill="black"/>
<circle cx="980.916" cy="836.24" r="3.41229" transform="rotate(-4.74681 980.916 836.24)" fill="black"/>
<circle cx="1030.44" cy="832.128" r="3.41229" transform="rotate(-4.74681 1030.44 832.128)" fill="black"/>
<circle cx="1079.96" cy="828.016" r="3.41229" transform="rotate(-4.74681 1079.96 828.016)" fill="black"/>
<circle cx="1129.48" cy="823.904" r="3.41229" transform="rotate(-4.74681 1129.48 823.904)" fill="black"/>
<circle cx="1179" cy="819.792" r="3.41229" transform="rotate(-4.74681 1179 819.792)" fill="black"/>
<circle cx="1228.52" cy="815.68" r="3.41229" transform="rotate(-4.74681 1228.52 815.68)" fill="black"/>
<circle cx="1278.04" cy="811.567" r="3.41229" transform="rotate(-4.74681 1278.04 811.567)" fill="black"/>
<circle cx="1327.57" cy="807.455" r="3.41229" transform="rotate(-4.74681 1327.57 807.455)" fill="black"/>
<circle cx="1377.09" cy="803.343" r="3.41229" transform="rotate(-4.74681 1377.09 803.343)" fill="black"/>
<circle cx="1426.61" cy="799.231" r="3.41229" transform="rotate(-4.74681 1426.61 799.231)" fill="black"/>
<circle cx="1476.13" cy="795.119" r="3.41229" transform="rotate(-4.74681 1476.13 795.119)" fill="black"/>
<circle cx="1525.65" cy="791.007" r="3.41229" transform="rotate(-4.74681 1525.65 791.007)" fill="black"/>
<circle cx="1575.17" cy="786.895" r="3.41229" transform="rotate(-4.74681 1575.17 786.895)" fill="black"/>
<circle cx="1624.69" cy="782.783" r="3.41229" transform="rotate(-4.74681 1624.69 782.783)" fill="black"/>
<circle cx="1674.21" cy="778.67" r="3.41229" transform="rotate(-4.74681 1674.21 778.67)" fill="black"/>
<circle cx="1723.74" cy="774.558" r="3.41229" transform="rotate(-4.74681 1723.74 774.558)" fill="black"/>
<circle cx="44.123" cy="963.892" r="3.41229" transform="rotate(-4.74681 44.123 963.892)" fill="black"/>
<circle cx="93.6443" cy="959.78" r="3.41229" transform="rotate(-4.74681 93.6443 959.78)" fill="black"/>
<circle cx="143.166" cy="955.668" r="3.41229" transform="rotate(-4.74681 143.166 955.668)" fill="black"/>
<circle cx="192.687" cy="951.556" r="3.41229" transform="rotate(-4.74681 192.687 951.556)" fill="black"/>
<circle cx="242.208" cy="947.444" r="3.41229" transform="rotate(-4.74681 242.208 947.444)" fill="black"/>
<circle cx="291.73" cy="943.331" r="3.41229" transform="rotate(-4.74681 291.73 943.331)" fill="black"/>
<circle cx="341.251" cy="939.219" r="3.41229" transform="rotate(-4.74681 341.251 939.219)" fill="black"/>
<circle cx="390.772" cy="935.107" r="3.41229" transform="rotate(-4.74681 390.772 935.107)" fill="black"/>
<circle cx="440.294" cy="930.995" r="3.41229" transform="rotate(-4.74681 440.294 930.995)" fill="black"/>
<circle cx="489.815" cy="926.883" r="3.41229" transform="rotate(-4.74681 489.815 926.883)" fill="black"/>
<circle cx="539.336" cy="922.771" r="3.41229" transform="rotate(-4.74681 539.336 922.771)" fill="black"/>
<circle cx="588.858" cy="918.659" r="3.41229" transform="rotate(-4.74681 588.858 918.659)" fill="black"/>
<circle cx="638.379" cy="914.546" r="3.41229" transform="rotate(-4.74681 638.379 914.546)" fill="black"/>
<circle cx="687.9" cy="910.434" r="3.41229" transform="rotate(-4.74681 687.9 910.434)" fill="black"/>
<circle cx="737.422" cy="906.322" r="3.41229" transform="rotate(-4.74681 737.422 906.322)" fill="black"/>
<circle cx="786.943" cy="902.21" r="3.41229" transform="rotate(-4.74681 786.943 902.21)" fill="black"/>
<circle cx="836.464" cy="898.098" r="3.41229" transform="rotate(-4.74681 836.464 898.098)" fill="black"/>
<circle cx="885.986" cy="893.986" r="3.41229" transform="rotate(-4.74681 885.986 893.986)" fill="black"/>
<circle cx="935.507" cy="889.874" r="3.41229" transform="rotate(-4.74681 935.507 889.874)" fill="black"/>
<circle cx="985.028" cy="885.762" r="3.41229" transform="rotate(-4.74681 985.028 885.762)" fill="black"/>
<circle cx="1034.55" cy="881.649" r="3.41229" transform="rotate(-4.74681 1034.55 881.649)" fill="black"/>
<circle cx="1084.07" cy="877.537" r="3.41229" transform="rotate(-4.74681 1084.07 877.537)" fill="black"/>
<circle cx="1133.59" cy="873.425" r="3.41229" transform="rotate(-4.74681 1133.59 873.425)" fill="black"/>
<circle cx="1183.11" cy="869.313" r="3.41229" transform="rotate(-4.74681 1183.11 869.313)" fill="black"/>
<circle cx="1232.64" cy="865.201" r="3.41229" transform="rotate(-4.74681 1232.64 865.201)" fill="black"/>
<circle cx="1282.16" cy="861.089" r="3.41229" transform="rotate(-4.74681 1282.16 861.089)" fill="black"/>
<circle cx="1331.68" cy="856.977" r="3.41229" transform="rotate(-4.74681 1331.68 856.977)" fill="black"/>
<circle cx="1381.2" cy="852.865" r="3.41229" transform="rotate(-4.74681 1381.2 852.865)" fill="black"/>
<circle cx="1430.72" cy="848.753" r="3.41229" transform="rotate(-4.74681 1430.72 848.753)" fill="black"/>
<circle cx="1480.24" cy="844.64" r="3.41229" transform="rotate(-4.74681 1480.24 844.64)" fill="black"/>
<circle cx="1529.76" cy="840.528" r="3.41229" transform="rotate(-4.74681 1529.76 840.528)" fill="black"/>
<circle cx="1579.28" cy="836.416" r="3.41229" transform="rotate(-4.74681 1579.28 836.416)" fill="black"/>
<circle cx="1628.81" cy="832.304" r="3.41229" transform="rotate(-4.74681 1628.81 832.304)" fill="black"/>
<circle cx="1678.33" cy="828.192" r="3.41229" transform="rotate(-4.74681 1678.33 828.192)" fill="black"/>
<circle cx="1727.85" cy="824.08" r="3.41229" transform="rotate(-4.74681 1727.85 824.08)" fill="black"/>
<circle cx="-1.28616" cy="1017.53" r="3.41229" transform="rotate(-4.74681 -1.28616 1017.53)" fill="black"/>
<circle cx="48.2351" cy="1013.41" r="3.41229" transform="rotate(-4.74681 48.2351 1013.41)" fill="black"/>
<circle cx="97.7565" cy="1009.3" r="3.41229" transform="rotate(-4.74681 97.7565 1009.3)" fill="black"/>
<circle cx="147.278" cy="1005.19" r="3.41229" transform="rotate(-4.74681 147.278 1005.19)" fill="black"/>
<circle cx="196.799" cy="1001.08" r="3.41229" transform="rotate(-4.74681 196.799 1001.08)" fill="black"/>
<circle cx="246.32" cy="996.965" r="3.41229" transform="rotate(-4.74681 246.32 996.965)" fill="black"/>
<circle cx="295.842" cy="992.853" r="3.41229" transform="rotate(-4.74681 295.842 992.853)" fill="black"/>
<circle cx="345.363" cy="988.741" r="3.41229" transform="rotate(-4.74681 345.363 988.741)" fill="black"/>
<circle cx="394.884" cy="984.628" r="3.41229" transform="rotate(-4.74681 394.884 984.628)" fill="black"/>
<circle cx="444.406" cy="980.516" r="3.41229" transform="rotate(-4.74681 444.406 980.516)" fill="black"/>
<circle cx="493.927" cy="976.404" r="3.41229" transform="rotate(-4.74681 493.927 976.404)" fill="black"/>
<circle cx="543.449" cy="972.292" r="3.41229" transform="rotate(-4.74681 543.449 972.292)" fill="black"/>
<circle cx="592.97" cy="968.18" r="3.41229" transform="rotate(-4.74681 592.97 968.18)" fill="black"/>
<circle cx="642.491" cy="964.068" r="3.41229" transform="rotate(-4.74681 642.491 964.068)" fill="black"/>
<circle cx="692.013" cy="959.956" r="3.41229" transform="rotate(-4.74681 692.013 959.956)" fill="black"/>
<circle cx="741.534" cy="955.844" r="3.41229" transform="rotate(-4.74681 741.534 955.844)" fill="black"/>
<circle cx="791.055" cy="951.731" r="3.41229" transform="rotate(-4.74681 791.055 951.731)" fill="black"/>
<circle cx="840.577" cy="947.619" r="3.41229" transform="rotate(-4.74681 840.577 947.619)" fill="black"/>
<circle cx="890.098" cy="943.507" r="3.41229" transform="rotate(-4.74681 890.098 943.507)" fill="black"/>
<circle cx="939.619" cy="939.395" r="3.41229" transform="rotate(-4.74681 939.619 939.395)" fill="black"/>
<circle cx="989.14" cy="935.283" r="3.41229" transform="rotate(-4.74681 989.14 935.283)" fill="black"/>
<circle cx="1038.66" cy="931.171" r="3.41229" transform="rotate(-4.74681 1038.66 931.171)" fill="black"/>
<circle cx="1088.18" cy="927.059" r="3.41229" transform="rotate(-4.74681 1088.18 927.059)" fill="black"/>
<circle cx="1137.7" cy="922.946" r="3.41229" transform="rotate(-4.74681 1137.7 922.946)" fill="black"/>
<circle cx="1187.23" cy="918.834" r="3.41229" transform="rotate(-4.74681 1187.23 918.834)" fill="black"/>
<circle cx="1236.75" cy="914.722" r="3.41229" transform="rotate(-4.74681 1236.75 914.722)" fill="black"/>
<circle cx="1286.27" cy="910.61" r="3.41229" transform="rotate(-4.74681 1286.27 910.61)" fill="black"/>
<circle cx="1335.79" cy="906.498" r="3.41229" transform="rotate(-4.74681 1335.79 906.498)" fill="black"/>
<circle cx="1385.31" cy="902.386" r="3.41229" transform="rotate(-4.74681 1385.31 902.386)" fill="black"/>
<circle cx="1434.83" cy="898.274" r="3.41229" transform="rotate(-4.74681 1434.83 898.274)" fill="black"/>
<circle cx="1484.35" cy="894.161" r="3.41229" transform="rotate(-4.74681 1484.35 894.161)" fill="black"/>
<circle cx="1533.88" cy="890.049" r="3.41229" transform="rotate(-4.74681 1533.88 890.049)" fill="black"/>
<circle cx="1583.4" cy="885.937" r="3.41229" transform="rotate(-4.74681 1583.4 885.937)" fill="black"/>
<circle cx="1632.92" cy="881.825" r="3.41229" transform="rotate(-4.74681 1632.92 881.825)" fill="black"/>
<circle cx="1682.44" cy="877.713" r="3.41229" transform="rotate(-4.74681 1682.44 877.713)" fill="black"/>
<circle cx="2.82596" cy="1067.05" r="3.41229" transform="rotate(-4.74681 2.82596 1067.05)" fill="black"/>
<circle cx="52.3473" cy="1062.93" r="3.41229" transform="rotate(-4.74681 52.3473 1062.93)" fill="black"/>
<circle cx="101.869" cy="1058.82" r="3.41229" transform="rotate(-4.74681 101.869 1058.82)" fill="black"/>
<circle cx="151.39" cy="1054.71" r="3.41229" transform="rotate(-4.74681 151.39 1054.71)" fill="black"/>
<circle cx="200.911" cy="1050.6" r="3.41229" transform="rotate(-4.74681 200.911 1050.6)" fill="black"/>
<circle cx="250.433" cy="1046.49" r="3.41229" transform="rotate(-4.74681 250.433 1046.49)" fill="black"/>
<circle cx="299.954" cy="1042.37" r="3.41229" transform="rotate(-4.74681 299.954 1042.37)" fill="black"/>
<circle cx="349.475" cy="1038.26" r="3.41229" transform="rotate(-4.74681 349.475 1038.26)" fill="black"/>
<circle cx="398.997" cy="1034.15" r="3.41229" transform="rotate(-4.74681 398.997 1034.15)" fill="black"/>
<circle cx="448.518" cy="1030.04" r="3.41229" transform="rotate(-4.74681 448.518 1030.04)" fill="black"/>
<circle cx="498.039" cy="1025.93" r="3.41229" transform="rotate(-4.74681 498.039 1025.93)" fill="black"/>
<circle cx="547.561" cy="1021.81" r="3.41229" transform="rotate(-4.74681 547.561 1021.81)" fill="black"/>
<circle cx="597.082" cy="1017.7" r="3.41229" transform="rotate(-4.74681 597.082 1017.7)" fill="black"/>
<circle cx="646.603" cy="1013.59" r="3.41229" transform="rotate(-4.74681 646.603 1013.59)" fill="black"/>
<circle cx="696.125" cy="1009.48" r="3.41229" transform="rotate(-4.74681 696.125 1009.48)" fill="black"/>
<circle cx="745.646" cy="1005.36" r="3.41229" transform="rotate(-4.74681 745.646 1005.36)" fill="black"/>
<circle cx="795.167" cy="1001.25" r="3.41229" transform="rotate(-4.74681 795.167 1001.25)" fill="black"/>
<circle cx="844.689" cy="997.14" r="3.41229" transform="rotate(-4.74681 844.689 997.14)" fill="black"/>
<circle cx="894.21" cy="993.028" r="3.41229" transform="rotate(-4.74681 894.21 993.028)" fill="black"/>
<circle cx="943.731" cy="988.916" r="3.41229" transform="rotate(-4.74681 943.731 988.916)" fill="black"/>
<circle cx="993.253" cy="984.804" r="3.41229" transform="rotate(-4.74681 993.253 984.804)" fill="black"/>
<circle cx="1042.77" cy="980.692" r="3.41229" transform="rotate(-4.74681 1042.77 980.692)" fill="black"/>
<circle cx="1092.3" cy="976.58" r="3.41229" transform="rotate(-4.74681 1092.3 976.58)" fill="black"/>
<circle cx="1141.82" cy="972.468" r="3.41229" transform="rotate(-4.74681 1141.82 972.468)" fill="black"/>
<circle cx="1191.34" cy="968.356" r="3.41229" transform="rotate(-4.74681 1191.34 968.356)" fill="black"/>
<circle cx="1240.86" cy="964.243" r="3.41229" transform="rotate(-4.74681 1240.86 964.243)" fill="black"/>
<circle cx="1290.38" cy="960.131" r="3.41229" transform="rotate(-4.74681 1290.38 960.131)" fill="black"/>
<circle cx="1339.9" cy="956.019" r="3.41229" transform="rotate(-4.74681 1339.9 956.019)" fill="black"/>
<circle cx="1389.42" cy="951.907" r="3.41229" transform="rotate(-4.74681 1389.42 951.907)" fill="black"/>
<circle cx="1438.94" cy="947.795" r="3.41229" transform="rotate(-4.74681 1438.94 947.795)" fill="black"/>
<circle cx="1488.47" cy="943.683" r="3.41229" transform="rotate(-4.74681 1488.47 943.683)" fill="black"/>
<circle cx="1537.99" cy="939.571" r="3.41229" transform="rotate(-4.74681 1537.99 939.571)" fill="black"/>
<circle cx="1587.51" cy="935.459" r="3.41229" transform="rotate(-4.74681 1587.51 935.459)" fill="black"/>
<circle cx="1637.03" cy="931.346" r="3.41229" transform="rotate(-4.74681 1637.03 931.346)" fill="black"/>
<circle cx="1686.55" cy="927.234" r="3.41229" transform="rotate(-4.74681 1686.55 927.234)" fill="black"/>
<circle cx="6.93809" cy="1116.57" r="3.41229" transform="rotate(-4.74681 6.93809 1116.57)" fill="black"/>
<circle cx="56.4594" cy="1112.46" r="3.41229" transform="rotate(-4.74681 56.4594 1112.46)" fill="black"/>
<circle cx="105.981" cy="1108.34" r="3.41229" transform="rotate(-4.74681 105.981 1108.34)" fill="black"/>
<circle cx="155.502" cy="1104.23" r="3.41229" transform="rotate(-4.74681 155.502 1104.23)" fill="black"/>
<circle cx="205.023" cy="1100.12" r="3.41229" transform="rotate(-4.74681 205.023 1100.12)" fill="black"/>
<circle cx="254.545" cy="1096.01" r="3.41229" transform="rotate(-4.74681 254.545 1096.01)" fill="black"/>
<circle cx="304.066" cy="1091.9" r="3.41229" transform="rotate(-4.74681 304.066 1091.9)" fill="black"/>
<circle cx="353.587" cy="1087.78" r="3.41229" transform="rotate(-4.74681 353.587 1087.78)" fill="black"/>
<circle cx="403.109" cy="1083.67" r="3.41229" transform="rotate(-4.74681 403.109 1083.67)" fill="black"/>
<circle cx="452.63" cy="1079.56" r="3.41229" transform="rotate(-4.74681 452.63 1079.56)" fill="black"/>
<circle cx="502.151" cy="1075.45" r="3.41229" transform="rotate(-4.74681 502.151 1075.45)" fill="black"/>
<circle cx="551.673" cy="1071.33" r="3.41229" transform="rotate(-4.74681 551.673 1071.33)" fill="black"/>
<circle cx="601.194" cy="1067.22" r="3.41229" transform="rotate(-4.74681 601.194 1067.22)" fill="black"/>
<circle cx="650.715" cy="1063.11" r="3.41229" transform="rotate(-4.74681 650.715 1063.11)" fill="black"/>
<circle cx="700.237" cy="1059" r="3.41229" transform="rotate(-4.74681 700.237 1059)" fill="black"/>
<circle cx="749.758" cy="1054.89" r="3.41229" transform="rotate(-4.74681 749.758 1054.89)" fill="black"/>
<circle cx="799.279" cy="1050.77" r="3.41229" transform="rotate(-4.74681 799.279 1050.77)" fill="black"/>
<circle cx="848.801" cy="1046.66" r="3.41229" transform="rotate(-4.74681 848.801 1046.66)" fill="black"/>
<circle cx="898.322" cy="1042.55" r="3.41229" transform="rotate(-4.74681 898.322 1042.55)" fill="black"/>
<circle cx="947.843" cy="1038.44" r="3.41229" transform="rotate(-4.74681 947.843 1038.44)" fill="black"/>
<circle cx="997.365" cy="1034.33" r="3.41229" transform="rotate(-4.74681 997.365 1034.33)" fill="black"/>
<circle cx="1046.89" cy="1030.21" r="3.41229" transform="rotate(-4.74681 1046.89 1030.21)" fill="black"/>
<circle cx="1096.41" cy="1026.1" r="3.41229" transform="rotate(-4.74681 1096.41 1026.1)" fill="black"/>
<circle cx="1145.93" cy="1021.99" r="3.41229" transform="rotate(-4.74681 1145.93 1021.99)" fill="black"/>
<circle cx="1195.45" cy="1017.88" r="3.41229" transform="rotate(-4.74681 1195.45 1017.88)" fill="black"/>
<circle cx="1244.97" cy="1013.76" r="3.41229" transform="rotate(-4.74681 1244.97 1013.76)" fill="black"/>
<circle cx="1294.49" cy="1009.65" r="3.41229" transform="rotate(-4.74681 1294.49 1009.65)" fill="black"/>
<circle cx="1344.01" cy="1005.54" r="3.41229" transform="rotate(-4.74681 1344.01 1005.54)" fill="black"/>
<circle cx="1393.54" cy="1001.43" r="3.41229" transform="rotate(-4.74681 1393.54 1001.43)" fill="black"/>
<circle cx="1443.06" cy="997.316" r="3.41229" transform="rotate(-4.74681 1443.06 997.316)" fill="black"/>
<circle cx="1492.58" cy="993.204" r="3.41229" transform="rotate(-4.74681 1492.58 993.204)" fill="black"/>
<circle cx="1542.1" cy="989.092" r="3.41229" transform="rotate(-4.74681 1542.1 989.092)" fill="black"/>
<circle cx="1591.62" cy="984.98" r="3.41229" transform="rotate(-4.74681 1591.62 984.98)" fill="black"/>
<circle cx="1641.14" cy="980.868" r="3.41229" transform="rotate(-4.74681 1641.14 980.868)" fill="black"/>
<circle cx="1690.66" cy="976.756" r="3.41229" transform="rotate(-4.74681 1690.66 976.756)" fill="black"/>
<circle cx="605.306" cy="1116.74" r="3.41229" transform="rotate(-4.74681 605.306 1116.74)" fill="black"/>
<circle cx="654.828" cy="1112.63" r="3.41229" transform="rotate(-4.74681 654.828 1112.63)" fill="black"/>
<circle cx="704.349" cy="1108.52" r="3.41229" transform="rotate(-4.74681 704.349 1108.52)" fill="black"/>
<circle cx="753.87" cy="1104.41" r="3.41229" transform="rotate(-4.74681 753.87 1104.41)" fill="black"/>
<circle cx="803.392" cy="1100.3" r="3.41229" transform="rotate(-4.74681 803.392 1100.3)" fill="black"/>
<circle cx="852.913" cy="1096.18" r="3.41229" transform="rotate(-4.74681 852.913 1096.18)" fill="black"/>
<circle cx="902.434" cy="1092.07" r="3.41229" transform="rotate(-4.74681 902.434 1092.07)" fill="black"/>
<circle cx="951.956" cy="1087.96" r="3.41229" transform="rotate(-4.74681 951.956 1087.96)" fill="black"/>
<circle cx="1001.48" cy="1083.85" r="3.41229" transform="rotate(-4.74681 1001.48 1083.85)" fill="black"/>
<circle cx="1051" cy="1079.73" r="3.41229" transform="rotate(-4.74681 1051 1079.73)" fill="black"/>
<circle cx="1100.52" cy="1075.62" r="3.41229" transform="rotate(-4.74681 1100.52 1075.62)" fill="black"/>
<circle cx="1150.04" cy="1071.51" r="3.41229" transform="rotate(-4.74681 1150.04 1071.51)" fill="black"/>
<circle cx="1199.56" cy="1067.4" r="3.41229" transform="rotate(-4.74681 1199.56 1067.4)" fill="black"/>
<circle cx="1249.08" cy="1063.29" r="3.41229" transform="rotate(-4.74681 1249.08 1063.29)" fill="black"/>
<circle cx="1298.6" cy="1059.17" r="3.41229" transform="rotate(-4.74681 1298.6 1059.17)" fill="black"/>
<circle cx="1348.13" cy="1055.06" r="3.41229" transform="rotate(-4.74681 1348.13 1055.06)" fill="black"/>
<circle cx="1397.65" cy="1050.95" r="3.41229" transform="rotate(-4.74681 1397.65 1050.95)" fill="black"/>
<circle cx="1447.17" cy="1046.84" r="3.41229" transform="rotate(-4.74681 1447.17 1046.84)" fill="black"/>
<circle cx="1496.69" cy="1042.73" r="3.41229" transform="rotate(-4.74681 1496.69 1042.73)" fill="black"/>
<circle cx="1546.21" cy="1038.61" r="3.41229" transform="rotate(-4.74681 1546.21 1038.61)" fill="black"/>
<circle cx="1595.73" cy="1034.5" r="3.41229" transform="rotate(-4.74681 1595.73 1034.5)" fill="black"/>
<circle cx="1645.25" cy="1030.39" r="3.41229" transform="rotate(-4.74681 1645.25 1030.39)" fill="black"/>
<circle cx="1694.78" cy="1026.28" r="3.41229" transform="rotate(-4.74681 1694.78 1026.28)" fill="black"/>
<circle cx="1203.67" cy="1116.92" r="3.41229" transform="rotate(-4.74681 1203.67 1116.92)" fill="black"/>
<circle cx="1253.2" cy="1112.81" r="3.41229" transform="rotate(-4.74681 1253.2 1112.81)" fill="black"/>
<circle cx="1302.72" cy="1108.7" r="3.41229" transform="rotate(-4.74681 1302.72 1108.7)" fill="black"/>
<circle cx="1352.24" cy="1104.58" r="3.41229" transform="rotate(-4.74681 1352.24 1104.58)" fill="black"/>
<circle cx="1401.76" cy="1100.47" r="3.41229" transform="rotate(-4.74681 1401.76 1100.47)" fill="black"/>
<circle cx="1451.28" cy="1096.36" r="3.41229" transform="rotate(-4.74681 1451.28 1096.36)" fill="black"/>
<circle cx="1500.8" cy="1092.25" r="3.41229" transform="rotate(-4.74681 1500.8 1092.25)" fill="black"/>
<circle cx="1550.32" cy="1088.13" r="3.41229" transform="rotate(-4.74681 1550.32 1088.13)" fill="black"/>
<circle cx="1599.84" cy="1084.02" r="3.41229" transform="rotate(-4.74681 1599.84 1084.02)" fill="black"/>
<circle cx="1649.37" cy="1079.91" r="3.41229" transform="rotate(-4.74681 1649.37 1079.91)" fill="black"/>
<circle cx="1698.89" cy="1075.8" r="3.41229" transform="rotate(-4.74681 1698.89 1075.8)" fill="black"/>
</g>
</svg>
