<svg width="72" height="73" viewBox="0 0 72 73" fill="none" xmlns="http://www.w3.org/2000/svg">
<rect x="0.000488281" y="0.54834" width="72" height="72" rx="36" fill="#5865F2"/>
<path d="M53.466 20.031C50.2537 18.5116 46.809 17.3922 43.2073 16.751C43.1417 16.7387 43.0762 16.7696 43.0424 16.8314C42.5994 17.6437 42.1086 18.7033 41.765 19.5362C37.8911 18.9383 34.0372 18.9383 30.2428 19.5362C29.8991 18.6848 29.3905 17.6437 28.9455 16.8314C28.9117 16.7716 28.8462 16.7407 28.7806 16.751C25.1809 17.3901 21.7362 18.5095 18.5219 20.031C18.494 20.0433 18.4702 20.064 18.4543 20.0907C11.9204 30.1532 10.1305 39.9683 11.0086 49.6617C11.0125 49.7091 11.0384 49.7545 11.0741 49.7833C15.385 53.0468 19.5609 55.0279 23.6592 56.3411C23.7248 56.3618 23.7943 56.337 23.836 56.2813C24.8055 54.9166 25.6696 53.4777 26.4106 51.9644C26.4543 51.8758 26.4126 51.7707 26.3232 51.7356C24.9525 51.1996 23.6473 50.5461 22.3917 49.804C22.2924 49.7442 22.2845 49.5978 22.3758 49.5277C22.64 49.3236 22.9043 49.1112 23.1566 48.8968C23.2022 48.8577 23.2658 48.8494 23.3195 48.8742C31.5678 52.7561 40.4975 52.7561 48.6485 48.8742C48.7022 48.8474 48.7658 48.8556 48.8134 48.8948C49.0658 49.1092 49.33 49.3236 49.5962 49.5277C49.6875 49.5978 49.6816 49.7442 49.5822 49.804C48.3267 50.5605 47.0215 51.1996 45.6488 51.7336C45.5594 51.7686 45.5196 51.8758 45.5634 51.9644C46.3202 53.4756 47.1844 54.9145 48.136 56.2793C48.1757 56.337 48.2472 56.3618 48.3128 56.3411C52.431 55.0279 56.6068 53.0468 60.9177 49.7833C60.9555 49.7545 60.9793 49.7112 60.9833 49.6638C62.0342 38.4571 59.2231 28.7225 53.5315 20.0928C53.5176 20.064 53.4939 20.0433 53.466 20.031ZM27.6423 43.7594C25.159 43.7594 23.1129 41.4093 23.1129 38.5231C23.1129 35.6369 25.1194 33.2868 27.6423 33.2868C30.1851 33.2868 32.2115 35.6575 32.1717 38.5231C32.1717 41.4093 30.1653 43.7594 27.6423 43.7594ZM44.3893 43.7594C41.906 43.7594 39.8599 41.4093 39.8599 38.5231C39.8599 35.6369 41.8663 33.2868 44.3893 33.2868C46.9321 33.2868 48.9584 35.6575 48.9187 38.5231C48.9187 41.4093 46.9321 43.7594 44.3893 43.7594Z" fill="white"/>
</svg>
