<svg width="705" height="647" viewBox="0 0 705 647" fill="none" xmlns="http://www.w3.org/2000/svg">
<path d="M642.788 418.457C643.069 417.452 644.554 417.68 644.521 418.723L643.642 446.74C643.63 447.125 643.869 447.474 644.233 447.601L666.793 455.496C667.717 455.82 667.508 457.181 666.53 457.213L642.641 457.986C642.256 457.999 641.923 458.259 641.819 458.631L634.263 485.624C633.982 486.629 632.497 486.401 632.53 485.359L633.409 457.341C633.421 456.956 633.182 456.607 632.818 456.48L610.258 448.585C609.334 448.262 609.543 446.9 610.521 446.869L634.41 446.095C634.795 446.083 635.128 445.822 635.232 445.451L642.788 418.457Z" fill="black"/>
<g filter="url(#filter0_d_2753_27708)">
<circle cx="532.828" cy="133.422" r="47.9064" fill="#AAAAAA"/>
<circle cx="532.828" cy="133.422" r="46.5756" stroke="black" stroke-width="2.66147"/>
</g>
<g filter="url(#filter1_d_2753_27708)">
<rect x="159.183" y="87.9971" width="330.022" height="528.673" rx="10.6459" transform="rotate(-9.24098 159.183 87.9971)" fill="#F7F0FF" shape-rendering="crispEdges"/>
<rect x="197.362" y="115.491" width="263.485" height="263.485" rx="9.31513" transform="rotate(-9.24098 197.362 115.491)" fill="white"/>
<g filter="url(#filter2_b_2753_27708)">
<rect x="211.106" y="125.39" width="54.2917" height="26.6459" rx="10.6459" transform="rotate(-9.24098 211.106 125.39)" fill="white" fill-opacity="0.5"/>
<path d="M223.747 133.808L223.471 132.114L226.637 131.599L228.195 141.174L226.303 141.482L225.021 133.601L223.747 133.808ZM236.601 139.927C235.901 140.041 235.246 139.991 234.635 139.775C234.024 139.551 233.509 139.181 233.093 138.665C232.685 138.147 232.421 137.516 232.299 136.771C232.178 136.027 232.234 135.344 232.465 134.722C232.705 134.099 233.085 133.588 233.604 133.189C234.122 132.781 234.731 132.52 235.432 132.406C236.132 132.292 236.793 132.346 237.413 132.569C238.032 132.783 238.55 133.148 238.967 133.664C239.392 134.179 239.665 134.809 239.786 135.553C239.907 136.298 239.843 136.982 239.595 137.607C239.354 138.23 238.971 138.746 238.444 139.156C237.925 139.555 237.311 139.812 236.601 139.927ZM236.341 138.325C236.674 138.271 236.972 138.142 237.235 137.937C237.506 137.722 237.702 137.438 237.824 137.086C237.947 136.733 237.97 136.325 237.895 135.861C237.782 135.169 237.512 134.67 237.085 134.362C236.664 134.043 236.191 133.927 235.666 134.013C235.141 134.098 234.729 134.358 234.431 134.793C234.141 135.218 234.052 135.776 234.165 136.468C234.277 137.16 234.535 137.666 234.938 137.987C235.348 138.298 235.815 138.411 236.341 138.325ZM244.125 132.663L242.851 132.871L243.789 138.637L241.924 138.94L240.986 133.174L240.158 133.309L239.913 131.798L240.74 131.664L240.68 131.296C240.535 130.403 240.682 129.705 241.122 129.202C241.561 128.699 242.295 128.377 243.324 128.237L243.576 129.787C243.128 129.85 242.829 129.975 242.68 130.162C242.53 130.348 242.489 130.646 242.556 131.058L242.605 131.36L243.879 131.153L244.125 132.663ZM252.97 129.768C252.823 129.415 252.625 129.164 252.376 129.015C252.136 128.866 251.815 128.824 251.412 128.889C250.808 128.987 250.401 129.305 250.192 129.843C249.99 130.37 249.974 131.181 250.143 132.277C250.296 131.893 250.558 131.572 250.93 131.314C251.3 131.047 251.721 130.875 252.194 130.798C252.763 130.705 253.287 130.746 253.764 130.92C254.242 131.094 254.642 131.397 254.964 131.83C255.285 132.254 255.499 132.795 255.606 133.451C255.707 134.073 255.67 134.65 255.496 135.182C255.329 135.703 255.027 136.139 254.59 136.488C254.152 136.838 253.601 137.067 252.935 137.176C252.025 137.324 251.274 137.239 250.683 136.922C250.101 136.603 249.646 136.102 249.319 135.418C248.999 134.724 248.753 133.847 248.581 132.788C248.32 131.185 248.4 129.932 248.819 129.028C249.237 128.115 250.041 127.562 251.232 127.368C252.151 127.218 252.905 127.352 253.494 127.768C254.084 128.185 254.478 128.759 254.678 129.49L252.97 129.768ZM252.02 132.377C251.556 132.452 251.188 132.651 250.917 132.974C250.646 133.297 250.552 133.716 250.636 134.233C250.72 134.75 250.931 135.133 251.269 135.384C251.615 135.633 252.055 135.714 252.589 135.628C253.062 135.551 253.41 135.346 253.635 135.012C253.868 134.678 253.945 134.265 253.865 133.775C253.782 133.267 253.581 132.887 253.261 132.633C252.95 132.378 252.536 132.293 252.02 132.377Z" fill="black" fill-opacity="0.8"/>
</g>
<rect x="197.362" y="115.491" width="263.485" height="263.485" rx="9.31513" transform="rotate(-9.24098 197.362 115.491)" stroke="black" stroke-width="2.66147"/>
<rect x="241.994" y="398.099" width="46.9482" height="46.9482" rx="6.65366" transform="rotate(-9.24098 241.994 398.099)" fill="#F5F5F5"/>
<rect x="243.521" y="399.199" width="44.2868" height="44.2868" rx="5.32293" transform="rotate(-9.24098 243.521 399.199)" stroke="black" stroke-opacity="0.1" stroke-width="2.66147"/>
<path d="M268.343 418.515L265.861 418.919L266.275 421.467L264.542 421.749L264.127 419.201L261.644 419.605L261.384 418.002L263.866 417.598L263.452 415.05L265.185 414.768L265.6 417.316L268.082 416.912L268.343 418.515ZM269.098 415.129C268.999 414.246 269.196 413.522 269.688 412.957C270.188 412.381 270.906 412.017 271.843 411.865C272.482 411.761 273.048 411.786 273.54 411.939C274.031 412.084 274.422 412.33 274.712 412.679C275.01 413.017 275.198 413.427 275.276 413.908C275.366 414.46 275.298 414.952 275.072 415.384C274.853 415.806 274.557 416.115 274.184 416.31L274.193 416.363C274.726 416.438 275.166 416.654 275.512 417.011C275.866 417.367 276.095 417.86 276.197 418.491C276.283 419.016 276.236 419.504 276.058 419.956C275.889 420.406 275.587 420.788 275.152 421.101C274.725 421.404 274.183 421.609 273.527 421.716C272.537 421.877 271.691 421.758 270.988 421.361C270.285 420.963 269.837 420.28 269.644 419.314L271.43 419.024C271.518 419.45 271.718 419.772 272.032 419.991C272.354 420.199 272.756 420.264 273.237 420.186C273.684 420.113 274.005 419.935 274.202 419.651C274.406 419.357 274.476 419.013 274.411 418.619C274.326 418.094 274.098 417.745 273.729 417.571C273.359 417.397 272.824 417.368 272.123 417.482L271.742 417.544L271.496 416.033L271.877 415.971C273.121 415.769 273.675 415.252 273.539 414.42C273.478 414.043 273.317 413.769 273.055 413.596C272.802 413.421 272.465 413.368 272.045 413.436C271.633 413.503 271.332 413.669 271.141 413.934C270.958 414.188 270.877 414.489 270.897 414.836L269.098 415.129Z" fill="black"/>
<path opacity="0.8" d="M261.12 473.753C260.041 473.929 259.046 473.911 258.134 473.7C257.222 473.489 256.452 473.082 255.822 472.48C255.206 471.875 254.805 471.092 254.62 470.13L258.444 469.508C258.589 470.045 258.847 470.434 259.217 470.676C259.585 470.904 260.028 470.976 260.546 470.891C261.079 470.805 261.48 470.617 261.749 470.329C262.016 470.027 262.114 469.658 262.044 469.224C261.985 468.86 261.809 468.579 261.518 468.382C261.242 468.182 260.908 468.035 260.519 467.94C260.144 467.843 259.611 467.75 258.921 467.661C257.92 467.522 257.095 467.354 256.444 467.158C255.794 466.962 255.205 466.612 254.677 466.108C254.149 465.604 253.81 464.89 253.66 463.966C253.436 462.593 253.759 461.44 254.629 460.507C255.496 459.561 256.728 458.958 258.325 458.698C259.95 458.434 261.324 458.613 262.446 459.235C263.567 459.844 264.274 460.836 264.57 462.212L260.682 462.845C260.577 462.373 260.341 462.03 259.976 461.816C259.608 461.588 259.172 461.516 258.667 461.598C258.233 461.668 257.902 461.844 257.675 462.126C257.445 462.393 257.366 462.744 257.436 463.179C257.514 463.655 257.798 463.99 258.29 464.183C258.782 464.376 259.529 464.549 260.532 464.703C261.537 464.87 262.357 465.053 262.994 465.251C263.644 465.447 264.232 465.79 264.757 466.28C265.283 466.77 265.617 467.456 265.761 468.339C265.898 469.179 265.805 469.978 265.482 470.735C265.174 471.49 264.646 472.137 263.9 472.675C263.153 473.214 262.227 473.573 261.12 473.753ZM274.053 471.671C272.904 471.858 271.827 471.781 270.823 471.441C269.832 471.099 268.997 470.516 268.316 469.692C267.65 468.866 267.217 467.843 267.019 466.624C266.823 465.419 266.917 464.318 267.301 463.321C267.683 462.31 268.296 461.483 269.141 460.843C269.986 460.202 270.983 459.788 272.132 459.601C273.281 459.414 274.357 459.491 275.362 459.831C276.366 460.171 277.21 460.76 277.893 461.598C278.573 462.422 279.012 463.436 279.208 464.641C279.404 465.846 279.304 466.955 278.908 467.969C278.524 468.966 277.902 469.786 277.043 470.429C276.198 471.07 275.201 471.484 274.053 471.671ZM273.546 468.561C274.233 468.449 274.773 468.102 275.168 467.52C275.576 466.936 275.704 466.175 275.551 465.236C275.398 464.297 275.043 463.614 274.484 463.188C273.94 462.758 273.324 462.6 272.638 462.711C271.937 462.825 271.397 463.172 271.017 463.752C270.634 464.317 270.52 465.076 270.675 466.029C270.828 466.968 271.17 467.653 271.7 468.084C272.245 468.513 272.86 468.672 273.546 468.561ZM295.103 455.907C296.56 455.67 297.787 455.923 298.786 456.667C299.798 457.408 300.432 458.563 300.687 460.132L301.802 466.983L298.229 467.565L297.193 461.197C297.07 460.441 296.772 459.892 296.3 459.552C295.839 459.195 295.258 459.074 294.558 459.188C293.857 459.302 293.338 459.602 293 460.089C292.674 460.559 292.573 461.172 292.696 461.929L293.732 468.296L290.159 468.878L289.123 462.51C289 461.753 288.702 461.205 288.23 460.865C287.769 460.508 287.189 460.387 286.488 460.501C285.788 460.615 285.268 460.915 284.93 461.402C284.604 461.872 284.503 462.485 284.626 463.242L285.662 469.609L282.068 470.194L280.16 458.467L283.754 457.883L283.993 459.354C284.278 458.804 284.691 458.341 285.234 457.966C285.775 457.576 286.416 457.32 287.159 457.199C288.042 457.056 288.857 457.117 289.605 457.384C290.367 457.648 291.001 458.099 291.507 458.735C291.809 458.025 292.277 457.409 292.911 456.889C293.546 456.369 294.276 456.041 295.103 455.907ZM314.384 458.724C314.439 459.06 314.475 459.414 314.492 459.785L306.359 461.108C306.534 461.827 306.856 462.35 307.326 462.676C307.808 462.986 308.35 463.092 308.953 462.994C309.849 462.848 310.411 462.369 310.638 461.555L314.463 460.933C314.392 461.735 314.148 462.487 313.73 463.188C313.326 463.886 312.767 464.473 312.053 464.949C311.34 465.424 310.507 465.74 309.554 465.895C308.405 466.082 307.343 466.003 306.366 465.658C305.39 465.314 304.575 464.727 303.923 463.899C303.27 463.07 302.845 462.046 302.646 460.828C302.448 459.609 302.52 458.504 302.862 457.514C303.218 456.521 303.805 455.706 304.622 455.07C305.439 454.434 306.429 454.021 307.591 453.832C308.726 453.647 309.774 453.721 310.734 454.054C311.694 454.387 312.491 454.955 313.125 455.757C313.773 456.558 314.193 457.547 314.384 458.724ZM310.553 458.376C310.452 457.76 310.162 457.304 309.683 457.008C309.203 456.712 308.648 456.615 308.018 456.718C307.415 456.816 306.933 457.074 306.569 457.493C306.22 457.909 306.049 458.448 306.055 459.108L310.553 458.376ZM323.305 460.357L323.801 463.404L321.972 463.702C320.669 463.914 319.602 463.764 318.771 463.252C317.938 462.726 317.404 461.741 317.169 460.298L316.41 455.633L314.981 455.865L314.495 452.881L315.924 452.649L315.459 449.791L319.053 449.206L319.518 452.064L321.872 451.681L322.357 454.665L320.003 455.048L320.769 459.756C320.826 460.106 320.951 460.344 321.145 460.471C321.338 460.598 321.631 460.629 322.023 460.566L323.305 460.357ZM331.082 450.053C332.427 449.834 333.579 450.107 334.537 450.872C335.494 451.622 336.098 452.775 336.351 454.33L337.466 461.181L333.893 461.762L332.857 455.395C332.73 454.61 332.427 454.034 331.95 453.665C331.473 453.297 330.892 453.169 330.205 453.281C329.519 453.392 329.008 453.698 328.672 454.199C328.336 454.699 328.232 455.342 328.36 456.126L329.396 462.494L325.802 463.079L323.272 447.527L326.866 446.943L327.744 452.343C328.024 451.766 328.455 451.272 329.035 450.861C329.615 450.45 330.298 450.181 331.082 450.053ZM339.664 447.535C339.034 447.638 338.486 447.54 338.02 447.242C337.566 446.927 337.295 446.497 337.206 445.95C337.115 445.39 337.236 444.896 337.569 444.468C337.914 444.023 338.401 443.75 339.032 443.647C339.648 443.547 340.183 443.654 340.637 443.969C341.103 444.267 341.381 444.696 341.472 445.256C341.561 445.803 341.433 446.298 341.088 446.743C340.755 447.171 340.281 447.435 339.664 447.535ZM341.649 448.463L343.557 460.19L339.963 460.775L338.055 449.048L341.649 448.463ZM351.378 446.751C352.751 446.528 353.917 446.798 354.875 447.563C355.845 448.311 356.457 449.462 356.71 451.018L357.825 457.869L354.252 458.45L353.216 452.082C353.088 451.298 352.786 450.721 352.309 450.353C351.832 449.985 351.25 449.857 350.564 449.968C349.877 450.08 349.366 450.386 349.031 450.886C348.695 451.387 348.591 452.029 348.719 452.814L349.755 459.182L346.161 459.766L344.253 448.04L347.847 447.455L348.1 449.01C348.38 448.432 348.804 447.946 349.372 447.552C349.939 447.143 350.607 446.876 351.378 446.751ZM362.842 444.843C363.668 444.708 364.417 444.759 365.088 444.995C365.774 445.229 366.329 445.591 366.754 446.083L366.484 444.423L370.077 443.838L371.982 455.544C372.157 456.622 372.099 457.631 371.806 458.571C371.529 459.522 370.991 460.328 370.193 460.99C369.409 461.65 368.365 462.086 367.062 462.298C365.325 462.581 363.85 462.396 362.636 461.745C361.425 461.108 360.629 460.102 360.247 458.726L363.798 458.148C363.983 458.578 364.307 458.885 364.768 459.069C365.232 459.266 365.772 459.315 366.388 459.215C367.131 459.094 367.684 458.781 368.047 458.276C368.427 457.783 368.541 457.067 368.388 456.128L368.118 454.468C367.857 455.072 367.446 455.598 366.887 456.049C366.325 456.486 365.631 456.771 364.804 456.906C363.838 457.063 362.922 456.96 362.058 456.597C361.191 456.221 360.453 455.615 359.842 454.779C359.243 453.927 358.846 452.899 358.65 451.694C358.454 450.489 358.506 449.395 358.806 448.412C359.12 447.426 359.63 446.624 360.334 446.006C361.039 445.388 361.875 445 362.842 444.843ZM367.438 450.286C367.292 449.389 366.925 448.723 366.336 448.287C365.761 447.848 365.116 447.687 364.402 447.803C363.687 447.919 363.12 448.278 362.7 448.878C362.292 449.462 362.161 450.203 362.307 451.099C362.452 451.996 362.814 452.671 363.391 453.123C363.98 453.56 364.631 453.72 365.346 453.603C366.06 453.487 366.62 453.13 367.026 452.532C367.447 451.931 367.584 451.183 367.438 450.286ZM396.939 436.361L395.494 451.74L391.143 452.448L387.21 443.121L386.352 453.227L382.002 453.935L375.861 439.791L379.707 439.165L383.576 449.559L384.456 438.392L388.407 437.75L392.676 448.078L393.072 436.991L396.939 436.361ZM411.211 442.97C411.266 443.306 411.302 443.66 411.319 444.031L403.186 445.354C403.361 446.074 403.683 446.597 404.153 446.923C404.635 447.233 405.177 447.339 405.779 447.241C406.676 447.095 407.238 446.615 407.465 445.801L411.29 445.179C411.219 445.982 410.975 446.733 410.557 447.434C410.153 448.132 409.594 448.72 408.88 449.195C408.167 449.671 407.334 449.986 406.381 450.141C405.232 450.328 404.169 450.249 403.193 449.905C402.216 449.56 401.402 448.974 400.749 448.145C400.097 447.317 399.672 446.293 399.473 445.074C399.275 443.855 399.347 442.75 399.689 441.76C400.045 440.767 400.632 439.953 401.449 439.316C402.266 438.68 403.255 438.267 404.418 438.078C405.553 437.894 406.601 437.968 407.561 438.3C408.521 438.633 409.318 439.201 409.952 440.004C410.6 440.804 411.02 441.793 411.211 442.97ZM407.379 442.623C407.279 442.006 406.989 441.55 406.51 441.254C406.03 440.958 405.475 440.862 404.845 440.964C404.242 441.062 403.759 441.321 403.396 441.739C403.047 442.156 402.875 442.694 402.882 443.354L407.379 442.623ZM419.308 435.699C420.681 435.475 421.847 435.746 422.806 436.51C423.776 437.259 424.387 438.41 424.64 439.965L425.755 446.816L422.183 447.398L421.146 441.03C421.019 440.245 420.717 439.669 420.24 439.301C419.763 438.933 419.181 438.804 418.494 438.916C417.808 439.028 417.297 439.334 416.961 439.834C416.626 440.335 416.522 440.977 416.649 441.762L417.685 448.129L414.092 448.714L412.184 436.987L415.777 436.403L416.03 437.958C416.31 437.38 416.735 436.894 417.303 436.5C417.869 436.091 418.538 435.824 419.308 435.699ZM434.292 442.299L434.788 445.347L432.96 445.644C431.657 445.856 430.59 445.706 429.759 445.194C428.925 444.668 428.391 443.684 428.156 442.241L427.397 437.575L425.968 437.808L425.483 434.824L426.912 434.591L426.447 431.733L430.04 431.148L430.505 434.007L432.859 433.624L433.345 436.608L430.991 436.991L431.757 441.698C431.814 442.048 431.939 442.287 432.132 442.414C432.325 442.54 432.618 442.572 433.01 442.508L434.292 442.299ZM459.144 426.241L457.698 441.619L453.348 442.327L449.415 433.001L448.557 443.107L444.206 443.814L438.065 429.67L441.911 429.044L445.781 439.438L446.661 428.272L450.612 427.629L454.881 437.957L455.277 426.87L459.144 426.241ZM465.35 430.343C465.666 429.631 466.109 429.041 466.68 428.574C467.249 428.093 467.919 427.79 468.689 427.665L469.308 431.468L468.32 431.629C467.424 431.775 466.783 432.081 466.399 432.546C466.012 432.997 465.897 433.706 466.054 434.673L466.94 440.116L463.346 440.7L461.439 428.974L465.032 428.389L465.35 430.343ZM477.701 438.537C476.552 438.724 475.475 438.648 474.471 438.308C473.48 437.966 472.645 437.383 471.964 436.559C471.298 435.732 470.865 434.71 470.667 433.491C470.471 432.286 470.565 431.185 470.949 430.188C471.331 429.176 471.945 428.35 472.789 427.709C473.634 427.069 474.631 426.655 475.78 426.468C476.929 426.281 478.006 426.357 479.01 426.697C480.014 427.037 480.858 427.626 481.541 428.464C482.222 429.288 482.66 430.303 482.856 431.508C483.052 432.713 482.952 433.822 482.556 434.835C482.172 435.833 481.55 436.653 480.691 437.296C479.846 437.937 478.85 438.351 477.701 438.537ZM477.195 435.427C477.881 435.316 478.422 434.969 478.816 434.387C479.224 433.803 479.352 433.041 479.199 432.103C479.046 431.164 478.691 430.481 478.132 430.054C477.588 429.625 476.973 429.466 476.286 429.578C475.586 429.692 475.045 430.039 474.665 430.618C474.282 431.184 474.169 431.943 474.324 432.896C474.476 433.835 474.818 434.52 475.348 434.951C475.893 435.38 476.508 435.539 477.195 435.427ZM490.933 424.046C492.306 423.822 493.472 424.093 494.43 424.857C495.401 425.605 496.012 426.757 496.265 428.312L497.38 435.163L493.807 435.744L492.771 429.377C492.644 428.592 492.341 428.016 491.864 427.648C491.387 427.279 490.806 427.151 490.119 427.263C489.433 427.374 488.922 427.681 488.586 428.181C488.25 428.681 488.146 429.324 488.274 430.108L489.31 436.476L485.716 437.061L483.808 425.334L487.402 424.75L487.655 426.305C487.935 425.727 488.359 425.241 488.928 424.846C489.494 424.438 490.163 424.171 490.933 424.046ZM502.397 422.137C503.224 422.003 503.973 422.053 504.644 422.289C505.329 422.523 505.884 422.886 506.309 423.377L506.039 421.717L509.633 421.133L511.537 432.838C511.713 433.917 511.654 434.926 511.361 435.865C511.084 436.816 510.547 437.623 509.748 438.285C508.964 438.945 507.921 439.38 506.618 439.592C504.88 439.875 503.405 439.691 502.192 439.04C500.981 438.403 500.184 437.396 499.802 436.02L503.354 435.442C503.539 435.872 503.862 436.179 504.323 436.363C504.787 436.561 505.327 436.61 505.943 436.509C506.686 436.389 507.239 436.076 507.603 435.571C507.983 435.078 508.096 434.362 507.944 433.423L507.673 431.763C507.412 432.366 507.002 432.893 506.442 433.344C505.88 433.78 505.186 434.066 504.36 434.2C503.393 434.357 502.477 434.255 501.613 433.892C500.746 433.515 500.008 432.909 499.397 432.074C498.799 431.222 498.401 430.194 498.205 428.989C498.009 427.784 498.061 426.69 498.361 425.706C498.676 424.72 499.185 423.918 499.89 423.3C500.595 422.682 501.43 422.295 502.397 422.137ZM506.993 427.581C506.847 426.684 506.48 426.017 505.891 425.581C505.316 425.143 504.672 424.981 503.957 425.098C503.243 425.214 502.675 425.572 502.255 426.173C501.847 426.757 501.716 427.497 501.862 428.394C502.008 429.29 502.369 429.965 502.946 430.418C503.535 430.854 504.186 431.014 504.901 430.898C505.616 430.782 506.176 430.424 506.582 429.826C507.002 429.226 507.139 428.477 506.993 427.581Z" fill="black"/>
<rect x="258.837" y="501.624" width="106.583" height="30.6459" rx="10.6459" transform="rotate(-9.24098 258.837 501.624)" fill="#6C66E9" fill-opacity="0.1"/>
<g clip-path="url(#clip0_2753_27708)">
<path fill-rule="evenodd" clip-rule="evenodd" d="M276.111 508.001C276.178 507.744 276.39 507.551 276.653 507.508L281.892 506.656C282.384 506.576 282.79 507.042 282.641 507.519L281.636 510.742L283.841 510.383C284.432 510.287 284.844 510.954 284.494 511.439L277.922 520.566C277.507 521.142 276.599 520.767 276.713 520.066L277.57 514.774L275.207 515.159C275.096 515.177 274.983 515.167 274.877 515.13C274.772 515.093 274.677 515.03 274.602 514.947C274.526 514.864 274.473 514.764 274.446 514.655C274.42 514.547 274.42 514.433 274.449 514.325L276.111 508.001Z" fill="#6C66E9"/>
</g>
<path d="M293.521 511.529C293.274 510.014 293.352 508.783 293.756 507.837C294.168 506.889 295.009 506.312 296.278 506.105C297.548 505.899 298.524 506.18 299.207 506.95C299.898 507.718 300.367 508.86 300.613 510.375C300.861 511.898 300.78 513.139 300.369 514.095C299.967 515.05 299.132 515.631 297.862 515.838C296.592 516.044 295.611 515.759 294.918 514.982C294.234 514.203 293.768 513.052 293.521 511.529ZM298.801 510.67C298.695 510.022 298.563 509.486 298.404 509.062C298.253 508.629 298.027 508.292 297.728 508.053C297.437 507.813 297.047 507.733 296.556 507.813C296.066 507.892 295.716 508.093 295.508 508.415C295.309 508.735 295.201 509.125 295.186 509.586C295.179 510.037 295.228 510.586 295.333 511.234C295.441 511.899 295.572 512.453 295.725 512.896C295.876 513.33 296.102 513.666 296.401 513.905C296.699 514.135 297.094 514.21 297.584 514.13C298.074 514.051 298.424 513.854 298.634 513.542C298.843 513.22 298.95 512.83 298.956 512.37C298.961 511.902 298.909 511.335 298.801 510.67ZM311.472 513.745C310.614 513.884 309.793 513.811 309.01 513.525C308.226 513.239 307.567 512.776 307.031 512.135C306.494 511.485 306.152 510.71 306.005 509.808C305.86 508.914 305.94 508.079 306.245 507.301C306.548 506.515 307.026 505.862 307.678 505.342C308.331 504.823 309.086 504.493 309.944 504.354C310.811 504.212 311.632 504.286 312.407 504.573C313.19 504.859 313.846 505.328 314.375 505.979C314.911 506.619 315.251 507.387 315.396 508.28C315.543 509.182 315.465 510.026 315.161 510.812C314.865 511.588 314.391 512.236 313.738 512.756C313.086 513.276 312.33 513.605 311.472 513.745ZM311.205 512.103C311.757 512.013 312.223 511.812 312.603 511.498C312.982 511.176 313.252 510.763 313.413 510.261C313.574 509.758 313.605 509.2 313.505 508.587C313.405 507.974 313.2 507.46 312.89 507.043C312.578 506.617 312.192 506.316 311.731 506.139C311.271 505.962 310.765 505.919 310.214 506.008C309.662 506.098 309.192 506.301 308.802 506.616C308.422 506.929 308.151 507.337 307.99 507.84C307.828 508.334 307.797 508.887 307.896 509.5C307.996 510.113 308.202 510.632 308.514 511.058C308.826 511.483 309.213 511.789 309.674 511.975C310.143 512.15 310.654 512.193 311.205 512.103ZM322.209 502.493L322.451 503.977L318.629 504.599L319.011 506.95L321.94 506.473L322.177 507.931L319.248 508.408L319.879 512.283L318.04 512.582L316.548 503.414L322.209 502.493ZM329.7 501.274L329.941 502.758L326.119 503.38L326.501 505.731L329.43 505.255L329.668 506.713L326.739 507.189L327.369 511.064L325.53 511.363L324.039 502.195L329.7 501.274ZM333.609 502.162L333.983 504.46L337.07 503.958L337.307 505.416L334.22 505.918L334.616 508.348L338.096 507.782L338.34 509.279L333.021 510.145L331.527 500.963L336.846 500.098L337.09 501.595L333.609 502.162ZM345.265 508.152L342.661 504.909L341.794 505.05L342.375 508.623L340.537 508.922L339.045 499.754L342.486 499.194C343.195 499.078 343.82 499.107 344.361 499.28C344.9 499.444 345.327 499.72 345.642 500.11C345.964 500.489 346.168 500.941 346.253 501.466C346.352 502.07 346.266 502.646 345.995 503.193C345.723 503.732 345.256 504.15 344.595 504.446L347.393 507.806L345.265 508.152ZM341.57 503.671L343.106 503.421C343.606 503.34 343.958 503.161 344.165 502.884C344.37 502.599 344.438 502.242 344.368 501.813C344.3 501.393 344.125 501.089 343.843 500.901C343.559 500.705 343.167 500.647 342.668 500.728L341.132 500.978L341.57 503.671ZM352.657 507.044C352.017 507.148 351.422 507.133 350.869 506.998C350.326 506.862 349.872 506.612 349.507 506.249C349.143 505.886 348.91 505.425 348.81 504.866L350.78 504.545C350.868 504.917 351.048 505.194 351.32 505.374C351.601 505.553 351.951 505.608 352.371 505.54C352.801 505.47 353.121 505.315 353.334 505.073C353.545 504.823 353.623 504.532 353.569 504.199C353.525 503.928 353.405 503.718 353.21 503.57C353.016 503.422 352.783 503.32 352.514 503.265C352.251 503.2 351.891 503.142 351.434 503.091C350.81 503.012 350.296 502.921 349.892 502.816C349.496 502.7 349.134 502.494 348.807 502.197C348.488 501.889 348.281 501.446 348.187 500.868C348.099 500.326 348.157 499.831 348.363 499.384C348.569 498.937 348.9 498.568 349.356 498.278C349.811 497.98 350.354 497.779 350.984 497.676C351.93 497.523 352.734 497.63 353.396 497.999C354.066 498.357 354.498 498.943 354.693 499.756L352.67 500.085C352.602 499.773 352.424 499.536 352.137 499.376C351.858 499.206 351.512 499.154 351.101 499.221C350.742 499.28 350.468 499.419 350.279 499.638C350.099 499.856 350.037 500.14 350.094 500.491C350.134 500.736 350.246 500.929 350.431 501.07C350.623 501.2 350.846 501.299 351.099 501.365C351.36 501.422 351.72 501.48 352.179 501.54C352.803 501.618 353.318 501.714 353.723 501.828C354.128 501.942 354.494 502.152 354.823 502.458C355.151 502.764 355.362 503.202 355.454 503.771C355.534 504.262 355.481 504.738 355.296 505.199C355.11 505.661 354.793 506.058 354.344 506.392C353.893 506.717 353.331 506.934 352.657 507.044Z" fill="#6C66E9"/>
<circle cx="378.319" cy="497.709" r="1.33073" transform="rotate(-9.24098 378.319 497.709)" fill="black"/>
<path opacity="0.8" d="M392.154 491.458L392.751 495.13L396.755 494.479L396.947 495.661L392.944 496.312L393.559 500.095L398.035 499.367L398.228 500.549L392.317 501.51L390.527 490.509L396.438 489.547L396.63 490.729L392.154 491.458ZM400.655 492.728C400.827 492.193 401.122 491.751 401.54 491.403C401.968 491.053 402.519 490.823 403.191 490.713L403.432 492.195L403.054 492.257C401.446 492.518 400.784 493.521 401.068 495.265L401.832 499.962L400.398 500.196L398.993 491.558L400.427 491.325L400.655 492.728ZM406.535 491.771C406.707 491.236 407.002 490.794 407.42 490.446C407.848 490.096 408.398 489.866 409.071 489.757L409.312 491.238L408.934 491.3C407.326 491.561 406.664 492.564 406.948 494.309L407.712 499.006L406.278 499.239L404.872 490.602L406.307 490.368L406.535 491.771ZM415.948 497.811C415.139 497.943 414.373 497.879 413.651 497.619C412.94 497.357 412.34 496.921 411.853 496.31C411.374 495.686 411.062 494.928 410.916 494.035C410.773 493.152 410.835 492.344 411.104 491.61C411.382 490.864 411.823 490.258 412.427 489.793C413.029 489.318 413.74 489.013 414.559 488.88C415.379 488.747 416.15 488.81 416.871 489.07C417.591 489.32 418.195 489.75 418.683 490.361C419.181 490.97 419.503 491.721 419.648 492.614C419.794 493.508 419.722 494.328 419.434 495.076C419.155 495.812 418.709 496.418 418.096 496.895C417.483 497.373 416.767 497.678 415.948 497.811ZM415.742 496.55C416.257 496.467 416.721 496.267 417.134 495.952C417.546 495.637 417.85 495.215 418.044 494.687C418.249 494.158 418.295 493.546 418.183 492.853C418.07 492.159 417.837 491.593 417.486 491.154C417.134 490.715 416.718 490.416 416.239 490.257C415.759 490.087 415.261 490.044 414.746 490.128C414.221 490.213 413.757 490.413 413.355 490.726C412.962 491.027 412.673 491.441 412.489 491.967C412.305 492.493 412.269 493.103 412.382 493.797C412.497 494.501 412.72 495.074 413.05 495.516C413.392 495.957 413.797 496.263 414.268 496.434C414.736 496.595 415.228 496.634 415.742 496.55ZM422.497 489.174C422.668 488.639 422.963 488.198 423.381 487.849C423.81 487.499 424.36 487.269 425.033 487.16L425.274 488.641L424.895 488.703C423.288 488.965 422.626 489.967 422.91 491.712L423.674 496.409L422.239 496.642L420.834 488.005L422.268 487.771L422.497 489.174Z" fill="black"/>
<rect x="160.71" y="89.0968" width="327.36" height="526.012" rx="9.31513" transform="rotate(-9.24098 160.71 89.0968)" stroke="black" stroke-width="2.66147" shape-rendering="crispEdges"/>
</g>
<g filter="url(#filter3_d_2753_27708)">
<circle cx="586.968" cy="512.803" r="52.4425" transform="rotate(43.2782 586.968 512.803)" fill="#ECECEC"/>
<circle cx="586.968" cy="512.803" r="51.3576" transform="rotate(43.2782 586.968 512.803)" stroke="black" stroke-width="2.16987"/>
</g>
<path d="M584.742 513.507C587.12 511.771 590.247 511.548 592.652 510.152C595.188 508.694 596.212 504.246 591.876 502.233C589.036 500.914 586.642 502.418 585.227 503.926L581.725 500.074C584.58 497.048 589.251 495.478 593.974 497.671C597.923 499.505 599.794 502.559 600.126 505.451C600.405 507.93 599.417 511.863 596.353 513.709C592.956 515.747 590.602 515.757 588.67 517.19C587.891 517.768 587.489 518.194 586.334 520.681L581.477 518.426C582.069 517.107 582.858 514.879 584.742 513.507ZM584.087 527.809C583.229 529.658 581.014 530.468 579.165 529.61C577.317 528.751 576.506 526.536 577.365 524.688C578.223 522.839 580.438 522.029 582.286 522.887C584.135 523.746 584.945 525.96 584.087 527.809Z" fill="black"/>
<g filter="url(#filter4_d_2753_27708)">
<circle cx="65.0705" cy="296.622" r="58.9668" fill="#ECECEC" stroke="black" stroke-width="3.36953"/>
<path d="M45.9033 318.298L45.9033 283.798C45.9033 282.744 46.279 281.841 47.0303 281.089C47.7804 280.339 48.6825 279.964 49.7367 279.964L80.4033 279.964C81.4575 279.964 82.3602 280.339 83.1116 281.089C83.8616 281.841 84.2367 282.744 84.2367 283.798L84.2367 306.798C84.2367 307.852 83.8616 308.755 83.1116 309.506C82.3602 310.256 81.4575 310.631 80.4033 310.631L53.57 310.631L45.9033 318.298ZM60.0867 302.964L65.07 297.981L70.0533 302.964L72.7367 300.281L67.7533 295.298L72.7367 290.314L70.0533 287.631L65.07 292.614L60.0867 287.631L57.4033 290.314L62.3867 295.298L57.4033 300.281L60.0867 302.964Z" fill="black"/>
</g>
<g filter="url(#filter5_d_2753_27708)">
<path d="M646.401 608.582C646.112 608.344 645.761 608.192 645.39 608.146C645.018 608.1 644.641 608.16 644.303 608.32C643.964 608.479 643.678 608.732 643.478 609.049C643.277 609.365 643.171 609.732 643.171 610.106V637.744C643.171 639.575 645.442 640.42 646.638 639.038L653.596 630.996C653.874 630.675 654.218 630.417 654.604 630.241C654.991 630.064 655.41 629.973 655.835 629.973H666.876C668.728 629.973 669.562 627.651 668.132 626.474L646.401 608.582Z" fill="black"/>
<path d="M642.527 608.446L643.478 609.049L642.527 608.446C642.213 608.943 642.046 609.518 642.046 610.106C642.046 610.106 642.046 610.106 642.046 610.106V637.744C642.046 640.617 645.61 641.944 647.489 639.774L647.489 639.774L654.447 631.732C654.447 631.732 654.447 631.732 654.447 631.732C654.447 631.732 654.447 631.732 654.447 631.732C654.619 631.533 654.832 631.374 655.072 631.264C655.311 631.155 655.572 631.098 655.835 631.098H655.835H666.876C669.783 631.098 671.092 627.454 668.847 625.606C668.847 625.606 668.847 625.605 668.847 625.605L647.117 607.713C647.117 607.713 647.117 607.713 647.117 607.713C647.116 607.713 647.116 607.713 647.116 607.713C646.663 607.339 646.112 607.102 645.529 607.03C644.946 606.957 644.354 607.051 643.823 607.302C643.291 607.553 642.842 607.95 642.527 608.446Z" stroke="white" stroke-width="2.25043"/>
</g>
<path fill-rule="evenodd" clip-rule="evenodd" d="M495.598 394.967C554.459 394.967 606.113 351.183 577.105 291.713C548.096 232.243 655.882 234.164 687.544 193.062C726.157 142.937 714.975 -69.8373 467.094 59.8802C427.386 80.6594 325.408 38.5032 291.581 59.4203C251.764 84.0419 195.743 134.459 251.764 186.104C279.358 211.543 180.425 277.572 223.756 336.716C266.036 394.427 295.674 339.412 360.044 351.183C424.415 362.954 451.883 394.967 495.598 394.967Z" fill="#EEDCFC"/>
<path d="M427.279 291.507C427.279 291.507 440.832 285.131 445.892 280.696C450.952 276.261 457.242 265.241 457.242 265.241C457.242 265.241 526.338 315.142 571.391 308.024C581.771 306.384 601.998 299.484 603.288 287.327C606.81 254.13 558.079 245.647 568.723 228.812C575.221 218.536 595.406 233.83 595.406 233.83L679.125 275.01C679.125 275.01 650.202 346.305 580.013 349.162C493.672 352.677 427.279 291.507 427.279 291.507Z" fill="white"/>
<path fill-rule="evenodd" clip-rule="evenodd" d="M360.903 12.2968C360.117 11.9883 355.897 6.82123 350.54 5.8808C348.106 5.45345 350.315 8.55333 347.636 8.58123C339.656 8.6643 326.689 7.16514 324.286 8.58123C322.501 9.63033 326.433 13.2954 324.286 13.4636C304.033 15.0511 273.136 35.2731 266.432 45.0838C264.299 48.206 281.553 42.9088 278.804 44.4523C275.718 46.1847 272.296 57.5284 270.25 66.2896C268.834 72.3227 267.942 80.0871 267.627 88.5336C267.365 95.8258 267.47 97.0324 268.519 101.02C269.726 105.479 270.67 106.79 272.296 106.161C272.873 105.951 273.136 105.164 273.136 103.695C273.136 102.541 273.765 99.0784 274.552 95.9832L275.916 90.4222L276.493 92.7305C277.228 95.4061 281.53 103.695 285.412 109.728C285.621 110.048 286.522 109.641 287.334 107.678C288.075 105.888 287.774 103.03 289.032 99.9665C291.896 92.9883 297.521 83.9153 304.033 76.6528C313.658 65.9192 316.852 53.4973 325.874 43.5259C342.712 24.9173 363.845 13.4516 360.903 12.2968Z" fill="white"/>
<path fill-rule="evenodd" clip-rule="evenodd" d="M279.043 46.9843C276.342 49.1562 272.333 66.7735 272.264 67.068C270.848 73.1012 269.482 94.0521 270.878 98.0187C272.273 101.985 276.182 87.6866 276.182 87.6866C276.182 87.6866 282.089 103.025 287.308 107.231C287.531 107.411 281.104 88.2536 279.043 77.0702C276.323 62.3075 280.58 45.7481 279.043 46.9843Z" fill="#E7EAEE"/>
<path fill-rule="evenodd" clip-rule="evenodd" d="M379.717 355.526C384.753 354.424 393.251 350.587 396.505 349.276C399.758 347.964 409.673 333.964 413.24 318.173C415.811 306.526 417.122 289.948 415.653 287.168C415.436 286.773 414.643 279.234 416.755 281.696C421.451 287.168 427.025 295.757 444.612 280.365C449.402 276.173 455.751 270.762 454.08 265.979C449.402 252.596 429.127 225.648 426.036 223.606C422.34 221.166 403.66 223.24 375.861 215.035C344.335 205.73 331.207 178.329 318.87 181.896C308.893 184.78 284.988 202.507 278.989 213.732C250.666 266.727 284.988 303.862 292.805 314.528L300.394 317.805L300.656 324.573L301.024 328.822C301.706 336.954 301.968 337.689 305.64 340.417C314.821 347.394 332.921 353.899 349.289 356.208C356.896 357.257 373.421 356.89 379.717 355.526Z" fill="white"/>
<path fill-rule="evenodd" clip-rule="evenodd" d="M303.379 322.096L303.746 326.345C304.428 334.477 304.691 335.211 308.363 337.939C313.779 342.056 322.299 346.008 331.736 349.03C338.296 351.132 345.3 352.784 352.012 353.731C359.619 354.78 376.144 354.413 382.44 353.049C385.551 352.374 359.955 332.265 344.877 337.939C333.297 342.297 306.004 309.059 317.101 300.376C329.549 290.635 306.738 252.214 306.004 243.873C305.269 235.532 302.377 233.539 302.292 233.832C302.208 234.125 302.208 235.122 302.435 237.527C303.414 247.891 303.379 322.096 303.379 322.096Z" fill="#E7EAEE"/>
<path fill-rule="evenodd" clip-rule="evenodd" d="M300.646 241.492C301.748 241.278 302.814 241.997 303.029 243.098C306.988 263.44 323.736 277.212 353.684 284.413C383.81 291.657 404.331 291.266 415.143 283.534C416.056 282.881 415.376 288.471 414.707 288.9C407.655 293.422 383.679 300.169 355.066 294.071C318.482 286.273 301.305 255.511 299.04 243.875C298.826 242.773 299.545 241.707 300.646 241.492Z" fill="#FFB61D"/>
<path fill-rule="evenodd" clip-rule="evenodd" d="M285.39 204.791C286.364 204.233 322.7 245.878 372.565 255.304C422.431 264.73 434.504 258.735 436.445 245.877C436.612 244.768 437.647 244.004 438.757 244.172C439.866 244.339 440.63 245.374 440.462 246.484C438.003 262.779 414.929 266.655 371.882 259.309C329.375 252.056 300.232 234.822 284.636 207.563C284.078 206.589 284.416 205.348 285.39 204.791Z" fill="#FFB61D"/>
<path fill-rule="evenodd" clip-rule="evenodd" d="M494.683 202.481C493.319 202.009 491.85 200.96 490.906 199.753L489.332 197.812L494.893 192.303C503.444 183.91 510.002 175.306 515.668 165.076C517.557 161.666 522.331 150.281 522.331 149.18C522.331 148.812 522.908 147.343 523.59 145.822C524.639 143.619 525.426 142.779 527.682 141.52C530.357 139.946 533.4 139.422 534.712 140.314C537.23 141.992 537.23 147.291 534.712 156.419C531.931 166.44 528.206 173.627 520.494 183.962C519.288 185.536 517.032 188.631 515.406 190.782C511.051 196.553 508.218 199.333 504.389 201.484C500.611 203.583 498.408 203.845 494.683 202.481ZM532.351 197.76L536.128 199.439C536.912 199.8 545.552 203.952 555.931 208.939C572.665 216.979 593.917 227.191 594.047 227.191C594.256 227.191 595.241 224.915 595.463 222.26C595.988 216.541 597.929 208.777 600.185 203.373C601.234 200.96 602.073 197.944 602.073 197.682C602.073 197.562 601.22 197.218 599.824 196.655C598.162 195.984 595.73 195.003 593.05 193.72C579.829 187.372 553.966 174.414 550.765 172.473C547.618 170.637 546.988 170.479 546.988 171.686C546.988 173.26 543.788 180.552 541.322 184.487C540.011 186.638 537.44 190.52 535.604 193.091L532.351 197.76ZM593.155 217.748C594.659 218.62 592.053 219.899 591.424 220.109C587.717 220.423 583.353 219.726 579.777 217.643C577.907 216.317 563.186 208.139 553.421 202.714C548.957 200.233 545.528 198.329 544.837 197.917C542.634 196.606 540.535 195.189 540.168 194.769C539.066 193.353 540.116 192.723 543.211 192.986C545.072 193.143 589.905 215.865 593.155 217.748ZM379.896 355.094C383.943 354.209 390.225 351.557 394.225 349.869C395.203 349.456 396.045 349.101 396.684 348.844C399.938 347.532 409.852 333.532 413.419 317.741C415.99 306.094 417.302 289.516 415.833 286.736C414.947 285.125 420.209 290.527 424.127 294.55C425.315 295.77 426.38 296.863 427.112 297.595C449.986 320.311 484.033 338.568 519.393 347.12C537.02 351.421 549.559 352.943 566.399 352.943C594.676 352.943 616.973 347.382 637.223 335.158C638.185 334.578 639.086 334.044 639.946 333.535C647.005 329.356 651.21 326.866 662.72 313.911C675.63 299.379 687.115 265.646 690.944 253.999C692.623 248.753 696.715 227.887 696.715 222.679C696.715 216.514 694.564 213.603 691.626 210.613C686.433 205.524 679.403 203.688 673.579 205.891L670.851 206.941L670.012 204.16C668.805 199.963 666.287 196.606 662.405 194.087C656.634 190.258 655.795 189.995 650.601 189.995C646.561 189.995 645.46 190.205 642.889 191.412L639.899 192.776L639.269 190.887C638.062 187.005 634.015 181.593 630.875 180.028C628.09 178.639 623.27 178.512 619.91 179.136C612.566 180.5 607.32 183.91 605.169 188.684C604.539 190.153 603.752 191.307 603.437 191.307C603.175 191.307 592.84 188.421 580.511 182.964C578.432 182.041 576.478 181.175 574.644 180.362C552.505 170.549 547.706 168.422 548.142 165.758C548.509 163.502 548.405 162.243 547.775 160.302C546.673 157.049 545.414 156.157 541.847 156.157C539.014 156.157 539.014 156.157 539.329 154.741C541.007 146.714 540.955 142.097 539.171 139.16C537.965 137.218 536.548 136.432 533.295 135.959C531.407 135.697 530.515 135.854 528.416 137.009C527 137.743 525.793 138.268 525.688 138.163C525.584 138.058 525.951 135.172 526.528 131.762C530.83 106.528 527.506 84.7862 516.542 61.7029C516.437 61.482 516.315 61.2208 516.176 60.9219C512.843 53.7656 499.44 24.9897 461.108 10.4699C459.373 9.81269 457.731 9.17726 456.153 8.56655C443.096 3.51246 434.415 0.152413 413.472 0.187281C389.998 0.226361 382.047 3.54486 366.571 10.6272C364.42 11.624 362.531 12.2011 362.374 11.9913C362.216 11.729 361.22 11.0994 360.223 10.5748C359.226 10.0502 357.075 8.73861 355.501 7.68937C350.989 4.64656 348.209 3.38747 346.793 3.70225C345.166 4.12194 345.166 5.48596 346.793 6.1155C347.475 6.37781 348.261 7.26967 348.576 8.16153C349.258 10.0502 350.045 10.26 350.517 8.68615C350.727 8.10907 351.042 7.68937 351.199 7.79429C351.259 7.82414 351.459 7.91764 351.764 8.06032C352.53 8.4193 353.962 9.08955 355.501 9.84032C357.652 10.8896 360.013 11.9913 360.643 12.2536C361.797 12.6733 361.429 12.988 356.446 15.9259C336.982 27.3627 321.139 45.1473 312.272 65.3977C310.908 68.4405 309.702 70.3292 308.443 71.3784C305.242 74.054 298.947 81.661 297.478 84.6514C296.691 86.2777 295.012 88.7959 293.701 90.2648C292.442 91.7337 291.078 93.6224 290.606 94.4093C290.186 95.2487 289.766 95.8258 289.609 95.7209C289.504 95.5635 289.661 92.9928 290.028 90.0025C290.815 83.025 290.815 81.1888 290.186 81.0315C289.242 80.7691 287.877 84.4415 287.3 89.0057C286.881 91.7862 286.776 95.9832 287.038 100.285L287.353 107.105L283.628 101.072C282.347 99.0547 281.086 97.0374 280.19 95.6047L280.19 95.6036L280.189 95.6028L280.187 95.5999L280.186 95.5984L280.186 95.5977L280.185 95.5964L280.184 95.5941C279.615 94.6848 279.195 94.0124 279.011 93.7273C277.647 91.7337 276.86 88.7434 277.438 87.7466C277.752 87.1695 277.7 86.9072 277.175 86.9072C276.074 86.9072 273.923 90.4222 272.506 94.4618C271.824 96.3504 271.142 97.9243 270.932 97.9243C270.145 97.9243 270.513 79.1428 271.352 73.1097C273.083 61.2008 277.647 46.5114 279.693 46.5114C280.113 46.5114 280.48 46.3015 280.48 45.9867C280.48 45.0424 279.116 45.4097 278.015 46.6163C275.549 49.2919 272.296 57.5284 270.25 66.2896C268.834 72.3227 267.942 80.0871 267.627 88.5336C267.365 95.8258 267.47 97.0324 268.519 101.02C269.726 105.479 270.67 106.79 272.296 106.161C272.873 105.951 273.136 105.164 273.136 103.695C273.136 102.541 273.765 99.0784 274.552 95.9832L275.916 90.4222L276.493 92.7305C277.228 95.4061 281.53 103.695 285.412 109.728C288.087 113.82 288.14 114.083 289.032 120.483C289.504 124.103 290.973 132.908 294.383 146.452C297.396 158.419 314.334 170.29 318.563 173.254L318.566 173.256C319.122 173.646 319.457 173.881 319.512 173.942C320.037 174.519 320.771 174.834 321.191 174.676C321.663 174.519 321.925 174.729 321.925 175.306C321.925 175.831 322.293 176.513 322.712 176.827C323.237 177.195 323.604 178.611 323.709 181.077C323.971 186.008 327.644 195.451 330.477 198.547C332.313 200.54 336.143 201.38 340.392 200.645C343.173 200.225 343.96 199.911 343.697 199.281C343.54 198.861 344.537 199.386 345.901 200.435C361.849 212.607 378.007 219.899 396.159 223.047C403.189 224.253 414.836 224.935 421.184 224.463C426.797 224.096 426.797 224.096 426.535 225.197C426.168 226.666 426.64 227.558 434.352 240.621C440.49 250.956 441.015 251.638 447.835 258.616C462.314 273.568 478.105 285.162 495.995 294.133C512.835 302.527 539.722 309.504 564.301 311.708C588.879 313.911 606.533 291.352 606.48 285.581C606.375 277.66 605.274 272.466 602.598 267.43C599.975 262.551 598.244 260.872 590.374 255.625C581.613 249.802 576.21 245.028 572.642 239.939C570.386 236.739 569.547 233.119 569.547 231.178C569.547 229.919 571.173 227.086 573.586 226.509C575.79 225.932 576.21 225.984 578.675 227.191C580.144 227.873 583.974 229.657 587.122 231.178C590.322 232.647 593.417 234.116 594.047 234.431C595.903 234.946 596.687 238.579 597.113 240.548C597.208 240.988 597.285 241.345 597.352 241.566C598.086 244.294 601.562 247.816 603.805 249.015C607.743 251.121 617.446 251.403 620.121 248.517C620.803 247.783 623.065 246.88 623.53 247.153C623.996 247.427 625.681 249.697 625.681 251.533C625.734 254.681 627.36 257.567 630.823 260.452C637.38 265.908 642.469 267.22 647.611 264.806C650.286 263.547 652.479 263.055 652.479 263.055C652.479 263.055 654.666 265.846 654.798 266.8C655.828 274.254 666.864 277.379 669.802 277.693C670.475 277.761 671.785 277.473 673.116 277.18C674.896 276.789 676.712 276.39 677.094 276.82C677.844 277.666 664.556 299.641 662.72 302.422C645.25 328.653 611.254 344.706 569.652 346.385C542.634 347.487 509.425 339.932 480.623 326.187C462.209 317.321 445.894 306.461 428.424 291.247C425.381 288.624 421.866 285.634 420.607 284.585C419.348 283.588 416.357 280.178 414.049 277.03C410.167 271.784 407.963 269.895 407.963 271.679C407.963 272.466 410.482 277.292 413.367 282.066C414.521 283.955 415.256 285.267 414.993 285.057C414.731 284.847 413.892 288.624 413.105 293.451C410.534 308.927 406.285 324.194 401.983 333.689C399.622 338.831 395.095 342.67 393.731 343.719C388.695 347.549 381.155 349.27 370.715 350.32C357.495 351.631 338.031 348.693 323.185 343.132C319.25 341.663 309.125 337.414 308.443 336.942C308.402 336.901 308.169 335.392 307.845 333.285C307.753 332.691 307.655 332.05 307.551 331.381C305.662 318.423 303.039 268.531 303.039 245.448C303.039 235.9 302.934 233.801 302.305 233.801C300.993 233.801 300.468 235.06 299.891 239.572C298.58 249.855 298.842 303.523 300.259 314.803L300.573 317.373L298.79 316.377C296.062 314.803 285.674 304.258 282.054 299.379C278.99 295.208 277.168 289.866 275.806 285.869C275.489 284.94 275.197 284.083 274.919 283.33C267.312 262.241 269.988 238.575 280.48 217.276C289.399 199.124 300.363 189.051 316.417 184.172C319.04 183.385 321.348 182.546 321.611 182.336C322.607 181.392 316.207 181.864 312.692 182.965C301.255 186.48 289.294 196.081 281.162 208.357C269.726 225.565 264.584 250.956 268.204 272.623C269.044 277.765 272.454 288.887 273.398 289.673C273.482 289.757 273.913 290.662 274.566 292.031C276.37 295.817 279.865 303.148 282.369 306.461C285.412 310.606 294.593 319.629 298.422 322.41L300.836 324.141L301.203 328.391C301.885 336.522 302.147 337.257 305.82 339.985C315 346.962 333.1 353.467 349.468 355.776C357.075 356.825 373.601 356.458 379.896 355.094ZM557.218 305.832C526.737 303.156 489.909 288.623 463.258 266.169C452.031 256.674 437.447 238.208 431.676 227.978C430.469 225.879 429.577 224.883 428.528 224.62C427.427 224.306 428.371 223.991 432.883 223.256C451.926 220.004 470.445 212.082 485.397 200.803L487.601 199.176L488.23 200.698C489.647 204.108 495.103 207.57 499.142 207.57C500.769 207.57 506.225 205.104 509.53 202.849L511.786 201.327L513.622 203.163C515.301 204.842 515.615 204.947 518.763 204.947C522.383 204.947 526.737 203.321 529.151 201.012L530.462 199.806L534.187 202.271C536.181 203.688 541.742 206.783 546.516 209.249C553.65 212.921 561.205 217.171 568.392 221.578L569.547 222.312L568.445 223.781C567.291 225.355 565.141 228.345 565.141 232.909C565.141 238.051 570.487 247.288 580.721 253.632C588.761 258.616 602.598 268.419 602.073 282.748C602.01 284.479 600.079 288.782 597.509 292.664C595.83 295.13 591.161 298.802 586.911 300.953C579.672 304.573 566.923 306.671 557.218 305.832ZM277.49 70.3292C278.906 70.644 279.851 71.1161 279.641 71.326C278.959 72.008 275.339 71.6932 274.5 70.8538C273.188 69.5947 273.503 68.7029 275.339 68.3356C276.283 68.1782 277.7 67.3913 278.487 66.6044C279.274 65.8174 279.956 65.4502 279.956 65.7125C279.956 66.3945 277.333 68.8078 276.021 69.3324C275.182 69.6996 275.444 69.857 277.49 70.3292ZM298.37 71.1686C299.891 70.3292 299.577 69.7521 297.793 70.0144C296.009 70.2767 295.904 70.0669 297.058 68.2832C297.531 67.6012 297.793 66.6044 297.688 66.0797C297.531 65.3977 297.163 65.7125 296.324 67.3913C295.694 68.5979 294.803 69.5947 294.383 69.5947C293.071 69.5947 292.966 70.644 294.225 71.1161C295.852 71.7981 297.111 71.7981 298.37 71.1686ZM280.218 42.5242C278.959 42.7341 275.024 44.308 271.562 46.0392C268.047 47.718 265.056 49.1345 264.847 49.082C259.495 48.5049 266.945 39.5864 280.48 30.4579C293.438 21.6968 302.2 17.0801 310.331 14.7193C315.42 13.2504 321.139 13.0405 322.765 14.2471C323.657 14.9291 323.342 14.9816 319.46 15.0341C311.066 15.0341 301.36 19.336 285.569 29.8809C277.385 35.3369 267.889 43.1538 267.889 44.4129C267.889 44.6752 269.411 44.1506 271.299 43.3112C275.339 41.475 279.484 40.5307 281.32 40.9504C283.261 41.475 282.841 42.157 280.218 42.5242ZM300.521 47.036C305.452 46.0392 305.662 45.9867 305.662 45.4621C305.662 45.1998 303.774 44.9375 301.413 44.8326L297.163 44.6752L301.098 40.2159C303.249 37.7502 305.767 35.2845 306.659 34.7074C308.6 33.4483 308.705 32.5564 307.131 32.0318L305.924 31.6646L307.236 31.1924C307.971 30.9301 309.335 30.8252 310.279 30.9826C311.695 31.1924 312.01 31.0875 311.853 30.353C311.695 29.6185 311.118 29.4612 308.548 29.5136C301.046 29.6185 297.845 31.6121 303.721 32.5564C305.347 32.8187 306.711 33.2384 306.711 33.5007C306.711 33.7106 306.449 33.9204 306.134 33.9204C305.138 33.9204 296.691 42.4718 295.642 44.5703C294.016 47.6655 294.907 48.1377 300.521 47.036ZM335.146 26.6807C333.625 26.7856 333.257 27.0479 333.362 27.7824L333.378 27.8892C333.437 28.2773 333.471 28.5002 333.384 28.5679C333.267 28.6593 332.929 28.4678 332.136 28.0178L331.998 27.9398C331.001 27.4151 330.896 27.1528 331.474 26.7331C331.841 26.4184 332.838 25.9462 333.625 25.7888L335.093 25.4216L333.992 24.2674C333.415 23.5854 333.1 22.9559 333.257 22.746C333.677 22.3263 338.818 22.9034 339.553 23.4805C339.868 23.7428 340.34 23.6903 340.654 23.3756C341.389 22.6411 342.386 23.2182 342.386 24.3723C342.386 25.0019 342.228 25.0543 341.756 24.5822C341.336 24.1625 340.969 24.1625 340.497 24.5297C340.077 24.897 339.763 24.897 339.5 24.4773C339.343 24.2149 338.346 23.9526 337.297 23.9526C336.329 23.9526 335.871 23.9526 335.778 24.1371C335.694 24.3026 335.903 24.6164 336.3 25.2117C337.137 26.5193 337.087 26.5233 335.164 26.6792L335.146 26.6807ZM327.172 12.7257C327.172 12.0437 326.542 10.8371 325.755 10.0502L324.286 8.58123L332.156 8.896C336.51 9.10585 341.441 9.57801 343.173 10.0502C344.904 10.4699 346.897 10.7846 347.632 10.7846C348.734 10.7846 348.524 10.5748 346.478 9.47308C342.91 7.63691 338.346 6.74505 329.585 6.1155C319.092 5.38103 313.794 6.37781 314.791 9.00092C314.948 9.52554 315.787 9.78786 317.046 9.78786C319.617 9.78786 323.814 11.3093 325.231 12.7257C326.752 14.2471 327.172 14.2471 327.172 12.7257ZM301.57 151.645C305.82 157.102 311.433 163.292 314.056 165.391C315.63 166.65 316.994 167.699 317.099 167.699C317.152 167.699 315.998 165.286 314.529 162.348C308.6 150.544 305.138 138.792 303.512 125.257C303.144 122.267 302.567 119.748 301.938 118.699C300.679 116.601 300.679 113.873 301.99 111.302C302.672 109.938 303.039 108.207 303.039 106.318V103.433L300.521 106.056C298.056 108.627 295.695 109.676 295.695 108.102C295.695 106.948 299.577 101.387 301.623 99.6555C303.249 98.2915 303.459 97.8193 303.984 93.7273C304.351 91.2615 305.19 86.9072 305.872 84.0218C306.607 81.1363 307.027 78.6706 306.922 78.5657C306.554 78.1985 294.226 92.3578 292.547 96.875C292.178 97.8668 291.183 99.603 290.396 100.652L289.032 102.404C289.032 102.404 289.456 104.856 289.924 107.938C290.397 111.052 290.619 113.192 290.816 115.099C291.081 117.649 291.302 119.781 292.022 123.263C292.862 127.565 293.701 131.29 293.911 131.552C294.068 131.867 294.75 134.281 295.432 136.956C296.901 142.884 299.367 148.76 301.57 151.645ZM514.462 201.275L513.36 200.173C513.36 200.173 531.645 176.941 534.922 168.381C537.422 161.848 538.894 159.996 540.879 159.996C541.99 159.996 542.896 160.249 543.316 160.879C544.05 161.981 544.758 163.345 543.814 168.014C542.24 175.568 539.827 180.552 532.587 191.307C530.908 193.773 528.757 196.501 527.813 197.445C525.609 199.491 520.652 201.59 517.767 202.062C515.93 202.324 515.406 202.219 514.462 201.275Z" fill="#00160A"/>
<path d="M659.729 252.596C666.256 234.813 665.268 231.024 664.136 230.653C664.136 230.653 661.643 232.07 660.542 235.06C658.496 240.674 651.492 255.363 648.869 257.986C645.774 261.081 645.774 261.081 642.626 261.081C639.479 261.081 630.4 256.341 629.164 251.668C627.187 244.192 635.701 218.22 635.911 216.751L634.495 215.754C633.55 216.646 621.267 253.894 605.116 244.189C603.266 243.077 599.345 237.841 599.03 235.06C597.282 226.981 605.303 198.73 606.667 192.927C607.888 187.733 614.244 182.913 622.061 182.913C634.075 182.913 632.461 193.414 637.843 197.115C640.227 198.755 644.146 195.782 645.354 195.556C652.122 194.297 654.715 195.763 659.677 199.701C663.506 202.74 666.34 208.756 669.459 210.875C671.191 212.053 673.029 210.443 673.631 210.141C676.1 208.902 681.396 209.826 682.865 210.875C685.018 211.814 690.295 216.887 691.129 219.837C694.907 233.209 682.976 262.853 678.472 268.414C671.016 277.619 653.202 270.379 659.729 252.596Z" fill="white"/>
<path fill-rule="evenodd" clip-rule="evenodd" d="M358.124 203.869C372.499 212.945 387.321 218.873 404.214 220.5C417.539 221.759 435.506 220.028 448.411 215.831C459.271 212.316 473.96 202.578 483.771 194.342C502.815 178.393 514.828 153.482 520.075 127.041C520.809 123.316 521.929 113.953 521.877 104.667C521.877 93.86 517.121 64.3269 502.71 47.2983C472.987 12.1768 424.13 -3.64439 383.069 9.87382C368.257 14.7503 352.486 23.5854 340.577 35.1271C325.573 49.764 314.503 69.6997 310.096 90.055C305.48 111.564 311.485 137.271 321.925 158.361C330.267 175.149 344.012 194.898 358.124 203.869ZM498.198 140.471C488.335 170.112 462.629 192.251 430.312 198.966C425.381 199.963 421.97 200.33 415.045 200.435C410.166 200.593 405.288 200.54 404.291 200.435C381.68 197.707 364.472 189.366 348.628 173.522C341.703 166.545 338.766 162.768 334.464 155.318C327.696 143.514 324.076 131.448 322.974 116.916C319.197 67.129 354.819 25.6315 404.973 21.3296C424.646 19.6508 446.47 25.6839 463.048 37.4354C469.186 41.7898 480.308 52.8069 483.771 57.9481C485.187 59.9942 498.932 80.0872 501.346 91.6288C504.441 106.633 503.234 125.414 498.198 140.471Z" fill="white"/>
<path fill-rule="evenodd" clip-rule="evenodd" d="M521.896 104.667C521.896 139.88 505.239 178.378 483.743 194.819C473.487 202.663 460.083 212.161 448.411 215.831C431.307 221.208 404.214 220.5 404.214 220.5C404.214 220.5 431.855 216.805 442.097 212.683C471.47 200.862 487.504 182.716 497.405 165.306C516.949 130.939 521.896 103.812 521.896 104.667Z" fill="#E7EAEE"/>
<path fill-rule="evenodd" clip-rule="evenodd" d="M404.815 194.14C390.808 192.356 376.906 187.372 365.679 179.975C359.016 175.621 348.943 165.391 344.064 158.098C337.087 147.606 332.47 136.379 330.214 124.313C328.588 115.552 328.64 102.069 330.267 94.2519C331.945 86.2777 334.096 80.192 337.926 72.4801C342.385 63.5615 347.107 57.0038 354.189 49.9214C366.256 37.8551 380.263 30.1956 396.946 26.5233C402.35 25.3691 421.918 24.4248 422.6 25.3166C422.757 25.5789 423.807 26.2609 424.908 26.838C426.01 27.4676 428.948 29.671 431.361 31.8219C434.981 34.9697 436.607 36.9632 439.755 41.8947C441.906 45.2522 443.637 48.2951 443.637 48.5574C443.637 49.1344 445.316 50.1837 446.261 50.1837C447.572 50.1837 448.464 46.249 448.726 39.324C448.884 35.4943 449.198 32.3466 449.408 32.3466C450.143 32.3466 458.222 36.8058 461.999 39.324C469.396 44.2555 476.794 51.1805 482.25 58.4202C484.715 61.6729 485.083 62.5123 485.083 64.5059C485.083 66.342 485.607 67.7585 487.233 70.5915C491.326 77.7263 494.526 86.6973 496.467 96.6127C497.726 103.275 497.726 115.866 496.414 122.844C492.847 142.045 482.25 161.141 468.452 173.26C456.753 183.49 444.319 189.785 429.63 192.881C424.594 193.982 409.485 194.717 404.815 194.14ZM367.305 158.256C367.777 157.731 368.092 156.944 367.935 156.577C367.888 156.467 367.231 156.158 366.27 155.706L366.269 155.706C364.028 154.652 360.131 152.82 358.442 150.911C351.727 143.251 349.261 137.533 347.74 125.729C346.271 114.24 347.505 106.473 350.153 93.9895C351.445 87.8999 354.878 82.8699 357.015 79.7404C358.467 77.6126 359.32 76.3635 358.492 76.2573C356.446 75.9425 356.131 76.0999 353.98 78.1459C349.363 82.5528 347.265 86.0677 345.061 92.8353C341.651 103.433 340.992 132.072 347.74 144.983C354.487 157.894 366.099 159.62 367.305 158.256ZM441.906 114.188C441.015 122.337 437.237 134.123 432.83 139.264C430.784 141.678 423.274 145.822 416.934 144.983C410.811 144.172 406.022 141.31 401.93 135.172C398.415 129.874 396.6 123.442 395.372 115.342C393.253 101.354 402.507 85.071 406.494 81.0314C410.534 76.8869 413.419 75.418 417.092 75.3655C420.659 75.3655 422.967 76.1525 426.587 78.7231C433.197 83.3398 443.637 98.3509 441.906 114.188ZM371.187 70.8013C372.236 69.5947 372.394 69.0176 372.079 66.7617C371.869 64.6632 371.449 63.8239 370.348 62.932C368.407 61.3581 365.993 61.3581 364.21 63.0369C362.951 64.2435 362.793 64.6632 362.951 67.5487C363.108 70.6439 363.213 70.8538 364.944 71.7981C367.253 73.0572 369.508 72.69 371.187 70.8013ZM403.924 38.4322C394.48 45.1998 390.388 47.9803 386.139 50.6034C382.781 52.7019 381.732 52.7543 381.732 50.8657C381.732 49.8689 382.467 48.7672 384.355 47.036L386.978 44.6227L381.889 43.9407C376.171 43.2062 370.61 41.6324 369.403 40.4257C367.41 38.3797 369.141 37.9075 374.807 38.9568C377.325 39.3765 382.204 39.9011 385.667 40.006L391.962 40.2683L396.526 36.9632C406.547 29.7235 416.934 25.6314 421.918 26.8905C425.013 27.625 424.646 28.4644 421.131 28.8841C417.092 29.3562 414.626 30.7202 403.924 38.4322Z" fill="white"/>
<path d="M417.407 137.796C417.407 137.533 417.721 137.271 418.141 137.271C418.561 137.271 419.085 137.533 419.243 137.796C419.4 138.11 419.085 138.32 418.508 138.32C417.879 138.32 417.407 138.11 417.407 137.796Z" fill="white"/>
<path d="M420.554 137.323C420.554 136.746 421.866 136.222 423.334 136.222C424.489 136.274 424.489 136.274 423.492 137.008C422.338 137.9 420.554 138.058 420.554 137.323Z" fill="white"/>
<path d="M412.422 135.959C412.265 135.54 412.055 134.805 411.898 134.386C411.74 133.861 412.003 133.599 412.685 133.599C413.262 133.599 413.734 133.913 413.734 134.333C413.734 134.753 413.891 135.435 414.049 135.907C414.259 136.484 414.101 136.746 413.524 136.746C413.052 136.746 412.527 136.379 412.422 135.959Z" fill="white"/>
<path d="M415.203 134.648C414.941 133.074 415.518 132.549 417.406 132.549C417.983 132.549 418.455 133.074 418.665 133.966C419.085 135.487 418.403 136.222 416.567 136.222C415.727 136.222 415.36 135.855 415.203 134.648Z" fill="white"/>
<path d="M409.852 134.91C408.855 134.123 408.855 134.123 409.957 134.123C410.639 134.123 411.111 134.438 411.111 134.91C411.111 135.854 411.111 135.854 409.852 134.91Z" fill="white"/>
<path d="M420.397 134.858C419.715 134.176 420.03 132.13 420.869 131.815C422.39 131.238 423.072 131.5 423.387 132.864C423.597 133.651 423.702 134.333 423.597 134.385C423.177 134.858 420.712 135.172 420.397 134.858Z" fill="white"/>
<path d="M425.066 133.756C424.909 133.599 424.751 132.917 424.751 132.287C424.751 131.395 425.171 131.028 426.43 130.766C427.532 130.556 428.214 130.661 428.529 131.08C429.053 131.92 429.053 132.969 428.581 133.231C427.637 133.756 425.433 134.071 425.066 133.756Z" fill="white"/>
<path d="M407.439 132.129C407.439 131.5 407.911 130.975 408.593 130.818C409.957 130.451 409.904 130.398 410.167 131.762C410.271 132.549 410.009 132.864 408.907 132.969C407.753 133.126 407.439 132.916 407.439 132.129Z" fill="white"/>
<path d="M411.426 132.182C410.692 131.395 411.164 129.926 412.161 129.926C412.843 129.926 413.21 130.293 413.21 130.923C413.21 131.92 412.003 132.759 411.426 132.182Z" fill="white"/>
<path d="M414.574 130.608C414.154 129.611 415.046 128.877 416.777 128.877C417.564 128.877 417.931 129.192 417.931 129.874C417.931 130.451 417.459 130.975 416.777 131.185C415.046 131.605 414.941 131.605 414.574 130.608Z" fill="white"/>
<path d="M429.735 130.451C429.893 130.189 430.155 129.926 430.312 129.926C430.47 129.926 430.417 130.189 430.26 130.451C430.102 130.766 429.84 130.975 429.683 130.975C429.525 130.975 429.578 130.766 429.735 130.451Z" fill="white"/>
<path d="M419.295 129.559C418.875 128.51 419.4 127.985 421.079 127.723C422.023 127.618 422.443 127.828 422.548 128.562C422.915 130.294 419.924 131.238 419.295 129.559Z" fill="white"/>
<path d="M406.704 128.667C406.232 126.936 406.337 126.778 407.701 126.778C408.436 126.778 409.013 126.988 409.013 127.251C409.013 127.513 409.17 128.09 409.327 128.51C409.485 129.034 409.17 129.349 408.278 129.507C407.281 129.716 406.914 129.507 406.704 128.667Z" fill="white"/>
<path d="M424.227 128.09C424.227 127.146 424.594 126.726 425.591 126.464C427.06 126.096 427.899 126.831 427.899 128.51C427.899 129.192 427.48 129.401 426.063 129.401C424.437 129.401 424.227 129.244 424.227 128.09Z" fill="white"/>
<path d="M405.131 128.09C404.973 127.67 405.078 127.303 405.341 127.303C405.655 127.303 405.865 127.67 405.865 128.09C405.865 128.51 405.76 128.877 405.655 128.877C405.55 128.877 405.341 128.51 405.131 128.09Z" fill="white"/>
<path d="M410.429 128.51C409.695 127.828 410.114 126.359 411.059 126.096C411.636 125.939 412.213 125.992 412.37 126.149C413 126.726 412.633 128.247 411.846 128.562C410.849 128.929 410.849 128.929 410.429 128.51Z" fill="white"/>
<path d="M429.158 128.142C428.581 126.621 429.211 125.467 430.68 125.31C431.781 125.152 432.096 125.362 432.096 126.201C432.096 127.933 431.519 128.877 430.47 128.877C429.893 128.877 429.315 128.562 429.158 128.142Z" fill="white"/>
<path d="M414.101 127.461C413.472 126.883 413.682 125.834 414.573 125.519C415.57 125.152 417.669 126.201 417.092 126.779C416.357 127.408 414.468 127.88 414.101 127.461Z" fill="white"/>
<path d="M418.666 126.149C418.194 125.414 419.872 124.155 421.236 124.155C421.866 124.155 422.128 124.47 422.023 125.047C421.813 126.096 419.138 126.936 418.666 126.149Z" fill="white"/>
<path d="M404.291 125.782C404.291 125.519 404.134 124.942 403.976 124.47C403.819 123.998 403.871 123.631 404.186 123.631C404.868 123.631 405.393 125.624 404.763 126.044C404.501 126.201 404.291 126.096 404.291 125.782Z" fill="white"/>
<path d="M405.707 124.575C405.392 123.421 406.022 122.581 407.229 122.581C407.911 122.581 408.593 124.628 408.173 125.31C407.596 126.201 405.969 125.677 405.707 124.575Z" fill="white"/>
<path d="M409.38 124.837C408.593 124.05 409.065 122.162 410.114 121.899C410.901 121.69 411.321 121.952 411.741 122.896C412.055 123.578 412.213 124.26 412.108 124.365C411.583 124.837 409.695 125.205 409.38 124.837Z" fill="white"/>
<path d="M423.545 124.837C422.863 124.155 423.177 123.736 424.751 123.159C426.063 122.739 426.43 122.791 426.692 123.421C427.165 124.68 424.541 125.887 423.545 124.837Z" fill="white"/>
<path d="M428.161 123.631C427.637 122.791 428.371 122.057 429.735 122.057C431.362 122.057 431.834 123.421 430.365 123.841C428.791 124.26 428.529 124.208 428.161 123.631Z" fill="white"/>
<path d="M432.62 122.372C432.62 121.585 433.565 120.745 433.984 121.165C434.351 121.532 433.617 123.106 433.092 123.106C432.83 123.106 432.62 122.791 432.62 122.372Z" fill="white"/>
<path d="M403.609 121.69C403.399 121.532 403.242 120.85 403.294 120.273C403.294 119.276 403.347 119.276 403.819 120.431C404.343 121.69 404.239 122.319 403.609 121.69Z" fill="white"/>
<path d="M404.606 120.903C404.133 119.066 404.186 118.909 405.55 118.909C407.071 118.909 408.016 120.85 406.861 121.585C405.655 122.319 404.973 122.109 404.606 120.903Z" fill="white"/>
<path d="M422.653 121.952C422.653 121.795 422.915 120.955 423.23 120.011C423.965 117.912 425.591 117.807 425.958 119.854C426.116 120.64 426.168 121.322 426.116 121.375C425.853 121.69 422.653 122.162 422.653 121.952Z" fill="white"/>
<path d="M408.33 120.64C408.12 120.483 407.963 119.853 407.963 119.276C407.963 118.437 408.12 118.384 408.75 118.909C409.17 119.276 409.537 119.906 409.537 120.273C409.537 121.06 408.907 121.27 408.33 120.64Z" fill="white"/>
<path d="M427.217 119.591C426.902 117.965 427.584 117.23 429.21 117.44C429.997 117.545 430.259 118.017 430.259 119.171C430.259 120.483 430.05 120.798 428.895 120.903C427.741 121.06 427.479 120.798 427.217 119.591Z" fill="white"/>
<path d="M432.358 119.801C431.676 117.703 431.886 117.073 433.303 116.916C434.562 116.758 434.719 116.916 434.719 118.28C434.719 119.434 434.404 119.906 433.617 120.116C433.04 120.273 432.463 120.116 432.358 119.801Z" fill="white"/>
<path d="M402.822 116.811C402.822 115.814 402.927 115.394 403.084 115.919C403.189 116.391 403.189 117.23 403.084 117.755C402.927 118.227 402.822 117.807 402.822 116.811Z" fill="white"/>
<path d="M404.133 117.493C403.451 116.863 403.766 114.817 404.605 114.502C405.812 114.03 406.389 114.607 406.389 116.338C406.389 117.44 406.127 117.86 405.445 117.86C404.92 117.86 404.291 117.702 404.133 117.493Z" fill="white"/>
<path d="M407.282 116.076C407.072 115.289 406.967 114.45 407.177 114.292C407.701 113.768 408.016 114.607 407.859 116.128L407.701 117.597L407.282 116.076Z" fill="white"/>
<path d="M424.227 115.709C424.227 115.132 424.489 114.817 424.751 114.974C425.066 115.132 425.276 115.656 425.276 116.076C425.276 116.496 425.066 116.811 424.751 116.811C424.489 116.811 424.227 116.339 424.227 115.709Z" fill="white"/>
<path d="M426.587 116.391C425.853 115.604 426.43 114.188 427.636 113.873C429.158 113.506 429.21 113.506 429.682 115.027C429.997 115.971 429.787 116.181 428.423 116.391C427.584 116.548 426.744 116.496 426.587 116.391Z" fill="white"/>
<path d="M431.414 115.394C430.837 114.87 430.995 113.138 431.572 113.138C431.886 113.138 432.096 112.928 432.096 112.614C432.096 112.351 431.781 112.089 431.362 112.089C430.47 112.089 429.735 109.518 430.47 108.784C431.414 107.84 432.463 108.836 433.093 111.407C433.46 112.771 433.828 114.345 433.985 114.87C434.195 115.552 433.985 115.761 432.988 115.761C432.306 115.761 431.572 115.604 431.414 115.394Z" fill="white"/>
<path d="M434.247 112.614C433.879 111.04 432.935 107.892 432.253 105.584C431.204 102.226 431.099 101.387 431.676 101.019C432.043 100.757 432.515 100.547 432.673 100.547C433.25 100.547 435.348 111.302 435.138 113.4L434.981 115.499L434.247 112.614Z" fill="white"/>
<path d="M402.297 112.351C402.297 111.512 402.402 111.197 402.56 111.722C402.665 112.194 402.665 112.928 402.56 113.296C402.402 113.61 402.297 113.243 402.297 112.351Z" fill="white"/>
<path d="M403.347 112.246C403.557 110.41 405.078 109.991 405.498 111.669C405.865 113.033 405.97 112.876 404.396 113.401C403.294 113.715 403.189 113.61 403.347 112.246Z" fill="white"/>
<path d="M425.485 111.774C425.066 110.253 425.958 109.361 427.636 109.571C428.895 109.728 429.368 111.984 428.318 112.666C427.007 113.506 425.8 113.138 425.485 111.774Z" fill="white"/>
<path d="M406.39 111.355C406.39 110.463 406.652 109.991 407.229 109.991C407.754 109.991 407.963 110.358 407.858 111.145C407.596 112.824 406.39 112.981 406.39 111.355Z" fill="white"/>
<path d="M401.72 109.151C401.72 108.574 401.878 108.417 402.035 108.836C402.193 109.204 402.14 109.676 401.983 109.833C401.825 110.043 401.668 109.728 401.72 109.151Z" fill="white"/>
<path d="M402.717 108.994C402.717 108.207 403.032 107.892 403.819 107.892C404.553 107.892 404.816 108.154 404.711 108.784C404.448 110.148 402.717 110.305 402.717 108.994Z" fill="white"/>
<path d="M405.602 108.522C405.235 107.577 405.235 107.577 406.809 107.158C407.753 106.843 407.963 107 407.963 107.787C407.963 109.046 406.075 109.676 405.602 108.522Z" fill="white"/>
<path d="M424.594 107.787C424.227 106.476 424.909 105.794 426.745 105.794C427.637 105.794 427.899 106.108 427.899 107.105C427.899 107.892 427.584 108.417 427.165 108.417C426.745 108.417 426.063 108.574 425.643 108.731C425.171 108.889 424.804 108.574 424.594 107.787Z" fill="white"/>
<path d="M429.158 106.581C428.738 105.531 429.368 104.744 430.575 104.744C431.309 104.744 431.571 105.112 431.571 106.056C431.571 107 431.309 107.367 430.522 107.367C429.945 107.367 429.315 107 429.158 106.581Z" fill="white"/>
<path d="M402.193 105.846C402.193 104.744 403.399 103.485 403.924 104.062C404.134 104.22 404.291 104.954 404.291 105.636C404.291 106.476 403.976 106.843 403.242 106.843C402.56 106.843 402.193 106.476 402.193 105.846Z" fill="white"/>
<path d="M405.078 105.216C404.658 103.905 405.13 103.328 406.914 103.065C408.54 102.856 409.065 104.587 407.648 105.636C406.284 106.633 405.445 106.475 405.078 105.216Z" fill="white"/>
<path d="M424.069 104.902C423.702 104.587 423.544 102.646 423.859 102.646C423.912 102.646 424.699 102.436 425.643 102.174C427.217 101.702 427.322 101.754 427.269 103.171C427.217 104.22 426.902 104.744 426.115 104.954C424.699 105.321 424.489 105.321 424.069 104.902Z" fill="white"/>
<path d="M422.129 103.695C422.129 103.328 422.286 103.17 422.496 103.328C422.653 103.538 422.653 103.852 422.496 104.062C422.286 104.22 422.129 104.062 422.129 103.695Z" fill="white"/>
<path d="M428.004 102.856C428.161 101.964 429.788 100.652 430.155 101.072C430.312 101.229 430.575 101.859 430.732 102.541C431.099 103.59 430.942 103.695 429.473 103.695C428.214 103.695 427.847 103.485 428.004 102.856Z" fill="white"/>
<path d="M402.717 102.803C402.717 102.541 402.979 102.016 403.242 101.597C403.661 100.967 403.766 101.02 403.766 102.016C403.766 102.646 403.557 103.17 403.242 103.17C402.979 103.17 402.717 103.013 402.717 102.803Z" fill="white"/>
<path d="M404.291 101.649C404.291 100.18 405.393 99.708 406.232 100.81C406.757 101.597 406.757 101.859 406.232 102.226C405.13 102.908 404.291 102.698 404.291 101.649Z" fill="white"/>
<path d="M420.24 100.967C419.295 99.9178 419.295 99.8654 420.187 100.18C420.712 100.39 421.394 100.547 421.656 100.547C421.918 100.547 422.128 100.915 422.128 101.334C422.128 102.436 421.394 102.331 420.24 100.967Z" fill="white"/>
<path d="M408.96 100.914C406.705 99.1832 406.39 95.301 408.488 95.301C409.905 95.301 411.216 97.5044 411.006 99.5504C410.849 101.439 410.22 101.859 408.96 100.914Z" fill="white"/>
<path d="M423.335 101.23C423.544 101.072 423.859 101.072 424.069 101.23C424.226 101.439 424.069 101.597 423.702 101.597C423.334 101.597 423.177 101.439 423.335 101.23Z" fill="white"/>
<path d="M431.257 99.1834C431.414 98.7112 431.571 98.239 431.571 98.1341C431.571 98.0292 431.834 97.9243 432.096 97.9243C432.411 97.9243 432.621 98.3964 432.621 98.9735C432.621 99.6031 432.253 100.023 431.781 100.023C431.204 100.023 431.047 99.7604 431.257 99.1834Z" fill="white"/>
<path d="M403.766 99.026C403.766 97.8194 404.868 95.8258 405.498 95.8258C406.599 95.8258 405.812 99.1834 404.658 99.3932C404.186 99.4981 403.766 99.3408 403.766 99.026Z" fill="white"/>
<path d="M415.57 98.4489L413.996 98.0817L415.413 97.7144C416.882 97.2947 417.931 97.6095 417.931 98.5014C417.931 99.026 417.878 99.026 415.57 98.4489Z" fill="white"/>
<path d="M413.734 95.9307C413.734 93.7798 414.941 93.465 416.043 95.3536C416.777 96.6127 416.829 96.875 416.147 96.875C415.728 96.875 415.046 97.0324 414.574 97.1898C413.944 97.4521 413.734 97.1373 413.734 95.9307Z" fill="white"/>
<path d="M422.862 96.665C420.502 95.6158 418.98 92.8353 418.98 89.5302C418.98 87.1694 419.19 86.5923 420.607 85.2807C421.498 84.4413 422.39 83.7593 422.653 83.7593C423.807 83.7593 428.056 87.7989 429.473 90.3171L431.099 93.2025L429.368 95.0387C427.374 97.1372 425.171 97.7143 422.862 96.665Z" fill="white"/>
<path d="M411.898 95.3012C411.741 95.0389 411.846 94.7765 412.108 94.7765C412.423 94.7765 412.685 95.0389 412.685 95.3012C412.685 95.6159 412.58 95.8258 412.475 95.8258C412.318 95.8258 412.055 95.6159 411.898 95.3012Z" fill="white"/>
<path d="M405.026 94.4618C405.183 93.9896 405.34 93.5174 405.34 93.4125C405.34 93.3076 405.813 93.2027 406.39 93.2027C407.701 93.2027 407.754 94.0421 406.442 94.7765C405.026 95.511 404.658 95.4585 405.026 94.4618Z" fill="white"/>
<path d="M409.17 93.8322C407.963 93.6748 407.596 92.9928 408.383 92.5207C408.593 92.3633 409.537 92.101 410.482 91.8911C411.898 91.5763 412.16 91.6813 412.16 92.5731C412.16 93.6748 411.059 94.147 409.17 93.8322Z" fill="white"/>
<path d="M413.21 92.0485C413.21 91.419 413.262 91.0517 413.367 91.1567C413.419 91.2616 413.839 91.7862 414.206 92.3108C414.836 93.0453 414.783 93.2027 414.049 93.2027C413.524 93.2027 413.21 92.783 413.21 92.0485Z" fill="white"/>
<path d="M405.865 91.6813C405.865 91.3665 406.127 90.9993 406.39 90.8419C406.704 90.6845 406.914 90.8943 406.914 91.314C406.914 91.7862 406.704 92.1534 406.39 92.1534C406.127 92.1534 405.865 91.9436 405.865 91.6813Z" fill="white"/>
<path d="M407.806 90.8944C407.387 89.8451 411.111 88.691 411.741 89.6877C412.213 90.5271 411.741 90.8944 409.747 91.3141C408.541 91.5764 408.016 91.4715 407.806 90.8944Z" fill="white"/>
<path d="M412.737 89.2156C412.737 88.6385 412.895 88.4811 413.052 88.9008C413.21 89.268 413.157 89.7402 413 89.8976C412.842 90.1074 412.685 89.7926 412.737 89.2156Z" fill="white"/>
<path d="M408.278 88.3762C408.908 87.222 410.744 85.3334 411.216 85.3334C411.741 85.3334 411.793 87.7991 411.268 88.1139C411.006 88.2188 410.167 88.4811 409.38 88.6909C408.226 88.9533 407.963 88.9008 408.278 88.3762Z" fill="white"/>
<path d="M412.475 87.1695C411.898 85.5957 412.16 84.9137 413.419 84.7038C414.731 84.4415 414.731 84.4415 413.892 86.0678C412.842 88.1663 412.895 88.1663 412.475 87.1695Z" fill="white"/>
<path d="M412.161 84.0216C412.161 83.9167 413.21 83.1822 414.521 82.4478C416.095 81.5034 417.197 81.1887 417.984 81.3985C418.928 81.7133 418.666 81.9231 416.358 83.0248C413.787 84.179 412.161 84.5987 412.161 84.0216Z" fill="white"/>
<path d="M441.276 37.5404C439.86 35.4944 436.87 32.1893 434.719 30.1957C432.568 28.2022 431.151 26.5758 431.571 26.5758C432.725 26.5758 441.539 28.9891 443.742 29.9334C445.578 30.7204 445.631 30.8253 445.159 32.4516C444.896 33.3959 444.686 35.7567 444.686 37.6978C444.686 39.6914 444.529 41.2652 444.319 41.2652C444.057 41.2652 442.745 39.5865 441.276 37.5404Z" fill="white"/>
<path d="M334.516 196.448C332.365 195.346 331.893 194.717 329.165 189.313C325.231 181.654 325.126 179.87 328.85 184.225C330.319 185.956 333.729 189.523 336.405 192.146C340.969 196.553 341.179 196.868 339.658 196.658C338.556 196.501 338.136 196.606 338.399 197.025C339.028 197.97 337.035 197.707 334.516 196.448Z" fill="white"/>
<path fill-rule="evenodd" clip-rule="evenodd" d="M422.437 292.03C422.002 290.996 422.487 289.804 423.521 289.369L424.652 288.889C435.641 284.187 441.948 281.363 446.234 276.878C450.52 272.393 451.033 265.805 451.838 261.796C452.059 260.696 454.55 262.628 455.65 262.849C456.75 263.07 457.463 264.141 457.242 265.241C456.274 270.061 453.667 274.656 449.47 279.017C445.287 283.365 437.188 288.024 425.098 293.114C424.064 293.549 422.873 293.064 422.437 292.03Z" fill="#00160A"/>
<path fill-rule="evenodd" clip-rule="evenodd" d="M472.132 82.7055C473.096 82.1315 474.343 82.4479 474.917 83.4121C480.663 93.0659 483.742 104.102 483.742 115.583C483.742 150.367 455.544 178.565 420.76 178.565C411.517 178.565 402.552 176.572 394.343 172.773C393.325 172.302 389.478 168.551 393.352 170.076C397.227 171.602 412.217 175.027 420.868 175.027C453.408 175.027 476.428 148.123 476.428 115.583C476.428 104.838 472.132 95.301 471.425 85.4905C471.343 84.3533 471.168 83.2794 472.132 82.7055Z" fill="#00160A"/>
<path fill-rule="evenodd" clip-rule="evenodd" d="M270.919 236.473C271.637 235.611 272.918 233.869 273.781 234.587C277.317 237.533 281.092 240.946 285.129 241.605C289.33 242.29 294.314 242.29 300.075 241.593C301.189 241.458 302.201 242.252 302.336 243.366C302.471 244.48 301.677 245.492 300.563 245.627C294.446 246.367 289.085 246.367 284.475 245.615C279.7 244.836 275.26 242.733 271.18 239.334C270.318 238.616 270.201 237.335 270.919 236.473Z" fill="#00160A"/>
<path d="M314.056 165.391C311.433 163.292 305.82 157.102 301.57 151.645C299.367 148.76 296.901 142.884 295.432 136.956C294.75 134.281 294.068 131.867 293.911 131.552C293.701 131.29 292.862 127.565 292.022 123.263C290.763 117.178 291.03 115.217 289.924 107.938C289.456 104.856 289.032 102.404 289.032 102.404L290.396 100.652C291.183 99.603 292.178 97.8668 292.547 96.875C294.226 92.3578 306.554 78.1985 306.922 78.5657C307.027 78.6706 306.607 81.1363 305.872 84.0218C305.19 86.9072 304.351 91.2615 303.984 93.7273C303.459 97.8193 303.249 98.2915 301.623 99.6555C299.577 101.387 295.695 106.948 295.695 108.102C295.695 109.676 298.056 108.627 300.521 106.056L303.039 103.433V106.318C303.039 108.207 302.672 109.938 301.99 111.302C300.679 113.873 300.679 116.601 301.938 118.699C302.567 119.748 303.144 122.267 303.512 125.257C305.138 138.792 308.6 150.544 314.529 162.348C315.998 165.286 317.152 167.699 317.099 167.699C316.994 167.699 315.63 166.65 314.056 165.391Z" fill="white"/>
<path fill-rule="evenodd" clip-rule="evenodd" d="M532.351 197.76L536.128 199.439C536.912 199.8 545.552 203.952 555.931 208.939C572.665 216.979 593.917 227.191 594.047 227.191C594.256 227.191 595.241 224.915 595.463 222.26C595.988 216.541 597.929 208.777 600.185 203.373C601.234 200.96 602.073 197.944 602.073 197.682C602.073 197.562 601.22 197.218 599.824 196.655C598.162 195.984 595.73 195.003 593.05 193.72C579.829 187.372 553.966 174.414 550.765 172.473C547.618 170.637 546.988 170.479 546.988 171.686C546.988 173.26 543.788 180.552 541.322 184.487C540.011 186.638 537.44 190.52 535.604 193.091L532.351 197.76ZM593.155 217.748C594.659 218.62 592.053 219.899 591.424 220.109C587.717 220.423 583.353 219.726 579.777 217.643C577.907 216.317 563.186 208.139 553.421 202.714C548.957 200.233 545.528 198.329 544.837 197.917C542.634 196.606 540.535 195.189 540.168 194.769C539.066 193.353 540.116 192.723 543.211 192.986C545.072 193.143 589.905 215.865 593.155 217.748Z" fill="white"/>
<path d="M494.683 202.481C493.319 202.009 491.85 200.96 490.906 199.753L489.332 197.812L494.893 192.303C503.444 183.91 509.74 174.736 515.406 164.506C517.294 161.096 522.908 147.343 523.59 145.822C524.639 143.619 525.426 142.779 527.682 141.52C530.357 139.946 533.4 139.422 534.712 140.314C537.23 141.992 537.23 147.291 534.712 156.419C531.931 166.44 528.206 173.627 520.494 183.962C519.288 185.536 517.032 188.631 515.406 190.782C511.051 196.553 508.218 199.333 504.389 201.484C500.611 203.583 498.408 203.845 494.683 202.481Z" fill="white"/>
<path d="M514.462 201.275L513.36 200.173C513.36 200.173 531.645 176.941 534.922 168.381C537.422 161.848 538.894 159.996 540.879 159.996C541.99 159.996 542.896 160.249 543.316 160.879C544.05 161.981 544.758 163.345 543.814 168.014C542.24 175.568 539.827 180.552 532.587 191.307C530.908 193.773 528.757 196.501 527.813 197.445C525.609 199.491 520.652 201.59 517.767 202.062C515.93 202.324 515.406 202.219 514.462 201.275Z" fill="white"/>
<path fill-rule="evenodd" clip-rule="evenodd" d="M545.176 176.982C546.234 174.561 546.988 172.45 546.988 171.686C546.988 170.479 547.618 170.637 550.765 172.473C553.966 174.414 579.829 187.372 593.05 193.72C597.981 196.081 602.073 197.419 602.073 197.682C602.073 197.944 544.055 179.548 545.176 176.982Z" fill="#E7EAEE"/>
<path fill-rule="evenodd" clip-rule="evenodd" d="M365.679 179.975C359.016 175.621 348.943 165.391 344.064 158.098C337.087 147.606 332.47 136.379 330.214 124.313C328.588 115.552 328.64 102.069 330.267 94.2519C331.945 86.2777 334.096 80.192 337.926 72.4801C342.385 63.5615 347.107 57.0038 354.189 49.9214C361.135 42.9761 330.267 71.6976 337.926 123.086C344.064 166.15 370.443 183.114 365.679 179.975Z" fill="#E7EAEE"/>
<defs>
<filter id="filter0_d_2753_27708" x="484.922" y="85.5151" width="103.797" height="110.451" filterUnits="userSpaceOnUse" color-interpolation-filters="sRGB">
<feFlood flood-opacity="0" result="BackgroundImageFix"/>
<feColorMatrix in="SourceAlpha" type="matrix" values="0 0 0 0 0 0 0 0 0 0 0 0 0 0 0 0 0 0 127 0" result="hardAlpha"/>
<feOffset dx="7.9844" dy="14.6381"/>
<feComposite in2="hardAlpha" operator="out"/>
<feColorMatrix type="matrix" values="0 0 0 0 0 0 0 0 0 0 0 0 0 0 0 0 0 0 1 0"/>
<feBlend mode="normal" in2="BackgroundImageFix" result="effect1_dropShadow_2753_27708"/>
<feBlend mode="normal" in="SourceGraphic" in2="effect1_dropShadow_2753_27708" result="shape"/>
</filter>
<filter id="filter1_d_2753_27708" x="145.875" y="35" width="423.944" height="601.424" filterUnits="userSpaceOnUse" color-interpolation-filters="sRGB">
<feFlood flood-opacity="0" result="BackgroundImageFix"/>
<feColorMatrix in="SourceAlpha" type="matrix" values="0 0 0 0 0 0 0 0 0 0 0 0 0 0 0 0 0 0 127 0" result="hardAlpha"/>
<feOffset dx="-13.3073" dy="26.6147"/>
<feComposite in2="hardAlpha" operator="out"/>
<feColorMatrix type="matrix" values="0 0 0 0 0 0 0 0 0 0 0 0 0 0 0 0 0 0 1 0"/>
<feBlend mode="normal" in2="BackgroundImageFix" result="effect1_dropShadow_2753_27708"/>
<feBlend mode="normal" in="SourceGraphic" in2="effect1_dropShadow_2753_27708" result="shape"/>
</filter>
<filter id="filter2_b_2753_27708" x="205.784" y="111.348" width="68.5121" height="45.6644" filterUnits="userSpaceOnUse" color-interpolation-filters="sRGB">
<feFlood flood-opacity="0" result="BackgroundImageFix"/>
<feGaussianBlur in="BackgroundImageFix" stdDeviation="2.66147"/>
<feComposite in2="SourceAlpha" operator="in" result="effect1_backgroundBlur_2753_27708"/>
<feBlend mode="normal" in="SourceGraphic" in2="effect1_backgroundBlur_2753_27708" result="shape"/>
</filter>
<filter id="filter3_d_2753_27708" x="534.525" y="460.361" width="117.904" height="117.904" filterUnits="userSpaceOnUse" color-interpolation-filters="sRGB">
<feFlood flood-opacity="0" result="BackgroundImageFix"/>
<feColorMatrix in="SourceAlpha" type="matrix" values="0 0 0 0 0 0 0 0 0 0 0 0 0 0 0 0 0 0 127 0" result="hardAlpha"/>
<feOffset dx="13.0192" dy="13.0192"/>
<feComposite in2="hardAlpha" operator="out"/>
<feColorMatrix type="matrix" values="0 0 0 0 0 0 0 0 0 0 0 0 0 0 0 0 0 0 1 0"/>
<feBlend mode="normal" in2="BackgroundImageFix" result="effect1_dropShadow_2753_27708"/>
<feBlend mode="normal" in="SourceGraphic" in2="effect1_dropShadow_2753_27708" result="shape"/>
</filter>
<filter id="filter4_d_2753_27708" x="0.426748" y="235.97" width="125.295" height="135.941" filterUnits="userSpaceOnUse" color-interpolation-filters="sRGB">
<feFlood flood-opacity="0" result="BackgroundImageFix"/>
<feColorMatrix in="SourceAlpha" type="matrix" values="0 0 0 0 0 0 0 0 0 0 0 0 0 0 0 0 0 0 127 0" result="hardAlpha"/>
<feOffset dx="-3.9922" dy="14.6381"/>
<feComposite in2="hardAlpha" operator="out"/>
<feColorMatrix type="matrix" values="0 0 0 0 0 0 0 0 0 0 0 0 0 0 0 0 0 0 1 0"/>
<feBlend mode="normal" in2="BackgroundImageFix" result="effect1_dropShadow_2753_27708"/>
<feBlend mode="normal" in="SourceGraphic" in2="effect1_dropShadow_2753_27708" result="shape"/>
</filter>
<filter id="filter5_d_2753_27708" x="636.42" y="601.38" width="39.1912" height="45.1004" filterUnits="userSpaceOnUse" color-interpolation-filters="sRGB">
<feFlood flood-opacity="0" result="BackgroundImageFix"/>
<feColorMatrix in="SourceAlpha" type="matrix" values="0 0 0 0 0 0 0 0 0 0 0 0 0 0 0 0 0 0 127 0" result="hardAlpha"/>
<feOffset/>
<feGaussianBlur stdDeviation="2.25043"/>
<feComposite in2="hardAlpha" operator="out"/>
<feColorMatrix type="matrix" values="0 0 0 0 0 0 0 0 0 0 0 0 0 0 0 0 0 0 0.25 0"/>
<feBlend mode="normal" in2="BackgroundImageFix" result="effect1_dropShadow_2753_27708"/>
<feBlend mode="normal" in="SourceGraphic" in2="effect1_dropShadow_2753_27708" result="shape"/>
</filter>
<clipPath id="clip0_2753_27708">
<rect width="15.9688" height="15.9688" fill="white" transform="translate(270.523 507.158) rotate(-9.24098)"/>
</clipPath>
</defs>
</svg>
