<svg xmlns="http://www.w3.org/2000/svg" width="860" height="882" viewBox="0 0 860 882" fill="none">
<rect width="414.771" height="746.685" rx="22.76" transform="matrix(0.938342 -0.345707 0.282081 0.959391 0 164.837)" fill="#FF4F52" fill-opacity="0.3"/>
<rect x="210.665" width="649" height="880.687" rx="22.7618" fill="#FF4F52"/>
<path d="M275.738 86.9835C274.377 86.9835 273.144 86.7665 272.04 86.3325C270.955 85.8788 270.018 85.2081 269.228 84.3204C268.459 83.4327 267.867 82.3378 267.453 81.0358C267.039 79.7141 266.832 78.1853 266.832 76.4493C266.832 74.7133 267.039 73.1746 267.453 71.8332C267.867 70.4721 268.459 69.3378 269.228 68.4303C270.018 67.5032 270.955 66.8028 272.04 66.3294C273.144 65.856 274.377 65.6192 275.738 65.6192C277.593 65.6192 279.131 66.0138 280.354 66.8028C281.578 67.5919 282.554 68.7854 283.284 70.3833L279.94 72.1587C279.644 71.2315 279.161 70.4918 278.49 69.9394C277.82 69.3673 276.902 69.0813 275.738 69.0813C274.279 69.0813 273.115 69.5745 272.247 70.5608C271.398 71.5472 270.974 72.9281 270.974 74.7035V77.9584C270.974 79.7536 271.398 81.1345 272.247 82.1011C273.115 83.048 274.279 83.5214 275.738 83.5214C276.902 83.5214 277.849 83.2058 278.579 82.5745C279.329 81.9433 279.871 81.1641 280.207 80.2369L283.373 82.1011C282.623 83.6398 281.627 84.8431 280.384 85.7111C279.141 86.5594 277.593 86.9835 275.738 86.9835ZM292.593 86.9835C291.488 86.9835 290.492 86.7961 289.604 86.4213C288.737 86.0465 287.987 85.504 287.356 84.7938C286.744 84.0836 286.271 83.2354 285.935 82.249C285.6 81.243 285.432 80.1185 285.432 78.8757C285.432 77.6329 285.6 76.5184 285.935 75.532C286.271 74.5457 286.744 73.7073 287.356 73.0168C287.987 72.3067 288.737 71.7642 289.604 71.3894C290.492 71.0145 291.488 70.8271 292.593 70.8271C293.698 70.8271 294.694 71.0145 295.582 71.3894C296.469 71.7642 297.219 72.3067 297.831 73.0168C298.462 73.7073 298.945 74.5457 299.281 75.532C299.616 76.5184 299.784 77.6329 299.784 78.8757C299.784 80.1185 299.616 81.243 299.281 82.249C298.945 83.2354 298.462 84.0836 297.831 84.7938C297.219 85.504 296.469 86.0465 295.582 86.4213C294.694 86.7961 293.698 86.9835 292.593 86.9835ZM292.593 83.9357C293.599 83.9357 294.388 83.6299 294.96 83.0184C295.532 82.4069 295.818 81.5093 295.818 80.3257V77.4554C295.818 76.2915 295.532 75.4038 294.96 74.7923C294.388 74.1807 293.599 73.875 292.593 73.875C291.607 73.875 290.828 74.1807 290.255 74.7923C289.683 75.4038 289.397 76.2915 289.397 77.4554V80.3257C289.397 81.5093 289.683 82.4069 290.255 83.0184C290.828 83.6299 291.607 83.9357 292.593 83.9357ZM303.141 86.6284V71.1822H306.929V73.7566H307.077C307.373 72.9478 307.846 72.2573 308.497 71.6853C309.148 71.1132 310.056 70.8271 311.22 70.8271C312.285 70.8271 313.202 71.0836 313.971 71.5965C314.741 72.1094 315.313 72.8886 315.688 73.9341H315.747C316.023 73.0662 316.566 72.3363 317.374 71.7444C318.203 71.1329 319.239 70.8271 320.481 70.8271C322 70.8271 323.164 71.3499 323.973 72.3954C324.802 73.441 325.216 74.9303 325.216 76.8636V86.6284H321.428V77.2483C321.428 75.0388 320.6 73.9341 318.943 73.9341C318.568 73.9341 318.203 73.9933 317.848 74.1117C317.512 74.2103 317.207 74.3681 316.931 74.5851C316.674 74.7824 316.467 75.0388 316.309 75.3545C316.151 75.6504 316.072 76.0055 316.072 76.4197V86.6284H312.285V77.2483C312.285 75.0388 311.456 73.9341 309.799 73.9341C309.444 73.9341 309.089 73.9933 308.734 74.1117C308.399 74.2103 308.093 74.3681 307.817 74.5851C307.56 74.7824 307.343 75.0388 307.166 75.3545C307.008 75.6504 306.929 76.0055 306.929 76.4197V86.6284H303.141ZM329.409 86.6284V71.1822H333.196V73.7566H333.344C333.64 72.9478 334.114 72.2573 334.765 71.6853C335.416 71.1132 336.323 70.8271 337.487 70.8271C338.552 70.8271 339.469 71.0836 340.239 71.5965C341.008 72.1094 341.58 72.8886 341.955 73.9341H342.014C342.29 73.0662 342.833 72.3363 343.642 71.7444C344.47 71.1329 345.506 70.8271 346.749 70.8271C348.268 70.8271 349.432 71.3499 350.24 72.3954C351.069 73.441 351.483 74.9303 351.483 76.8636V86.6284H347.696V77.2483C347.696 75.0388 346.867 73.9341 345.21 73.9341C344.835 73.9341 344.47 73.9933 344.115 74.1117C343.78 74.2103 343.474 74.3681 343.198 74.5851C342.941 74.7824 342.734 75.0388 342.576 75.3545C342.419 75.6504 342.34 76.0055 342.34 76.4197V86.6284H338.552V77.2483C338.552 75.0388 337.724 73.9341 336.067 73.9341C335.711 73.9341 335.356 73.9933 335.001 74.1117C334.666 74.2103 334.36 74.3681 334.084 74.5851C333.827 74.7824 333.61 75.0388 333.433 75.3545C333.275 75.6504 333.196 76.0055 333.196 76.4197V86.6284H329.409ZM364.908 84.0541H364.76C364.622 84.4486 364.435 84.8234 364.198 85.1785C363.981 85.5138 363.695 85.8196 363.34 86.0958C363.004 86.372 362.59 86.589 362.097 86.7468C361.624 86.9046 361.071 86.9835 360.44 86.9835C358.842 86.9835 357.619 86.4607 356.771 85.4152C355.923 84.3697 355.498 82.8803 355.498 80.9471V71.1822H359.286V80.5624C359.286 81.6276 359.493 82.4463 359.907 83.0184C360.322 83.5707 360.982 83.8469 361.89 83.8469C362.265 83.8469 362.63 83.7976 362.985 83.699C363.36 83.6003 363.685 83.4524 363.961 83.2551C364.237 83.0381 364.464 82.7817 364.642 82.4858C364.819 82.1701 364.908 81.8052 364.908 81.3909V71.1822H368.696V86.6284H364.908V84.0541ZM373.072 86.6284V71.1822H376.859V73.7566H377.007C377.323 72.9281 377.816 72.2376 378.487 71.6853C379.177 71.1132 380.124 70.8271 381.328 70.8271C382.925 70.8271 384.149 71.3499 384.997 72.3954C385.845 73.441 386.269 74.9303 386.269 76.8636V86.6284H382.482V77.2483C382.482 76.1436 382.284 75.315 381.89 74.7627C381.495 74.2103 380.844 73.9341 379.937 73.9341C379.542 73.9341 379.158 73.9933 378.783 74.1117C378.428 74.2103 378.102 74.3681 377.806 74.5851C377.53 74.7824 377.303 75.0388 377.126 75.3545C376.948 75.6504 376.859 76.0055 376.859 76.4197V86.6284H373.072ZM392.362 68.9334C391.572 68.9334 391 68.7558 390.645 68.4007C390.31 68.0456 390.142 67.5919 390.142 67.0396V66.4478C390.142 65.8954 390.31 65.4417 390.645 65.0866C391 64.7315 391.572 64.554 392.362 64.554C393.131 64.554 393.693 64.7315 394.048 65.0866C394.403 65.4417 394.581 65.8954 394.581 66.4478V67.0396C394.581 67.5919 394.403 68.0456 394.048 68.4007C393.693 68.7558 393.131 68.9334 392.362 68.9334ZM390.468 71.1822H394.255V86.6284H390.468V71.1822ZM403.469 86.6284C402.167 86.6284 401.171 86.2931 400.48 85.6223C399.809 84.9319 399.474 83.9554 399.474 82.6929V74.2004H397.196V71.1822H398.379C398.951 71.1822 399.336 71.054 399.533 70.7976C399.75 70.5214 399.859 70.117 399.859 69.5843V66.9508H403.262V71.1822H406.428V74.2004H403.262V83.6102H406.191V86.6284H403.469ZM411.607 68.9334C410.818 68.9334 410.246 68.7558 409.891 68.4007C409.555 68.0456 409.388 67.5919 409.388 67.0396V66.4478C409.388 65.8954 409.555 65.4417 409.891 65.0866C410.246 64.7315 410.818 64.554 411.607 64.554C412.376 64.554 412.938 64.7315 413.294 65.0866C413.649 65.4417 413.826 65.8954 413.826 66.4478V67.0396C413.826 67.5919 413.649 68.0456 413.294 68.4007C412.938 68.7558 412.376 68.9334 411.607 68.9334ZM409.713 71.1822H413.501V86.6284H409.713V71.1822ZM424.134 86.9835C422.99 86.9835 421.965 86.7961 421.057 86.4213C420.169 86.0267 419.41 85.4843 418.779 84.7938C418.167 84.0836 417.694 83.2354 417.358 82.249C417.023 81.243 416.855 80.1185 416.855 78.8757C416.855 77.6527 417.013 76.548 417.329 75.5616C417.664 74.5753 418.137 73.7369 418.749 73.0464C419.361 72.3363 420.11 71.7938 420.998 71.419C421.886 71.0244 422.892 70.8271 424.016 70.8271C425.219 70.8271 426.265 71.0343 427.153 71.4485C428.04 71.8628 428.77 72.425 429.342 73.1352C429.914 73.8454 430.339 74.6739 430.615 75.6208C430.911 76.548 431.059 77.5442 431.059 78.6094V79.8522H420.791V80.2369C420.791 81.3613 421.106 82.2688 421.738 82.9592C422.369 83.6299 423.306 83.9653 424.549 83.9653C425.496 83.9653 426.265 83.768 426.857 83.3735C427.468 82.9789 428.011 82.4759 428.484 81.8644L430.526 84.1428C429.895 85.0305 429.027 85.7308 427.922 86.2437C426.837 86.7369 425.575 86.9835 424.134 86.9835ZM424.075 73.6678C423.069 73.6678 422.27 74.0032 421.678 74.6739C421.087 75.3446 420.791 76.2126 420.791 77.2779V77.5146H427.123V77.2483C427.123 76.183 426.857 75.3249 426.324 74.6739C425.811 74.0032 425.062 73.6678 424.075 73.6678ZM439.451 86.9835C437.971 86.9835 436.729 86.7369 435.723 86.2437C434.717 85.7308 433.829 85.0305 433.059 84.1428L435.367 81.894C435.94 82.5449 436.561 83.0578 437.232 83.4327C437.922 83.8075 438.711 83.9949 439.599 83.9949C440.506 83.9949 441.157 83.8371 441.552 83.5214C441.966 83.2058 442.173 82.7718 442.173 82.2194C442.173 81.7657 442.025 81.4106 441.729 81.1542C441.453 80.878 440.97 80.6906 440.28 80.592L438.741 80.3848C437.064 80.1678 435.782 79.6944 434.894 78.9645C434.026 78.2149 433.592 77.1299 433.592 75.7096C433.592 74.9599 433.73 74.2892 434.006 73.6974C434.283 73.0859 434.677 72.573 435.19 72.1587C435.703 71.7247 436.314 71.3992 437.025 71.1822C437.754 70.9455 438.563 70.8271 439.451 70.8271C440.201 70.8271 440.861 70.8863 441.434 71.0047C442.025 71.1033 442.558 71.2611 443.031 71.4781C443.505 71.6754 443.939 71.9319 444.333 72.2475C444.728 72.5434 445.113 72.8787 445.487 73.2536L443.268 75.4728C442.814 74.9994 442.272 74.6049 441.641 74.2892C441.009 73.9736 440.319 73.8158 439.569 73.8158C438.741 73.8158 438.139 73.9637 437.764 74.2596C437.409 74.5555 437.232 74.9402 437.232 75.4137C437.232 75.9266 437.38 76.3211 437.676 76.5973C437.991 76.8537 438.514 77.0411 439.244 77.1595L440.812 77.3666C444.146 77.8401 445.813 79.359 445.813 81.9235C445.813 82.6732 445.655 83.3636 445.339 83.9949C445.044 84.6064 444.619 85.139 444.067 85.5928C443.515 86.0267 442.844 86.372 442.055 86.6284C441.286 86.8651 440.418 86.9835 439.451 86.9835ZM464.406 86.9835C463.045 86.9835 461.812 86.7665 460.707 86.3325C459.622 85.8788 458.685 85.2081 457.896 84.3204C457.127 83.4327 456.535 82.3378 456.121 81.0358C455.706 79.7141 455.499 78.1853 455.499 76.4493C455.499 74.7133 455.706 73.1746 456.121 71.8332C456.535 70.4721 457.127 69.3378 457.896 68.4303C458.685 67.5032 459.622 66.8028 460.707 66.3294C461.812 65.856 463.045 65.6192 464.406 65.6192C466.26 65.6192 467.799 66.0138 469.022 66.8028C470.245 67.5919 471.222 68.7854 471.952 70.3833L468.608 72.1587C468.312 71.2315 467.829 70.4918 467.158 69.9394C466.487 69.3673 465.57 69.0813 464.406 69.0813C462.946 69.0813 461.782 69.5745 460.914 70.5608C460.066 71.5472 459.642 72.9281 459.642 74.7035V77.9584C459.642 79.7536 460.066 81.1345 460.914 82.1011C461.782 83.048 462.946 83.5214 464.406 83.5214C465.57 83.5214 466.517 83.2058 467.247 82.5745C467.996 81.9433 468.539 81.1641 468.874 80.2369L472.04 82.1011C471.291 83.6398 470.295 84.8431 469.052 85.7111C467.809 86.5594 466.26 86.9835 464.406 86.9835ZM475.136 86.6284V71.1822H478.923V74.378H479.071C479.17 73.9637 479.318 73.5692 479.515 73.1944C479.732 72.7998 480.008 72.4546 480.344 72.1587C480.679 71.8628 481.073 71.6261 481.527 71.4485C482.001 71.271 482.543 71.1822 483.155 71.1822H483.983V74.7627H482.8C481.517 74.7627 480.551 74.9501 479.9 75.3249C479.249 75.6997 478.923 76.3112 478.923 77.1595V86.6284H475.136ZM492.851 86.9835C491.707 86.9835 490.681 86.7961 489.774 86.4213C488.886 86.0267 488.127 85.4843 487.495 84.7938C486.884 84.0836 486.41 83.2354 486.075 82.249C485.74 81.243 485.572 80.1185 485.572 78.8757C485.572 77.6527 485.73 76.548 486.045 75.5616C486.381 74.5753 486.854 73.7369 487.466 73.0464C488.077 72.3363 488.827 71.7938 489.715 71.419C490.602 71.0244 491.608 70.8271 492.733 70.8271C493.936 70.8271 494.982 71.0343 495.869 71.4485C496.757 71.8628 497.487 72.425 498.059 73.1352C498.631 73.8454 499.055 74.6739 499.332 75.6208C499.627 76.548 499.775 77.5442 499.775 78.6094V79.8522H489.508V80.2369C489.508 81.3613 489.823 82.2688 490.454 82.9592C491.086 83.6299 492.023 83.9653 493.265 83.9653C494.212 83.9653 494.982 83.768 495.574 83.3735C496.185 82.9789 496.728 82.4759 497.201 81.8644L499.243 84.1428C498.611 85.0305 497.744 85.7308 496.639 86.2437C495.554 86.7369 494.291 86.9835 492.851 86.9835ZM492.792 73.6678C491.786 73.6678 490.987 74.0032 490.395 74.6739C489.803 75.3446 489.508 76.2126 489.508 77.2779V77.5146H495.84V77.2483C495.84 76.183 495.574 75.3249 495.041 74.6739C494.528 74.0032 493.778 73.6678 492.792 73.6678ZM514.47 86.6284C513.642 86.6284 512.981 86.3917 512.488 85.9182C512.014 85.4251 511.719 84.7741 511.6 83.9653H511.423C511.166 84.9714 510.643 85.7308 509.854 86.2437C509.065 86.7369 508.089 86.9835 506.925 86.9835C505.347 86.9835 504.134 86.5692 503.285 85.7407C502.437 84.9122 502.013 83.8075 502.013 82.4266C502.013 80.8287 502.585 79.6451 503.729 78.8757C504.873 78.0867 506.501 77.6921 508.612 77.6921H511.245V76.5677C511.245 75.6997 511.018 75.029 510.565 74.5555C510.111 74.0821 509.381 73.8454 508.375 73.8454C507.487 73.8454 506.767 74.0426 506.215 74.4372C505.682 74.812 505.228 75.2657 504.854 75.7983L502.605 73.7862C503.177 72.8985 503.936 72.1883 504.883 71.6557C505.83 71.1033 507.083 70.8271 508.641 70.8271C510.732 70.8271 512.32 71.3006 513.405 72.2475C514.49 73.1944 515.033 74.5555 515.033 76.331V83.6102H516.571V86.6284H514.47ZM508.197 84.2316C509.046 84.2316 509.766 84.0442 510.357 83.6694C510.949 83.2946 511.245 82.7422 511.245 82.0123V79.9706H508.819C506.846 79.9706 505.86 80.6018 505.86 81.8644V82.3674C505.86 82.9987 506.057 83.4721 506.451 83.7877C506.866 84.0836 507.448 84.2316 508.197 84.2316ZM524.344 86.6284C523.042 86.6284 522.046 86.2931 521.356 85.6223C520.685 84.9319 520.35 83.9554 520.35 82.6929V74.2004H518.071V71.1822H519.255C519.827 71.1822 520.212 71.054 520.409 70.7976C520.626 70.5214 520.734 70.117 520.734 69.5843V66.9508H524.137V71.1822H527.303V74.2004H524.137V83.6102H527.067V86.6284H524.344ZM532.482 68.9334C531.693 68.9334 531.121 68.7558 530.766 68.4007C530.431 68.0456 530.263 67.5919 530.263 67.0396V66.4478C530.263 65.8954 530.431 65.4417 530.766 65.0866C531.121 64.7315 531.693 64.554 532.482 64.554C533.252 64.554 533.814 64.7315 534.169 65.0866C534.524 65.4417 534.702 65.8954 534.702 66.4478V67.0396C534.702 67.5919 534.524 68.0456 534.169 68.4007C533.814 68.7558 533.252 68.9334 532.482 68.9334ZM530.589 71.1822H534.376V86.6284H530.589V71.1822ZM538.767 86.6284V71.1822H542.554V73.7566H542.702C543.018 72.9281 543.511 72.2376 544.182 71.6853C544.872 71.1132 545.819 70.8271 547.022 70.8271C548.62 70.8271 549.843 71.3499 550.691 72.3954C551.54 73.441 551.964 74.9303 551.964 76.8636V86.6284H548.176V77.2483C548.176 76.1436 547.979 75.315 547.584 74.7627C547.19 74.2103 546.539 73.9341 545.632 73.9341C545.237 73.9341 544.852 73.9933 544.477 74.1117C544.122 74.2103 543.797 74.3681 543.501 74.5851C543.225 74.7824 542.998 75.0388 542.82 75.3545C542.643 75.6504 542.554 76.0055 542.554 76.4197V86.6284H538.767ZM570.1 87.9304C570.1 88.7392 569.952 89.4494 569.656 90.0609C569.379 90.6922 568.916 91.2149 568.265 91.6292C567.614 92.0435 566.776 92.3591 565.75 92.5761C564.724 92.7931 563.471 92.9016 561.992 92.9016C560.69 92.9016 559.585 92.8128 558.678 92.6353C557.77 92.4775 557.021 92.2407 556.429 91.9251C555.857 91.6292 555.442 91.2544 555.186 90.8007C554.93 90.3469 554.801 89.834 554.801 89.262C554.801 88.394 555.038 87.7134 555.511 87.2202C556.005 86.7468 556.685 86.441 557.553 86.3029V85.9774C556.922 85.8196 556.429 85.5138 556.074 85.0601C555.738 84.5867 555.571 84.0343 555.571 83.4031C555.571 83.0085 555.65 82.6633 555.807 82.3674C555.965 82.0518 556.172 81.7855 556.429 81.5685C556.705 81.3515 557.011 81.1739 557.346 81.0358C557.681 80.878 558.036 80.7597 558.411 80.6807V80.5624C557.464 80.1284 556.754 79.5267 556.281 78.7574C555.827 77.988 555.6 77.0904 555.6 76.0646C555.6 74.4865 556.143 73.224 557.228 72.2771C558.313 71.3105 559.901 70.8271 561.992 70.8271C562.465 70.8271 562.929 70.8567 563.382 70.9159C563.856 70.9751 564.29 71.0737 564.684 71.2118V70.7088C564.684 69.2095 565.414 68.4599 566.874 68.4599H569.271V71.3598H565.986V71.774C566.795 72.2278 567.397 72.8196 567.791 73.5495C568.186 74.2794 568.383 75.1178 568.383 76.0646C568.383 77.6231 567.841 78.8757 566.756 79.8226C565.691 80.7695 564.103 81.243 561.992 81.243C561.084 81.243 560.295 81.1542 559.625 80.9767C559.329 81.1147 559.072 81.3021 558.855 81.5389C558.638 81.7559 558.53 82.032 558.53 82.3674C558.53 83.1368 559.2 83.5214 560.542 83.5214H564.684C566.578 83.5214 567.949 83.916 568.798 84.705C569.666 85.4744 570.1 86.5495 570.1 87.9304ZM566.549 88.3743C566.549 87.8811 566.351 87.4964 565.957 87.2202C565.562 86.944 564.882 86.806 563.915 86.806H558.648C558.115 87.2005 557.849 87.7331 557.849 88.4038C557.849 88.9957 558.096 89.4592 558.589 89.7946C559.082 90.1299 559.92 90.2976 561.104 90.2976H562.998C564.241 90.2976 565.138 90.1398 565.691 89.8242C566.263 89.5086 566.549 89.0252 566.549 88.3743ZM561.992 78.6686C563.846 78.6686 564.773 77.8795 564.773 76.3014V75.7983C564.773 74.2202 563.846 73.4311 561.992 73.4311C560.137 73.4311 559.21 74.2202 559.21 75.7983V76.3014C559.21 77.8795 560.137 78.6686 561.992 78.6686ZM587.536 86.9835C586.175 86.9835 584.942 86.7665 583.837 86.3325C582.752 85.8788 581.815 85.2081 581.026 84.3204C580.256 83.4327 579.665 82.3378 579.25 81.0358C578.836 79.7141 578.629 78.1853 578.629 76.4493C578.629 74.7133 578.836 73.1746 579.25 71.8332C579.665 70.4721 580.256 69.3378 581.026 68.4303C581.815 67.5032 582.752 66.8028 583.837 66.3294C584.942 65.856 586.175 65.6192 587.536 65.6192C589.39 65.6192 590.929 66.0138 592.152 66.8028C593.375 67.5919 594.351 68.7854 595.081 70.3833L591.738 72.1587C591.442 71.2315 590.958 70.4918 590.288 69.9394C589.617 69.3673 588.7 69.0813 587.536 69.0813C586.076 69.0813 584.912 69.5745 584.044 70.5608C583.196 71.5472 582.772 72.9281 582.772 74.7035V77.9584C582.772 79.7536 583.196 81.1345 584.044 82.1011C584.912 83.048 586.076 83.5214 587.536 83.5214C588.7 83.5214 589.646 83.2058 590.376 82.5745C591.126 81.9433 591.668 81.1641 592.004 80.2369L595.17 82.1011C594.42 83.6398 593.424 84.8431 592.181 85.7111C590.939 86.5594 589.39 86.9835 587.536 86.9835ZM598.265 64.7315H602.053V73.7566H602.201C602.516 72.9281 603.01 72.2376 603.68 71.6853C604.371 71.1132 605.318 70.8271 606.521 70.8271C608.119 70.8271 609.342 71.3499 610.19 72.3954C611.038 73.441 611.463 74.9303 611.463 76.8636V86.6284H607.675V77.2483C607.675 76.1436 607.478 75.315 607.083 74.7627C606.689 74.2103 606.038 73.9341 605.13 73.9341C604.736 73.9341 604.351 73.9933 603.976 74.1117C603.621 74.2103 603.296 74.3681 603 74.5851C602.723 74.7824 602.497 75.0388 602.319 75.3545C602.142 75.6504 602.053 76.0055 602.053 76.4197V86.6284H598.265V64.7315ZM627.024 86.6284C626.195 86.6284 625.534 86.3917 625.041 85.9182C624.568 85.4251 624.272 84.7741 624.154 83.9653H623.976C623.72 84.9714 623.197 85.7308 622.408 86.2437C621.619 86.7369 620.642 86.9835 619.478 86.9835C617.9 86.9835 616.687 86.5692 615.839 85.7407C614.99 84.9122 614.566 83.8075 614.566 82.4266C614.566 80.8287 615.138 79.6451 616.283 78.8757C617.427 78.0867 619.054 77.6921 621.165 77.6921H623.798V76.5677C623.798 75.6997 623.572 75.029 623.118 74.5555C622.664 74.0821 621.934 73.8454 620.928 73.8454C620.041 73.8454 619.32 74.0426 618.768 74.4372C618.235 74.812 617.782 75.2657 617.407 75.7983L615.158 73.7862C615.73 72.8985 616.49 72.1883 617.437 71.6557C618.383 71.1033 619.636 70.8271 621.195 70.8271C623.286 70.8271 624.874 71.3006 625.959 72.2475C627.044 73.1944 627.586 74.5555 627.586 76.331V83.6102H629.125V86.6284H627.024ZM620.751 84.2316C621.599 84.2316 622.319 84.0442 622.911 83.6694C623.503 83.2946 623.798 82.7422 623.798 82.0123V79.9706H621.372C619.399 79.9706 618.413 80.6018 618.413 81.8644V82.3674C618.413 82.9987 618.61 83.4721 619.005 83.7877C619.419 84.0836 620.001 84.2316 620.751 84.2316ZM632.19 86.6284V71.1822H635.978V73.7566H636.126C636.441 72.9281 636.934 72.2376 637.605 71.6853C638.296 71.1132 639.242 70.8271 640.446 70.8271C642.044 70.8271 643.267 71.3499 644.115 72.3954C644.963 73.441 645.387 74.9303 645.387 76.8636V86.6284H641.6V77.2483C641.6 76.1436 641.403 75.315 641.008 74.7627C640.614 74.2103 639.963 73.9341 639.055 73.9341C638.661 73.9341 638.276 73.9933 637.901 74.1117C637.546 74.2103 637.22 74.3681 636.925 74.5851C636.648 74.7824 636.422 75.0388 636.244 75.3545C636.066 75.6504 635.978 76.0055 635.978 76.4197V86.6284H632.19ZM663.523 87.9304C663.523 88.7392 663.375 89.4494 663.079 90.0609C662.803 90.6922 662.34 91.2149 661.689 91.6292C661.038 92.0435 660.199 92.3591 659.173 92.5761C658.148 92.7931 656.895 92.9016 655.415 92.9016C654.113 92.9016 653.009 92.8128 652.101 92.6353C651.194 92.4775 650.444 92.2407 649.852 91.9251C649.28 91.6292 648.866 91.2544 648.61 90.8007C648.353 90.3469 648.225 89.834 648.225 89.262C648.225 88.394 648.462 87.7134 648.935 87.2202C649.428 86.7468 650.109 86.441 650.977 86.3029V85.9774C650.346 85.8196 649.852 85.5138 649.497 85.0601C649.162 84.5867 648.994 84.0343 648.994 83.4031C648.994 83.0085 649.073 82.6633 649.231 82.3674C649.389 82.0518 649.596 81.7855 649.852 81.5685C650.129 81.3515 650.434 81.1739 650.77 81.0358C651.105 80.878 651.46 80.7597 651.835 80.6807V80.5624C650.888 80.1284 650.178 79.5267 649.704 78.7574C649.251 77.988 649.024 77.0904 649.024 76.0646C649.024 74.4865 649.566 73.224 650.651 72.2771C651.736 71.3105 653.324 70.8271 655.415 70.8271C655.889 70.8271 656.352 70.8567 656.806 70.9159C657.28 70.9751 657.714 71.0737 658.108 71.2118V70.7088C658.108 69.2095 658.838 68.4599 660.298 68.4599H662.695V71.3598H659.41V71.774C660.219 72.2278 660.821 72.8196 661.215 73.5495C661.61 74.2794 661.807 75.1178 661.807 76.0646C661.807 77.6231 661.264 78.8757 660.179 79.8226C659.114 80.7695 657.526 81.243 655.415 81.243C654.508 81.243 653.719 81.1542 653.048 80.9767C652.752 81.1147 652.496 81.3021 652.279 81.5389C652.062 81.7559 651.953 82.032 651.953 82.3674C651.953 83.1368 652.624 83.5214 653.965 83.5214H658.108C660.002 83.5214 661.373 83.916 662.221 84.705C663.089 85.4744 663.523 86.5495 663.523 87.9304ZM659.972 88.3743C659.972 87.8811 659.775 87.4964 659.38 87.2202C658.986 86.944 658.305 86.806 657.339 86.806H652.072C651.539 87.2005 651.273 87.7331 651.273 88.4038C651.273 88.9957 651.519 89.4592 652.012 89.7946C652.506 90.1299 653.344 90.2976 654.528 90.2976H656.421C657.664 90.2976 658.562 90.1398 659.114 89.8242C659.686 89.5086 659.972 89.0252 659.972 88.3743ZM655.415 78.6686C657.27 78.6686 658.197 77.8795 658.197 76.3014V75.7983C658.197 74.2202 657.27 73.4311 655.415 73.4311C653.561 73.4311 652.634 74.2202 652.634 75.7983V76.3014C652.634 77.8795 653.561 78.6686 655.415 78.6686ZM671.781 86.9835C670.637 86.9835 669.611 86.7961 668.703 86.4213C667.816 86.0267 667.056 85.4843 666.425 84.7938C665.813 84.0836 665.34 83.2354 665.005 82.249C664.669 81.243 664.501 80.1185 664.501 78.8757C664.501 77.6527 664.659 76.548 664.975 75.5616C665.31 74.5753 665.784 73.7369 666.395 73.0464C667.007 72.3363 667.756 71.7938 668.644 71.419C669.532 71.0244 670.538 70.8271 671.662 70.8271C672.866 70.8271 673.911 71.0343 674.799 71.4485C675.687 71.8628 676.417 72.425 676.989 73.1352C677.561 73.8454 677.985 74.6739 678.261 75.6208C678.557 76.548 678.705 77.5442 678.705 78.6094V79.8522H668.437V80.2369C668.437 81.3613 668.753 82.2688 669.384 82.9592C670.015 83.6299 670.952 83.9653 672.195 83.9653C673.142 83.9653 673.911 83.768 674.503 83.3735C675.115 82.9789 675.657 82.4759 676.13 81.8644L678.172 84.1428C677.541 85.0305 676.673 85.7308 675.568 86.2437C674.483 86.7369 673.221 86.9835 671.781 86.9835ZM671.722 73.6678C670.715 73.6678 669.917 74.0032 669.325 74.6739C668.733 75.3446 668.437 76.2126 668.437 77.2779V77.5146H674.769V77.2483C674.769 76.183 674.503 75.3249 673.97 74.6739C673.457 74.0032 672.708 73.6678 671.722 73.6678Z" fill="#FFC4C9"/>
<path d="M307.23 163.431H290.43V158.275C290.43 155.869 290.215 154.336 289.785 153.677C289.355 153.018 288.639 152.689 287.637 152.689C286.548 152.689 285.717 153.133 285.145 154.021C284.6 154.909 284.328 156.255 284.328 158.06C284.328 160.38 284.643 162.128 285.273 163.302C285.875 164.477 287.579 165.895 290.387 167.556C298.436 172.34 303.507 176.264 305.598 179.33C307.689 182.395 308.734 187.336 308.734 194.154C308.734 199.11 308.147 202.762 306.973 205.111C305.827 207.46 303.592 209.436 300.27 211.041C296.947 212.616 293.079 213.404 288.668 213.404C283.827 213.404 279.688 212.487 276.25 210.654C272.841 208.82 270.607 206.486 269.547 203.65C268.487 200.814 267.957 196.789 267.957 191.576V187.021H284.758V195.486C284.758 198.093 284.987 199.768 285.445 200.513C285.932 201.258 286.777 201.63 287.98 201.63C289.184 201.63 290.072 201.158 290.645 200.212C291.246 199.267 291.547 197.863 291.547 196.001C291.547 191.905 290.988 189.227 289.871 187.966C288.725 186.706 285.904 184.6 281.406 181.65C276.909 178.671 273.93 176.508 272.469 175.162C271.008 173.815 269.79 171.953 268.816 169.576C267.871 167.198 267.398 164.162 267.398 160.466C267.398 155.138 268.072 151.242 269.418 148.779C270.793 146.315 272.999 144.396 276.035 143.021C279.072 141.617 282.738 140.916 287.035 140.916C291.733 140.916 295.729 141.675 299.023 143.193C302.346 144.711 304.538 146.63 305.598 148.951C306.686 151.242 307.23 155.153 307.23 160.681V163.431ZM356.923 183.111C356.923 190.1 356.751 195.056 356.408 197.978C356.093 200.871 355.061 203.521 353.314 205.927C351.595 208.333 349.26 210.181 346.31 211.47C343.359 212.759 339.922 213.404 335.997 213.404C332.274 213.404 328.922 212.802 325.943 211.599C322.992 210.367 320.615 208.534 318.81 206.099C317.005 203.664 315.931 201.014 315.587 198.15C315.244 195.285 315.072 190.272 315.072 183.111V171.208C315.072 164.219 315.229 159.278 315.544 156.384C315.888 153.462 316.919 150.798 318.638 148.392C320.385 145.986 322.734 144.138 325.685 142.849C328.635 141.56 332.073 140.916 335.997 140.916C339.721 140.916 343.059 141.531 346.009 142.763C348.988 143.966 351.38 145.785 353.185 148.22C354.99 150.655 356.064 153.305 356.408 156.169C356.751 159.034 356.923 164.047 356.923 171.208V183.111ZM338.833 160.251C338.833 157.014 338.647 154.952 338.275 154.064C337.931 153.147 337.201 152.689 336.083 152.689C335.138 152.689 334.408 153.061 333.892 153.806C333.405 154.522 333.162 156.671 333.162 160.251V192.736C333.162 196.775 333.319 199.267 333.634 200.212C333.978 201.158 334.751 201.63 335.954 201.63C337.186 201.63 337.974 201.086 338.318 199.998C338.662 198.909 338.833 196.317 338.833 192.22V160.251ZM420.667 142.376V211.943H404.854V164.978L398.538 211.943H387.323L380.663 166.052V211.943H364.85V142.376H388.268C388.956 146.559 389.686 151.486 390.46 157.158L392.952 174.861L397.077 142.376H420.667ZM429.067 142.376H459.231V156.298H447.156V169.49H458.457V182.724H447.156V198.021H460.434V211.943H429.067V142.376ZM502.048 142.376V156.298H491.306V211.943H473.216V156.298H462.517V142.376H502.048ZM548.905 142.376V211.943H530.815V182.724H525.401V211.943H507.312V142.376H525.401V167.255H530.815V142.376H548.905ZM575.438 142.376V211.943H557.348V142.376H575.438ZM624.228 142.376V211.943H608.373L598.963 180.318V211.943H583.838V142.376H598.963L609.103 173.701V142.376H624.228ZM674.179 167.986H656.089V161.669C656.089 157.688 655.917 155.195 655.573 154.193C655.23 153.19 654.413 152.689 653.124 152.689C652.007 152.689 651.248 153.119 650.847 153.978C650.446 154.837 650.245 157.043 650.245 160.595V193.982C650.245 197.104 650.446 199.167 650.847 200.169C651.248 201.143 652.05 201.63 653.253 201.63C654.571 201.63 655.459 201.072 655.917 199.955C656.404 198.837 656.648 196.66 656.648 193.423V185.173H652.995V174.603H674.179V211.943H662.792L661.116 206.958C659.885 209.107 658.323 210.725 656.433 211.814C654.571 212.874 652.365 213.404 649.816 213.404C646.779 213.404 643.929 212.673 641.265 211.212C638.629 209.723 636.624 207.889 635.249 205.712C633.874 203.535 633.015 201.258 632.671 198.88C632.327 196.474 632.156 192.879 632.156 188.095V167.427C632.156 160.781 632.514 155.955 633.23 152.947C633.946 149.939 635.994 147.189 639.374 144.697C642.783 142.176 647.18 140.916 652.566 140.916C657.865 140.916 662.262 142.004 665.757 144.181C669.252 146.358 671.529 148.951 672.589 151.958C673.649 154.938 674.179 159.278 674.179 164.978V167.986ZM336.965 249.376L328.93 318.943H306.328C304.266 308.258 302.447 296.112 300.871 282.505C300.155 288.32 298.479 300.466 295.844 318.943H273.371L265.293 249.376H282.867L284.715 273.654L286.605 297.072C287.264 284.955 288.926 269.056 291.59 249.376H310.41C310.668 251.41 311.327 259.059 312.387 272.322L314.363 298.748C315.366 281.932 317.042 265.475 319.391 249.376H336.965ZM341.712 249.376H371.876V263.298H359.802V276.49H371.103V289.724H359.802V305.021H373.079V318.943H341.712V249.376ZM419.85 249.376V318.943H403.995L394.585 287.318V318.943H379.46V249.376H394.585L404.725 280.701V249.376H419.85ZM464.731 249.376V263.298H453.988V318.943H435.899V263.298H425.199V249.376H464.731ZM554.749 249.376L546.714 318.943H524.112C522.05 308.258 520.231 296.112 518.655 282.505C517.939 288.32 516.263 300.466 513.628 318.943H491.155L483.077 249.376H500.651L502.499 273.654L504.39 297.072C505.049 284.955 506.71 269.056 509.374 249.376H528.194C528.452 251.41 529.111 259.059 530.171 272.322L532.147 298.748C533.15 281.932 534.826 265.475 537.175 249.376H554.749ZM559.497 249.376H572.301C580.838 249.376 586.61 249.706 589.618 250.365C592.654 251.024 595.118 252.714 597.008 255.435C598.928 258.128 599.887 262.439 599.887 268.369C599.887 273.783 599.214 277.421 597.868 279.283C596.521 281.145 593.872 282.262 589.918 282.634C593.499 283.522 595.905 284.711 597.137 286.201C598.369 287.69 599.128 289.065 599.414 290.326C599.73 291.557 599.887 294.981 599.887 300.595V318.943H583.086V295.826C583.086 292.102 582.786 289.796 582.184 288.908C581.611 288.02 580.079 287.576 577.586 287.576V318.943H559.497V249.376ZM577.586 261.279V276.748C579.62 276.748 581.038 276.475 581.84 275.931C582.671 275.358 583.086 273.539 583.086 270.474V266.65C583.086 264.444 582.685 262.998 581.883 262.31C581.11 261.623 579.678 261.279 577.586 261.279ZM649.408 290.111C649.408 297.1 649.236 302.056 648.892 304.978C648.577 307.871 647.546 310.521 645.799 312.927C644.08 315.333 641.745 317.181 638.795 318.47C635.844 319.759 632.407 320.404 628.482 320.404C624.758 320.404 621.407 319.802 618.428 318.599C615.477 317.367 613.099 315.534 611.295 313.099C609.49 310.664 608.416 308.014 608.072 305.15C607.728 302.285 607.556 297.272 607.556 290.111V278.208C607.556 271.219 607.714 266.278 608.029 263.384C608.373 260.462 609.404 257.798 611.123 255.392C612.87 252.986 615.219 251.138 618.17 249.849C621.12 248.56 624.558 247.916 628.482 247.916C632.206 247.916 635.543 248.531 638.494 249.763C641.473 250.966 643.865 252.785 645.67 255.22C647.474 257.655 648.549 260.305 648.892 263.169C649.236 266.034 649.408 271.047 649.408 278.208V290.111ZM631.318 267.251C631.318 264.014 631.132 261.952 630.76 261.064C630.416 260.147 629.685 259.689 628.568 259.689C627.623 259.689 626.892 260.061 626.377 260.806C625.89 261.522 625.646 263.671 625.646 267.251V299.736C625.646 303.775 625.804 306.267 626.119 307.212C626.463 308.158 627.236 308.63 628.439 308.63C629.671 308.63 630.459 308.086 630.803 306.998C631.146 305.909 631.318 303.317 631.318 299.22V267.251ZM697.726 249.376V318.943H681.87L672.46 287.318V318.943H657.335V249.376H672.46L682.601 280.701V249.376H697.726ZM747.676 274.986H729.587V268.669C729.587 264.688 729.415 262.195 729.071 261.193C728.727 260.19 727.911 259.689 726.622 259.689C725.505 259.689 724.745 260.119 724.344 260.978C723.943 261.837 723.743 264.043 723.743 267.595V300.982C723.743 304.104 723.943 306.167 724.344 307.169C724.745 308.143 725.548 308.63 726.751 308.63C728.068 308.63 728.956 308.072 729.415 306.955C729.902 305.837 730.145 303.66 730.145 300.423V292.173H726.493V281.603H747.676V318.943H736.29L734.614 313.958C733.382 316.107 731.821 317.725 729.93 318.814C728.068 319.874 725.863 320.404 723.313 320.404C720.277 320.404 717.426 319.673 714.762 318.212C712.127 316.723 710.122 314.889 708.747 312.712C707.372 310.535 706.512 308.258 706.169 305.88C705.825 303.474 705.653 299.879 705.653 295.095V274.427C705.653 267.781 706.011 262.955 706.727 259.947C707.443 256.939 709.492 254.189 712.872 251.697C716.281 249.176 720.678 247.916 726.063 247.916C731.363 247.916 735.76 249.004 739.255 251.181C742.749 253.358 745.027 255.951 746.087 258.958C747.146 261.938 747.676 266.278 747.676 271.978V274.986Z" fill="white"/>
<g clip-path="url(#clip0_492_4780)">
<path d="M430.919 708.727C430.919 694.083 476.995 682.058 533.787 682.058C590.578 682.058 636.654 694.083 636.654 708.846C636.635 710.517 636.094 712.141 635.107 713.489C626.534 725.991 584.387 735.516 533.787 735.516C476.995 735.516 430.919 723.49 430.919 708.727Z" fill="#7A97F4"/>
<path d="M410.44 690.511H311.383C308.844 690.517 306.377 691.353 304.358 692.892L266.259 722.776C265.864 723.079 265.574 723.497 265.428 723.972C265.282 724.448 265.288 724.957 265.445 725.429C265.603 725.901 265.903 726.312 266.305 726.604C266.707 726.897 267.19 727.057 267.688 727.063H372.341C374.996 727.037 377.545 726.017 379.485 724.205L411.512 693.25C411.745 693.034 411.908 692.753 411.979 692.444C412.051 692.134 412.027 691.81 411.911 691.515C411.795 691.219 411.593 690.965 411.331 690.786C411.068 690.607 410.758 690.511 410.44 690.511Z" fill="#7A97F4"/>
<path d="M803.457 690.51H704.28C701.741 690.516 699.275 691.352 697.256 692.891L659.156 722.775C658.762 723.078 658.471 723.496 658.325 723.971C658.179 724.447 658.186 724.956 658.343 725.428C658.5 725.899 658.801 726.31 659.203 726.603C659.605 726.896 660.088 727.056 660.585 727.061H765.239C767.893 727.035 770.442 726.016 772.382 724.204L804.409 693.248C804.664 693.053 804.85 692.782 804.942 692.475C805.034 692.167 805.027 691.839 804.921 691.535C804.816 691.232 804.618 690.97 804.355 690.786C804.092 690.602 803.778 690.505 803.457 690.51Z" fill="#7A97F4"/>
<path d="M430.918 703.846C430.918 689.201 476.995 677.176 533.786 677.176C590.578 677.176 636.654 689.201 636.654 703.965C636.634 705.636 636.093 707.259 635.106 708.608C626.534 721.109 584.387 730.634 533.786 730.634C476.995 730.634 430.918 718.609 430.918 703.846Z" fill="#E1ECFF"/>
<path d="M635.106 708.608C626.534 721.109 584.506 730.634 533.786 730.634C476.995 730.634 430.918 718.609 430.918 703.846C430.918 703.846 448.777 725.396 530.214 725.396C600.222 725.515 628.439 712.299 635.106 708.608Z" fill="#C2D1FF"/>
<path d="M592.364 697.655C588.435 693.369 563.67 690.035 533.786 690.035C502.593 690.035 477.114 693.607 474.852 698.131C475.923 695.512 483.067 686.463 533.786 686.463C580.458 686.463 590.34 694.559 592.364 697.655Z" fill="#C2D1FF"/>
<path d="M411.274 690.511L390.438 541.448C390.324 540.68 389.935 539.98 389.344 539.476C388.753 538.973 388 538.701 387.224 538.709H359.126C358.663 538.712 358.206 538.813 357.785 539.006C357.364 539.199 356.989 539.48 356.685 539.829C356.381 540.178 356.155 540.588 356.021 541.031C355.888 541.474 355.85 541.941 355.911 542.4L362.936 598.715C363.004 599.238 362.959 599.77 362.804 600.274C362.649 600.779 362.388 601.244 362.039 601.639C361.689 602.034 361.258 602.349 360.777 602.564C360.295 602.778 359.772 602.887 359.245 602.882H327.099C326.127 602.889 325.19 602.522 324.481 601.857C323.772 601.192 323.345 600.281 323.289 599.311L320.669 541.924C320.629 541.095 320.273 540.314 319.676 539.738C319.079 539.163 318.284 538.838 317.455 538.828H291.142C290.708 538.82 290.276 538.901 289.874 539.067C289.472 539.233 289.109 539.48 288.807 539.793C288.505 540.106 288.271 540.478 288.12 540.886C287.969 541.293 287.903 541.728 287.928 542.162L291.5 640.267C291.572 641.769 292.217 643.186 293.302 644.227C294.387 645.268 295.83 645.854 297.334 645.863H368.889L374.484 690.749H411.274V690.511Z" fill="#273D7A"/>
<path d="M804.291 690.511L783.456 541.448C783.341 540.68 782.952 539.98 782.361 539.476C781.77 538.973 781.017 538.701 780.241 538.709H752.143C751.68 538.712 751.223 538.813 750.802 539.006C750.381 539.199 750.006 539.48 749.702 539.829C749.398 540.178 749.172 540.588 749.038 541.031C748.905 541.474 748.867 541.941 748.928 542.4L755.953 598.715C756.021 599.238 755.976 599.77 755.821 600.274C755.667 600.779 755.405 601.244 755.056 601.639C754.706 602.034 754.276 602.349 753.794 602.564C753.312 602.778 752.789 602.887 752.262 602.882H720.116C719.144 602.889 718.207 602.522 717.498 601.857C716.789 601.192 716.362 600.281 716.306 599.311L713.687 541.924C713.646 541.095 713.291 540.314 712.693 539.738C712.096 539.163 711.301 538.838 710.472 538.828H684.279C683.844 538.82 683.412 538.901 683.01 539.067C682.608 539.233 682.245 539.48 681.943 539.793C681.642 540.106 681.408 540.478 681.256 540.886C681.105 541.293 681.04 541.728 681.064 542.162L684.636 640.267C684.708 641.769 685.353 643.186 686.438 644.227C687.523 645.268 688.966 645.854 690.47 645.863H762.025L767.621 690.749H804.291V690.511Z" fill="#273D7A"/>
<path d="M389.604 542.995L373.888 721.109C373.757 722.726 373.023 724.235 371.833 725.337C370.642 726.439 369.081 727.055 367.459 727.062H343.885C342.968 727.062 342.062 726.867 341.226 726.49C340.39 726.114 339.643 725.564 339.035 724.878C338.427 724.191 337.972 723.383 337.7 722.508C337.428 721.632 337.345 720.709 337.456 719.799L347.338 636.338L276.735 637.528C275.823 637.544 274.919 637.357 274.087 636.982C273.256 636.607 272.518 636.052 271.926 635.358C271.334 634.664 270.903 633.847 270.665 632.967C270.426 632.086 270.384 631.164 270.544 630.266L270.782 628.718L286.974 541.923C287.193 540.755 287.812 539.7 288.724 538.94C289.637 538.179 290.787 537.76 291.975 537.756H314.477C315.214 537.769 315.94 537.939 316.605 538.256C317.271 538.573 317.86 539.029 318.335 539.593C318.809 540.157 319.156 540.817 319.353 541.527C319.55 542.237 319.593 542.981 319.478 543.709L309.834 598.477C309.743 598.994 309.767 599.524 309.906 600.031C310.044 600.537 310.293 601.006 310.635 601.405C310.976 601.803 311.402 602.121 311.881 602.336C312.36 602.55 312.881 602.655 313.406 602.644H347.1L354.958 541.804C355.123 540.655 355.694 539.603 356.567 538.839C357.441 538.074 358.559 537.648 359.72 537.637H384.842C385.506 537.676 386.157 537.845 386.756 538.135C387.356 538.425 387.892 538.831 388.334 539.328C388.776 539.826 389.116 540.406 389.334 541.035C389.552 541.664 389.644 542.33 389.604 542.995Z" fill="#E1ECFF"/>
<path d="M347.814 628.719L347.219 636.339L276.616 637.529C275.704 637.545 274.8 637.358 273.968 636.983C273.137 636.608 272.399 636.053 271.807 635.359C271.215 634.664 270.784 633.848 270.545 632.967C270.306 632.087 270.265 631.165 270.425 630.267L270.663 628.719H347.814Z" fill="#C2D1FF"/>
<path d="M389.604 542.995L373.888 721.109C373.757 722.726 373.023 724.235 371.833 725.337C370.642 726.439 369.081 727.055 367.459 727.062H363.887L382.58 537.756H384.842C385.504 537.772 386.155 537.922 386.757 538.197C387.36 538.471 387.9 538.866 388.345 539.356C388.79 539.845 389.132 540.421 389.348 541.046C389.564 541.672 389.652 542.335 389.604 542.995Z" fill="#C2D1FF"/>
<path d="M309.716 598.596C309.625 599.113 309.649 599.644 309.788 600.15C309.926 600.656 310.175 601.126 310.517 601.524C310.858 601.923 311.284 602.24 311.763 602.455C312.243 602.669 312.763 602.774 313.288 602.763H306.383C305.787 602.767 305.197 602.64 304.656 602.392C304.114 602.144 303.634 601.78 303.248 601.326C302.862 600.872 302.58 600.339 302.423 599.765C302.265 599.19 302.235 598.588 302.335 598.001L312.931 537.875H314.479C315.216 537.888 315.941 538.058 316.607 538.375C317.272 538.692 317.862 539.148 318.336 539.712C318.81 540.276 319.157 540.936 319.355 541.646C319.552 542.356 319.594 543.101 319.479 543.828L309.716 598.596Z" fill="#C2D1FF"/>
<path d="M782.502 542.995L766.786 721.109C766.654 722.726 765.921 724.235 764.73 725.337C763.54 726.439 761.979 727.055 760.356 727.062H736.783C735.866 727.062 734.959 726.867 734.123 726.49C733.287 726.114 732.54 725.564 731.933 724.878C731.325 724.191 730.87 723.383 730.598 722.508C730.325 721.632 730.242 720.709 730.353 719.799L740.235 636.338L669.633 637.528C668.721 637.544 667.816 637.357 666.985 636.982C666.153 636.607 665.415 636.052 664.823 635.358C664.232 634.664 663.801 633.847 663.562 632.967C663.323 632.086 663.282 631.164 663.442 630.266L663.68 628.718L679.872 541.923C680.09 540.755 680.709 539.7 681.622 538.94C682.535 538.179 683.684 537.76 684.872 537.756H707.375C708.112 537.769 708.837 537.939 709.503 538.256C710.168 538.573 710.758 539.029 711.232 539.593C711.706 540.157 712.053 540.817 712.251 541.527C712.448 542.237 712.49 542.981 712.375 543.709L702.731 598.477C702.64 598.994 702.665 599.524 702.803 600.031C702.941 600.537 703.19 601.006 703.532 601.405C703.874 601.803 704.299 602.121 704.778 602.336C705.258 602.55 705.778 602.655 706.303 602.644H739.997L747.855 541.804C748.02 540.655 748.591 539.603 749.465 538.839C750.338 538.074 751.457 537.648 752.617 537.637H777.739C778.411 537.655 779.072 537.81 779.681 538.093C780.291 538.376 780.835 538.781 781.282 539.284C781.728 539.786 782.067 540.374 782.277 541.013C782.486 541.651 782.563 542.326 782.502 542.995Z" fill="#E1ECFF"/>
<path d="M740.831 628.719L740.235 636.339L669.633 637.529C668.721 637.545 667.816 637.358 666.985 636.983C666.153 636.608 665.415 636.053 664.823 635.359C664.232 634.664 663.801 633.848 663.562 632.967C663.323 632.087 663.282 631.165 663.442 630.267L663.68 628.719H740.831Z" fill="#C2D1FF"/>
<path d="M782.501 542.995L766.785 721.109C766.654 722.726 765.92 724.235 764.73 725.337C763.539 726.439 761.978 727.055 760.356 727.062H756.784L775.477 537.757H777.739C778.407 537.751 779.069 537.887 779.681 538.155C780.293 538.422 780.842 538.816 781.291 539.311C781.741 539.805 782.081 540.389 782.289 541.024C782.498 541.659 782.57 542.33 782.501 542.995Z" fill="#C2D1FF"/>
<path d="M702.733 598.596C702.642 599.113 702.666 599.644 702.804 600.15C702.943 600.656 703.192 601.126 703.533 601.524C703.875 601.923 704.301 602.24 704.78 602.455C705.259 602.669 705.78 602.774 706.305 602.763H699.399C698.803 602.767 698.214 602.64 697.672 602.392C697.131 602.144 696.65 601.78 696.265 601.326C695.879 600.872 695.597 600.339 695.439 599.765C695.281 599.19 695.251 598.588 695.351 598.001L705.947 537.875H707.495C708.232 537.888 708.958 538.058 709.623 538.375C710.289 538.692 710.878 539.148 711.353 539.712C711.827 540.276 712.174 540.936 712.371 541.646C712.568 542.356 712.611 543.101 712.496 543.828L702.733 598.596Z" fill="#C2D1FF"/>
<path opacity="0.28" d="M486.759 579.305L462.352 703.127C461.042 709.794 465.328 716.104 471.162 716.104H600.461C606.176 716.104 610.462 710.032 609.391 703.603L589.388 579.781C588.555 574.78 584.864 571.209 580.459 571.209H495.688C491.402 571.089 487.711 574.542 486.759 579.305Z" fill="#FEC272"/>
<path d="M597.006 587.048L608.793 626.218C608.839 626.416 608.929 626.601 609.055 626.761C609.181 626.92 609.34 627.05 609.522 627.141C609.704 627.232 609.903 627.282 610.106 627.287C610.31 627.292 610.511 627.252 610.698 627.171C611.019 627.046 611.282 626.806 611.436 626.498C611.59 626.19 611.624 625.836 611.531 625.504L603.792 585.381C603.67 584.875 603.439 584.401 603.117 583.992C602.795 583.583 602.388 583.248 601.925 583.011C601.461 582.774 600.952 582.639 600.432 582.617C599.912 582.594 599.393 582.684 598.911 582.881C598.144 583.228 597.528 583.842 597.178 584.607C596.828 585.373 596.767 586.24 597.006 587.048Z" fill="#FEC272"/>
<path d="M574.741 601.214L582.361 631.455C582.389 631.582 582.442 631.702 582.518 631.808C582.594 631.914 582.691 632.003 582.802 632.07C582.914 632.137 583.038 632.18 583.167 632.197C583.296 632.215 583.427 632.205 583.552 632.17C583.662 632.14 583.766 632.089 583.856 632.018C583.947 631.948 584.022 631.86 584.077 631.76C584.133 631.66 584.168 631.55 584.18 631.436C584.192 631.323 584.181 631.207 584.147 631.098L579.266 600.262C579.206 599.914 579.069 599.584 578.865 599.296C578.661 599.008 578.395 598.77 578.086 598.599C577.778 598.427 577.435 598.327 577.083 598.306C576.73 598.285 576.378 598.343 576.051 598.476C575.56 598.722 575.165 599.125 574.928 599.621C574.691 600.117 574.625 600.677 574.741 601.214Z" fill="#FEC272"/>
<path d="M475.446 590.858L465.564 620.98C465.528 621.113 465.464 621.236 465.375 621.341C465.286 621.446 465.175 621.53 465.05 621.587C464.924 621.644 464.788 621.672 464.651 621.67C464.513 621.668 464.378 621.636 464.254 621.575C464.032 621.477 463.851 621.305 463.742 621.087C463.633 620.87 463.604 620.621 463.659 620.385L470.803 589.548C470.894 589.208 471.056 588.891 471.278 588.618C471.501 588.345 471.779 588.122 472.094 587.964C472.409 587.807 472.754 587.718 473.106 587.704C473.458 587.689 473.809 587.75 474.136 587.881C474.682 588.129 475.118 588.57 475.36 589.119C475.601 589.669 475.632 590.287 475.446 590.858Z" fill="#FEC272"/>
<path d="M495.091 600.143L482.232 656.101C482.205 656.228 482.151 656.349 482.076 656.454C482 656.56 481.903 656.649 481.792 656.716C481.68 656.783 481.556 656.826 481.427 656.844C481.298 656.861 481.167 656.851 481.042 656.816C480.931 656.786 480.828 656.735 480.737 656.665C480.647 656.594 480.572 656.506 480.516 656.406C480.461 656.306 480.426 656.196 480.414 656.082C480.402 655.969 480.413 655.854 480.446 655.744L490.566 599.191C490.626 598.843 490.763 598.513 490.967 598.225C491.172 597.938 491.438 597.699 491.746 597.528C492.054 597.357 492.397 597.257 492.75 597.235C493.102 597.214 493.454 597.272 493.781 597.405C494.314 597.6 494.749 597.995 494.994 598.507C495.239 599.019 495.274 599.606 495.091 600.143Z" fill="#FEC272"/>
<path d="M522.356 606.688L516.165 647.287C516.148 647.42 516.101 647.547 516.028 647.659C515.955 647.771 515.858 647.865 515.743 647.934C515.628 648.003 515.499 648.045 515.366 648.057C515.233 648.068 515.099 648.049 514.974 648.002C514.752 647.929 514.561 647.784 514.431 647.59C514.302 647.395 514.241 647.163 514.26 646.93L517.593 605.974C517.645 605.631 517.771 605.305 517.962 605.016C518.153 604.728 518.405 604.485 518.699 604.303C518.994 604.122 519.325 604.007 519.668 603.967C520.012 603.926 520.36 603.961 520.689 604.069C520.97 604.131 521.237 604.248 521.473 604.413C521.709 604.579 521.911 604.789 522.065 605.032C522.22 605.276 522.326 605.547 522.375 605.831C522.425 606.115 522.418 606.406 522.356 606.688Z" fill="#FEC272"/>
<path d="M554.263 605.859L555.811 670.27C555.809 670.405 555.779 670.538 555.723 670.66C555.667 670.783 555.585 670.892 555.485 670.982C555.384 671.071 555.266 671.139 555.137 671.181C555.009 671.222 554.874 671.236 554.74 671.223C554.513 671.182 554.307 671.066 554.155 670.893C554.004 670.72 553.916 670.5 553.906 670.27L549.501 605.859C549.491 605.512 549.559 605.167 549.698 604.849C549.838 604.532 550.046 604.249 550.308 604.021C550.569 603.794 550.878 603.627 551.212 603.533C551.546 603.439 551.897 603.42 552.239 603.477C552.795 603.589 553.298 603.884 553.665 604.316C554.032 604.748 554.243 605.292 554.263 605.859Z" fill="#FEC272"/>
<path d="M430.562 547.401C429.363 545.996 428.361 544.434 427.585 542.758L424.847 524.423L431.157 530.257L430.562 547.401Z" fill="#738DE0"/>
<path d="M608.199 553.593C604.856 559.938 600.649 565.788 595.698 570.976C584.982 582.406 566.885 595.383 539.977 595.383C521.047 595.383 506.998 589.073 496.997 581.453C487.584 574.333 480.062 565.012 475.09 554.308L608.199 553.593Z" fill="#273D7A"/>
<path d="M608.199 553.593C604.856 559.938 600.649 565.788 595.698 570.976C584.562 575.145 572.972 577.983 561.17 579.429C533.548 583.12 511.998 582.882 496.997 581.453C487.584 574.333 480.062 565.012 475.09 554.308L608.199 553.593Z" fill="#072359"/>
<path d="M650.108 523.709C649.47 529.37 648.436 534.98 647.013 540.496C646.609 542.017 645.966 543.463 645.108 544.782C642.608 548.83 637.845 553.235 630.106 557.403C628.797 558.117 627.249 558.831 625.701 559.546C624.511 560.141 623.32 560.617 622.01 561.212C620.224 561.927 618.438 562.641 616.534 563.356C608.751 566.006 600.795 568.115 592.722 569.666C592.007 569.785 591.412 569.904 590.698 570.023C588.912 570.38 586.769 570.618 584.506 570.856C574.982 571.928 562.361 572.642 548.907 572.88C546.407 572.88 543.907 572.999 541.407 572.999C528.667 573.118 515.809 572.761 504.617 572.166C502.236 572.047 499.855 571.928 497.712 571.69C492.2 571.34 486.714 570.664 481.281 569.666C475.209 568.475 469.733 567.165 464.851 565.737C462.827 565.141 460.922 564.546 459.017 563.951C444.254 559.069 435.324 553.116 430.681 547.64C430.011 546.905 429.413 546.108 428.895 545.258C428.406 544.556 428.007 543.797 427.705 542.996C427.322 542.243 427.042 541.442 426.871 540.615C425.855 536.54 425.1 532.404 424.609 528.233C424.133 524.304 424.014 521.685 424.014 521.685L537.121 530.138L650.227 523.828L650.108 523.709Z" fill="#99ADF9"/>
<path d="M649.989 523.47C649.784 524.69 649.201 525.814 648.322 526.685C645.346 530.137 638.202 535.257 626.058 539.9C624.51 540.496 622.844 541.091 621.058 541.686C620.224 541.924 619.391 542.282 618.557 542.52C616.771 543.115 614.867 543.71 612.842 544.187C605.062 546.367 597.148 548.038 589.15 549.187C587.006 549.544 584.744 549.901 582.363 550.14C571.184 551.555 559.936 552.35 548.669 552.521C546.288 552.521 543.788 552.64 541.287 552.64H541.168C528.429 552.64 516.642 552.044 506.046 551.092C503.665 550.854 501.283 550.616 499.021 550.378C488.602 549.231 478.264 547.441 468.066 545.02C466.042 544.544 464.018 543.948 462.113 543.472C444.373 538.591 432.705 532.519 427.347 527.518C426.41 526.661 425.572 525.703 424.847 524.661C424.198 523.799 423.825 522.762 423.775 521.684C423.775 513.231 457.112 495.253 541.764 495.253C626.415 495.134 649.989 517.636 649.989 523.47Z" fill="#273D7A"/>
<path d="M492.949 504.896L431.038 530.256C428.675 528.612 426.552 526.649 424.728 524.422L490.925 503.825L492.949 504.896Z" fill="#072359"/>
<path d="M649.989 523.59C649.751 524.763 649.171 525.84 648.322 526.685L584.744 504.897L586.768 503.945L649.989 523.59Z" fill="#072359"/>
<path d="M503.427 511.445L468.066 544.901C466.042 544.425 464.018 543.83 462.113 543.353L501.284 511.326L503.427 511.445Z" fill="#072359"/>
<path d="M522.833 515.374L506.046 551.092C503.664 550.854 501.283 550.616 499.021 550.378L520.69 515.255L522.833 515.374Z" fill="#072359"/>
<path d="M589.269 549.306C587.126 549.663 584.745 550.02 582.483 550.258L566.052 515.374L568.314 515.255L589.269 549.306Z" fill="#072359"/>
<path d="M548.669 552.64C546.288 552.64 543.788 552.759 541.288 552.759H541.168L544.026 517.637L546.288 517.518L548.669 552.64Z" fill="#072359"/>
<path d="M625.939 539.901C624.391 540.496 622.724 541.091 620.938 541.686L578.196 511.445L580.458 511.326L625.939 539.901Z" fill="#072359"/>
<path d="M548.788 572.642C546.288 572.642 543.788 572.761 541.288 572.761V552.64L548.669 552.521L548.788 572.642Z" fill="#738DE0"/>
<path d="M590.459 569.784C588.554 570.142 586.53 570.38 584.268 570.618L582.363 550.139L589.15 549.187L590.459 569.784Z" fill="#738DE0"/>
<path d="M629.987 557.283C628.677 557.997 627.13 558.712 625.582 559.426L621.058 541.567L625.939 539.9L629.987 557.283Z" fill="#738DE0"/>
<path d="M506.046 551.092L504.617 571.928C502.236 571.809 499.855 571.69 497.711 571.452L499.14 550.378L506.046 551.092Z" fill="#738DE0"/>
<path d="M468.066 544.9L464.732 565.498C462.708 564.902 460.803 564.307 458.898 563.712L461.994 543.353L468.066 544.9Z" fill="#738DE0"/>
<path d="M431.158 530.495L428.776 545.139C428.288 544.437 427.888 543.677 427.586 542.877C427.203 542.124 426.923 541.323 426.752 540.496C425.737 536.421 424.981 532.285 424.49 528.114L424.847 524.542C424.847 524.542 426.871 526.923 427.705 527.757C428.419 528.471 431.158 530.495 431.158 530.495Z" fill="#738DE0"/>
<path d="M536.168 531.803C571.215 531.803 599.627 523.754 599.627 513.825C599.627 503.896 571.215 495.847 536.168 495.847C501.121 495.847 472.709 503.896 472.709 513.825C472.709 523.754 501.121 531.803 536.168 531.803Z" fill="#072359"/>
<path d="M594.15 510.968C594.15 510.968 589.507 516.207 578.077 520.731C569.624 524.065 557.48 526.922 540.811 526.922C532.824 526.975 524.849 526.257 516.999 524.779C494.735 520.493 485.091 511.206 485.091 511.206C485.091 511.206 489.973 475.012 520.452 462.749C527.504 459.986 535.024 458.612 542.597 458.701C584.506 458.701 594.15 510.968 594.15 510.968Z" fill="#99ADF9"/>
<path d="M516.999 524.78C494.735 520.494 485.091 511.207 485.091 511.207C485.091 511.207 489.973 475.013 520.452 462.75C514.499 467.75 508.665 477.751 507.713 494.062C506.76 506.206 509.618 516.326 516.999 524.78Z" fill="#7A97F4"/>
<path d="M594.15 510.968C594.15 510.968 589.506 516.207 578.076 520.731C576.885 516.417 575.372 512.199 573.552 508.111C573.552 508.111 562.361 510.492 557.36 499.896C552.36 489.299 564.385 481.679 564.385 481.679C564.385 481.679 561.527 472.512 546.764 466.559C532 460.606 520.213 462.749 520.213 462.749C527.266 459.986 534.785 458.612 542.359 458.701C584.506 458.701 594.15 510.968 594.15 510.968Z" fill="#C2D1FF"/>
<path d="M546.169 488.585C547.944 488.585 549.383 487.199 549.383 485.489C549.383 483.779 547.944 482.394 546.169 482.394C544.393 482.394 542.954 483.779 542.954 485.489C542.954 487.199 544.393 488.585 546.169 488.585Z" fill="#C2D1FF"/>
<path d="M534.977 491.561C536.358 491.561 537.478 490.495 537.478 489.18C537.478 487.865 536.358 486.799 534.977 486.799C533.596 486.799 532.477 487.865 532.477 489.18C532.477 490.495 533.596 491.561 534.977 491.561Z" fill="#C2D1FF"/>
<path d="M542.478 507.635C545.174 507.635 547.36 505.503 547.36 502.873C547.36 500.243 545.174 498.11 542.478 498.11C539.782 498.11 537.597 500.243 537.597 502.873C537.597 505.503 539.782 507.635 542.478 507.635Z" fill="#C2D1FF"/>
</g>
<defs>
<clipPath id="clip0_492_4780">
<rect width="539.683" height="276.818" fill="white" transform="translate(265.323 458.697)"/>
</clipPath>
</defs>
</svg>