<svg width="73" height="73" viewBox="0 0 73 73" fill="none" xmlns="http://www.w3.org/2000/svg">
<ellipse cx="36.5005" cy="36.5483" rx="36" ry="36" fill="#FF4500"/>
<g clip-path="url(#clip0_6_39917)">
<path d="M36.5005 0.54834C26.9549 0.54834 17.7917 4.34353 11.0474 11.0924C4.29603 17.844 0.502358 27.0004 0.500488 36.5483C0.500488 46.0923 4.29736 55.2554 11.0474 62.0043C17.7917 68.7532 26.9549 72.5483 36.5005 72.5483C46.0461 72.5483 55.2092 68.7532 61.9536 62.0043C68.7036 55.2554 72.5005 46.0923 72.5005 36.5483C72.5005 27.0044 68.7036 17.8413 61.9536 11.0924C55.2092 4.34353 46.0461 0.54834 36.5005 0.54834Z" fill="#282D2A"/>
<path fill-rule="evenodd" clip-rule="evenodd" d="M46.455 28.6637C48.6203 26.8652 51.0365 26.1809 53.3534 26.3539C55.8251 26.5384 58.1125 27.6917 59.8205 29.3668C61.5287 31.042 62.7022 33.2826 62.8901 35.7009C63.0797 38.1412 62.2589 40.6969 60.0948 42.9401C59.8969 43.1466 59.6946 43.3505 59.488 43.5518C49.6726 53.1765 36.634 53.2018 36.5006 53.2019H36.4999C36.4333 53.2019 23.3535 53.2014 13.5125 43.5505L13.5103 43.5483C13.3071 43.3479 13.1071 43.1461 12.91 42.9431L12.9084 42.9415C10.7433 40.7004 9.92175 38.1451 10.1107 35.7049C10.2979 33.2871 11.4707 31.0461 13.1783 29.3703C14.8859 27.6946 17.1729 26.5405 19.645 26.3552C21.9619 26.1815 24.3784 26.8649 26.5451 28.6625C26.7781 25.89 27.9919 23.7321 29.7538 22.2486C31.633 20.6664 34.0818 19.8948 36.5 19.8948C38.9182 19.8948 41.3671 20.6664 43.2462 22.2486C45.0084 23.7323 46.2223 25.8905 46.455 28.6637ZM36.9494 52.2261L36.9489 52.2138H36.9497L36.9494 52.2261ZM36.0507 52.2261L36.0504 52.2138H36.0511L36.0507 52.2261ZM43.8743 38.8614C43.6057 38.8614 43.5128 39.2418 43.6841 39.4432C43.9874 39.8001 44.1699 40.2591 44.1699 40.76C44.1699 41.8965 43.2303 42.8179 42.0714 42.8179C40.9125 42.8179 39.9729 41.8965 39.9729 40.76C39.9729 40.6992 39.892 40.669 39.8554 40.7182C39.5245 41.1641 39.3011 41.6645 39.2093 42.19C39.1576 42.4859 38.9123 42.731 38.6042 42.731H38.434C38.0317 42.731 37.6999 42.4113 37.7593 42.0238C38.1662 39.3686 40.8347 37.4428 43.8743 37.4428C46.9137 37.4428 49.5822 39.3686 49.9892 42.0238C50.0486 42.4113 49.7167 42.731 49.3145 42.731C48.9123 42.731 48.5938 42.4096 48.5064 42.0272C48.1085 40.2868 46.2642 38.8614 43.8743 38.8614ZM25.2399 40.76C25.2399 40.6799 25.1339 40.6368 25.084 40.7006C24.7302 41.1534 24.4891 41.666 24.3872 42.2065C24.3269 42.5257 24.0621 42.7909 23.7289 42.7909H23.604C23.2018 42.7909 22.87 42.4712 22.9293 42.0837C23.336 39.427 26.0049 37.5027 29.0443 37.5027C32.0837 37.5027 34.7525 39.427 35.1592 42.0837C35.2186 42.4712 34.8868 42.7909 34.4846 42.7909C34.0823 42.7909 33.7639 42.4696 33.6765 42.0871C33.2789 40.3457 31.4347 38.9214 29.0443 38.9214C28.8271 38.9214 28.7475 39.2205 28.8929 39.3777C29.2309 39.743 29.4368 40.228 29.4368 40.76C29.4368 41.8965 28.4973 42.8179 27.3384 42.8179C26.1794 42.8179 25.2399 41.8965 25.2399 40.76ZM38.8345 45.7228C39.1187 45.4457 39.558 45.3109 39.911 45.4988C40.264 45.6866 40.3979 46.1228 40.1434 46.4262C39.315 47.4145 37.9737 48.0408 36.4944 48.0408C35.0158 48.0408 33.6716 47.4211 32.842 46.4253C32.5886 46.1211 32.7241 45.6854 33.0778 45.4988C33.4314 45.3122 33.8701 45.4486 34.1539 45.7262C34.7008 46.2607 35.5304 46.6221 36.4944 46.6221C37.4558 46.6221 38.2865 46.2571 38.8345 45.7228Z" fill="white"/>
</g>
<defs>
<clipPath id="clip0_6_39917">
<rect width="72" height="72" fill="white" transform="translate(0.500488 0.54834)"/>
</clipPath>
</defs>
</svg>
