<svg xmlns="http://www.w3.org/2000/svg" width="288" height="90" viewBox="0 0 288 90" fill="none">
<mask id="path-1-inside-1_530_2680" fill="white">
<path d="M2.4714e-06 45.5793C1.10648e-06 70.1122 19.8878 90 44.4207 90L52.7621 90L52.7621 1.15869L44.4207 1.15869C19.8878 1.15869 3.83632e-06 21.0465 2.4714e-06 45.5793V45.5793Z"/>
</mask>
<path d="M-20 45.5793C-20 81.1579 8.84211 110 44.4207 110L52.7621 110L52.7621 70L44.4207 70C30.9335 70 20 59.0665 20 45.5793L-20 45.5793ZM52.7621 -18.8413L44.4207 -18.8413C8.84212 -18.8413 -20 10.0008 -20 45.5793L20 45.5793C20 32.0922 30.9335 21.1587 44.4207 21.1587L52.7621 21.1587L52.7621 -18.8413ZM44.4207 -18.8413C8.84212 -18.8413 -20 10.0008 -20 45.5793C-20 81.1579 8.84211 110 44.4207 110L44.4207 70C30.9335 70 20 59.0665 20 45.5793C20 32.0922 30.9335 21.1587 44.4207 21.1587L44.4207 -18.8413ZM52.7621 90L52.7621 1.15869L52.7621 90Z" fill="black" mask="url(#path-1-inside-1_530_2680)"/>
<rect x="62.7617" y="1" width="20" height="20" rx="10" fill="black"/>
<rect x="62.7617" y="35" width="20" height="20" rx="10" fill="black"/>
<rect x="62.7617" y="69" width="20" height="20" rx="10" fill="#CF5C10"/>
<path d="M133.313 1.31592C136.761 4.63691 140.111 7.86272 143.516 11.1449C146.841 7.89797 150.155 4.66159 153.581 1.31944V21.3159H148.445V12.4035C146.71 14.1028 145.085 15.6998 143.396 17.3568C141.792 15.7316 140.209 14.1275 138.626 12.5234C138.584 12.541 138.545 12.5622 138.503 12.5798V21.3089H133.317V1.31592H133.313Z" fill="black"/>
<path d="M156.418 1.42161C159.754 4.63797 163.09 7.85434 166.504 11.1448C169.84 7.88961 173.159 4.65913 176.583 1.31934V21.3193H171.455V12.4038C170.881 12.9504 170.408 13.3913 169.95 13.8427C168.895 14.8866 167.837 15.927 166.807 16.9956C166.5 17.313 166.314 17.3059 166.014 16.9956C164.607 15.5532 163.185 14.1284 161.764 12.6965C161.701 12.633 161.63 12.5766 161.489 12.4532V21.3123H156.305V1.52036C156.343 1.48862 156.379 1.45335 156.418 1.42161Z" fill="black"/>
<path d="M120.295 21.3594C117.579 21.3098 114.629 19.9676 112.533 17.092C109.774 13.3134 110.124 7.94114 113.414 4.59101C116.538 1.40733 121.4 0.479489 125.48 2.23955C129.651 4.03856 131.918 7.61533 131.635 12.1518C131.468 14.8149 130.321 17.0601 128.27 18.7919C126.153 20.5803 123.9 21.3629 120.299 21.3594H120.295ZM116.07 10.7671C116.056 14.2554 117.639 16.359 120.299 16.7627C122.328 17.0708 124.081 16.5112 125.324 14.7618C126.223 13.4975 126.415 12.0668 126.266 10.5724C125.873 6.62021 122.169 4.96639 118.939 6.38648C116.853 7.30369 116.116 9.14166 116.07 10.7671Z" fill="black"/>
<path d="M198.516 1C202.606 4.36634 206.583 7.64049 210.66 10.9966V1.61454H215.364V21C211.288 17.6541 207.317 14.3971 203.248 11.058V20.3752H198.516V1Z" fill="black"/>
<path d="M179.087 1.45654H184.328V2.14341C184.328 5.78527 184.328 9.4307 184.328 13.0725C184.328 13.4231 184.349 13.7773 184.388 14.1279C184.603 16.0669 185.791 17.0292 187.748 16.972C190.044 16.904 190.835 15.4802 190.885 13.6485C190.921 12.2354 190.892 10.8223 190.892 9.40923C190.892 6.97298 190.892 4.54031 190.892 2.10406V1.4637H196.119C196.133 1.58533 196.155 1.69266 196.155 1.79998C196.155 5.87113 196.205 9.94227 196.14 14.0134C196.076 17.8914 193.704 20.5673 189.812 21.2399C187.44 21.6513 185.093 21.5297 182.904 20.4135C180.689 19.283 179.459 17.4156 179.173 14.9686C179.047 13.9025 179.069 12.8185 179.065 11.7453C179.055 8.4934 179.062 5.23792 179.065 1.98601C179.065 1.82144 179.08 1.66046 179.09 1.46012L179.087 1.45654Z" fill="black"/>
<path d="M266.102 6.12528H257.436V10.7645H264.633V15.0575H257.429V17.1384H266.518V21.6318H252.061V1.63184H266.102V6.12528Z" fill="black"/>
<path d="M110.316 5.55574C109.016 6.43776 107.744 7.3056 106.423 8.20179C106.274 8.02822 106.129 7.87236 105.998 7.70587C103.876 5.02087 99.6959 5.28299 98.063 8.27971C96.8763 10.4546 97.0924 13.8339 99.0406 15.6405C100.234 16.7492 101.658 16.9475 103.196 16.7633C104.861 16.565 105.92 15.5342 106.745 14.1386C107.422 14.5672 108.08 14.9816 108.736 15.4031C109.395 15.8282 110.053 16.2604 110.709 16.689C108.782 20.3197 105.048 21.9279 100.249 21.184C95.8668 20.5039 92.4556 16.7952 92.0483 12.4418C91.6126 7.77672 94.1594 3.56501 98.3357 2.01352C102.356 0.518696 107.758 1.55303 110.316 5.55574Z" fill="black"/>
<path d="M266.563 17.7081C267.833 16.7557 269.046 15.8491 270.285 14.9214C270.715 15.3059 271.121 15.6904 271.551 16.0467C272.838 17.1119 274.323 17.1719 275.854 16.7909C276.443 16.6463 276.814 16.2124 276.846 15.5528C276.877 14.9179 276.567 14.484 276.017 14.2653C274.757 13.7715 273.477 13.3341 272.214 12.8579C270.489 12.2088 269.001 11.2635 268.267 9.46448C267.138 6.69192 267.971 3.1398 271.523 1.9052C274.376 0.913996 277.181 1.15033 279.752 2.87877C280.168 3.15744 280.518 3.5384 280.937 3.90525C279.918 4.97054 278.948 5.98291 277.957 7.01645C277.696 6.80833 277.456 6.61079 277.216 6.42384C276.274 5.69366 275.198 5.50318 274.055 5.72893C273.286 5.88061 272.902 6.29685 272.86 6.89651C272.814 7.54909 273.121 8.00765 273.875 8.27927C275.061 8.70961 276.26 9.10116 277.449 9.51739C278.563 9.90894 279.586 10.4486 280.451 11.2705C281.943 12.6921 282.183 14.4805 281.886 16.3747C281.477 19.0062 279.703 20.6394 276.789 21.1297C274.249 21.5565 271.784 21.2884 269.459 20.142C268.323 19.5811 267.371 18.7628 266.56 17.6975L266.563 17.7081Z" fill="black"/>
<path d="M242.199 6.09419H236.92V21.623H231.549V6.12332H226.273V1.62305H242.203V6.09783L242.199 6.09419Z" fill="black"/>
<path d="M243.655 1.61816H248.946V21.6182H243.655V1.61816Z" fill="black"/>
<path d="M224.127 21.6057H218.833V1.60938H224.127V21.6094V21.6057Z" fill="black"/>
<path d="M115.878 10.4241C115.922 8.857 116.633 7.08506 118.643 6.2008C121.754 4.83174 125.328 6.42614 125.707 10.2363C125.851 11.6771 125.666 13.0564 124.799 14.2752C123.601 15.9618 121.911 16.5047 119.954 16.2042C117.394 15.8116 115.864 13.787 115.878 10.4241Z" fill="white"/>
<path d="M224.972 40.0181C223.568 40.8704 222.207 41.6944 221.065 42.384C220.424 41.8464 219.897 41.3372 219.3 40.9199C217.362 39.5619 213.376 39.7281 212.301 43.3459C211.704 45.3581 211.781 47.3349 212.952 49.1597C213.871 50.5884 215.268 51.1366 216.909 51.0941C217.542 51.08 218.193 50.9951 218.801 50.8183C219.788 50.5318 220.431 49.821 220.866 48.8167H217.199V44.8029H226.397C226.348 45.7365 226.355 46.6666 226.238 47.5825C225.948 49.8847 225.107 51.9393 223.314 53.5095C221.942 54.7118 220.297 55.2883 218.515 55.5181C215.594 55.893 212.871 55.3732 210.512 53.5378C207.531 51.2214 206.282 48.1129 206.689 44.3927C207.336 38.4303 212.789 34.8302 218.589 35.7851C221.333 36.2377 223.487 37.5497 224.969 40.0146L224.972 40.0181Z" fill="black"/>
<path d="M124.525 49.9881C125.681 51.8366 126.834 53.6743 128.052 55.6207C127.689 55.6207 127.418 55.6207 127.149 55.6207C125.678 55.6207 124.21 55.6062 122.738 55.6316C122.361 55.6388 122.169 55.4975 121.988 55.1894C121.252 53.9425 120.476 52.721 119.744 51.4742C119.545 51.1335 119.309 51.0138 118.925 51.0392C118.461 51.0682 117.99 51.0465 117.479 51.0465V55.5844H112.169V35.7C112.245 35.6818 112.336 35.6456 112.423 35.6456C115.137 35.6528 117.852 35.584 120.56 35.7C123.322 35.8196 125.613 36.9468 127.07 39.4115C128.78 42.3003 128.672 47.5161 124.728 49.8032C124.667 49.8395 124.619 49.9011 124.522 49.9881H124.525ZM117.493 46.8238C118.454 46.7803 119.389 46.7803 120.317 46.6897C121.354 46.5882 122.079 46.0155 122.452 45.0297C122.811 44.0836 122.8 43.1231 122.543 42.159C122.372 41.5138 121.981 41.0245 121.412 40.6765C120.187 39.9262 118.835 40.2416 117.493 40.151V46.8274V46.8238Z" fill="black"/>
<path d="M204.085 55.6323C200.087 52.351 196.092 49.0697 192.012 45.7198V55.0734H187.273V35.6323C191.385 39.0165 195.386 42.3081 199.487 45.682V36.2426H204.215V55.5295C204.174 55.5637 204.129 55.598 204.088 55.6323H204.085Z" fill="black"/>
<path d="M129.649 35.6323H143.655V40.12H135.011V44.7533H142.203V49.0736H135.014V51.141H144.084V55.6323H129.649V35.636V35.6323Z" fill="black"/>
<path d="M106.727 48.3887C108.068 49.2517 109.373 50.0898 110.67 50.9244C109.588 53.9376 105.157 56.063 101.026 55.5573C96.1529 54.9596 92.535 51.3983 92.0576 46.7266C91.566 41.9452 94.2573 37.6518 98.7275 36.1629C102.858 34.7907 107.99 36.0993 110.274 39.8374C108.994 40.7074 107.714 41.5774 106.469 42.4261C105.896 41.8992 105.429 41.3015 104.821 40.9337C102.851 39.7348 99.6223 39.5827 98.0379 42.5747C96.8567 44.8062 97.1219 48.1058 99.014 49.8812C100.202 50.9952 101.62 51.2038 103.155 51.0235C104.817 50.829 105.889 49.8175 106.72 48.3887H106.727Z" fill="black"/>
<path d="M154.384 35.6323C157.55 42.2693 160.72 48.9062 163.926 55.6246C162.903 55.6246 161.955 55.6246 161.01 55.6246C160.31 55.6246 159.613 55.6069 158.916 55.6316C158.605 55.6422 158.46 55.5326 158.354 55.2495C158.194 54.8215 157.982 54.4146 157.78 53.9724C155.424 53.9724 153.072 53.9653 150.719 53.9865C150.574 53.9865 150.372 54.1564 150.298 54.3014C150.079 54.7224 149.909 55.1682 149.718 55.6104H144.616C147.818 48.9239 150.998 42.2834 154.179 35.6429C154.246 35.6429 154.317 35.6359 154.384 35.6323ZM152.12 50.0136H156.04C155.382 48.5312 154.741 47.0949 154.055 45.5418C153.376 47.109 152.764 48.5312 152.12 50.0136Z" fill="black"/>
<path d="M177.249 35.6323V40.1059H171.987V55.6323H166.622V40.1531H161.345V35.6323H177.246H177.249Z" fill="black"/>
<path d="M178.806 55.6323V35.6323H184.105V55.6323H178.806Z" fill="black"/>
<path d="M112.057 70.2515H117.008V78.7868H123.576V70.2651H128.592V89.0121H123.607V83.1091H117.069V89.0087H112.054V70.2549L112.057 70.2515Z" fill="#CF5C10"/>
<path d="M187.643 73.3487C186.448 74.3763 185.301 75.3664 184.137 76.3702C183.154 75.2469 182.013 74.5197 180.525 74.39C177.715 74.151 175.632 75.8239 175.294 78.6269C175.127 80.0131 175.26 81.348 175.933 82.5942C176.691 84.0042 177.875 84.8099 179.466 84.9806C180.859 85.1309 182.221 85.0182 183.529 84.4583C183.816 84.3354 183.952 84.1988 183.929 83.8779C183.901 83.5126 183.922 83.1404 183.922 82.7068H180.193V78.8523H188.394V79.3473C188.394 81.6348 188.384 83.9223 188.404 86.2097C188.404 86.5784 188.268 86.7867 187.995 86.9984C186.042 88.5143 183.775 89.1015 181.361 89.2415C179.832 89.3268 178.323 89.221 176.837 88.7703C172.689 87.5071 169.914 83.6457 170.074 79.3063C170.262 74.2773 173.952 70.4945 179.19 70.0438C181.935 69.8082 184.471 70.3989 186.609 72.2562C186.728 72.362 186.854 72.461 186.964 72.5771C187.179 72.8092 187.384 73.0516 187.643 73.3453V73.3487Z" fill="#CF5C10"/>
<path d="M150.805 69.6318C154.892 72.9948 158.873 76.2723 162.942 79.6182V70.2464H167.654V89.6318C163.571 86.2792 159.593 83.0152 155.517 79.6728V89.0002H150.802V69.6318H150.805Z" fill="#CF5C10"/>
<path d="M190.958 70.2549H204.089V74.4645H195.988V78.8209H202.744V82.8428H195.994V84.7889H204.468V89.0087H190.955V70.2549H190.958Z" fill="#CF5C10"/>
<path d="M109.613 74.058C108.377 74.8979 107.141 75.7378 105.939 76.5538C105.41 76.0621 104.976 75.5329 104.43 75.1676C102.675 73.9829 99.4046 73.7371 97.8272 76.6562C96.7006 78.7422 96.8918 81.9754 98.7183 83.7166C99.8723 84.8194 101.258 85.0242 102.757 84.8467C104.362 84.6555 105.39 83.6756 106.192 82.31C107.472 83.1328 108.742 83.9454 110.009 84.7613C108.251 88.1516 104.727 89.8108 99.9952 89.1212C95.748 88.4998 92.2997 84.7545 92.0266 80.5859C91.7057 75.7105 94.3072 71.7228 98.7832 70.4083C102.832 69.2202 107.52 70.5961 109.613 74.058Z" fill="#CF5C10"/>
<path d="M149.005 89.263H143.826C143.69 88.9864 143.492 88.7304 143.434 88.447C143.283 87.73 142.836 87.6515 142.201 87.6652C140.303 87.7027 138.405 87.6891 136.503 87.6686C136.131 87.6652 135.882 87.7539 135.806 88.1227C135.598 89.164 134.932 89.3688 133.963 89.2937C132.802 89.2049 131.631 89.2732 130.371 89.2732C133.471 82.7932 136.534 76.3951 139.6 69.9936C139.661 69.98 139.726 69.9697 139.787 69.9561C142.85 76.3644 145.909 82.7761 149.005 89.2596V89.263ZM139.48 79.5327C138.828 81.052 138.237 82.4313 137.633 83.8482H141.392C140.757 82.4108 140.153 81.0486 139.48 79.5327Z" fill="#CF5C10"/>
</svg>