<svg width="65" height="48" viewBox="0 0 65 48" fill="none" xmlns="http://www.w3.org/2000/svg">
<path d="M2.12306 29.8626C2.55506 27.3666 3.46706 25.1466 4.85906 23.2026C6.25106 21.2346 8.00306 19.7106 10.1151 18.6306C12.2271 17.5266 14.5311 16.9746 17.0271 16.9746C19.1151 16.9746 20.9391 17.3586 22.4991 18.1266C24.0591 18.8946 25.2711 19.9866 26.1351 21.4026C26.9991 22.8186 27.4671 24.4866 27.5391 26.4066H19.9431C19.6551 25.4706 19.1511 24.7506 18.4311 24.2466C17.7111 23.7426 16.8231 23.4906 15.7671 23.4906C14.1351 23.4906 12.7311 24.0666 11.5551 25.2186C10.3791 26.3706 9.62306 27.9186 9.28706 29.8626C9.19106 30.3666 9.14306 30.9066 9.14306 31.4826C9.14306 32.9706 9.52706 34.1466 10.2951 35.0106C11.0871 35.8506 12.1671 36.2706 13.5351 36.2706C14.5911 36.2706 15.5631 36.0186 16.4511 35.5146C17.3631 35.0106 18.1191 34.2906 18.7191 33.3546H26.3511C25.1991 36.2586 23.3871 38.5626 20.9151 40.2666C18.4431 41.9466 15.6231 42.7866 12.4551 42.7866C10.2711 42.7866 8.37506 42.3666 6.76706 41.5266C5.18306 40.6866 3.97106 39.4986 3.13106 37.9626C2.29106 36.4266 1.87106 34.6506 1.87106 32.6346C1.87106 31.6986 1.95506 30.7746 2.12306 29.8626ZM30.9883 24.1386C31.5643 21.4266 32.7763 19.3506 34.6243 17.9106C36.4723 16.4466 38.8003 15.7146 41.6083 15.7146C44.0563 15.7146 45.9283 16.2666 47.2243 17.3706C48.5203 18.4506 49.1683 19.8666 49.1683 21.6186C49.1683 22.0266 49.1323 22.4706 49.0603 22.9506C48.7723 24.5826 48.1483 25.8906 47.1883 26.8746C46.2283 27.8346 45.2083 28.4826 44.1283 28.8186V28.9626C46.3843 29.8506 47.5123 31.4466 47.5123 33.7506C47.5123 34.0146 47.4643 34.4826 47.3683 35.1546C47.1043 36.6666 46.5163 37.9986 45.6043 39.1506C44.7163 40.3026 43.5523 41.2026 42.1123 41.8506C40.6723 42.4986 39.0523 42.8226 37.2523 42.8226C34.6123 42.8226 32.5483 42.2586 31.0603 41.1306C29.5723 40.0026 28.8283 38.2626 28.8283 35.9106C28.8283 35.2146 28.8763 34.5666 28.9723 33.9666H35.8483C35.7763 34.2786 35.7403 34.5906 35.7403 34.9026C35.7403 36.2946 36.4843 36.9906 37.9723 36.9906C38.7403 36.9906 39.3883 36.7026 39.9163 36.1266C40.4443 35.5506 40.7083 34.8306 40.7083 33.9666C40.7083 33.2706 40.4323 32.7666 39.8803 32.4546C39.3523 32.1186 38.5003 31.9506 37.3243 31.9506H36.1003L37.1443 26.2266H38.3323C39.2443 26.2506 40.0483 26.1066 40.7443 25.7946C41.4403 25.4586 41.8723 24.7986 42.0403 23.8146C42.0643 23.6706 42.0763 23.4786 42.0763 23.2386C42.0763 22.6866 41.9323 22.2786 41.6443 22.0146C41.3563 21.7266 40.9483 21.5826 40.4203 21.5826C39.7003 21.5826 39.1363 21.8346 38.7283 22.3386C38.3203 22.8186 38.0443 23.4186 37.9003 24.1386H30.9883Z" fill="#363636"/>
<path d="M56.2694 10.858L50.166 7.06598V14.0336L56.2694 17.8256M56.8473 1.39346L50.6717 5.00493L56.8473 8.8692L63.1673 5.00493M63.8535 7.06598L57.6057 10.858V17.8256L63.8535 14.0336" stroke="#363636"/>
</svg>
