<svg xmlns="http://www.w3.org/2000/svg" width="133" height="139" viewBox="0 0 133 139" fill="none">
<rect y="0.714355" width="133" height="138" rx="66.5" fill="white"/>
<mask id="path-2-inside-1_530_2740" fill="white">
<path d="M20 70.2937C20 94.8265 39.8878 114.714 64.4207 114.714L72.7621 114.714L72.7621 25.873L64.4207 25.873C39.8878 25.873 20 45.7608 20 70.2937Z"/>
</mask>
<path d="M2.4714e-06 70.2937C4.91942e-07 105.872 28.8421 134.714 64.4207 134.714L72.7621 134.714L72.7621 94.7144L64.4207 94.7144C50.9335 94.7144 40 83.7809 40 70.2937L2.4714e-06 70.2937ZM72.7621 5.87305L64.4207 5.87305C28.8421 5.87305 4.45086e-06 34.7152 2.4714e-06 70.2937L40 70.2937C40 56.8065 50.9335 45.873 64.4207 45.873L72.7621 45.873L72.7621 5.87305ZM64.4207 5.87305C28.8421 5.87305 4.45086e-06 34.7152 2.4714e-06 70.2937C4.91942e-07 105.872 28.8421 134.714 64.4207 134.714L64.4207 94.7144C50.9335 94.7144 40 83.7809 40 70.2937C40 56.8065 50.9335 45.873 64.4207 45.873L64.4207 5.87305ZM72.7621 114.714L72.7621 25.873L72.7621 114.714Z" fill="black" mask="url(#path-2-inside-1_530_2740)"/>
<rect x="82.7617" y="25.7144" width="20" height="20" rx="10" fill="black"/>
<rect x="82.7617" y="59.7144" width="20" height="20" rx="10" fill="black"/>
<rect x="82.7617" y="93.7144" width="20" height="20" rx="10" fill="#CF5C10"/>
</svg>