<svg xmlns="http://www.w3.org/2000/svg" width="133" height="139" viewBox="0 0 133 139" fill="none">
<rect y="0.683594" width="133" height="138" rx="66.5" fill="black"/>
<mask id="path-2-inside-1_530_2733" fill="white">
<path d="M20 70.2629C20 94.7958 39.8878 114.684 64.4207 114.684L72.7621 114.684L72.7621 25.8423L64.4207 25.8423C39.8878 25.8423 20 45.7301 20 70.2629Z"/>
</mask>
<path d="M2.4714e-06 70.2629C4.91942e-07 105.841 28.8421 134.684 64.4207 134.684L72.7621 134.684L72.7621 94.6836L64.4207 94.6836C50.9335 94.6836 40 83.7501 40 70.2629L2.4714e-06 70.2629ZM72.7621 5.84229L64.4207 5.84229C28.8421 5.84229 4.45086e-06 34.6844 2.4714e-06 70.2629L40 70.2629C40 56.7758 50.9335 45.8423 64.4207 45.8423L72.7621 45.8423L72.7621 5.84229ZM64.4207 5.84229C28.8421 5.84229 4.45086e-06 34.6844 2.4714e-06 70.2629C4.91942e-07 105.841 28.8421 134.684 64.4207 134.684L64.4207 94.6836C50.9335 94.6836 40 83.7501 40 70.2629C40 56.7758 50.9335 45.8423 64.4207 45.8423L64.4207 5.84229ZM72.7621 114.684L72.7621 25.8423L72.7621 114.684Z" fill="white" mask="url(#path-2-inside-1_530_2733)"/>
<rect x="82.7617" y="25.6836" width="20" height="20" rx="10" fill="white"/>
<rect x="82.7617" y="59.6836" width="20" height="20" rx="10" fill="white"/>
<rect x="82.7617" y="93.6836" width="20" height="20" rx="10" fill="#CF5C10"/>
</svg>