<svg xmlns="http://www.w3.org/2000/svg" width="83" height="91" viewBox="0 0 83 91" fill="none">
<mask id="path-1-inside-1_530_2798" fill="white">
<path d="M2.4714e-06 46.2937C1.10648e-06 70.8265 19.8878 90.7144 44.4207 90.7144L52.7621 90.7144L52.7621 1.87305L44.4207 1.87305C19.8878 1.87305 3.83632e-06 21.7608 2.4714e-06 46.2937Z"/>
</mask>
<path d="M-20 46.2937C-20 81.8722 8.84211 110.714 44.4207 110.714L52.7621 110.714L52.7621 70.7144L44.4207 70.7144C30.9335 70.7144 20 59.7809 20 46.2937L-20 46.2937ZM52.7621 -18.127L44.4207 -18.127C8.84212 -18.127 -20 10.7152 -20 46.2937L20 46.2937C20 32.8065 30.9335 21.873 44.4207 21.873L52.7621 21.873L52.7621 -18.127ZM44.4207 -18.127C8.84212 -18.127 -20 10.7152 -20 46.2937C-20 81.8722 8.84211 110.714 44.4207 110.714L44.4207 70.7144C30.9335 70.7144 20 59.7809 20 46.2937C20 32.8065 30.9335 21.873 44.4207 21.873L44.4207 -18.127ZM52.7621 90.7144L52.7621 1.87305L52.7621 90.7144Z" fill="black" mask="url(#path-1-inside-1_530_2798)"/>
<rect x="62.7617" y="1.71436" width="20" height="20" rx="10" fill="black"/>
<rect x="62.7617" y="35.7144" width="20" height="20" rx="10" fill="black"/>
<rect x="62.7617" y="69.7144" width="20" height="20" rx="10" fill="#CF5C10"/>
</svg>