<svg width="736" height="690" viewBox="0 0 736 690" fill="none" xmlns="http://www.w3.org/2000/svg">
<path d="M642.788 461.457C643.069 460.452 644.554 460.68 644.521 461.723L643.642 489.74C643.63 490.125 643.869 490.474 644.233 490.601L666.793 498.496C667.717 498.82 667.508 500.181 666.53 500.213L642.641 500.986C642.256 500.999 641.923 501.259 641.819 501.631L634.263 528.624C633.982 529.629 632.497 529.401 632.53 528.359L633.409 500.341C633.421 499.956 633.182 499.607 632.818 499.48L610.258 491.585C609.334 491.262 609.543 489.9 610.521 489.869L634.41 489.095C634.795 489.083 635.128 488.822 635.232 488.451L642.788 461.457Z" fill="black"/>
<g filter="url(#filter0_d_2753_27708)">
<circle cx="532.829" cy="176.422" r="47.9064" fill="#AAAAAA"/>
<circle cx="532.829" cy="176.422" r="46.5756" stroke="black" stroke-width="2.66147"/>
</g>
<g filter="url(#filter1_d_2753_27708)">
<rect x="159.184" y="130.997" width="330.022" height="528.673" rx="10.6459" transform="rotate(-9.24098 159.184 130.997)" fill="#FFFEF0" shape-rendering="crispEdges"/>
<rect x="197.363" y="158.491" width="263.485" height="263.485" rx="9.31513" transform="rotate(-9.24098 197.363 158.491)" fill="white"/>
<g filter="url(#filter2_b_2753_27708)">
<rect x="211.107" y="168.39" width="54.2917" height="26.6459" rx="10.6459" transform="rotate(-9.24098 211.107 168.39)" fill="white" fill-opacity="0.5"/>
<path d="M223.748 176.808L223.472 175.114L226.638 174.599L228.196 184.174L226.304 184.482L225.022 176.601L223.748 176.808ZM236.602 182.927C235.902 183.041 235.247 182.991 234.636 182.775C234.025 182.551 233.51 182.181 233.094 181.665C232.686 181.147 232.422 180.516 232.3 179.771C232.179 179.027 232.235 178.344 232.466 177.722C232.706 177.099 233.086 176.588 233.605 176.189C234.123 175.781 234.732 175.52 235.433 175.406C236.133 175.292 236.794 175.346 237.414 175.569C238.033 175.783 238.551 176.148 238.968 176.664C239.393 177.179 239.666 177.809 239.787 178.553C239.908 179.298 239.844 179.982 239.595 180.607C239.355 181.23 238.972 181.746 238.445 182.156C237.926 182.555 237.312 182.812 236.602 182.927ZM236.342 181.325C236.674 181.271 236.973 181.142 237.236 180.937C237.506 180.722 237.703 180.438 237.825 180.086C237.948 179.733 237.971 179.325 237.896 178.861C237.783 178.169 237.513 177.67 237.086 177.362C236.665 177.043 236.192 176.927 235.667 177.013C235.142 177.098 234.73 177.358 234.432 177.793C234.142 178.218 234.053 178.776 234.166 179.468C234.278 180.16 234.536 180.666 234.939 180.987C235.349 181.298 235.816 181.411 236.342 181.325ZM244.126 175.663L242.852 175.871L243.79 181.637L241.925 181.94L240.987 176.174L240.159 176.309L239.914 174.798L240.741 174.664L240.681 174.296C240.536 173.403 240.683 172.705 241.123 172.202C241.562 171.699 242.296 171.377 243.325 171.237L243.577 172.787C243.129 172.85 242.83 172.975 242.681 173.162C242.531 173.348 242.49 173.646 242.557 174.058L242.606 174.36L243.88 174.153L244.126 175.663ZM252.971 172.768C252.824 172.415 252.626 172.164 252.377 172.015C252.137 171.866 251.816 171.824 251.413 171.889C250.809 171.987 250.402 172.305 250.193 172.843C249.991 173.37 249.975 174.181 250.144 175.277C250.297 174.893 250.559 174.572 250.931 174.314C251.301 174.047 251.722 173.875 252.195 173.798C252.764 173.705 253.288 173.746 253.765 173.92C254.243 174.094 254.643 174.397 254.965 174.83C255.286 175.254 255.5 175.795 255.606 176.451C255.708 177.073 255.671 177.65 255.497 178.182C255.33 178.703 255.028 179.139 254.591 179.488C254.153 179.838 253.602 180.067 252.936 180.176C252.026 180.324 251.275 180.239 250.684 179.922C250.102 179.603 249.647 179.102 249.32 178.418C249 177.724 248.754 176.847 248.582 175.788C248.321 174.185 248.401 172.932 248.82 172.028C249.237 171.115 250.042 170.562 251.233 170.368C252.152 170.218 252.906 170.352 253.495 170.768C254.084 171.185 254.479 171.759 254.679 172.49L252.971 172.768ZM252.021 175.377C251.556 175.452 251.189 175.651 250.918 175.974C250.647 176.297 250.553 176.716 250.637 177.233C250.721 177.75 250.932 178.133 251.27 178.384C251.616 178.633 252.056 178.714 252.59 178.628C253.063 178.551 253.411 178.346 253.636 178.012C253.869 177.678 253.946 177.265 253.866 176.775C253.783 176.267 253.582 175.887 253.262 175.633C252.951 175.378 252.537 175.293 252.021 175.377Z" fill="black" fill-opacity="0.8"/>
</g>
<rect x="197.363" y="158.491" width="263.485" height="263.485" rx="9.31513" transform="rotate(-9.24098 197.363 158.491)" stroke="black" stroke-width="2.66147"/>
<rect x="241.995" y="441.099" width="46.9482" height="46.9482" rx="6.65366" transform="rotate(-9.24098 241.995 441.099)" fill="#F5F5F5"/>
<rect x="243.522" y="442.199" width="44.2868" height="44.2868" rx="5.32293" transform="rotate(-9.24098 243.522 442.199)" stroke="black" stroke-opacity="0.1" stroke-width="2.66147"/>
<path d="M268.344 461.515L265.862 461.919L266.276 464.467L264.542 464.749L264.128 462.201L261.645 462.605L261.385 461.002L263.867 460.598L263.453 458.05L265.186 457.768L265.601 460.316L268.083 459.912L268.344 461.515ZM269.099 458.129C269 457.246 269.197 456.522 269.689 455.957C270.189 455.381 270.907 455.017 271.844 454.865C272.483 454.761 273.049 454.786 273.541 454.939C274.032 455.084 274.423 455.33 274.713 455.679C275.011 456.017 275.199 456.427 275.277 456.908C275.367 457.46 275.299 457.952 275.072 458.384C274.854 458.806 274.558 459.115 274.185 459.31L274.194 459.363C274.727 459.438 275.167 459.654 275.512 460.011C275.867 460.367 276.096 460.86 276.198 461.491C276.284 462.016 276.237 462.504 276.059 462.956C275.89 463.406 275.588 463.788 275.153 464.101C274.726 464.404 274.184 464.609 273.528 464.716C272.538 464.877 271.692 464.758 270.989 464.361C270.286 463.963 269.838 463.28 269.645 462.314L271.431 462.024C271.518 462.45 271.719 462.772 272.033 462.991C272.355 463.199 272.757 463.264 273.238 463.186C273.685 463.113 274.006 462.935 274.203 462.651C274.407 462.357 274.477 462.013 274.412 461.619C274.327 461.094 274.099 460.745 273.73 460.571C273.36 460.397 272.825 460.368 272.124 460.482L271.743 460.544L271.497 459.033L271.878 458.971C273.122 458.769 273.676 458.252 273.54 457.42C273.479 457.043 273.318 456.769 273.056 456.596C272.803 456.421 272.466 456.368 272.046 456.436C271.634 456.503 271.333 456.669 271.142 456.934C270.959 457.188 270.878 457.489 270.898 457.836L269.099 458.129Z" fill="black"/>
<path opacity="0.8" d="M265.375 505.642C265.514 506.497 265.445 507.313 265.169 508.092C264.891 508.856 264.381 509.521 263.639 510.088C262.897 510.654 261.923 511.036 260.718 511.232L258.491 511.594L259.352 516.89L255.759 517.475L253.359 502.722L259.18 501.775C260.357 501.583 261.384 501.625 262.263 501.899C263.142 502.173 263.843 502.634 264.365 503.283C264.888 503.931 265.224 504.717 265.375 505.642ZM259.98 508.418C260.667 508.306 261.152 508.062 261.436 507.685C261.72 507.308 261.814 506.826 261.718 506.237C261.622 505.649 261.38 505.221 260.991 504.953C260.603 504.686 260.065 504.608 259.378 504.719L257.424 505.037L258.026 508.736L259.98 508.418ZM267.201 509.573C267.005 508.368 267.057 507.274 267.357 506.29C267.671 505.304 268.181 504.502 268.886 503.884C269.59 503.266 270.426 502.879 271.393 502.722C272.22 502.587 272.968 502.638 273.64 502.874C274.325 503.107 274.88 503.47 275.305 503.962L275.035 502.302L278.629 501.717L280.536 513.443L276.943 514.028L276.673 512.368C276.411 512.971 275.993 513.492 275.417 513.931C274.855 514.368 274.161 514.653 273.335 514.788C272.382 514.943 271.473 514.839 270.609 514.476C269.742 514.099 269.004 513.493 268.393 512.658C267.794 511.806 267.397 510.778 267.201 509.573ZM275.989 508.165C275.843 507.268 275.476 506.602 274.887 506.165C274.312 505.727 273.668 505.566 272.953 505.682C272.239 505.798 271.671 506.156 271.251 506.757C270.843 507.341 270.712 508.081 270.858 508.978C271.004 509.875 271.365 510.549 271.942 511.002C272.531 511.438 273.182 511.598 273.897 511.482C274.611 511.366 275.172 511.009 275.578 510.41C275.998 509.81 276.135 509.061 275.989 508.165ZM285.656 500.401C286.483 500.266 287.232 500.317 287.903 500.553C288.588 500.787 289.143 501.149 289.568 501.641L289.298 499.981L292.892 499.396L294.796 511.102C294.972 512.181 294.913 513.19 294.62 514.129C294.344 515.08 293.806 515.886 293.008 516.548C292.223 517.208 291.18 517.644 289.877 517.856C288.14 518.139 286.664 517.954 285.451 517.303C284.24 516.666 283.443 515.66 283.061 514.284L286.613 513.706C286.798 514.136 287.121 514.443 287.583 514.627C288.046 514.825 288.586 514.873 289.203 514.773C289.945 514.652 290.498 514.339 290.862 513.834C291.242 513.341 291.356 512.625 291.203 511.686L290.933 510.026C290.671 510.63 290.261 511.157 289.701 511.607C289.14 512.044 288.446 512.329 287.619 512.464C286.652 512.621 285.737 512.518 284.872 512.156C284.006 511.779 283.267 511.173 282.657 510.337C282.058 509.486 281.66 508.457 281.464 507.252C281.268 506.048 281.32 504.953 281.621 503.97C281.935 502.984 282.444 502.182 283.149 501.564C283.854 500.946 284.69 500.558 285.656 500.401ZM290.252 505.844C290.106 504.948 289.739 504.281 289.15 503.845C288.576 503.406 287.931 503.245 287.217 503.361C286.502 503.477 285.935 503.836 285.515 504.436C285.106 505.02 284.975 505.761 285.121 506.657C285.267 507.554 285.628 508.229 286.205 508.681C286.794 509.118 287.446 509.278 288.16 509.161C288.875 509.045 289.435 508.688 289.841 508.09C290.261 507.489 290.398 506.741 290.252 505.844ZM307.469 502.849C307.524 503.185 307.56 503.539 307.577 503.91L299.444 505.233C299.619 505.953 299.941 506.475 300.411 506.802C300.893 507.111 301.435 507.217 302.037 507.119C302.934 506.973 303.496 506.494 303.723 505.68L307.548 505.058C307.477 505.86 307.233 506.612 306.815 507.313C306.411 508.011 305.852 508.598 305.138 509.074C304.425 509.55 303.592 509.865 302.639 510.02C301.49 510.207 300.427 510.128 299.451 509.784C298.474 509.439 297.66 508.853 297.007 508.024C296.355 507.195 295.93 506.172 295.731 504.953C295.533 503.734 295.605 502.629 295.947 501.639C296.303 500.646 296.89 499.832 297.707 499.195C298.524 498.559 299.513 498.146 300.676 497.957C301.811 497.773 302.859 497.847 303.819 498.179C304.779 498.512 305.576 499.08 306.21 499.883C306.858 500.683 307.278 501.672 307.469 502.849ZM303.637 502.502C303.537 501.885 303.247 501.429 302.768 501.133C302.288 500.837 301.733 500.741 301.103 500.843C300.5 500.941 300.017 501.199 299.654 501.618C299.305 502.034 299.133 502.573 299.14 503.233L303.637 502.502ZM328.001 505.721L324.407 506.306L316.916 498.184L318.397 507.284L314.803 507.868L312.403 493.116L315.996 492.531L323.494 500.695L322.007 491.553L325.6 490.968L328.001 505.721ZM335.971 504.597C334.822 504.784 333.745 504.707 332.741 504.367C331.751 504.025 330.915 503.442 330.234 502.618C329.568 501.792 329.135 500.769 328.937 499.55C328.741 498.345 328.835 497.244 329.219 496.247C329.601 495.236 330.215 494.41 331.06 493.769C331.905 493.128 332.901 492.714 334.05 492.527C335.199 492.34 336.276 492.417 337.28 492.757C338.285 493.097 339.128 493.686 339.811 494.524C340.492 495.348 340.93 496.362 341.126 497.567C341.322 498.772 341.222 499.881 340.826 500.895C340.442 501.892 339.82 502.712 338.962 503.355C338.117 503.996 337.12 504.41 335.971 504.597ZM335.465 501.487C336.151 501.375 336.692 501.028 337.086 500.446C337.494 499.862 337.622 499.101 337.469 498.162C337.317 497.223 336.961 496.541 336.403 496.114C335.858 495.685 335.243 495.526 334.556 495.638C333.856 495.751 333.315 496.098 332.935 496.678C332.553 497.243 332.439 498.003 332.594 498.955C332.747 499.894 333.088 500.579 333.619 501.01C334.163 501.44 334.778 501.598 335.465 501.487ZM350.027 499.01L350.522 502.057L348.694 502.354C347.391 502.566 346.324 502.416 345.493 501.904C344.659 501.378 344.125 500.394 343.891 498.951L343.132 494.285L341.703 494.518L341.217 491.534L342.646 491.301L342.181 488.443L345.775 487.859L346.24 490.717L348.593 490.334L349.079 493.318L346.725 493.701L347.491 498.408C347.548 498.758 347.673 498.997 347.866 499.124C348.06 499.251 348.352 499.282 348.745 499.218L350.027 499.01ZM364.181 484.691L364.65 487.57L358.639 488.548L359.145 491.658L363.643 490.927L364.097 493.722L359.6 494.454L360.571 500.422L356.977 501.007L354.577 486.254L364.181 484.691ZM373.836 498.436C372.687 498.623 371.61 498.547 370.606 498.207C369.615 497.865 368.78 497.282 368.099 496.458C367.433 495.631 367 494.609 366.802 493.39C366.606 492.185 366.7 491.084 367.084 490.086C367.466 489.075 368.079 488.249 368.924 487.608C369.769 486.967 370.766 486.554 371.915 486.367C373.064 486.18 374.14 486.256 375.145 486.596C376.149 486.936 376.993 487.525 377.676 488.363C378.356 489.187 378.795 490.202 378.991 491.407C379.187 492.611 379.087 493.721 378.691 494.734C378.307 495.732 377.685 496.552 376.826 497.195C375.981 497.836 374.984 498.249 373.836 498.436ZM373.33 495.326C374.016 495.214 374.556 494.868 374.951 494.286C375.359 493.702 375.487 492.94 375.334 492.001C375.181 491.063 374.826 490.38 374.267 489.953C373.723 489.524 373.108 489.365 372.421 489.477C371.72 489.591 371.18 489.938 370.8 490.517C370.417 491.083 370.303 491.842 370.458 492.795C370.611 493.733 370.953 494.418 371.483 494.85C372.028 495.279 372.643 495.438 373.33 495.326ZM391.523 483.349L393.431 495.076L389.837 495.66L389.577 494.063C389.297 494.641 388.868 495.142 388.29 495.567C387.724 495.975 387.062 496.241 386.306 496.364C385.409 496.51 384.586 496.443 383.835 496.162C383.083 495.868 382.456 495.373 381.955 494.678C381.453 493.983 381.119 493.124 380.953 492.101L379.838 485.25L383.411 484.669L384.447 491.037C384.574 491.821 384.877 492.398 385.354 492.766C385.831 493.134 386.412 493.262 387.099 493.151C387.799 493.037 388.318 492.729 388.653 492.229C388.989 491.729 389.093 491.086 388.965 490.301L387.929 483.934L391.523 483.349ZM401.229 481.641C402.602 481.417 403.768 481.688 404.726 482.452C405.696 483.2 406.308 484.352 406.561 485.907L407.675 492.758L404.103 493.339L403.067 486.972C402.939 486.187 402.637 485.611 402.16 485.242C401.683 484.874 401.101 484.746 400.415 484.858C399.728 484.969 399.217 485.275 398.882 485.776C398.546 486.276 398.442 486.919 398.57 487.703L399.606 494.071L396.012 494.656L394.104 482.929L397.698 482.344L397.951 483.9C398.231 483.322 398.655 482.836 399.223 482.441C399.79 482.033 400.458 481.766 401.229 481.641ZM408.501 486.584C408.305 485.379 408.357 484.285 408.657 483.301C408.971 482.315 409.481 481.513 410.185 480.895C410.89 480.277 411.726 479.889 412.693 479.732C413.463 479.607 414.19 479.654 414.873 479.874C415.57 480.091 416.145 480.443 416.598 480.93L415.712 475.487L419.306 474.903L421.836 490.454L418.243 491.039L417.969 489.358C417.724 489.973 417.314 490.5 416.738 490.938C416.176 491.375 415.482 491.661 414.655 491.795C413.689 491.952 412.773 491.85 411.909 491.487C411.042 491.11 410.304 490.504 409.693 489.669C409.094 488.817 408.697 487.789 408.501 486.584ZM417.289 485.176C417.143 484.279 416.775 483.612 416.187 483.176C415.612 482.737 414.967 482.576 414.253 482.693C413.538 482.809 412.971 483.167 412.551 483.768C412.143 484.352 412.012 485.092 412.157 485.989C412.303 486.885 412.665 487.56 413.242 488.013C413.83 488.449 414.482 488.609 415.197 488.493C415.911 488.377 416.471 488.019 416.877 487.421C417.297 486.821 417.435 486.072 417.289 485.176Z" fill="black"/>
<rect x="258.838" y="544.624" width="106.583" height="30.6459" rx="10.6459" transform="rotate(-9.24098 258.838 544.624)" fill="#6C66E9" fill-opacity="0.1"/>
<g clip-path="url(#clip0_2753_27708)">
<path fill-rule="evenodd" clip-rule="evenodd" d="M276.112 551.001C276.179 550.744 276.391 550.551 276.654 550.508L281.893 549.656C282.385 549.576 282.791 550.042 282.642 550.519L281.637 553.742L283.842 553.383C284.433 553.287 284.845 553.954 284.495 554.439L277.923 563.566C277.508 564.142 276.6 563.767 276.714 563.066L277.571 557.774L275.208 558.159C275.097 558.177 274.984 558.167 274.878 558.13C274.773 558.093 274.678 558.03 274.603 557.947C274.527 557.864 274.474 557.764 274.447 557.655C274.421 557.547 274.421 557.433 274.45 557.325L276.112 551.001Z" fill="#6C66E9"/>
</g>
<path d="M293.522 554.529C293.275 553.014 293.353 551.783 293.757 550.837C294.169 549.889 295.01 549.312 296.279 549.105C297.549 548.899 298.525 549.18 299.208 549.95C299.899 550.718 300.368 551.86 300.614 553.375C300.862 554.898 300.781 556.139 300.37 557.095C299.968 558.05 299.133 558.631 297.863 558.838C296.593 559.044 295.612 558.759 294.919 557.982C294.235 557.203 293.769 556.052 293.522 554.529ZM298.802 553.67C298.696 553.022 298.564 552.486 298.405 552.062C298.254 551.629 298.028 551.292 297.729 551.053C297.438 550.813 297.047 550.733 296.557 550.813C296.067 550.892 295.717 551.093 295.509 551.415C295.309 551.735 295.202 552.125 295.187 552.586C295.18 553.037 295.229 553.586 295.334 554.234C295.442 554.899 295.573 555.453 295.726 555.896C295.877 556.33 296.103 556.666 296.402 556.905C296.7 557.135 297.095 557.21 297.585 557.13C298.075 557.051 298.425 556.854 298.635 556.542C298.844 556.22 298.951 555.83 298.957 555.37C298.962 554.902 298.91 554.335 298.802 553.67ZM311.473 556.745C310.615 556.884 309.794 556.811 309.011 556.525C308.227 556.239 307.568 555.776 307.032 555.135C306.495 554.485 306.153 553.71 306.006 552.808C305.861 551.914 305.941 551.079 306.245 550.301C306.549 549.515 307.027 548.862 307.679 548.342C308.332 547.823 309.087 547.493 309.945 547.354C310.812 547.212 311.633 547.286 312.408 547.573C313.191 547.859 313.847 548.328 314.376 548.979C314.912 549.619 315.252 550.387 315.397 551.28C315.544 552.182 315.466 553.026 315.162 553.812C314.866 554.588 314.392 555.236 313.739 555.756C313.087 556.276 312.331 556.605 311.473 556.745ZM311.206 555.103C311.758 555.013 312.224 554.812 312.604 554.498C312.983 554.176 313.253 553.763 313.414 553.261C313.575 552.758 313.606 552.2 313.506 551.587C313.406 550.974 313.201 550.46 312.891 550.043C312.579 549.617 312.193 549.316 311.732 549.139C311.272 548.962 310.766 548.919 310.215 549.008C309.663 549.098 309.193 549.301 308.803 549.616C308.423 549.929 308.152 550.337 307.991 550.84C307.829 551.334 307.798 551.887 307.897 552.5C307.997 553.113 308.203 553.632 308.515 554.058C308.827 554.483 309.214 554.789 309.675 554.975C310.144 555.15 310.655 555.193 311.206 555.103ZM322.21 545.493L322.452 546.977L318.63 547.599L319.012 549.95L321.941 549.473L322.178 550.931L319.249 551.408L319.88 555.283L318.041 555.582L316.549 546.414L322.21 545.493ZM329.701 544.274L329.942 545.758L326.12 546.38L326.502 548.731L329.431 548.255L329.669 549.713L326.74 550.189L327.37 554.064L325.531 554.363L324.04 545.195L329.701 544.274ZM333.61 545.162L333.984 547.46L337.071 546.958L337.308 548.416L334.221 548.918L334.617 551.348L338.097 550.782L338.341 552.279L333.022 553.145L331.528 543.963L336.847 543.098L337.091 544.595L333.61 545.162ZM345.266 551.152L342.662 547.909L341.795 548.05L342.376 551.623L340.537 551.922L339.046 542.754L342.487 542.194C343.196 542.078 343.821 542.107 344.362 542.28C344.901 542.444 345.328 542.72 345.643 543.11C345.965 543.489 346.169 543.941 346.254 544.466C346.353 545.07 346.267 545.646 345.996 546.193C345.724 546.732 345.257 547.15 344.596 547.446L347.394 550.806L345.266 551.152ZM341.571 546.671L343.107 546.421C343.607 546.34 343.959 546.161 344.166 545.884C344.371 545.599 344.439 545.242 344.369 544.813C344.301 544.393 344.126 544.089 343.843 543.901C343.56 543.705 343.168 543.647 342.669 543.728L341.133 543.978L341.571 546.671ZM352.658 550.044C352.018 550.148 351.423 550.133 350.87 549.998C350.327 549.862 349.873 549.612 349.508 549.249C349.144 548.886 348.911 548.425 348.811 547.866L350.781 547.545C350.869 547.917 351.049 548.194 351.321 548.374C351.602 548.553 351.952 548.608 352.372 548.54C352.802 548.47 353.122 548.315 353.335 548.073C353.546 547.823 353.624 547.532 353.57 547.199C353.526 546.928 353.406 546.718 353.211 546.57C353.017 546.422 352.784 546.32 352.515 546.265C352.252 546.2 351.892 546.142 351.435 546.091C350.811 546.012 350.297 545.921 349.893 545.816C349.497 545.7 349.135 545.494 348.808 545.197C348.489 544.889 348.282 544.446 348.188 543.868C348.1 543.326 348.158 542.831 348.364 542.384C348.57 541.937 348.901 541.568 349.357 541.278C349.812 540.98 350.355 540.779 350.985 540.676C351.931 540.523 352.735 540.63 353.397 540.999C354.067 541.357 354.499 541.943 354.694 542.756L352.671 543.085C352.603 542.773 352.425 542.536 352.138 542.376C351.859 542.206 351.513 542.154 351.102 542.221C350.743 542.28 350.469 542.419 350.28 542.638C350.1 542.856 350.038 543.14 350.095 543.491C350.135 543.736 350.247 543.929 350.432 544.07C350.624 544.2 350.847 544.299 351.1 544.365C351.361 544.422 351.721 544.48 352.18 544.54C352.804 544.618 353.318 544.714 353.724 544.828C354.129 544.942 354.495 545.152 354.824 545.458C355.152 545.764 355.363 546.202 355.455 546.771C355.535 547.262 355.482 547.738 355.297 548.199C355.111 548.661 354.794 549.058 354.345 549.392C353.894 549.717 353.332 549.934 352.658 550.044Z" fill="#6C66E9"/>
<circle cx="378.32" cy="540.709" r="1.33073" transform="rotate(-9.24098 378.32 540.709)" fill="black"/>
<path opacity="0.8" d="M398.399 535.545C398.547 536.459 398.356 537.272 397.825 537.984C397.302 538.684 396.4 539.138 395.118 539.347L393.006 539.69L393.752 544.277L392.318 544.51L390.531 533.525L394.077 532.948C395.317 532.746 396.306 532.892 397.045 533.387C397.793 533.88 398.245 534.599 398.399 535.545ZM394.926 538.165C395.724 538.035 396.285 537.766 396.607 537.357C396.928 536.949 397.037 536.424 396.933 535.783C396.712 534.428 395.825 533.877 394.269 534.13L392.157 534.473L392.814 538.508L394.926 538.165ZM400.202 538.762C400.058 537.88 400.111 537.078 400.361 536.358C400.609 535.628 401.013 535.028 401.573 534.559C402.143 534.089 402.812 533.791 403.579 533.667C404.336 533.543 405.019 533.599 405.629 533.835C406.239 534.07 406.721 534.412 407.074 534.861L406.818 533.285L408.268 533.049L409.673 541.687L408.223 541.923L407.962 540.315C407.76 540.865 407.403 541.355 406.89 541.784C406.386 542.2 405.761 542.469 405.015 542.59C404.248 542.715 403.524 542.639 402.842 542.361C402.161 542.084 401.586 541.633 401.117 541.008C400.649 540.383 400.344 539.634 400.202 538.762ZM407.518 537.588C407.412 536.937 407.188 536.391 406.847 535.95C406.506 535.509 406.088 535.2 405.596 535.021C405.112 534.83 404.602 534.778 404.066 534.866C403.53 534.953 403.062 535.158 402.661 535.482C402.261 535.806 401.969 536.231 401.785 536.757C401.601 537.284 401.562 537.872 401.668 538.524C401.775 539.186 402.001 539.742 402.344 540.193C402.685 540.634 403.098 540.95 403.582 541.141C404.064 541.321 404.573 541.368 405.109 541.281C405.645 541.193 406.113 540.988 406.514 540.664C406.923 540.328 407.219 539.896 407.403 539.37C407.586 538.834 407.624 538.24 407.518 537.588ZM414.231 531.934C414.977 531.812 415.655 531.869 416.265 532.104C416.885 532.338 417.372 532.679 417.726 533.128L417.469 531.552L418.919 531.316L420.355 540.143C420.483 540.931 420.429 541.657 420.192 542.321C419.957 542.996 419.552 543.558 418.978 544.007C418.414 544.455 417.717 544.746 416.887 544.881C415.753 545.066 414.763 544.952 413.919 544.539C413.076 544.126 412.51 543.469 412.223 542.566L413.642 542.335C413.885 542.835 414.279 543.202 414.824 543.437C415.371 543.683 415.991 543.749 416.685 543.636C417.473 543.508 418.074 543.157 418.487 542.582C418.911 542.006 419.051 541.272 418.905 540.379L418.61 538.566C418.409 539.117 418.057 539.605 417.555 540.032C417.052 540.459 416.428 540.733 415.682 540.855C414.915 540.979 414.186 540.904 413.494 540.628C412.812 540.351 412.237 539.9 411.769 539.275C411.3 538.65 410.995 537.901 410.853 537.029C410.71 536.147 410.763 535.345 411.012 534.625C411.26 533.895 411.664 533.295 412.224 532.826C412.795 532.356 413.464 532.058 414.231 531.934ZM418.169 535.855C418.063 535.204 417.84 534.658 417.498 534.217C417.157 533.776 416.74 533.467 416.247 533.288C415.763 533.097 415.253 533.045 414.717 533.133C414.181 533.22 413.713 533.425 413.313 533.749C412.912 534.073 412.62 534.498 412.436 535.024C412.252 535.551 412.213 536.139 412.319 536.791C412.427 537.453 412.652 538.009 412.995 538.461C413.337 538.901 413.749 539.217 414.233 539.408C414.716 539.588 415.225 539.635 415.761 539.548C416.297 539.46 416.765 539.255 417.165 538.931C417.574 538.595 417.871 538.163 418.055 537.637C418.237 537.101 418.275 536.507 418.169 535.855ZM429.873 533.628C429.917 533.901 429.948 534.192 429.966 534.502L423.063 535.625C423.254 536.468 423.651 537.088 424.255 537.486C424.868 537.872 425.553 538.003 426.309 537.88C426.929 537.779 427.421 537.553 427.785 537.203C428.157 536.84 428.388 536.404 428.478 535.893L430.022 535.642C429.926 536.509 429.574 537.262 428.966 537.901C428.356 538.528 427.537 538.926 426.507 539.093C425.687 539.227 424.922 539.163 424.211 538.901C423.51 538.637 422.921 538.199 422.444 537.587C421.965 536.963 421.653 536.205 421.507 535.312C421.362 534.419 421.413 533.607 421.661 532.876C421.909 532.146 422.324 531.55 422.907 531.088C423.499 530.614 424.215 530.309 425.055 530.172C425.875 530.039 426.629 530.1 427.318 530.354C428.006 530.609 428.57 531.024 429.009 531.6C429.456 532.164 429.744 532.839 429.873 533.628ZM428.342 533.569C428.253 533.023 428.056 532.575 427.752 532.225C427.445 531.865 427.065 531.62 426.612 531.488C426.168 531.345 425.694 531.314 425.19 531.396C424.465 531.514 423.882 531.846 423.443 532.392C423.014 532.937 422.829 533.625 422.889 534.456L428.342 533.569ZM435.728 534.843L435.551 533.755L439.837 525.195L441.555 524.915L442.776 532.418L444.352 532.162L444.555 533.407L442.979 533.663L443.392 536.201L441.973 536.432L441.56 533.894L435.728 534.843ZM440.444 526.633L437.181 533.328L441.421 532.639L440.444 526.633ZM445.454 529.895C445.16 528.088 445.225 526.632 445.65 525.527C446.072 524.413 447.019 523.735 448.49 523.496C449.951 523.258 451.058 523.601 451.812 524.525C452.565 525.438 453.088 526.798 453.382 528.605C453.681 530.444 453.62 531.921 453.197 533.036C452.775 534.151 451.833 534.827 450.372 535.065C448.901 535.304 447.789 534.962 447.034 534.039C446.28 533.115 445.753 531.734 445.454 529.895ZM451.964 528.836C451.815 527.922 451.626 527.16 451.398 526.55C451.178 525.928 450.847 525.453 450.406 525.126C449.975 524.797 449.407 524.69 448.703 524.804C447.988 524.92 447.474 525.204 447.159 525.654C446.854 526.103 446.691 526.658 446.669 527.319C446.656 527.969 446.724 528.75 446.873 529.664C447.027 530.61 447.213 531.394 447.433 532.016C447.664 532.637 447.994 533.111 448.425 533.44C448.867 533.768 449.445 533.873 450.16 533.757C450.864 533.642 451.368 533.361 451.672 532.912C451.987 532.462 452.151 531.907 452.162 531.247C452.184 530.585 452.118 529.782 451.964 528.836ZM455.538 531.62L455.361 530.532L459.647 521.972L461.365 521.692L462.586 529.195L464.162 528.939L464.364 530.184L462.788 530.44L463.201 532.978L461.783 533.209L461.37 530.671L455.538 531.62ZM460.253 523.41L456.99 530.105L461.23 529.416L460.253 523.41Z" fill="black"/>
<rect x="160.711" y="132.097" width="327.36" height="526.012" rx="9.31513" transform="rotate(-9.24098 160.711 132.097)" stroke="black" stroke-width="2.66147" shape-rendering="crispEdges"/>
</g>
<g filter="url(#filter3_d_2753_27708)">
<circle cx="586.969" cy="555.803" r="52.4425" transform="rotate(43.2782 586.969 555.803)" fill="#ECECEC"/>
<circle cx="586.969" cy="555.803" r="51.3576" transform="rotate(43.2782 586.969 555.803)" stroke="black" stroke-width="2.16987"/>
</g>
<path d="M584.743 556.507C587.121 554.771 590.248 554.548 592.653 553.152C595.189 551.694 596.213 547.246 591.877 545.233C589.037 543.914 586.643 545.418 585.228 546.926L581.726 543.074C584.581 540.048 589.252 538.478 593.975 540.671C597.924 542.505 599.795 545.559 600.127 548.451C600.406 550.93 599.418 554.863 596.354 556.709C592.957 558.747 590.603 558.757 588.671 560.19C587.892 560.768 587.49 561.194 586.335 563.681L581.478 561.426C582.07 560.107 582.859 557.879 584.743 556.507ZM584.088 570.809C583.23 572.658 581.015 573.468 579.166 572.61C577.318 571.751 576.507 569.536 577.366 567.688C578.224 565.839 580.439 565.029 582.287 565.887C584.136 566.746 584.946 568.96 584.088 570.809Z" fill="black"/>
<g filter="url(#filter4_d_2753_27708)">
<circle cx="65.0715" cy="339.621" r="58.9668" fill="#ECECEC" stroke="black" stroke-width="3.36953"/>
<path d="M56.459 331.958L53.0112 334.776L50.774 332.039L48.5429 333.863L45.2798 329.871L47.5109 328.048L39.6166 318.39L42.9349 315.678L59.5728 318.433L62.7155 322.278L54.2217 329.221L56.459 331.958ZM53.3621 329.135L61.8559 322.192L59.2457 318.998L43.1076 316.326L40.4762 318.477L48.3705 328.134L46.1394 329.958L48.6292 333.004L50.8603 331.18L53.0976 333.917L55.5994 331.872L53.3621 329.135ZM45.3579 319.343L56.5903 321.415L50.8723 326.089L45.3579 319.343ZM50.9587 325.229L55.1827 321.776L46.8849 320.246L50.9587 325.229ZM57.6941 345.458C53.2279 339.994 53.467 335.148 58.2505 331.237C63.0121 327.345 67.7902 328.087 72.2582 333.552C76.7095 338.998 76.4838 343.864 71.7409 347.741C66.9763 351.636 62.1438 350.901 57.6941 345.458ZM58.1671 345.071C62.4115 350.263 66.8622 350.94 71.3543 347.268C75.8239 343.614 76.0317 339.134 71.7852 333.939C67.522 328.724 63.1254 328.041 58.6371 331.71C54.1262 335.398 53.9061 339.858 58.1671 345.071ZM60.6493 343.042C58.0979 339.921 58.3191 337.051 61.1269 334.756C63.913 332.479 66.7503 332.845 69.303 335.968C71.8496 339.084 71.6383 341.954 68.8645 344.222C66.0689 346.507 63.1948 346.156 60.6493 343.042ZM61.1223 342.655C63.4579 345.513 65.9482 345.817 68.4779 343.749C70.9846 341.7 71.1675 339.214 68.83 336.355C66.4861 333.487 64.0322 333.17 61.5135 335.229C58.9719 337.307 58.7805 339.79 61.1223 342.655ZM84.2647 365.974L80.8169 368.792L78.5797 366.055L76.3486 367.879L73.0855 363.887L75.3166 362.063L67.4224 352.406L70.7406 349.694L87.3786 352.449L90.5212 356.294L82.0275 363.237L84.2647 365.974ZM81.1679 363.151L89.6617 356.207L87.0514 353.014L70.9133 350.341L68.2819 352.492L76.1762 362.15L73.9451 363.974L76.435 367.019L78.666 365.196L80.9033 367.933L83.4051 365.887L81.1679 363.151ZM73.1636 353.359L84.396 355.431L78.678 360.105L73.1636 353.359ZM78.7644 359.245L82.9885 355.792L74.6906 354.262L78.7644 359.245Z" fill="black"/>
</g>
<g filter="url(#filter5_d_2753_27708)">
<path d="M646.402 651.582C646.113 651.344 645.762 651.192 645.391 651.146C645.019 651.1 644.642 651.16 644.304 651.32C643.965 651.479 643.679 651.732 643.479 652.049C643.278 652.365 643.172 652.732 643.172 653.106V680.744C643.172 682.575 645.443 683.42 646.639 682.038L653.597 673.996C653.875 673.675 654.219 673.417 654.605 673.241C654.992 673.064 655.411 672.973 655.836 672.973H666.877C668.729 672.973 669.562 670.651 668.133 669.474L646.402 651.582Z" fill="black"/>
<path d="M642.528 651.446L643.479 652.049L642.528 651.446C642.213 651.943 642.047 652.518 642.047 653.106C642.047 653.106 642.047 653.106 642.047 653.106V680.744C642.047 683.617 645.611 684.944 647.49 682.774L647.49 682.774L654.448 674.732C654.448 674.732 654.448 674.732 654.448 674.732C654.448 674.732 654.448 674.732 654.448 674.732C654.62 674.533 654.833 674.374 655.073 674.264C655.312 674.155 655.573 674.098 655.836 674.098H655.836H666.877C669.784 674.098 671.093 670.454 668.848 668.606C668.848 668.606 668.848 668.605 668.848 668.605L647.118 650.713C647.118 650.713 647.118 650.713 647.118 650.713C647.117 650.713 647.117 650.713 647.117 650.713C646.664 650.339 646.113 650.102 645.53 650.03C644.947 649.957 644.355 650.051 643.824 650.302C643.292 650.553 642.843 650.95 642.528 651.446Z" stroke="white" stroke-width="2.25043"/>
</g>
<path fill-rule="evenodd" clip-rule="evenodd" d="M249.751 234.576C249.751 234.576 227.521 215.587 258.708 150.022C289.894 84.4572 353.051 98.8279 393.422 73.0388C453.07 34.9345 428.622 5.11492 502.999 0.308292C596.645 -5.74362 601.948 92.0557 648.801 92.0557C651.882 92.0557 724.841 62.7401 735.52 142.993C740.898 183.409 648.801 245.041 648.801 245.041C648.801 245.041 610.471 279.784 608.366 296.94C599.538 368.891 617.948 451.298 411.645 489.236C384.964 494.142 340.66 476.395 316.218 443.61C297.069 417.926 220.256 436.149 213.086 351.707C209.472 309.147 249.751 234.576 249.751 234.576Z" fill="#FFFBBF"/>
<path d="M387.36 177.529C388.056 177.119 388.953 177.35 389.363 178.046L391.019 180.839C397.594 191.871 400.224 195.453 403.019 197.073C405.317 198.404 407.692 197.99 412.04 195.44L412.621 195.092C415.356 193.387 427.87 184.791 432.708 181.704C433.389 181.27 434.293 181.47 434.728 182.151C435.162 182.832 434.963 183.736 434.281 184.171L433.537 184.65C428.145 188.145 416.033 196.463 413.889 197.745C408.625 200.893 405.212 201.601 401.792 199.738L401.553 199.604C397.878 197.475 395.02 193.391 386.844 179.532C386.433 178.837 386.665 177.94 387.36 177.529Z" fill="white"/>
<path d="M411.048 194.437C411.849 194.33 412.585 194.892 412.692 195.693C413.19 199.413 414.383 203.144 416.278 206.89C416.642 207.61 416.353 208.49 415.633 208.855C414.912 209.22 414.032 208.931 413.667 208.21C411.629 204.18 410.335 200.135 409.792 196.081C409.685 195.28 410.247 194.544 411.048 194.437Z" fill="white"/>
<path fill-rule="evenodd" clip-rule="evenodd" d="M581.452 283.776C581.216 284.373 580.699 285.199 580.098 285.982L580.616 286.519L581.216 287.158L581.349 287.286C581.407 287.337 581.453 287.369 581.486 287.377C581.68 287.405 581.816 287.584 581.789 287.78C581.761 287.971 581.583 288.109 581.389 288.081C581.213 288.077 580.575 287.827 579.814 287.21C579.677 287.098 579.539 286.969 579.4 286.827C578.961 287.317 578.518 287.737 578.135 287.998C577.571 288.387 577.083 288.418 576.85 288.261C576.621 288.108 576.401 287.593 576.774 286.551C576.832 286.363 577.033 286.264 577.219 286.322C577.405 286.381 577.508 286.58 577.449 286.768C577.392 286.961 577.384 287.138 577.384 287.279L577.6 287.131C577.677 287.077 577.755 287.015 577.827 286.943C578.088 286.685 578.38 286.373 578.673 286.034C578.209 285.495 577.736 284.861 577.353 284.13C577.166 283.774 577.017 283.395 576.876 282.997C576.778 282.775 576.879 282.514 577.102 282.416C577.325 282.318 577.586 282.419 577.683 282.642C578.109 283.534 578.654 284.304 579.191 284.963L579.371 285.178C579.86 284.537 580.281 283.889 580.472 283.395C580.577 283.127 580.883 282.992 581.152 283.095C581.424 283.203 581.558 283.507 581.452 283.776Z" fill="white"/>
<path fill-rule="evenodd" clip-rule="evenodd" d="M363.81 99.2487L362.918 99.0873C357.94 98.1617 354.123 97.0254 346.992 94.5531C346.174 94.2695 345.741 93.3768 346.024 92.559C346.308 91.7412 347.201 91.3081 348.018 91.5917L349.796 92.2033C356.051 94.338 359.561 95.3167 364.354 96.1619C380.484 99.006 392.56 90.7251 393.548 74.9322C393.602 74.0683 394.347 73.4119 395.21 73.4659C396.074 73.52 396.731 74.264 396.677 75.1279C395.565 92.8894 381.693 102.402 363.81 99.2487Z" fill="#00160A"/>
<path fill-rule="evenodd" clip-rule="evenodd" d="M404.113 116.162L405.013 118.162L407.065 118.751C407.176 118.782 407.24 118.898 407.208 119.009C407.198 119.043 407.18 119.074 407.155 119.099L405.596 120.651L405.683 122.884C405.688 123 405.598 123.097 405.483 123.101C405.444 123.103 405.405 123.093 405.371 123.074L403.606 122.069C403.551 122.038 403.485 122.033 403.426 122.056L401.539 122.806C401.431 122.849 401.31 122.796 401.267 122.689C401.253 122.653 401.249 122.613 401.256 122.575L401.653 120.375L400.326 118.622C400.256 118.53 400.274 118.399 400.366 118.329C400.394 118.308 400.428 118.294 400.463 118.289L402.577 117.991L403.746 116.136C403.808 116.039 403.937 116.009 404.034 116.071C404.069 116.093 404.097 116.124 404.113 116.162Z" fill="#00160A"/>
<path d="M610.263 65.897C611.068 65.8395 611.768 66.4461 611.826 67.2519C611.883 68.0577 611.277 68.7575 610.471 68.815C604.699 69.2268 600.166 71.4634 598.152 76.9963C598.031 77.3294 597.93 77.6509 597.849 77.9564L597.794 78.1663L597.883 77.982C600.418 72.8049 605.308 69.2077 610.976 68.2948L611.346 68.239C612.146 68.1274 612.885 68.6854 612.997 69.4855C613.109 70.2855 612.551 71.0246 611.751 71.1363C606.486 71.8712 601.983 75.37 600.018 80.3885L599.891 80.7253C598.957 83.2903 596.716 84.5202 595.274 82.3251C594.394 80.9863 594.452 78.6084 595.403 75.9958C597.815 69.3688 603.35 66.3902 610.263 65.897Z" fill="white"/>
<path d="M603.6 55C604.406 54.9425 605.106 55.5491 605.163 56.3549C605.221 57.1606 604.614 57.8604 603.808 57.9179C594.627 58.5729 586.576 64.5356 583.372 73.3369C582.423 75.9459 582.246 78.1765 582.586 79.3062L582.628 79.4323L582.693 79.339C582.856 79.0913 583.04 78.7355 583.22 78.2741L583.297 78.0699C586.681 68.7734 594.885 62.2628 604.507 60.9196C605.307 60.808 606.046 61.366 606.158 62.1661C606.27 62.9661 605.712 63.7052 604.911 63.8169C596.494 64.9919 589.299 70.6097 586.2 78.6591L586.046 79.0704C584.791 82.5179 582.078 84.0072 580.343 81.3674C579.155 79.5585 579.238 76.1436 580.624 72.3364C584.225 62.4409 593.278 55.7364 603.6 55Z" fill="white"/>
<path d="M594.621 40.4703C595.427 40.4129 596.127 41.0195 596.185 41.8252C596.242 42.631 595.635 43.3308 594.83 43.3883C581.734 44.3225 570.251 52.8271 565.682 65.3802C564.127 69.6523 563.998 73.2732 564.847 74.7783L564.924 74.9056C565.05 75.097 565.008 75.1026 565.04 75.0762L565.06 75.0634C565.49 74.8272 566.058 74.0227 566.577 72.6882L566.68 72.4143C571.347 59.5929 582.661 50.6141 595.932 48.7616C596.732 48.65 597.471 49.208 597.583 50.0081C597.694 50.8081 597.136 51.5473 596.336 51.6589C584.286 53.341 573.992 61.4075 569.599 72.9571L569.429 73.4148C567.805 77.8753 564.55 79.6623 562.48 76.5121C560.936 74.1635 561.049 69.5582 562.933 64.3797C567.901 50.7324 580.385 41.486 594.621 40.4703Z" fill="white"/>
<path d="M578.594 26.8153C579.386 26.6601 580.155 27.1769 580.31 27.9696C580.465 28.7624 579.949 29.5309 579.156 29.6862C567.301 32.0079 557.767 41.0628 555.002 53.0398C554.066 57.0933 554.349 60.3892 555.268 61.6467L555.389 61.8043L555.399 61.8263L555.416 61.813C555.745 61.5163 556.129 60.7582 556.427 59.5829L556.49 59.3247C559.334 47.0066 568.725 37.4715 580.72 34.2694C581.501 34.0611 582.303 34.5249 582.511 35.3054C582.719 36.0859 582.255 36.8875 581.475 37.0958C570.668 39.9808 562.177 48.4892 559.452 59.5154L559.34 59.9827C558.337 64.3272 555.458 66.4011 553.125 63.651C551.418 61.6396 551 57.3715 552.152 52.3818C555.179 39.2702 565.616 29.3569 578.594 26.8153Z" fill="white"/>
<path d="M416.452 207.212L417.296 206.905C425.277 204.041 432.01 202.777 433.721 204.517C435.22 206.044 436.557 208.807 437.824 212.861C438.065 213.632 437.636 214.453 436.865 214.694C436.094 214.935 435.273 214.505 435.032 213.734C433.936 210.228 432.818 207.869 431.761 206.702L431.717 206.657L431.679 206.659C431.479 206.618 431.179 206.597 430.797 206.604C429.954 206.621 428.801 206.769 427.426 207.042C424.595 207.603 421.017 208.646 417.464 209.957C411.524 212.148 406.575 214.723 403.841 217.049C402.837 217.902 401.004 215.524 402.768 214.161C405.941 211.71 410.753 209.314 416.452 207.212Z" fill="white"/>
<path d="M412.435 179.58C412.435 184.459 417.595 189.741 418.692 190.042C419.471 190.255 406.047 199.002 406.047 199.002C401.197 199.64 398.349 195.54 398.349 189.432C398.349 188.624 412.435 178.772 412.435 179.58Z" fill="white"/>
<path fill-rule="evenodd" clip-rule="evenodd" d="M396.606 182.144C398.305 181.813 399.46 180.398 399.184 178.982C398.909 177.566 397.308 176.685 395.609 177.016C393.91 177.346 392.756 178.762 393.031 180.178C393.306 181.594 394.907 182.474 396.606 182.144Z" fill="#FFB61D"/>
<path d="M569.746 18.7041C570.542 18.5654 571.299 19.0982 571.438 19.8941C571.577 20.6899 571.044 21.4474 570.248 21.586C566.463 22.2454 562.646 24.5364 558.711 28.1805C553.601 32.9123 550.225 39.4507 548.364 48.1684C546.865 55.192 548.249 63.9682 552.168 71.6834C556.627 80.461 564.515 82.6304 573.712 84.3102C583.154 86.0348 585.763 84.9697 594.685 81.798L595.506 81.4998C596.725 81.0378 602.426 78.8073 603.797 78.3928C606.681 77.5205 608.649 77.5935 610.075 79.1138C610.628 79.7029 610.599 80.6285 610.01 81.1813C609.457 81.6996 608.609 81.7061 608.05 81.2196L607.942 81.1157C607.521 80.6672 606.651 80.6152 604.9 81.1174L604.643 81.1929C603.325 81.5916 597.143 84.018 596.342 84.3102C586.706 87.8277 583.438 89.0604 573.186 87.188C563.028 85.3326 554.409 82.5548 549.56 73.0083C545.345 64.7116 543.86 55.2555 545.503 47.5577C547.49 38.2535 551.168 31.1778 556.723 26.034C561.072 22.0075 565.404 19.4604 569.746 18.7041Z" fill="white"/>
<path d="M638.555 135.091C630.217 134.664 623.65 141.105 623.582 149.75C623.524 157.033 627.626 163.031 633.262 164.193C635.541 164.663 639.917 164.098 643.162 162.278C648.091 159.635 651.858 154.201 652.333 149.572C653.107 142.029 647.001 135.523 638.555 135.091Z" fill="white"/>
<path d="M487.456 133.568C490.12 138.947 494.255 151.372 492.467 151.313C487.497 151.146 480.85 143.51 476.199 133.184L475.833 132.354C471.772 122.979 469.341 117.089 472.164 115.961C475.085 114.794 481.959 122.465 487.456 133.568Z" fill="white"/>
<path fill-rule="evenodd" clip-rule="evenodd" d="M472.165 115.844C475.085 114.677 482.061 121.997 487.558 133.1C490.221 138.479 492.028 143.64 492.5 147.34C492.5 147.34 483.505 128.387 478.018 121.445C475.911 118.779 472.165 115.844 472.165 115.844Z" fill="#E7EAEE"/>
<path d="M470.632 163.576C470.847 162.797 471.652 162.339 472.431 162.553C473.209 162.768 473.667 163.573 473.453 164.352C473.177 165.354 469.303 167.982 460.849 173.193L455.513 176.458C444.979 182.871 437.951 186.974 437.072 186.974C431.256 186.974 426.015 181.488 422.188 172.83C418.848 165.271 417.113 156.274 417.896 150.377C418.141 148.537 424.272 143.773 433.74 137.39L435.096 136.481C443.471 130.901 450.631 126.763 453.221 126.241C454.012 126.081 454.784 126.593 454.944 127.385C455.044 127.88 431.957 147.341 429.702 160.257C428.175 169.002 433.948 183.908 436.813 184.043L437.072 184.049C436.839 184.049 436.914 183.995 436.941 183.979L437.205 183.843C437.399 183.741 437.63 183.617 437.895 183.471L439.112 182.79C439.578 182.526 440.097 182.229 440.664 181.902L442.116 181.058C444.888 179.44 448.346 177.38 451.873 175.246L455.227 173.206C459.307 170.714 462.992 168.416 465.762 166.631L467.189 165.704C468.073 165.124 468.82 164.623 469.417 164.207L469.634 164.055C469.963 163.823 470.237 163.623 470.45 163.459C470.45 163.459 470.691 163.364 470.632 163.576Z" fill="white"/>
<path fill-rule="evenodd" clip-rule="evenodd" d="M473.533 134.386C469.998 126.538 468.437 119.346 469.62 114.991C467.482 115.67 464.808 116.892 462.154 118.415C458.626 120.438 455.826 122.701 455.761 123.192C455.079 128.325 457.696 138.312 462.045 147.215C466.697 156.738 472.232 162.855 476.516 162.855C476.926 162.855 478.1 162.613 479.277 162.202C480.95 161.617 482.518 160.766 483.803 159.65C484.442 159.095 485.103 158.468 485.793 157.768L486.625 156.908C487.116 156.389 487.622 155.83 488.412 154.945L489.513 153.716L489.561 153.664C484.049 151.649 478.285 144.551 473.973 135.345L473.533 134.386ZM452.861 122.806C453.316 119.382 466.138 111.979 471.988 111.501C472.233 111.348 472.495 111.215 472.774 111.103C477.841 109.079 485.562 117.752 491.755 129.955L492.179 130.802C494.975 136.448 496.882 141.896 497.402 145.97C498.023 150.84 496.613 154.069 492.915 154.234C492.816 154.617 492.566 154.938 492.234 155.132L492.177 155.161L492.032 155.305C491.888 155.454 491.717 155.639 491.453 155.932L489.636 157.96C488.976 158.687 488.509 159.18 487.876 159.822C487.136 160.572 486.421 161.25 485.721 161.858C482.89 164.318 478.703 165.78 476.516 165.78C475.356 165.78 474.183 165.511 473.008 164.996C471.753 166.305 467.888 168.854 460.849 173.193L455.513 176.458C444.979 182.871 437.951 186.974 437.072 186.974C435.08 186.974 433.156 186.331 431.333 185.137C431.316 185.149 431.299 185.16 431.281 185.171L430.537 185.65C427.946 187.33 423.802 190.124 419.959 192.716L419.959 192.716L419.958 192.716L419.717 192.878C420.215 196.43 421.346 199.992 423.116 203.566C429.398 201.623 434.374 200.967 435.81 202.428C437.31 203.954 438.647 206.718 439.914 210.772C440.155 211.543 439.725 212.363 438.954 212.604C438.183 212.845 437.363 212.416 437.122 211.645C436.026 208.139 434.908 205.779 433.85 204.613L433.806 204.567L433.769 204.569C433.569 204.528 433.268 204.508 432.886 204.515C432.043 204.531 430.891 204.68 429.515 204.953C426.684 205.514 423.106 206.557 419.554 207.867C411.432 210.863 405.164 214.576 403.875 217.389C403.498 218.212 403.546 219.417 403.997 221.263L404.081 221.595C404.149 221.856 404.219 222.115 404.312 222.443L404.84 224.313C404.862 224.394 404.884 224.478 404.911 224.583C405.114 225.365 404.645 226.164 403.863 226.367C403.081 226.57 402.283 226.1 402.08 225.318L401.82 224.372L401.387 222.846C401.338 222.665 401.293 222.498 401.249 222.329C400.564 219.686 400.454 217.835 401.216 216.171C402.507 213.351 406.547 210.429 412.173 207.773L410.949 204.612L410.647 203.813C410.184 202.566 409.644 200.877 409.314 199.644C404.919 202.012 401.858 202.408 398.792 200.738L398.553 200.604C397.946 200.253 397.362 199.848 396.772 199.355L379.629 209.767C379.788 210.111 379.949 210.457 380.112 210.806C380.881 212.455 379.524 213.623 377.444 214.532L377.219 214.628C375.431 215.368 373.817 215.538 372.856 214.484C368.87 210.108 364.65 199.642 366.92 197.248C367.356 196.788 368.507 196.104 370.683 194.962L370.855 194.873C370.9 194.842 370.947 194.813 370.996 194.786L387.021 186.104C387.058 186.084 387.095 186.066 387.133 186.049C386.143 184.414 385.059 182.593 383.861 180.561C383.714 180.326 383.641 180.059 383.641 179.793C383.64 179.441 383.765 179.089 384.015 178.812C384.042 178.782 384.07 178.754 384.099 178.726C387.395 175.596 391.891 172.333 397.533 168.818L398.216 168.395C400.653 166.892 405.596 164.073 409.795 161.678L409.796 161.678L409.796 161.677C413.053 159.82 415.863 158.217 416.709 157.682L416.914 157.546C417.22 157.322 417.584 157.235 417.933 157.272C417.655 154.735 417.631 152.378 417.896 150.377C418.141 148.537 424.272 143.773 433.74 137.39L435.096 136.481C443.031 131.195 449.875 127.202 452.775 126.353C452.697 125.043 452.722 123.85 452.861 122.806ZM453.095 129.319C450.254 130.357 443.139 134.581 435.375 139.816L434.132 140.659C430.638 143.043 427.41 145.367 424.972 147.262L424.295 147.793C423.207 148.655 422.326 149.398 421.688 149.994C421.368 150.293 421.115 150.548 420.937 150.752L420.813 150.898C420.786 150.927 420.779 150.916 420.789 150.824L420.796 150.762C420.793 150.786 420.791 150.806 420.789 150.824L420.75 151.138C419.344 163.482 428.269 183.641 436.813 184.043L437.014 184.048C437.031 184.048 437.05 184.049 437.072 184.049L437.014 184.048C436.853 184.039 436.916 183.993 436.941 183.979L437.205 183.843C437.399 183.741 437.63 183.617 437.895 183.471L439.112 182.79C439.578 182.526 440.097 182.229 440.664 181.902L442.116 181.058C444.888 179.44 448.346 177.38 451.873 175.246L455.227 173.206C459.307 170.714 462.992 168.416 465.762 166.631L467.189 165.704C468.073 165.124 468.82 164.623 469.417 164.207L469.634 164.055C469.95 163.832 470.215 163.639 470.425 163.479C466.657 160.714 462.947 155.608 459.654 148.98L459.417 148.499C456.243 142.001 453.947 134.965 453.095 129.319ZM418.337 160.108C417.281 160.773 414.168 162.55 410.704 164.528C406.599 166.872 402.002 169.497 399.751 170.885C394.435 174.162 390.148 177.201 386.965 180.061L388.019 181.84C392.632 189.579 395.303 193.652 397.452 195.953C396.738 194.26 396.368 192.111 396.368 189.416C396.368 189.293 396.383 189.173 396.412 189.058C396.269 188.498 396.469 187.881 396.964 187.518L397.96 186.777C398.558 186.326 399.541 185.574 400.659 184.72C403.106 182.85 406.197 180.488 407.299 179.698C410.768 177.214 413.325 175.819 415.653 175.335C416.765 175.104 417.629 175.762 417.88 176.781L417.92 176.966C417.979 177.269 417.99 177.568 417.988 178.219L417.987 178.425C417.975 180.859 418.217 182.264 419.247 183.886C419.953 184.997 420.989 186.01 422.433 186.917C422.585 187.012 422.713 187.13 422.815 187.264C425.145 185.7 427.328 184.245 428.938 183.201C426.401 180.745 424.115 177.19 422.188 172.83C420.394 168.77 419.063 164.295 418.337 160.108ZM494.5 146.341C494.028 142.64 492.221 137.48 489.558 132.1C484.061 120.998 476.78 112.653 473.859 113.82C471.036 114.948 471.773 122.979 475.833 132.354L476.2 133.184C480.85 143.51 487.498 151.147 492.467 151.313C494.256 151.372 494.955 149.911 494.5 146.341ZM388.644 188.522C391.181 192.625 393.035 195.335 394.651 197.221L378.399 207.092C376.734 203.442 375.245 200.045 373.8 196.594L388.414 188.676C388.497 188.631 388.574 188.58 388.644 188.522ZM420.31 204.489C418.733 201.227 417.644 197.956 417.045 194.679C414.945 196.092 413.118 197.316 411.943 198.079C412.144 199.088 412.892 201.483 413.536 203.186L414.737 206.276L414.851 206.578C416.031 206.08 417.264 205.594 418.541 205.123L419.386 204.815C419.696 204.704 420.004 204.595 420.31 204.489ZM420.258 188.985C418.759 187.947 417.61 186.765 416.778 185.455C415.431 183.335 415.077 181.525 415.062 178.79L415.061 178.545L414.855 178.622C413.371 179.198 411.602 180.239 409.378 181.81L409.003 182.076C407.944 182.835 404.931 185.138 402.5 186.995L402.499 186.996C401.149 188.028 399.978 188.922 399.423 189.338L399.294 189.434C399.296 194.3 400.511 196.533 402.77 197.617L402.951 197.7C403.489 197.938 403.874 198.058 404.971 198.358C404.993 198.365 405.015 198.371 405.036 198.378C406.176 197.995 407.481 197.355 409.04 196.441L409.621 196.092C410.909 195.289 414.366 192.958 418.168 190.394L418.189 190.38C418.871 189.92 419.564 189.453 420.258 188.985ZM371.215 197.993L371.439 198.527C372.992 202.211 374.607 205.858 376.439 209.837L377.151 211.38C376.918 211.537 376.611 211.704 376.273 211.851C375.788 212.063 375.296 212.212 374.925 212.262L374.808 212.273L374.63 212.06C373.245 210.355 371.638 207.459 370.476 204.579C369.858 203.045 369.417 201.637 369.219 200.556C369.138 200.116 369.1 199.746 369.104 199.465L369.112 199.28C369.115 199.235 369.115 199.212 369.104 199.209L369.148 199.179C369.395 199.008 370.027 198.639 370.965 198.129L371.215 197.993ZM391.391 194.771C390.825 194.194 389.899 194.185 389.323 194.751C388.308 195.746 386.887 196.673 384.404 198.051L381.877 199.453C381.21 199.833 380.663 200.161 380.168 200.483C379.755 200.751 379.385 201.01 379.053 201.267C378.414 201.761 378.296 202.679 378.79 203.318C379.284 203.958 380.202 204.075 380.841 203.581C381.105 203.378 381.41 203.164 381.76 202.937C382.083 202.727 382.439 202.51 382.85 202.27L383.655 201.809L386.222 200.387C388.688 199.003 390.173 198.014 391.371 196.839C391.948 196.274 391.957 195.348 391.391 194.771Z" fill="#00160A"/>
<path d="M358.674 343.309C365.988 384.09 393.403 414.747 428.386 421.975C434.807 423.302 445.927 423.477 457.441 421.987C472.276 420.066 486.713 415.662 499.411 408.524C534.291 389.777 560.759 351.518 564.19 318.025C567.203 288.606 555.964 261.427 535.617 242.039C535.617 242.039 471.702 273.432 440.327 291.275C413.025 306.803 358.674 343.309 358.674 343.309Z" fill="white"/>
<path d="M507.524 221.696C494.414 215.228 477.988 210.118 461.882 209.295C402.809 206.275 356.35 253.465 355.865 314.334C355.865 314.334 421.796 272.338 456.049 252.076C473.09 241.996 507.524 221.696 507.524 221.696Z" fill="white"/>
<path fill-rule="evenodd" clip-rule="evenodd" d="M629.029 190.675C628.83 200.845 618.069 217.771 600.77 236.925C588.239 250.8 573.658 264.212 561.432 273.25L560.671 273.807L561.176 276.053C564.149 289.084 568.03 303.249 566.564 317.533C563.005 352.204 535.886 391.319 500.049 410.538C486.979 417.87 472.122 422.392 456.882 424.361L455.429 424.54C444.066 425.879 433.192 425.656 426.547 424.286C400.754 418.969 378.917 400.939 365.715 374.844C365.671 374.756 365.636 374.666 365.611 374.575C363.872 375.566 361.534 376.675 360.466 377.037L357.54 378.026C326.008 388.631 294.747 397.505 281.976 391.967C277.115 389.859 275.453 385.804 277.486 380.357C279.462 375.063 284.941 368.241 294.132 359.752L294.637 359.288C303.347 351.304 322.689 336.714 352.662 315.52L352.67 315.131C354.133 252.329 402.915 204.453 464.233 208.361C482.988 209.557 497.924 216.222 505.384 220.314L508.665 218.554C539.435 202.101 564.124 190.536 582.961 183.613C613.94 172.23 629.26 177.552 629.029 190.675ZM583.97 190.359C549.33 203.088 494.585 231.717 418.364 277.769L416.048 279.169C356.696 315.098 317.395 342.394 296.614 361.444L295.59 362.39L294.618 363.3C279.019 378.039 276.253 386.296 283.14 389.283C294.929 394.395 326.588 385.776 357.592 375.607L360.466 374.659C363.231 373.743 365.064 373.218 366.199 372.975C366.248 372.939 366.303 372.907 366.36 372.878C366.747 372.682 367.181 372.675 367.556 372.823C367.638 372.838 367.69 372.863 367.718 372.898C367.971 373.035 368.186 373.247 368.325 373.523C381.141 398.855 402.26 414.292 427.137 419.421C433.595 420.752 444.49 420.947 455.827 419.545L456.507 419.459C471.396 417.536 485.897 415.122 498.642 407.973C533.662 389.192 560.196 350.921 563.654 317.234C565.132 302.837 563.246 288.705 558.231 275.552C557.818 275.842 557.407 276.125 557 276.403C556.23 276.928 556.517 276.078 557.862 273.852C557.933 273.562 558.093 273.298 558.323 273.099L558.737 272.443C558.882 272.215 559.035 271.977 559.194 271.73L560.928 270.267C577.268 256.448 589.825 244.68 598.599 234.965L599.6 233.85C615.835 215.682 625.926 199.635 626.093 190.621C626.275 180.733 613.23 179.607 583.97 190.359ZM437.091 375.34C441.016 387.335 435.079 395.05 424.627 395.448C414.97 395.817 406.177 389.731 406.625 381.085C407.012 373.611 412.129 365.622 418.429 362.688C426.048 359.14 433.199 363.445 437.091 375.34ZM419.973 366.003C414.932 368.351 410.596 375.12 410.277 381.274C409.96 387.402 416.734 392.09 424.488 391.794C432.596 391.485 436.757 386.077 433.616 376.477C430.346 366.482 425.373 363.489 419.973 366.003ZM516.885 350.897C521.892 360.36 520.581 369.655 512.882 373.822L512.666 373.936L512.554 374.048C502.228 384.272 489.329 385.513 480.917 378.101L480.629 377.842C470.939 368.966 473.248 353.716 488.666 341.762C498.589 334.069 510.709 339.227 516.885 350.897ZM490.586 344.239C476.589 355.092 474.621 368.089 482.746 375.531C488.573 380.869 497.182 381.164 505.223 375.983L505.38 375.879L505.322 375.867C504.765 375.719 504.318 375.27 504.191 374.685L504.167 374.536C504.065 373.676 504.679 372.897 505.538 372.795C507.504 372.562 509.21 372.088 510.658 371.408L510.855 371.312L511.095 371.064C512.038 370.071 512.96 368.99 513.852 367.822L514.149 367.429C514.484 366.98 515.013 366.762 515.533 366.804L515.573 366.808L515.594 366.769C517.472 363.058 517.027 358.03 514.279 352.678L514.114 352.363C508.744 342.215 498.706 337.943 490.586 344.239ZM583.796 231.763C582.991 234.625 580.539 238.552 576.781 243.203C570.23 251.31 560.389 260.746 551.788 267.198L553.696 265.1C553.677 265.083 553.661 265.061 553.647 265.035L552.988 263.826C548.684 255.969 543.888 248.218 536.138 241.9C516.077 250.172 493.075 261.478 472.118 273.3L465.249 277.183C414.664 305.838 388.049 322.993 359.59 344.082C360.664 348.92 362.017 353.641 363.639 358.215C363.893 358.932 360.569 361.619 359.961 361.287C354.283 365.091 345.393 367.854 340.332 367.998C335.399 368.138 332.549 366.141 334.017 362.159C335.245 358.828 339.872 354.078 348.198 347.712L349.147 346.991L351.066 345.549C382.401 322.09 413.422 303.053 470.681 270.752L473.077 269.407C512.349 247.486 557.826 227.737 578.657 225.914C582.938 225.54 584.88 227.909 583.796 231.763ZM355.78 346.92L349.214 351.874C343.358 356.315 339.135 359.6 336.854 361.707L336.687 361.863C333.903 364.474 337.054 365.164 340.249 365.073C345.088 364.936 352.502 361.266 358.777 357.926C357.617 354.334 356.617 350.661 355.78 346.92ZM458.473 331.038C459.256 331.237 459.73 332.033 459.531 332.816C459.332 333.599 458.536 334.072 457.753 333.874C453.82 332.875 451.497 333.258 450.743 334.317C450.243 335.02 450.52 336.218 451.455 336.983C452.186 337.581 453.159 337.867 453.828 337.721C454.41 337.594 454.736 337.146 454.736 336.022C454.736 335.215 455.391 334.56 456.199 334.56C457.007 334.56 457.662 335.215 457.662 336.022C457.662 338.465 456.44 340.147 454.45 340.58C452.851 340.928 450.987 340.381 449.603 339.248C447.558 337.575 446.89 334.686 448.359 332.621C449.97 330.358 453.5 329.775 458.473 331.038ZM394.221 325.668C396.477 326.344 397.449 328.077 397.755 330.675L397.786 330.957L397.823 331.384C397.828 331.455 397.833 331.529 397.838 331.607L397.915 333.092L397.938 333.426C397.95 333.573 397.963 333.694 397.978 333.8L398.017 334.024L398.041 334.122L398.081 334.158C398.533 334.6 398.653 335.294 398.361 335.866L398.286 335.996C397.848 336.675 396.943 336.87 396.264 336.432C395.33 335.829 395.118 335.209 395.004 333.43L394.912 331.689C394.901 331.532 394.889 331.395 394.874 331.241C394.708 329.538 394.292 328.743 393.382 328.471C390.827 327.705 389.361 328.487 388.896 330.195C388.483 331.716 389.081 333.316 390.13 333.76L390.395 333.858C391.08 334.151 391.443 334.923 391.212 335.647C390.967 336.417 390.144 336.842 389.374 336.596C386.589 335.708 385.265 332.399 386.074 329.427C386.976 326.109 390.112 324.437 394.221 325.668ZM499.75 303.271C503.801 308.966 503.048 316.211 496.549 319.49C495.828 319.854 494.948 319.564 494.584 318.843C494.22 318.122 494.51 317.242 495.231 316.878C499.936 314.504 500.474 309.335 497.366 304.967C494.348 300.723 490.146 300.256 487.258 304.842C484.197 309.703 484.42 312.557 486.624 313.842C488.373 314.862 491.191 314.648 491.965 313.814L492.04 313.722C492.509 313.064 493.422 312.911 494.08 313.379C494.738 313.847 494.892 314.761 494.424 315.419C492.798 317.703 488.157 318.123 485.15 316.369C481.3 314.125 480.932 309.399 484.783 303.283C488.906 296.735 495.632 297.482 499.75 303.271ZM439.106 294.884C439.867 294.884 440.491 295.464 440.562 296.206L440.569 296.347C440.569 296.604 440.808 296.892 441.667 297.522L442.479 298.104C443.364 298.75 443.791 299.151 444.195 299.789C445.117 301.247 445.64 302.732 445.64 304.477C445.64 308.948 438.924 315.028 431.594 317.733C422.806 320.977 415.607 318.572 413.648 309.555C413.476 308.765 413.977 307.986 414.767 307.815C415.556 307.643 416.335 308.144 416.507 308.933C418.027 315.931 423.276 317.685 430.581 314.989C436.888 312.661 442.714 307.386 442.714 304.477C442.714 303.352 442.372 302.38 441.722 301.352L441.634 301.229C441.485 301.041 441.252 300.837 440.833 300.526L439.868 299.831C438.265 298.648 437.644 297.851 437.644 296.347C437.644 295.539 438.298 294.884 439.106 294.884ZM445.972 213.812L445.048 213.916C395.136 219.918 357.693 259.839 355.65 313.411L361.006 309.642C376.377 298.852 394.22 286.527 414.533 272.667L418.491 270.275C430.308 263.145 441.606 256.436 452.392 250.142C452.195 249.797 452.14 249.373 452.273 248.966C453.027 246.664 453.724 245.118 455.001 243.568C458.998 238.72 464.473 236.352 468.352 239.396C468.734 239.696 468.927 240.148 468.911 240.599L472.357 238.632C483.208 232.456 493.475 226.751 503.166 221.51L499.381 220.433C493.768 218.853 486.785 216.98 479.829 215.537C479.892 220.166 476.428 223.862 470.671 226.404C465.778 228.565 459.402 229.728 454.868 229.458C446.386 228.952 441.611 221.513 445.972 213.812ZM533.528 277.334C537.107 287.113 534.154 296.006 525.217 295.948C512.482 295.865 500.047 284.746 502.058 274.785C502.954 270.341 506.295 266.411 512.104 264.449C521.381 261.316 529.884 267.379 533.528 277.334ZM513.039 267.22C508.239 268.842 505.619 271.924 504.925 275.364C503.329 283.269 514.156 292.95 525.235 293.022C531.582 293.063 533.764 286.492 530.78 278.339C527.623 269.712 520.564 264.679 513.039 267.22ZM405.484 232.594L405.588 232.745L406.292 233.864C406.637 234.433 406.946 234.99 407.24 235.591C410.48 242.215 410.396 250.898 404.914 262.951C402.43 268.411 396.103 275.749 390.578 280.128C383.523 285.719 378.256 286.989 371.968 286.299L370.103 286.08L369.875 286.059C369.75 286.05 369.671 286.049 369.583 286.052L369.455 286.058C369.358 286.062 369.324 286.057 369.319 286.044L369.318 286.035L369.271 286.111C368.847 286.719 368.023 286.919 367.361 286.551C366.655 286.158 366.401 285.267 366.794 284.561C367.32 283.616 368.199 283.189 369.317 283.136C369.613 283.122 369.926 283.131 370.299 283.163L370.736 283.205L371.942 283.351C377.669 284.046 382.225 283.015 388.761 277.835C393.951 273.722 399.982 266.726 402.251 261.74C407.381 250.46 407.456 242.691 404.612 236.877C404.423 236.489 404.225 236.122 404.011 235.752L403.705 235.24L403.092 234.271C402.662 233.586 402.869 232.684 403.554 232.254C404.195 231.852 405.029 232.009 405.484 232.594ZM578.912 228.828C569.561 229.647 554.903 234.266 538.004 241.136L538.498 241.573C543.201 245.793 552.69 255.798 555.659 262.935L558.618 259.655C565.917 251.535 571.214 245.439 574.506 241.364L575.173 240.528C578.32 236.534 580.354 233.197 580.98 230.971L581.069 230.633C581.46 229.025 581.008 228.645 578.912 228.828ZM438.855 233.58C442.496 235.34 443.973 239.258 441.578 242.811C441.127 243.481 440.218 243.658 439.548 243.206C438.878 242.754 438.701 241.845 439.152 241.176C440.47 239.221 439.727 237.251 437.582 236.214C435.323 235.122 432.848 235.75 431.571 238.134C430.394 240.33 430.314 243.304 431.253 245.252C432.078 246.962 433.279 247.289 435.111 245.91C435.756 245.424 436.673 245.554 437.159 246.199C437.645 246.845 437.515 247.762 436.87 248.248C433.532 250.76 430.228 249.859 428.618 246.523C427.27 243.727 427.377 239.767 428.993 236.752C431.054 232.905 435.255 231.839 438.855 233.58ZM457.259 245.429C456.577 246.256 456.089 247.129 455.638 248.25C459.407 246.06 463.112 243.921 466.754 241.832L466.648 241.77L466.546 241.697C464.313 239.945 460.376 241.647 457.259 245.429ZM451.021 213.364L449.742 213.454L449.656 213.562C444.6 219.952 446.547 225.139 453.452 225.875C458.412 226.404 471.577 222.725 473.121 221.434C474.625 220.176 476.528 217.283 476.821 214.94C472.353 214.1 467.982 213.482 464.083 213.283C460.099 213.079 456.17 213.084 452.306 213.289L451.021 213.364Z" fill="#00160A"/>
<path d="M583.082 190.722C614.061 179.338 613.351 182.716 584.091 193.468C549.451 206.197 418.694 285.958 418.694 285.958C359.343 321.887 354.903 316.341 412.43 281.379L415.976 279.228C416.644 278.824 482.14 237.487 528.941 215.372C534.207 212.883 579.555 192.018 583.082 190.722Z" fill="white"/>
<path fill-rule="evenodd" clip-rule="evenodd" d="M636.573 134.049C626.974 133.558 619.481 141.018 619.403 150.778C619.338 158.955 624.029 165.899 630.751 167.284C632.522 167.65 637.63 167.65 642.061 165.164L642.428 164.962C648.014 161.798 651.814 155.78 652.323 150.83C653.223 142.053 646.172 134.54 636.573 134.049ZM621.493 150.794C621.493 150.731 621.494 150.668 621.495 150.605C621.555 150.586 621.613 150.561 621.67 150.53C629.196 146.476 633.842 143.387 635.697 141.156C636.922 139.683 637.52 138.022 637.471 136.217C638.735 136.356 639.94 136.634 641.07 137.031C641.063 137.085 641.06 137.14 641.062 137.196C641.154 139.794 640.462 141.871 638.989 143.488C637.298 145.346 635.248 147.114 632.917 148.782C630.426 150.565 627.751 152.139 625.075 153.487C624.451 153.801 623.857 154.088 623.3 154.346L622.492 154.712C622.376 154.764 622.269 154.811 622.17 154.854L621.93 154.955C621.634 153.637 621.481 152.241 621.493 150.794ZM622.517 156.975C623.179 158.81 624.137 160.436 625.324 161.76L625.948 161.401C635.77 155.715 641.867 151.248 644.174 148.097C646.508 144.911 647.339 142.464 646.817 140.801C646.805 140.762 646.795 140.722 646.788 140.683C645.76 139.604 644.536 138.676 643.157 137.944C643.098 140.706 642.225 143.038 640.535 144.894C638.736 146.87 636.576 148.733 634.133 150.481C631.547 152.332 628.781 153.96 626.015 155.353C625.209 155.759 624.449 156.121 623.751 156.438L622.936 156.799L622.517 156.975ZM630.339 165.028C629.105 164.659 627.956 164.053 626.921 163.252C637.031 157.404 643.323 152.796 645.86 149.331C647.434 147.182 648.441 145.249 648.85 143.524C649.358 144.474 649.743 145.486 649.99 146.544C649.937 146.652 649.902 146.77 649.889 146.897C649.634 149.339 648.375 151.764 646.073 154.178C643.864 156.496 639.096 159.839 631.81 164.162L630.339 165.028ZM633.87 165.366C636.113 165.223 638.857 164.566 641.073 163.323C645.196 161.112 648.506 156.948 649.757 152.935C649.152 153.842 648.428 154.737 647.585 155.62C645.317 158 640.757 161.235 633.87 165.366ZM622.1 147.918L621.729 148.12C622.915 141.216 628.431 136.263 635.376 136.119C635.45 137.475 635.028 138.692 634.091 139.82C632.575 141.643 628.554 144.371 622.1 147.918Z" fill="#00160A"/>
<path fill-rule="evenodd" clip-rule="evenodd" d="M711.999 114.028C712.194 114.051 712.33 114.227 712.308 114.42C712.307 114.706 712.123 114.86 711.876 114.96C711.654 115.049 711.299 115.015 711.092 115.043C708.83 115.218 707.051 113.553 706.269 111.407C705.517 109.345 705.717 106.881 707.082 105.36C707.239 105.181 707.511 105.163 707.69 105.32C707.869 105.477 708.887 105.75 708.73 105.929C707.605 107.243 706.844 108.039 707.905 111.156C708.966 114.273 711.854 114.011 711.999 114.028Z" fill="#E7EAEE"/>
<path fill-rule="evenodd" clip-rule="evenodd" d="M351.744 136.345C351.149 135.936 350.336 136.088 349.928 136.682C349.519 137.277 349.671 138.09 350.265 138.498C350.918 138.947 351.496 139.361 352.005 139.745C351.457 140.182 350.909 140.682 350.339 141.251L349.184 142.425C348.676 142.937 348.68 143.764 349.192 144.271C349.705 144.779 350.531 144.776 351.039 144.263L352.425 142.863C352.989 142.314 353.517 141.854 354.049 141.473C355.23 142.643 355.589 143.501 355.608 144.355L355.608 144.574L355.615 144.707C355.682 145.366 356.238 145.88 356.914 145.88C357.636 145.88 358.22 145.295 358.22 144.574L358.22 144.317C358.196 142.986 357.726 141.721 356.462 140.275C357.297 140.026 358.238 139.887 359.379 139.827C360.1 139.79 360.653 139.175 360.615 138.455C360.578 137.735 359.963 137.181 359.243 137.219C357.262 137.323 355.723 137.653 354.351 138.28C353.779 137.812 353.13 137.321 352.397 136.801L351.744 136.345Z" fill="#00160A"/>
<path fill-rule="evenodd" clip-rule="evenodd" d="M547.431 422.514L548.337 422.518C553.401 422.565 557.357 423.021 564.809 424.218C565.664 424.355 566.245 425.159 566.108 426.014C565.971 426.868 565.167 427.45 564.312 427.313L561.87 426.928C555.704 425.982 552.151 425.648 547.431 425.648C531.053 425.648 520.597 435.901 522.367 451.625C522.464 452.485 521.845 453.261 520.985 453.358C520.125 453.455 519.349 452.836 519.252 451.976C517.262 434.291 529.273 422.514 547.431 422.514ZM560.115 428.842L559.962 428.708C559.815 428.581 559.587 428.598 559.463 428.747C559.334 428.895 559.354 429.119 559.501 429.246L559.659 429.38C559.806 429.506 560.028 429.489 560.158 429.341C560.282 429.192 560.267 428.968 560.115 428.842ZM531.716 432.12C531.154 431.668 530.332 431.757 529.88 432.319C528.056 434.589 526.726 436.801 525.897 438.961C525.09 441.061 524.815 444.59 525.024 449.635L525.075 450.701C525.113 451.421 525.727 451.974 526.447 451.936C527.168 451.898 527.721 451.284 527.683 450.563C527.406 445.292 527.642 441.701 528.335 439.898C529.061 438.008 530.252 436.026 531.916 433.956C532.368 433.393 532.279 432.571 531.716 432.12ZM545.969 427.799C546.61 427.467 547.398 427.717 547.729 428.358C548.061 428.998 547.811 429.786 547.171 430.118C544.518 431.492 542.492 433.795 541.08 437.08C539.565 440.604 538.325 443.75 537.361 446.514C537.123 447.195 536.378 447.554 535.697 447.317C535.016 447.079 534.657 446.334 534.894 445.653C535.881 442.827 537.143 439.626 538.681 436.048C540.322 432.231 542.756 429.463 545.969 427.799ZM553.561 427.73C553.086 427.188 552.261 427.133 551.718 427.608C549.538 429.518 547.864 431.255 546.691 432.831C545.527 434.395 544.165 436.734 542.587 439.863C542.263 440.507 542.522 441.293 543.166 441.617C543.81 441.942 544.595 441.683 544.92 441.039C546.435 438.032 547.729 435.811 548.787 434.39C549.836 432.98 551.388 431.371 553.44 429.573C553.982 429.098 554.036 428.273 553.561 427.73ZM548.793 442.479C548.251 442.954 547.426 442.899 546.951 442.357C546.475 441.814 546.53 440.989 547.072 440.514C549.124 438.716 550.676 437.107 551.725 435.697C552.782 434.276 554.077 432.055 555.592 429.048C555.917 428.404 556.702 428.145 557.346 428.47C557.99 428.794 558.249 429.58 557.924 430.224C556.347 433.353 554.984 435.692 553.82 437.256C552.648 438.832 550.973 440.569 548.793 442.479ZM538.905 428.864C538.312 428.454 537.498 428.603 537.089 429.196C534.169 433.424 532.305 436.584 531.48 438.73C530.653 440.883 530.081 443.786 529.75 447.456C529.685 448.174 530.214 448.809 530.933 448.874C531.651 448.939 532.286 448.409 532.351 447.691C532.663 444.242 533.19 441.561 533.918 439.666C534.597 437.9 536.179 435.175 538.651 431.536L539.238 430.681C539.648 430.087 539.499 429.274 538.905 428.864Z" fill="#00160A"/>
<path fill-rule="evenodd" clip-rule="evenodd" d="M514.113 421.162L515.013 423.162L517.065 423.751C517.176 423.782 517.24 423.898 517.208 424.009C517.198 424.043 517.18 424.074 517.155 424.099L515.596 425.651L515.683 427.884C515.688 428 515.598 428.097 515.483 428.101C515.444 428.103 515.405 428.093 515.371 428.074L513.606 427.069C513.551 427.038 513.485 427.033 513.426 427.056L511.539 427.806C511.431 427.849 511.31 427.796 511.267 427.689C511.253 427.653 511.249 427.613 511.256 427.575L511.653 425.375L510.326 423.622C510.256 423.53 510.274 423.399 510.366 423.329C510.394 423.308 510.428 423.294 510.463 423.289L512.577 422.991L513.746 421.136C513.808 421.039 513.937 421.009 514.034 421.071C514.069 421.093 514.097 421.124 514.113 421.162Z" fill="#00160A"/>
<path fill-rule="evenodd" clip-rule="evenodd" d="M586.784 141.176C587.264 141.602 587.864 142.371 588.394 143.203L589.076 142.9L589.881 142.555C590.044 142.481 590.148 142.423 590.18 142.376C590.273 142.203 590.487 142.137 590.662 142.229C590.832 142.32 590.901 142.535 590.808 142.707C590.744 142.871 590.292 143.386 589.451 143.889C589.299 143.981 589.13 144.065 588.95 144.148C589.259 144.728 589.503 145.288 589.617 145.738C589.79 146.4 589.652 146.869 589.425 147.034C589.202 147.198 588.643 147.228 587.792 146.521C587.635 146.402 587.611 146.179 587.73 146.024C587.848 145.87 588.07 145.842 588.227 145.961C588.389 146.08 588.552 146.148 588.684 146.197L588.62 145.943C588.595 145.853 588.564 145.758 588.52 145.666C588.368 145.332 588.174 144.951 587.956 144.56C587.29 144.812 586.533 145.04 585.715 145.149C585.317 145.203 584.91 145.213 584.488 145.21C584.245 145.226 584.035 145.042 584.019 144.798C584.003 144.556 584.187 144.345 584.43 144.329C585.414 144.234 586.324 143.986 587.127 143.706L587.39 143.612C586.956 142.932 586.49 142.315 586.091 141.967C585.875 141.776 585.853 141.443 586.042 141.225C586.236 141.006 586.568 140.984 586.784 141.176Z" fill="#00160A"/>
<path fill-rule="evenodd" clip-rule="evenodd" d="M299.228 317.98C297.862 318.07 295.696 318.418 293.926 319.12C292.411 319.721 292.411 336.072 297.589 337.376C302.737 339.093 308.366 336.819 307.694 328.07C307.682 327.887 307.534 327.389 307.364 326.819C307.115 325.983 306.82 324.992 306.838 324.604C306.908 323.23 306.547 322.072 305.594 321.345C304.568 319.168 302.556 317.766 299.228 317.98ZM298.487 333.395C295.953 331.501 296.042 322.665 298.934 322.074C300.734 323.458 302.377 325.456 302.931 329.305C302.311 331.425 301.002 332.651 299.857 333.723C299.734 333.838 299.614 333.951 299.496 334.063C299.169 333.878 298.833 333.651 298.487 333.395Z" fill="white"/>
<path fill-rule="evenodd" clip-rule="evenodd" d="M295.409 328.244C295.18 326.869 295.336 325.33 296.027 323.688C296.341 322.944 297.165 322.337 298.196 321.93C299.401 321.455 300.875 321.219 301.805 321.158C304.069 321.012 305.438 321.96 306.136 323.431C306.784 323.923 307.029 324.706 306.982 325.636C306.961 326.077 307.543 327.674 307.563 327.979C308.018 333.897 304.187 335.436 300.684 334.276C299.353 334.953 298.069 335.065 297.103 334.347C296.236 333.705 295.571 332.353 295.419 329.968C295.378 329.352 295.375 328.778 295.409 328.244ZM301.623 324.347C299.613 324.742 299.529 330.544 301.284 331.78C301.523 331.947 301.757 332.095 301.983 332.216C302.831 331.452 303.464 330.833 303.823 329.568C304.182 328.303 302.869 325.251 301.623 324.347Z" fill="#FFB61D"/>
<path fill-rule="evenodd" clip-rule="evenodd" d="M432.571 473.153C431.976 472.745 431.163 472.896 430.755 473.491C430.347 474.085 430.498 474.898 431.092 475.307C431.746 475.755 432.323 476.169 432.832 476.554C432.284 476.991 431.736 477.491 431.166 478.06L430.011 479.233C429.503 479.745 429.507 480.572 430.019 481.08C430.532 481.588 431.359 481.584 431.866 481.072L433.252 479.671C433.816 479.122 434.344 478.663 434.876 478.281C436.057 479.452 436.416 480.31 436.435 481.163L436.436 481.382L436.442 481.516C436.509 482.174 437.065 482.688 437.741 482.688C438.463 482.688 439.047 482.103 439.047 481.382L439.047 481.125C439.023 479.795 438.553 478.53 437.289 477.084C438.125 476.835 439.065 476.696 440.206 476.636C440.927 476.598 441.48 475.984 441.442 475.264C441.405 474.543 440.79 473.99 440.07 474.028C438.089 474.131 436.55 474.461 435.179 475.089C434.606 474.621 433.957 474.129 433.224 473.609L432.571 473.153Z" fill="#00160A"/>
<path fill-rule="evenodd" clip-rule="evenodd" d="M432.571 473.153C431.976 472.745 431.163 472.896 430.755 473.491C430.347 474.085 430.498 474.898 431.092 475.307C431.746 475.755 432.323 476.169 432.832 476.554C432.284 476.991 431.736 477.491 431.166 478.06L430.011 479.233C429.503 479.745 429.507 480.572 430.019 481.08C430.532 481.588 431.359 481.584 431.866 481.072L433.252 479.671C433.816 479.122 434.344 478.663 434.876 478.281C436.057 479.452 436.416 480.31 436.435 481.163L436.436 481.382L436.442 481.516C436.509 482.174 437.065 482.688 437.741 482.688C438.463 482.688 439.047 482.103 439.047 481.382L439.047 481.125C439.023 479.795 438.553 478.53 437.289 477.084C438.125 476.835 439.065 476.696 440.206 476.636C440.927 476.598 441.48 475.984 441.442 475.264C441.405 474.543 440.79 473.99 440.07 474.028C438.089 474.131 436.55 474.461 435.179 475.089C434.606 474.621 433.957 474.129 433.224 473.609L432.571 473.153Z" fill="#00160A"/>
<path fill-rule="evenodd" clip-rule="evenodd" d="M477.205 437.375L478.105 439.375L480.157 439.963C480.268 439.995 480.332 440.111 480.3 440.222C480.29 440.256 480.272 440.287 480.246 440.312L478.688 441.864L478.775 444.097C478.78 444.212 478.69 444.31 478.574 444.314C478.535 444.316 478.497 444.306 478.463 444.287L476.698 443.282C476.643 443.25 476.577 443.246 476.518 443.269L474.63 444.019C474.523 444.061 474.402 444.009 474.359 443.902C474.345 443.865 474.341 443.826 474.348 443.787L474.745 441.588L473.417 439.835C473.348 439.743 473.366 439.612 473.458 439.542C473.486 439.521 473.52 439.507 473.555 439.502L475.668 439.204L476.838 437.349C476.899 437.251 477.028 437.222 477.126 437.284C477.161 437.306 477.188 437.337 477.205 437.375Z" fill="#00160A"/>
<path fill-rule="evenodd" clip-rule="evenodd" d="M363.985 423.633L365.515 425.205L367.644 425.057C367.759 425.049 367.859 425.135 367.867 425.251C367.869 425.286 367.863 425.322 367.848 425.354L366.914 427.345L367.759 429.413C367.803 429.52 367.752 429.642 367.645 429.686C367.609 429.701 367.569 429.705 367.531 429.699L365.529 429.358C365.467 429.347 365.403 429.365 365.355 429.408L363.838 430.758C363.752 430.834 363.62 430.827 363.543 430.74C363.517 430.711 363.5 430.675 363.493 430.637L363.114 428.434L361.267 427.241C361.17 427.178 361.142 427.049 361.205 426.952C361.224 426.922 361.251 426.897 361.282 426.881L363.167 425.878L363.631 423.735C363.656 423.622 363.767 423.551 363.88 423.575C363.92 423.584 363.956 423.604 363.985 423.633Z" fill="#00160A"/>
<path fill-rule="evenodd" clip-rule="evenodd" d="M340.098 280.418L340.998 282.418L343.049 283.006C343.16 283.038 343.224 283.154 343.192 283.265C343.183 283.299 343.164 283.33 343.139 283.355L341.58 284.907L341.668 287.14C341.672 287.255 341.582 287.353 341.467 287.357C341.428 287.359 341.389 287.349 341.355 287.33L339.591 286.325C339.536 286.293 339.469 286.289 339.41 286.312L337.523 287.062C337.416 287.104 337.294 287.052 337.252 286.945C337.237 286.908 337.233 286.869 337.24 286.83L337.638 284.631L336.31 282.878C336.24 282.786 336.258 282.655 336.35 282.585C336.379 282.564 336.412 282.55 336.447 282.545L338.561 282.247L339.73 280.392C339.792 280.294 339.921 280.265 340.019 280.327C340.053 280.349 340.081 280.38 340.098 280.418Z" fill="#00160A"/>
<path fill-rule="evenodd" clip-rule="evenodd" d="M339.889 282.41L340.271 283.259L341.142 283.509C341.189 283.523 341.217 283.572 341.203 283.619C341.199 283.634 341.191 283.647 341.18 283.658L340.518 284.317L340.555 285.265C340.557 285.314 340.519 285.355 340.47 285.357C340.454 285.358 340.437 285.354 340.423 285.346L339.673 284.919C339.65 284.906 339.622 284.904 339.597 284.914L338.795 285.232C338.749 285.25 338.698 285.228 338.68 285.182C338.674 285.167 338.672 285.15 338.675 285.134L338.844 284.2L338.28 283.455C338.25 283.416 338.258 283.36 338.297 283.33C338.309 283.321 338.323 283.315 338.338 283.313L339.236 283.187L339.733 282.399C339.759 282.357 339.814 282.345 339.855 282.371C339.87 282.38 339.881 282.394 339.889 282.41Z" fill="#E7EAEE"/>
<path fill-rule="evenodd" clip-rule="evenodd" d="M233.113 368.162L234.013 370.162L236.065 370.751C236.176 370.782 236.24 370.898 236.208 371.009C236.198 371.043 236.18 371.074 236.155 371.099L234.596 372.651L234.683 374.884C234.688 375 234.598 375.097 234.483 375.101C234.444 375.103 234.405 375.093 234.371 375.074L232.606 374.069C232.551 374.038 232.485 374.033 232.426 374.056L230.539 374.806C230.431 374.849 230.31 374.796 230.267 374.689C230.253 374.653 230.249 374.613 230.256 374.575L230.653 372.375L229.326 370.622C229.256 370.53 229.274 370.399 229.366 370.329C229.394 370.308 229.428 370.294 229.463 370.289L231.577 369.991L232.746 368.136C232.808 368.039 232.937 368.009 233.034 368.071C233.069 368.093 233.097 368.124 233.113 368.162Z" fill="#00160A"/>
<path fill-rule="evenodd" clip-rule="evenodd" d="M323.534 188.583L324.188 189.04C324.922 189.56 327.66 192.141 328.233 192.61C329.603 191.981 331.142 191.651 333.123 191.547C333.843 191.51 334.458 192.063 334.495 192.783C334.533 193.504 333.98 194.118 333.259 194.156C332.118 194.215 331.177 194.355 330.342 194.604C331.607 196.05 332.076 197.315 332.101 198.645L332.101 198.902C332.101 199.623 331.516 200.208 330.795 200.208C330.119 200.208 329.562 199.694 329.496 199.035L329.489 198.902L329.489 198.683C329.469 197.83 329.11 196.971 327.929 195.801C327.397 196.182 326.869 196.642 326.305 197.191L324.919 198.592C324.411 199.104 323.585 199.108 323.072 198.6C322.56 198.092 322.556 197.265 323.064 196.753L324.219 195.58C324.789 195.01 325.337 194.51 325.885 194.074C324.922 191.874 321.31 189.515 321.719 188.921C322.127 188.326 322.94 188.175 323.534 188.583Z" fill="#00160A"/>
<path fill-rule="evenodd" clip-rule="evenodd" d="M575.509 339.2L577.288 340.482L579.36 339.966C579.472 339.938 579.585 340.007 579.613 340.118C579.621 340.153 579.621 340.189 579.612 340.224L579.038 342.347L580.23 344.237C580.291 344.334 580.262 344.464 580.165 344.525C580.132 344.546 580.093 344.557 580.054 344.557L578.024 344.569C577.96 344.57 577.9 344.599 577.861 344.649L576.601 346.241C576.53 346.332 576.398 346.347 576.308 346.276C576.277 346.251 576.254 346.219 576.241 346.182L575.485 344.079L573.459 343.224C573.353 343.18 573.303 343.057 573.348 342.951C573.361 342.918 573.383 342.889 573.411 342.867L575.093 341.553L575.178 339.361C575.183 339.246 575.28 339.156 575.395 339.161C575.436 339.162 575.476 339.176 575.509 339.2Z" fill="#00160A"/>
<path fill-rule="evenodd" clip-rule="evenodd" d="M595.948 257.349L596.487 259.475L598.405 260.411C598.509 260.462 598.552 260.587 598.501 260.691C598.486 260.723 598.462 260.75 598.433 260.771L596.629 262.028L596.327 264.242C596.311 264.357 596.206 264.437 596.091 264.421C596.053 264.416 596.016 264.4 595.986 264.375L594.423 263.079C594.374 263.038 594.31 263.022 594.247 263.035L592.259 263.446C592.146 263.469 592.035 263.396 592.012 263.283C592.004 263.245 592.007 263.205 592.02 263.169L592.794 261.072L591.791 259.114C591.738 259.012 591.779 258.886 591.881 258.833C591.913 258.817 591.948 258.809 591.984 258.81L594.117 258.884L595.591 257.26C595.668 257.175 595.8 257.169 595.886 257.246C595.916 257.274 595.938 257.31 595.948 257.349Z" fill="#00160A"/>
<path fill-rule="evenodd" clip-rule="evenodd" d="M549.404 171.795L549.943 173.921L551.861 174.857C551.965 174.908 552.008 175.033 551.957 175.137C551.942 175.169 551.918 175.196 551.889 175.216L550.085 176.474L549.783 178.688C549.767 178.803 549.662 178.883 549.548 178.867C549.509 178.862 549.472 178.846 549.442 178.821L547.879 177.525C547.83 177.484 547.766 177.468 547.704 177.481L545.715 177.891C545.602 177.915 545.491 177.842 545.468 177.729C545.46 177.691 545.463 177.651 545.476 177.614L546.25 175.518L545.247 173.56C545.194 173.458 545.235 173.332 545.337 173.279C545.369 173.263 545.404 173.255 545.44 173.256L547.573 173.33L549.047 171.706C549.124 171.621 549.257 171.614 549.342 171.692C549.372 171.72 549.394 171.755 549.404 171.795Z" fill="#00160A"/>
<path fill-rule="evenodd" clip-rule="evenodd" d="M686.91 192.624L687.704 192.553C688.6 192.481 689.414 192.44 690.153 192.431C690.798 191.069 691.765 189.826 693.216 188.474C693.744 187.982 694.57 188.011 695.062 188.539C695.554 189.066 695.525 189.892 694.997 190.384C694.161 191.164 693.53 191.875 693.05 192.603C694.949 192.898 696.122 193.565 696.995 194.568L697.161 194.765C697.624 195.317 697.552 196.141 697 196.605C696.482 197.039 695.725 197.003 695.251 196.542L695.16 196.444L695.019 196.276C694.456 195.635 693.629 195.208 691.972 195.071C691.81 195.705 691.7 196.396 691.621 197.18L691.46 199.143C691.4 199.862 690.769 200.396 690.05 200.337C689.331 200.277 688.797 199.646 688.857 198.927L688.988 197.286C689.058 196.484 689.156 195.748 689.296 195.061C688.659 195.094 687.951 195.148 687.161 195.224C686.443 195.294 685.805 194.768 685.736 194.05C685.666 193.332 686.192 192.694 686.91 192.624Z" fill="#00160A"/>
<path fill-rule="evenodd" clip-rule="evenodd" d="M581.452 282.776C581.216 283.373 580.699 284.199 580.098 284.982L580.616 285.519L581.216 286.158L581.349 286.286C581.407 286.337 581.453 286.369 581.486 286.377C581.68 286.405 581.816 286.584 581.789 286.78C581.761 286.971 581.583 287.109 581.389 287.081C581.213 287.077 580.575 286.827 579.814 286.21C579.677 286.098 579.539 285.969 579.4 285.827C578.961 286.317 578.518 286.737 578.135 286.998C577.571 287.387 577.083 287.418 576.85 287.261C576.621 287.108 576.401 286.593 576.774 285.551C576.832 285.363 577.033 285.264 577.219 285.322C577.405 285.381 577.508 285.58 577.449 285.768C577.392 285.961 577.384 286.138 577.384 286.279L577.6 286.131C577.677 286.077 577.755 286.015 577.827 285.943C578.088 285.685 578.38 285.373 578.673 285.034C578.209 284.495 577.736 283.861 577.353 283.13C577.166 282.774 577.017 282.395 576.876 281.997C576.778 281.775 576.879 281.514 577.102 281.416C577.325 281.318 577.586 281.419 577.683 281.642C578.109 282.534 578.654 283.304 579.191 283.963L579.371 284.178C579.86 283.537 580.281 282.889 580.472 282.395C580.577 282.127 580.883 281.992 581.152 282.095C581.424 282.203 581.558 282.507 581.452 282.776Z" fill="#E7EAEE"/>
<path fill-rule="evenodd" clip-rule="evenodd" d="M568.701 16.6147C569.497 16.4761 570.254 17.0089 570.393 17.8047C570.531 18.6005 569.998 19.3581 569.203 19.4967C565.417 20.156 560.862 22.4185 556.927 26.0626C551.816 30.7945 548.047 37.473 546.186 46.1907C544.686 53.2143 546.064 62.4617 549.983 70.1769C554.442 78.9545 561.61 84.9224 570.807 86.6022C580.248 88.3268 588.236 87.2557 597.158 84.084L597.979 83.7858C598.24 83.6871 598.705 83.5077 599.288 83.2825L599.29 83.282C601.438 82.4531 605.192 81.0047 606.27 80.6788C609.154 79.8065 611.122 79.8795 612.549 81.3998C613.101 81.9889 613.072 82.9145 612.483 83.4673C611.931 83.9856 611.083 83.9921 610.523 83.5056L610.415 83.4017C609.995 82.9532 609.124 82.9012 607.373 83.4034L607.117 83.4789C606.167 83.7663 602.69 85.1068 600.522 85.9426L600.522 85.9427L600.522 85.9428L600.521 85.943C599.682 86.2667 599.039 86.5147 598.815 86.5962C589.179 90.1137 580.532 91.3524 570.281 89.48C560.123 87.6246 552.225 81.0483 547.375 71.5018C543.161 63.2051 541.681 53.2778 543.325 45.5799C545.311 36.2757 549.384 29.0599 554.939 23.9161C559.288 19.8896 564.358 17.371 568.701 16.6147ZM578.593 23.6811C579.385 23.5258 580.154 24.0426 580.309 24.8354C580.464 25.6281 579.948 26.3966 579.155 26.5519C567.3 28.8736 557.766 37.9285 555.001 49.9056C554.065 53.9591 554.348 57.255 555.267 58.5124L555.388 58.6701L555.398 58.692L555.415 58.6788C555.744 58.382 556.128 57.6239 556.426 56.4486L556.489 56.1904C559.333 43.8723 568.724 34.3373 580.719 31.1352C581.5 30.9268 582.302 31.3906 582.51 32.1711C582.718 32.9516 582.254 33.7532 581.474 33.9616C570.667 36.8465 562.176 45.3549 559.451 56.3811L559.339 56.8485C558.336 61.1929 555.457 63.2668 553.124 60.5167C551.417 58.5053 550.999 54.2373 552.151 49.2475C555.178 36.1359 565.615 26.2226 578.593 23.6811ZM596.185 39.7357C596.127 38.9299 595.427 38.3233 594.622 38.3808C580.386 39.3964 567.901 48.6429 562.934 62.2901C561.049 67.4687 560.937 72.0739 562.48 74.4225C564.55 77.5727 567.806 75.7857 569.429 71.3253L569.599 70.8676C573.992 59.318 584.286 51.2514 596.336 49.5694C597.136 49.4577 597.694 48.7186 597.583 47.9185C597.471 47.1185 596.732 46.5604 595.932 46.6721C582.661 48.5245 571.347 57.5033 566.68 70.3247L566.577 70.5987C566.058 71.9331 565.49 72.7377 565.06 72.9738L565.041 72.9866C565.037 72.9892 565.035 72.9915 565.033 72.9933C565.029 72.9965 565.028 72.9982 565.026 72.998C565.024 72.9977 565.022 72.9936 565.018 72.9838C565.009 72.9622 564.988 72.913 564.925 72.8161L564.847 72.6888C563.998 71.1837 564.128 67.5628 565.683 63.2907C570.251 50.7376 581.735 42.233 594.83 41.2987C595.636 41.2413 596.242 40.5414 596.185 39.7357ZM602.555 53.955C603.361 53.8975 604.061 54.5042 604.118 55.3099C604.176 56.1157 603.569 56.8155 602.763 56.873C593.582 57.528 585.531 63.4907 582.328 72.292C581.378 74.901 581.201 77.1316 581.541 78.2613L581.583 78.3874L581.648 78.2941C581.811 78.0463 581.995 77.6905 582.175 77.2292L582.252 77.025C585.636 67.7284 593.84 61.2178 603.462 59.8747C604.262 59.763 605.001 60.3211 605.113 61.1211C605.225 61.9212 604.667 62.6603 603.867 62.772C595.449 63.947 588.254 69.5647 585.155 77.6141L585.001 78.0255C583.746 81.473 581.033 82.9623 579.298 80.3225C578.11 78.5135 578.193 75.0987 579.579 71.2914C583.18 61.396 592.233 54.6915 602.555 53.955ZM610.264 65.7401C610.207 64.9343 609.507 64.3277 608.701 64.3852C601.788 64.8784 595.726 69.3686 593.313 75.9956C592.363 78.6082 592.305 80.9861 593.184 82.3249C594.627 84.52 596.868 83.2901 597.801 80.7251L597.928 80.3883C599.893 75.3698 604.396 71.871 609.661 71.1361C610.461 71.0244 611.019 70.2853 610.908 69.4853C610.796 68.6852 610.057 68.1272 609.257 68.2388L608.886 68.2946C603.219 69.2075 598.329 72.8047 595.794 77.9818L595.705 78.1661L595.759 77.9562C595.841 77.6507 595.941 77.3292 596.062 76.9961C598.076 71.4632 603.137 67.7149 608.909 67.3032C609.715 67.2457 610.322 66.5459 610.264 65.7401Z" fill="#00160A"/>
<path fill-rule="evenodd" clip-rule="evenodd" d="M602.555 53.955C603.361 53.8976 604.061 54.5042 604.118 55.3099C604.176 56.1157 603.569 56.8155 602.763 56.873C593.582 57.528 585.531 63.4907 582.328 72.292C581.378 74.901 581.201 77.1316 581.541 78.2613L581.583 78.3874L581.648 78.2941C581.811 78.0463 581.995 77.6905 582.175 77.2292L582.252 77.025C585.636 67.7284 593.84 61.2179 603.462 59.8747C604.262 59.763 605.001 60.3211 605.113 61.1211C605.225 61.9212 604.667 62.6603 603.867 62.772C595.449 63.947 588.254 69.5647 585.155 77.6141L585.001 78.0255C583.746 81.473 581.033 82.9623 579.298 80.3225C578.11 78.5135 578.193 75.0987 579.579 71.2914C583.18 61.396 592.233 54.6915 602.555 53.955Z" fill="#00160A"/>
<path d="M511.461 244.394C542.126 230.05 567.765 222.474 583.727 221.083C588.615 220.657 590.832 223.352 589.594 227.735C588.675 230.99 585.876 235.457 581.586 240.746C574.106 249.967 564.244 257.857 554.423 265.196C570.135 250.695 574.142 244.629 578.988 238.655L579.749 237.705C583.342 233.162 585.664 229.366 586.379 226.834L586.481 226.449C586.927 224.621 586.41 224.189 584.018 224.397C568.417 225.757 542.876 233.348 512.324 247.672C481.722 262.02 480.847 258.714 511.461 244.394Z" fill="white"/>
<path d="M371.215 197.993L371.439 198.527C372.992 202.21 374.607 205.858 376.439 209.837L377.151 211.38C376.918 211.537 376.611 211.704 376.273 211.851C375.788 212.063 375.296 212.212 374.925 212.261L374.808 212.273L374.63 212.06C373.245 210.355 371.638 207.459 370.476 204.578C369.858 203.044 369.417 201.637 369.219 200.556C369.138 200.116 369.1 199.746 369.104 199.465L369.112 199.28C369.115 199.235 369.115 199.212 369.104 199.208L369.148 199.179C369.395 199.008 370.027 198.639 370.965 198.128L371.215 197.993Z" fill="white"/>
<path fill-rule="evenodd" clip-rule="evenodd" d="M409.979 184.65C410.939 183.475 412.184 183.65 413.76 184.606L414.165 184.862L415.299 185.613C415.615 185.816 415.753 185.886 415.938 185.96C416.366 186.131 416.576 186.617 416.405 187.045C416.234 187.474 415.748 187.684 415.319 187.513L415.166 187.45C414.877 187.326 414.658 187.197 414.071 186.807L413.258 186.266C413.124 186.178 413.008 186.105 412.893 186.036C411.95 185.464 411.522 185.403 411.274 185.707C411.117 185.899 411.156 186.307 411.467 187.145L411.808 188.023C412.486 189.823 412.49 190.627 411.282 191.314C410.243 191.905 409.71 191.629 408.217 190.166L407.854 189.807C406.898 188.853 406.397 188.52 406.074 188.589C405.967 188.611 405.842 188.687 405.689 188.85C405.51 189.041 405.459 189.652 405.569 190.735L405.737 192.15C405.934 193.879 405.855 194.327 405.141 194.805C404.158 195.463 402.849 194.719 400.425 192.542C400.081 192.233 400.053 191.705 400.361 191.361C400.67 191.018 401.198 190.99 401.542 191.298C402.578 192.229 403.361 192.835 403.908 193.146L404.03 193.213L404.132 193.264L404.135 193.159L404.128 192.909C404.118 192.703 404.092 192.455 404.041 192.034L403.934 191.166C403.731 189.405 403.795 188.426 404.47 187.706C404.845 187.307 405.266 187.051 405.728 186.953C406.802 186.726 407.565 187.185 408.831 188.423L409.471 189.052C410.16 189.715 410.415 189.884 410.456 189.861C410.612 189.772 410.589 189.495 410.165 188.408L409.98 187.937C409.389 186.419 409.277 185.51 409.979 184.65Z" fill="#00160A"/>
<path fill-rule="evenodd" clip-rule="evenodd" d="M501.227 48.6057L500.433 48.6765C499.715 48.746 499.19 49.3843 499.259 50.1022C499.301 50.5363 499.551 50.9001 499.901 51.1046L499.763 51.2025C499.174 51.6188 499.034 52.4338 499.451 53.0228C499.867 53.6118 500.682 53.7518 501.271 53.3355L502.612 52.3853C502.573 52.6927 502.54 53.0099 502.511 53.3383L502.38 54.9793C502.321 55.6981 502.855 56.3292 503.574 56.3889C504.293 56.4486 504.924 55.9143 504.983 55.1955L505.144 53.2318C505.187 52.8114 505.238 52.4173 505.302 52.0444C505.76 52.9146 505.852 53.585 505.755 54.219L505.717 54.4345L505.701 54.5672C505.652 55.2274 506.111 55.83 506.776 55.9474C507.487 56.0727 508.164 55.5984 508.289 54.8881L508.334 54.6352C508.473 53.754 508.409 52.8668 508.052 51.882C508.239 52.0161 508.399 52.1652 508.543 52.3283L508.683 52.4959L508.774 52.5939C509.249 53.0554 510.005 53.0915 510.523 52.6569C511.076 52.1933 511.148 51.3695 510.684 50.817L510.519 50.6204C510.46 50.553 510.4 50.4872 510.339 50.4229C511.021 50.4628 511.625 49.9661 511.71 49.2784C511.798 48.5625 511.289 47.9108 510.573 47.8228C509.342 47.6714 508.265 47.6373 507.274 47.7263C507.629 47.3082 508.041 46.8835 508.521 46.4365C509.048 45.9447 509.077 45.1183 508.586 44.5908C508.094 44.0632 507.267 44.0342 506.74 44.526C505.855 45.351 505.15 46.1349 504.588 46.93C504.371 46.7 504.143 46.4642 503.905 46.2223L503.34 45.6596C502.825 45.1543 501.998 45.1619 501.493 45.6766C500.988 46.1912 500.995 47.0181 501.51 47.5234C501.867 47.8743 502.197 48.2063 502.501 48.5209C502.096 48.5413 501.672 48.5695 501.227 48.6057Z" fill="#00160A"/>
<path fill-rule="evenodd" clip-rule="evenodd" d="M450.898 57.6546C450.584 57.3332 450.077 57.3422 449.764 57.6747C449.451 58.0072 449.452 58.5372 449.765 58.8586C450.062 59.1634 450.328 59.4458 450.565 59.7087C450.063 59.9216 449.559 60.1974 449.019 60.5378L448.2 61.0632C447.84 61.2922 447.762 61.7505 448.025 62.0867C448.288 62.423 448.792 62.5099 449.152 62.2808L450.133 61.6542C450.646 61.34 451.109 61.1023 451.574 60.9355C452.28 61.9174 452.428 62.5468 452.338 63.1303L452.313 63.2687L452.303 63.3538C452.269 63.7773 452.548 64.1614 452.956 64.2334C453.392 64.3102 453.81 64.0027 453.89 63.5467L453.919 63.3843C454.053 62.538 453.909 61.6854 453.302 60.6322C453.714 60.6258 454.162 60.6563 454.67 60.7213C455.113 60.7779 455.511 60.4972 455.558 60.0943C455.606 59.6914 455.285 59.3189 454.842 59.2623C453.871 59.1382 453.057 59.1241 452.312 59.2247C452.006 58.8479 451.651 58.4456 451.241 58.0126L450.898 57.6546Z" fill="#E7EAEE"/>
<path fill-rule="evenodd" clip-rule="evenodd" d="M282.596 275.375L283.496 277.375L285.547 277.963C285.658 277.995 285.722 278.111 285.69 278.222C285.681 278.256 285.662 278.287 285.637 278.312L284.078 279.864L284.166 282.097C284.17 282.212 284.08 282.31 283.965 282.314C283.926 282.316 283.887 282.306 283.853 282.287L282.089 281.282C282.034 281.25 281.967 281.246 281.908 281.269L280.021 282.019C279.914 282.061 279.792 282.009 279.75 281.902C279.735 281.865 279.731 281.826 279.738 281.787L280.136 279.588L278.808 277.835C278.738 277.743 278.756 277.612 278.848 277.542C278.877 277.521 278.91 277.507 278.945 277.502L281.059 277.204L282.228 275.349C282.29 275.251 282.419 275.222 282.517 275.284C282.551 275.306 282.579 275.337 282.596 275.375Z" fill="#00160A"/>
<path fill-rule="evenodd" clip-rule="evenodd" d="M294.596 164.375L295.496 166.375L297.547 166.963C297.658 166.995 297.722 167.111 297.69 167.222C297.681 167.256 297.662 167.287 297.637 167.312L296.078 168.864L296.166 171.097C296.17 171.212 296.08 171.31 295.965 171.314C295.926 171.316 295.887 171.306 295.853 171.287L294.089 170.282C294.034 170.25 293.967 170.246 293.908 170.269L292.021 171.019C291.914 171.061 291.792 171.009 291.75 170.902C291.735 170.865 291.731 170.826 291.738 170.787L292.136 168.588L290.808 166.835C290.738 166.743 290.756 166.612 290.848 166.542C290.877 166.521 290.91 166.507 290.945 166.502L293.059 166.204L294.228 164.349C294.29 164.251 294.419 164.222 294.517 164.284C294.551 164.306 294.579 164.337 294.596 164.375Z" fill="#00160A"/>
<path d="M321.778 341.099C322.448 340.613 323.386 340.761 323.873 341.432C324.36 342.102 303.138 359.387 294.906 367.308L293.949 368.237C289.247 372.837 285.78 376.821 283.826 379.971C281.755 383.308 281.622 385.121 282.959 385.862C288.031 388.672 295.324 390.042 305.769 388.312L306.842 388.129C310.818 387.432 340.724 380.91 340.251 381.083L340.067 381.139C339.124 381.389 326.946 385.6 322.743 386.669L322.235 386.798C315.81 388.414 310.782 389.522 306.259 390.272C295.206 392.103 287.309 391.702 281.505 388.486C278.156 386.629 278.422 382.989 281.277 378.389C283.522 374.771 287.471 370.299 292.826 365.147C301.168 357.119 312.902 347.544 321.778 341.099Z" fill="white"/>
<defs>
<filter id="filter0_d_2753_27708" x="484.923" y="128.515" width="103.797" height="110.451" filterUnits="userSpaceOnUse" color-interpolation-filters="sRGB">
<feFlood flood-opacity="0" result="BackgroundImageFix"/>
<feColorMatrix in="SourceAlpha" type="matrix" values="0 0 0 0 0 0 0 0 0 0 0 0 0 0 0 0 0 0 127 0" result="hardAlpha"/>
<feOffset dx="7.9844" dy="14.6381"/>
<feComposite in2="hardAlpha" operator="out"/>
<feColorMatrix type="matrix" values="0 0 0 0 0 0 0 0 0 0 0 0 0 0 0 0 0 0 1 0"/>
<feBlend mode="normal" in2="BackgroundImageFix" result="effect1_dropShadow_2753_27708"/>
<feBlend mode="normal" in="SourceGraphic" in2="effect1_dropShadow_2753_27708" result="shape"/>
</filter>
<filter id="filter1_d_2753_27708" x="145.876" y="78" width="423.944" height="601.424" filterUnits="userSpaceOnUse" color-interpolation-filters="sRGB">
<feFlood flood-opacity="0" result="BackgroundImageFix"/>
<feColorMatrix in="SourceAlpha" type="matrix" values="0 0 0 0 0 0 0 0 0 0 0 0 0 0 0 0 0 0 127 0" result="hardAlpha"/>
<feOffset dx="-13.3073" dy="26.6147"/>
<feComposite in2="hardAlpha" operator="out"/>
<feColorMatrix type="matrix" values="0 0 0 0 0 0 0 0 0 0 0 0 0 0 0 0 0 0 1 0"/>
<feBlend mode="normal" in2="BackgroundImageFix" result="effect1_dropShadow_2753_27708"/>
<feBlend mode="normal" in="SourceGraphic" in2="effect1_dropShadow_2753_27708" result="shape"/>
</filter>
<filter id="filter2_b_2753_27708" x="205.784" y="154.348" width="68.5121" height="45.6644" filterUnits="userSpaceOnUse" color-interpolation-filters="sRGB">
<feFlood flood-opacity="0" result="BackgroundImageFix"/>
<feGaussianBlur in="BackgroundImageFix" stdDeviation="2.66147"/>
<feComposite in2="SourceAlpha" operator="in" result="effect1_backgroundBlur_2753_27708"/>
<feBlend mode="normal" in="SourceGraphic" in2="effect1_backgroundBlur_2753_27708" result="shape"/>
</filter>
<filter id="filter3_d_2753_27708" x="534.526" y="503.361" width="117.904" height="117.904" filterUnits="userSpaceOnUse" color-interpolation-filters="sRGB">
<feFlood flood-opacity="0" result="BackgroundImageFix"/>
<feColorMatrix in="SourceAlpha" type="matrix" values="0 0 0 0 0 0 0 0 0 0 0 0 0 0 0 0 0 0 127 0" result="hardAlpha"/>
<feOffset dx="13.0192" dy="13.0192"/>
<feComposite in2="hardAlpha" operator="out"/>
<feColorMatrix type="matrix" values="0 0 0 0 0 0 0 0 0 0 0 0 0 0 0 0 0 0 1 0"/>
<feBlend mode="normal" in2="BackgroundImageFix" result="effect1_dropShadow_2753_27708"/>
<feBlend mode="normal" in="SourceGraphic" in2="effect1_dropShadow_2753_27708" result="shape"/>
</filter>
<filter id="filter4_d_2753_27708" x="0.427724" y="278.97" width="125.295" height="135.941" filterUnits="userSpaceOnUse" color-interpolation-filters="sRGB">
<feFlood flood-opacity="0" result="BackgroundImageFix"/>
<feColorMatrix in="SourceAlpha" type="matrix" values="0 0 0 0 0 0 0 0 0 0 0 0 0 0 0 0 0 0 127 0" result="hardAlpha"/>
<feOffset dx="-3.9922" dy="14.6381"/>
<feComposite in2="hardAlpha" operator="out"/>
<feColorMatrix type="matrix" values="0 0 0 0 0 0 0 0 0 0 0 0 0 0 0 0 0 0 1 0"/>
<feBlend mode="normal" in2="BackgroundImageFix" result="effect1_dropShadow_2753_27708"/>
<feBlend mode="normal" in="SourceGraphic" in2="effect1_dropShadow_2753_27708" result="shape"/>
</filter>
<filter id="filter5_d_2753_27708" x="636.421" y="644.38" width="39.1912" height="45.1004" filterUnits="userSpaceOnUse" color-interpolation-filters="sRGB">
<feFlood flood-opacity="0" result="BackgroundImageFix"/>
<feColorMatrix in="SourceAlpha" type="matrix" values="0 0 0 0 0 0 0 0 0 0 0 0 0 0 0 0 0 0 127 0" result="hardAlpha"/>
<feOffset/>
<feGaussianBlur stdDeviation="2.25043"/>
<feComposite in2="hardAlpha" operator="out"/>
<feColorMatrix type="matrix" values="0 0 0 0 0 0 0 0 0 0 0 0 0 0 0 0 0 0 0.25 0"/>
<feBlend mode="normal" in2="BackgroundImageFix" result="effect1_dropShadow_2753_27708"/>
<feBlend mode="normal" in="SourceGraphic" in2="effect1_dropShadow_2753_27708" result="shape"/>
</filter>
<clipPath id="clip0_2753_27708">
<rect width="15.9688" height="15.9688" fill="white" transform="translate(270.524 550.158) rotate(-9.24098)"/>
</clipPath>
</defs>
</svg>
