<svg width="676" height="674" viewBox="0 0 676 674" fill="none" xmlns="http://www.w3.org/2000/svg">
<g filter="url(#filter0_d_3065_18994)">
<circle cx="532.829" cy="160.421" r="47.9064" fill="#AAAAAA"/>
<circle cx="532.829" cy="160.421" r="46.5756" stroke="black" stroke-width="2.66147"/>
</g>
<g filter="url(#filter1_d_3065_18994)">
<rect x="159.184" y="114.997" width="330.022" height="528.673" rx="10.6459" transform="rotate(-9.24098 159.184 114.997)" fill="#F7F0FF" shape-rendering="crispEdges"/>
<rect x="197.363" y="142.491" width="263.485" height="263.485" rx="9.31513" transform="rotate(-9.24098 197.363 142.491)" fill="white"/>
<path fill-rule="evenodd" clip-rule="evenodd" d="M413.384 199.285C403.905 202.058 396.462 203.196 391.054 202.699C385.647 202.203 381.065 199.96 377.309 195.972C372.875 189.648 370.395 186.013 369.866 185.068C367.276 180.437 366.252 175.625 366.027 172.307C365.734 167.975 367.122 162.025 370.194 154.459C369.983 149.601 370.264 145.217 371.036 141.309C371.809 137.401 373.711 131.638 376.744 124.022L373.461 101.257C374.35 95.7653 375.391 91.8022 376.585 89.3679C377.778 86.9337 379.388 85.4879 381.415 85.0306C383.113 84.5709 384.786 84.697 386.434 85.4089C388.083 86.1209 391.314 88.1131 396.129 91.3855C398.521 84.8449 401.619 79.6346 405.423 75.7547C409.228 71.8749 414.564 68.483 421.433 65.579L422.092 63.4017L420.191 51.5848L411.94 23.4413L407.528 24.1975L412.628 13.0015C412.858 10.6877 413.184 8.98024 413.608 7.879C414.031 6.77776 414.947 5.45096 416.356 3.89861C416.323 3.52426 417.626 3.09423 420.267 2.60853C422.908 2.12283 427.1 1.54209 432.843 0.866302C435.368 1.00792 437.166 1.45682 438.235 2.21301C439.304 2.96919 440.438 4.77032 441.638 7.61639L453.204 16.3833L447.104 17.8272L449.768 36.9822C449.47 40.3967 449.046 42.7402 448.496 44.0127C447.945 45.2853 446.891 46.3606 445.333 47.2386L435.609 49.5244L436.399 61.3624L437.476 62.8293C442.741 63.4037 446.345 63.9558 448.289 64.4856C452.955 65.7579 457.364 68.0028 461.238 72.588C463.949 75.7979 466.968 80.3572 470.795 84.9878C474.164 89.0648 480.274 96.2064 489.124 106.412L496.974 111.26L501.551 117.494L510.839 122.302L512.519 109.215C502.748 98.7788 497.587 91.9562 497.037 88.7475C496.807 87.4063 497.401 86.0033 498.057 85.0632C498.971 83.7542 500.372 82.8059 502.996 82.5652C504.746 82.4047 506.6 83.1878 508.56 84.9146L542.244 142.931C541.238 150.847 540.195 156.806 539.115 160.808C538.035 164.81 536.125 168.922 533.385 173.144C529.002 176.695 525.2 178.998 521.976 180.054C518.753 181.11 513.258 181.57 505.492 181.434C502.65 180.68 500.718 179.841 499.693 178.919C495.894 175.497 493.729 170.703 491.683 168.318C488.809 164.968 486.877 161.721 485.885 158.577L469.647 126.472L424.284 132.802L425.95 167.817C425.246 177.532 423.941 184.775 422.036 189.545C420.131 194.315 417.247 197.562 413.384 199.285Z" fill="white"/>
<path fill-rule="evenodd" clip-rule="evenodd" d="M417.757 206.141C416.915 206.134 416.301 206.164 415.914 206.232C414.428 206.493 413.201 206.625 412.295 205.613C411.036 204.205 410.983 202.286 412.135 199.855L416.109 197.728L418.116 197.384L432.87 195.475L437.383 194.082L453.537 190.693C455.414 191.198 456.28 192.634 456.134 195C455.989 197.366 454.758 199.023 452.441 199.971L447.662 201.015L440.701 355.672L419.828 359.25C419.387 335.216 419.244 317.109 419.401 304.928C419.557 292.747 419.01 259.818 417.757 206.141ZM468.735 197.404C468.622 196.935 467.339 197.08 464.885 197.839C462.56 197.135 461.404 195.612 461.415 193.268C461.427 190.925 462.224 189.549 463.807 189.14L466.886 189.025L476.118 187.443L485.454 186.463L495.517 183.705C498.774 183.422 500.632 184.619 501.091 187.295C501.352 188.816 500.974 189.693 500.403 190.511C500.113 190.926 499.513 191.442 498.602 192.06L495.428 192.828L529.244 340.703L507.568 344.418C500.047 318.073 494.948 299.574 492.272 288.922C489.084 276.236 472.564 213.292 468.735 197.404Z" fill="white"/>
<path fill-rule="evenodd" clip-rule="evenodd" d="M417.722 205.939L447.626 200.814L440.665 355.47L419.792 359.048C419.351 335.015 419.209 316.907 419.366 304.726C419.522 292.545 418.974 259.616 417.722 205.939ZM468.7 197.202L495.393 192.627L529.208 340.502L507.533 344.217C500.011 317.871 494.913 299.373 492.236 288.721C489.049 276.034 472.529 213.091 468.7 197.202Z" stroke="black" stroke-width="1.60524"/>
<path fill-rule="evenodd" clip-rule="evenodd" d="M413.591 69.7282L390.981 73.7129C379.7 75.7008 371.937 86.1535 373.294 97.5268L374.189 105.023C373.887 101.141 373.897 98.382 374.216 96.7455C374.724 94.1476 375.552 92.5613 376.498 90.7702C377.927 88.062 379.664 85.6859 381.291 84.9849C385.01 83.3822 389.875 85.6507 395.886 91.7905C396.425 90.0918 396.888 88.7716 397.273 87.8299C398.043 85.9496 398.857 83.922 400.558 81.6826C403.929 77.2441 408.273 73.2593 413.591 69.7282Z" fill="black"/>
<path fill-rule="evenodd" clip-rule="evenodd" d="M416.444 197.265C418.637 197.665 422.575 197.335 428.256 196.275C431.35 195.698 436.775 193.815 441.497 192.765C444.13 192.179 448.144 191.491 453.539 190.701L456.054 177.653L460.47 176.897L463.975 188.912C468.722 188.401 472.102 188.028 474.113 187.795C478.44 187.293 482.034 186.851 484.819 186.374C489.547 185.563 492.968 184.632 495.084 183.58L475.033 128.072L427.777 138.033C428.65 146.859 428.017 156.826 425.878 167.934C425.422 170.301 425.77 173.135 425.415 176.08C424.873 180.566 424.179 184.934 423.129 188.054C422.132 191.012 419.904 194.083 416.444 197.265Z" fill="black"/>
<path d="M494.79 183.768L485.6 157.75C485.544 157.591 485.627 157.416 485.786 157.36C485.945 157.304 486.12 157.387 486.176 157.547L495.321 183.436L495.97 183.325C498.519 182.888 500.941 184.602 501.378 187.155C501.816 189.707 500.104 192.13 497.554 192.567L465.885 197.995C463.625 198.382 461.479 196.862 461.091 194.6C461.059 194.41 461.039 194.219 461.033 194.027L460.978 192.26C460.928 190.67 461.922 189.25 463.401 188.739L460.249 177.244L456.315 177.919L453.91 190.389C455.19 190.463 456.259 191.463 456.382 192.78C456.392 192.893 456.396 193.007 456.391 193.121L456.325 194.94C456.225 197.692 454.211 199.996 451.5 200.46L414.784 206.753C413.093 207.043 411.486 205.905 411.195 204.212C411.141 203.891 411.136 203.564 411.182 203.242C411.308 202.368 411.459 201.24 411.634 199.86C411.656 199.693 411.808 199.574 411.976 199.596C412.143 199.617 412.262 199.77 412.24 199.938C412.064 201.321 411.913 202.451 411.787 203.329C411.75 203.588 411.753 203.851 411.798 204.108C412.031 205.469 413.322 206.383 414.681 206.151L451.397 199.858C453.823 199.442 455.625 197.38 455.715 194.918L455.781 193.099C455.784 193.011 455.782 192.924 455.773 192.836C455.67 191.724 454.687 190.905 453.576 191.004C451.077 191.382 449.311 191.659 448.279 191.835C445.484 192.311 437.683 194.119 436.072 194.622C432.416 195.765 430.446 196.177 427.191 196.622C427.085 196.637 427.085 196.637 426.979 196.651C425.816 196.81 425.26 196.892 424.522 197.018C421.845 197.477 419.834 197.752 418.483 197.845C416.899 197.953 416.155 197.852 416.139 197.274L416.749 197.256C416.748 197.212 416.73 197.181 416.72 197.168C416.768 197.193 416.861 197.218 416.996 197.237C417.307 197.279 417.792 197.279 418.442 197.235C419.767 197.144 421.761 196.871 424.419 196.415C425.166 196.287 425.727 196.205 426.896 196.045C427.002 196.031 427.002 196.031 427.108 196.017C430.332 195.575 432.269 195.17 435.89 194.038C437.529 193.526 445.356 191.712 448.176 191.232C449.185 191.06 450.886 190.793 453.28 190.43L455.755 177.595C455.779 177.47 455.878 177.373 456.003 177.352L460.418 176.595L463.027 176.148C463.194 176.119 463.352 176.231 463.38 176.397C463.409 176.564 463.297 176.722 463.131 176.75L460.854 177.141L464.015 188.668C465.382 188.659 468.057 188.316 472.021 187.636C473.511 187.381 480.862 186.54 482.99 186.378C485.415 186.193 489.352 185.323 494.79 183.768ZM495.181 184.08L495.237 184.276C489.618 185.892 485.555 186.796 483.037 186.988C480.926 187.148 473.593 187.987 472.124 188.239C467.886 188.965 465.11 189.311 463.771 189.277L463.772 189.263C462.45 189.634 461.545 190.861 461.589 192.241L461.644 194.008C461.649 194.172 461.665 194.335 461.693 194.496C462.024 196.426 463.854 197.722 465.782 197.392L497.451 191.964C499.668 191.584 501.156 189.477 500.776 187.258C500.396 185.039 498.29 183.547 496.073 183.927L495.181 184.08Z" fill="black"/>
<path d="M436.027 49.4428L436.975 61.9918C447.044 63.5982 453.608 65.3668 456.697 67.3176C460.702 69.8472 472.692 86.3805 479.281 97.4501C481.271 100.793 483.794 102.695 489.691 106.003L490.187 106.281C496.109 109.604 498.625 111.515 500.546 114.908C503.512 120.146 507.762 120.799 513.474 116.859C513.613 116.763 513.803 116.798 513.899 116.937C513.995 117.076 513.96 117.267 513.821 117.363C507.83 121.495 503.168 120.78 500.014 115.209C498.167 111.946 495.715 110.084 489.888 106.815L489.392 106.536C483.404 103.177 480.82 101.229 478.756 97.763C472.225 86.7903 460.26 70.2905 456.371 67.8348C453.351 65.9274 446.764 64.1616 436.641 62.5579C436.501 62.5357 436.395 62.4202 436.384 62.2788L435.422 49.5465L431.927 50.1454C431.761 50.1739 431.603 50.0621 431.575 49.8957C431.546 49.7292 431.658 49.5712 431.824 49.5427L435.646 48.8876C435.648 48.8872 435.65 48.8868 435.653 48.8864L442.338 47.7406C446.481 47.0306 448.595 44.9325 449.266 41.3098C449.804 38.3988 449.507 35.1916 448.348 28.4256L447.558 23.8173C447.547 23.7536 447.538 23.7018 447.518 23.5846C447.137 21.3437 446.813 20.0707 445.995 18.1848C445.983 18.1749 445.966 18.1629 445.947 18.149C445.892 18.11 445.816 18.0598 445.719 17.9989L417.017 22.9184C416.85 22.9469 416.692 22.835 416.664 22.6686C416.635 22.5021 416.747 22.3441 416.913 22.3156L445.731 17.3764C445.804 17.3638 445.88 17.3786 445.944 17.418C446.353 17.672 446.477 17.7597 446.533 17.8887C447.39 19.8577 447.728 21.1763 448.121 23.4822C448.141 23.5993 448.149 23.6508 448.16 23.7141L448.95 28.3224C450.123 35.1647 450.423 38.412 449.866 41.4215C449.149 45.2954 446.837 47.59 442.442 48.3433L436.027 49.4428ZM542.49 142.483L543.097 142.554C540.993 160.564 537.35 171.476 532.107 175.32C523.853 181.371 512.876 183.609 503.137 180.738C501.85 180.358 500.778 179.704 499.618 178.615C498.791 177.838 497.941 176.879 496.56 175.198C496.199 174.758 494.818 173.063 494.615 172.814C493.749 171.755 493.003 170.854 492.212 169.919C491.128 168.637 489.398 165.693 487.004 161.068L487.547 160.787C489.919 165.37 491.634 168.289 492.678 169.524C493.471 170.462 494.219 171.365 495.088 172.427C495.291 172.677 496.671 174.371 497.032 174.81C498.397 176.471 499.233 177.415 500.036 178.169C501.13 179.196 502.12 179.801 503.309 180.151C512.86 182.967 523.641 180.769 531.746 174.827C536.803 171.119 540.405 160.328 542.49 142.483Z" fill="black"/>
<path fill-rule="evenodd" clip-rule="evenodd" d="M443.959 63.6955L447.813 64.4828C451.687 71.8161 454.763 78.114 457.043 83.3765C459.322 88.6391 461.592 96.6608 463.853 107.442L458.594 106.895C457.504 98.1199 455.448 90.544 452.426 84.1677C451.111 81.3904 448.288 74.5664 443.959 63.6955ZM413.39 69.7622L416.561 67.771C418.381 73.5718 419.586 78.1912 420.176 81.6291C420.765 85.0671 421.362 88.5498 421.966 92.0771L418.022 100.406C418.412 97.8569 417.883 92.3632 416.437 83.9245C414.991 75.4858 413.975 70.765 413.39 69.7622Z" fill="black"/>
<path d="M443.876 63.7758L443.667 63.2499L448.216 64.1793L448.283 64.3071C452.161 71.6469 455.24 77.9516 457.523 83.2221C459.812 88.5073 462.087 96.5468 464.352 107.346L464.438 107.756L458.522 107.142L458.492 106.9C457.405 98.1555 455.357 90.6108 452.351 84.2658C451.031 81.4803 448.208 74.6534 443.876 63.7758ZM452.903 84.0039C455.911 90.3529 457.965 97.8796 459.068 106.583L463.668 107.062C461.44 96.5056 459.203 88.6383 456.963 83.4652C454.7 78.2413 451.65 71.9928 447.811 64.7207L444.653 64.0755C448.861 74.6341 451.612 81.2798 452.903 84.0039ZM413.327 69.8835L413.177 69.6277L416.934 67.2687L417.053 67.6466C418.877 73.4593 420.085 78.091 420.677 81.5447L422.484 92.088L417.605 102.39L417.921 100.326C418.304 97.8222 417.777 92.3482 416.337 83.9433C414.902 75.5711 413.883 70.837 413.327 69.8835ZM416.939 83.8401C418.133 90.8074 418.704 95.7737 418.648 98.7604L421.849 92.0006L420.075 81.6479C419.501 78.3005 418.339 73.8195 416.588 68.2079L413.986 69.8422C414.609 71.2885 415.58 75.9161 416.939 83.8401Z" fill="black"/>
<path d="M438.404 65.5644L438.952 65.2943L482.066 152.867C485.023 160.753 491.342 163.848 501.123 162.172C510.909 160.495 517.833 152.577 521.895 138.359L522.483 138.528C518.362 152.95 511.276 161.052 501.227 162.775C491.172 164.498 484.561 161.26 481.506 153.109L438.404 65.5644ZM466.035 137.632L466.646 137.622C466.991 158.245 462.899 169.344 454.263 170.824C447.276 172.021 438.897 151.056 429.853 109.769C428.148 101.984 425.651 88.6198 422.361 69.6744L422.963 69.5699C426.251 88.5071 428.747 101.864 430.45 109.638C439.376 150.388 447.742 171.321 454.159 170.221C462.382 168.812 466.376 157.98 466.035 137.632Z" fill="black"/>
<path fill-rule="evenodd" clip-rule="evenodd" d="M494.333 122.608L514.984 116.794L518.256 128.415L497.605 134.23L494.333 122.608ZM471.191 104.736L465.992 86.2705C466.437 84.1013 468.321 82.5487 471.646 81.6126C474.97 80.6765 477.388 81.0178 478.899 82.6363L484.098 101.101L471.191 104.736ZM525.4 89.4721L512.493 93.1063L507.294 74.6412C507.738 72.472 509.623 70.9194 512.947 69.9833C516.272 69.0472 518.69 69.3885 520.201 71.007L525.4 89.4721Z" fill="black"/>
<path fill-rule="evenodd" clip-rule="evenodd" d="M473.119 125.899L465.084 97.362C465.824 93.9946 468.854 91.5621 474.173 90.0644C479.492 88.5666 483.346 89.061 485.735 91.5473L493.77 120.084L473.119 125.899ZM535.071 108.455L514.421 114.27L506.385 85.7327C507.126 82.3653 510.155 79.9328 515.475 78.435C520.794 76.9373 524.648 77.4317 527.036 79.918L535.071 108.455Z" fill="white"/>
<path fill-rule="evenodd" clip-rule="evenodd" d="M473.001 126.002L464.966 97.4655C465.706 94.0981 468.736 91.6656 474.055 90.1679C479.374 88.6702 483.228 89.1645 485.616 91.6508L493.652 120.188L473.001 126.002ZM534.953 108.559L514.302 114.373L506.267 85.8362C507.008 82.4688 510.037 80.0363 515.356 78.5386C520.676 77.0408 524.529 77.5352 526.918 80.0215L534.953 108.559Z" fill="white" stroke="black" stroke-width="1.60524" stroke-linecap="round" stroke-linejoin="round"/>
<path fill-rule="evenodd" clip-rule="evenodd" d="M477.991 158.217L468.696 125.204C469.893 121.212 474.149 118.187 481.463 116.127C488.777 114.068 493.986 114.429 497.091 117.209L506.386 150.222L477.991 158.217ZM547.688 138.593L519.293 146.588L509.997 113.575C511.195 109.583 515.451 106.557 522.765 104.498C530.078 102.439 535.288 102.799 538.392 105.58L547.688 138.593Z" fill="white"/>
<path d="M477.983 158.537C477.821 158.582 477.652 158.488 477.606 158.325L468.311 125.312C468.295 125.256 468.296 125.197 468.312 125.141C469.547 121.027 473.885 117.943 481.289 115.858C488.693 113.773 494.004 114.141 497.203 117.006C497.247 117.045 497.278 117.095 497.294 117.151L506.589 150.164C506.635 150.327 506.54 150.496 506.378 150.542L477.983 158.537ZM505.918 150.036L496.73 117.403C493.712 114.761 488.626 114.428 481.455 116.447C474.284 118.466 470.119 121.404 468.923 125.233L478.112 157.865L505.918 150.036ZM547.891 138.535C547.937 138.698 547.842 138.867 547.68 138.912L519.285 146.907C519.122 146.953 518.954 146.858 518.908 146.696L509.612 113.682C509.597 113.627 509.597 113.567 509.614 113.512C510.848 109.398 515.187 106.314 522.591 104.229C529.995 102.144 535.306 102.512 538.505 105.377C538.548 105.416 538.579 105.466 538.595 105.522L547.891 138.535ZM547.22 138.406L538.032 105.774C535.013 103.132 529.928 102.798 522.757 104.817C515.585 106.837 511.421 109.775 510.225 113.603L519.413 146.236L547.22 138.406Z" fill="black"/>
<path fill-rule="evenodd" clip-rule="evenodd" d="M493.46 159.089C485.619 161.297 478.653 160.919 477.9 158.245C477.147 155.57 482.893 151.613 490.734 149.405C498.575 147.197 505.541 147.575 506.294 150.249C507.047 152.924 501.301 156.881 493.46 159.089ZM534.762 147.46C526.921 149.668 519.954 149.29 519.201 146.615C518.448 143.941 524.194 139.983 532.035 137.775C539.876 135.568 546.843 135.946 547.596 138.62C548.349 141.294 542.603 145.252 534.762 147.46Z" fill="black"/>
<path d="M466.244 132.926C468.723 132.228 470.167 129.652 469.468 127.171C468.77 124.691 466.194 123.246 463.715 123.944C461.236 124.642 459.793 127.219 460.491 129.699C461.189 132.179 463.765 133.624 466.244 132.926ZM466.079 132.337C463.924 132.944 461.686 131.689 461.079 129.533C460.472 127.378 461.727 125.139 463.881 124.533C466.035 123.926 468.274 125.182 468.88 127.337C469.487 129.492 468.233 131.731 466.079 132.337Z" fill="black"/>
<path d="M370.73 154.415L374.533 152.244C374.68 152.16 374.866 152.211 374.95 152.358C375.033 152.505 374.983 152.691 374.836 152.775L371.455 154.706L375.482 156.242C375.64 156.302 375.719 156.479 375.659 156.637C375.599 156.795 375.422 156.874 375.265 156.814L370.768 155.098L370.696 155.139C370.663 155.158 370.627 155.17 370.592 155.176C364.905 166.266 364.861 176.252 370.447 185.176C375.892 193.874 378.191 196.918 381.595 199.302C385.519 202.05 390.435 202.985 398.575 202.501C413.925 201.588 421.867 195.082 423.876 183.272C425.132 175.892 425.697 170.779 425.573 167.947C425.566 167.778 425.696 167.635 425.865 167.628C426.033 167.621 426.176 167.752 426.183 167.92C426.31 170.808 425.741 175.954 424.478 183.375C422.419 195.478 414.235 202.182 398.612 203.112C390.347 203.603 385.301 202.643 381.245 199.803C377.747 197.354 375.421 194.273 369.929 185.5C364.192 176.334 364.268 166.058 370.143 154.712C369.213 144.374 371.275 134.195 376.326 124.181C381.362 114.198 386.975 106.38 393.168 100.728C395.732 87.4496 401.128 77.9267 409.361 72.1771C413.463 69.3125 416.573 67.3428 418.696 66.2654C420.117 65.5439 421.156 65.1899 421.786 65.2759L419.57 46.1443C419.55 45.9766 419.67 45.8249 419.838 45.8046C420.005 45.7861 420.157 45.9063 420.177 46.0741L422.483 65.9763C422.528 66.3704 421.945 66.4541 421.878 66.063C421.815 65.6941 420.884 65.8407 418.972 66.8109C416.88 67.8724 413.791 69.8291 409.711 72.6787C401.6 78.343 396.277 87.7586 393.748 100.943C393.736 101.008 393.703 101.068 393.654 101.112C387.491 106.715 381.896 114.496 376.871 124.457C371.91 134.292 369.864 144.277 370.73 154.415Z" fill="black"/>
<path fill-rule="evenodd" clip-rule="evenodd" d="M421.83 63.5598L420.234 71.1833C420.142 71.6236 420.424 72.0552 420.865 72.1474C421.038 72.1837 421.218 72.1625 421.379 72.087L432.849 66.6816L441.306 68.1545C441.749 68.2317 442.171 67.9351 442.248 67.4919C442.294 67.2268 442.207 66.9561 442.014 66.7684L436.55 61.4505C435.852 62.3055 434.156 62.9638 431.462 63.4256C428.768 63.8874 425.557 63.9321 421.83 63.5598Z" fill="white"/>
<path d="M432.698 66.9351L421.674 72.13C421.454 72.2339 421.205 72.2629 420.967 72.2128C420.361 72.0856 419.974 71.4912 420.1 70.8853L421.696 63.2635C421.728 63.1106 421.87 63.0065 422.025 63.022C425.727 63.3918 428.911 63.3474 431.575 62.8907C434.202 62.4407 435.841 61.8041 436.478 61.0235C436.592 60.8847 436.799 60.8729 436.928 60.9979L442.389 66.3139C442.655 66.5721 442.776 66.9448 442.712 67.3097C442.607 67.9198 442.027 68.3283 441.417 68.2221L433.297 66.8077C433.33 66.9197 433.369 67.0513 433.413 67.2024C433.601 67.8431 433.887 68.8372 434.273 70.1849C435.045 72.8795 436.214 76.9882 437.78 82.5111C437.826 82.6736 437.732 82.8426 437.57 82.8887C437.408 82.9347 437.239 82.8404 437.193 82.6779C435.626 77.1555 434.458 73.0473 433.686 70.3532C433.3 69.0066 433.014 68.0134 432.827 67.374C432.777 67.202 432.733 67.0557 432.698 66.9351ZM432.088 63.4205C432.198 63.6676 432.31 63.9444 432.425 64.2482C432.611 64.7434 432.772 65.2227 432.975 65.8569L433.06 66.1256C433.063 66.1329 433.065 66.1401 433.067 66.147L441.522 67.6196C441.799 67.6679 442.062 67.4822 442.11 67.2049C442.139 67.039 442.084 66.8696 441.964 66.7522L436.725 61.6532C435.92 62.4151 434.377 62.9951 432.088 63.4205ZM432.493 66.3557C432.488 66.342 432.484 66.3275 432.479 66.3121L432.393 66.0428C432.193 65.4177 432.035 64.9467 431.853 64.4635C431.72 64.1101 431.591 63.7966 431.466 63.529C428.854 63.9515 425.778 63.9938 422.238 63.6572L420.698 71.0109C420.641 71.2863 420.817 71.5565 421.092 71.6143C421.201 71.6371 421.313 71.6239 421.414 71.5767L432.493 66.3557Z" fill="black"/>
<path fill-rule="evenodd" clip-rule="evenodd" d="M402.543 137.868C414.643 108.437 421.695 92.1299 423.701 88.9468C425.267 86.4625 428.549 85.7176 431.034 87.283C432.893 88.4545 433.84 90.6492 433.417 92.8056L430.127 109.562" fill="white"/>
<path d="M402.779 138.138C414.865 108.741 421.922 92.4236 423.914 89.2638C425.39 86.921 428.484 86.2205 430.825 87.6991C432.577 88.8055 433.468 90.8763 433.069 92.9102L429.781 109.657L430.381 109.775L433.668 93.0283C434.116 90.7464 433.116 88.4232 431.151 87.1819C428.525 85.523 425.053 86.309 423.397 88.9374C421.376 92.1438 414.328 108.44 402.214 137.905L402.779 138.138Z" fill="black"/>
<path fill-rule="evenodd" clip-rule="evenodd" d="M423.002 33.7965C422.509 33.7385 422.001 33.7493 421.487 33.8373C418.605 34.3313 416.67 37.0705 417.164 39.9556C417.585 42.407 419.624 44.175 421.995 44.3481L422.592 49.2494C422.751 50.5564 421.846 51.7546 420.546 51.9588L414.337 52.9335C413.939 52.996 413.534 53.0045 413.134 52.9587C410.676 52.6779 408.911 50.4575 409.191 47.9994L411.994 23.4686L412.8 23.3305L412.802 23.3254L413.747 23.1681L417.282 22.5622L417.286 22.5791L425.689 21.1804C425.484 25.8053 425.124 28.9341 424.609 30.5667C424.242 31.7324 423.706 32.809 423.002 33.7965ZM449.493 17.0415C450.857 20.2547 449.921 22.1387 446.685 22.6934C443.449 23.248 438.307 22.4057 431.261 20.1663L449.493 17.0415Z" fill="black"/>
<path fill-rule="evenodd" clip-rule="evenodd" d="M395.191 146.348L418.281 117.395C421.642 113.18 426.459 110.375 431.784 109.533L462.883 104.614C467.131 103.942 471.169 106.691 472.101 110.89C472.982 114.864 470.475 118.8 466.501 119.682C466.411 119.702 466.32 119.72 466.229 119.737L440.007 124.527C438.403 124.82 437.34 126.359 437.633 127.963C437.633 127.964 437.633 127.965 437.633 127.966C437.932 129.59 439.46 130.688 441.094 130.454L468.339 126.549C472.051 126.017 475.516 128.526 476.169 132.219C476.813 135.859 474.384 139.331 470.745 139.974C470.734 139.976 470.722 139.978 470.71 139.98L444.861 144.411C443.271 144.683 442.203 146.193 442.476 147.783C442.478 147.794 442.48 147.806 442.482 147.817C442.803 149.562 444.183 150.918 445.933 151.208L463.469 154.118C466.504 154.621 468.556 157.489 468.053 160.524C468.03 160.659 468.003 160.793 467.971 160.925C467.171 164.221 463.983 166.357 460.631 165.842L432.184 161.475L419.292 173.686C412.68 179.948 402.244 179.665 395.981 173.053C395.392 172.431 394.853 171.764 394.367 171.059C392.629 168.531 391.56 164.667 391.159 159.466C390.795 154.741 392.236 150.053 395.191 146.348Z" fill="white"/>
<path d="M398.999 175.071L403.515 170.934C401.488 169.568 399.731 167.764 398.135 165.589C395.823 162.437 395.259 155.748 396.404 145.485L395.59 146.506C392.678 150.157 391.259 154.779 391.62 159.437C392.018 164.579 393.073 168.388 394.773 170.86C395.247 171.549 395.774 172.2 396.348 172.808C397.165 173.672 398.055 174.427 398.999 175.071ZM399.527 175.417C405.628 179.239 413.759 178.625 419.229 173.446L420.473 172.267C415.065 174.233 410.384 174.187 406.346 172.473C405.541 172.132 404.776 171.732 404.045 171.278L399.527 175.417ZM396.538 144.337C396.538 144.336 396.538 144.334 396.538 144.332C396.553 144.211 396.636 144.116 396.743 144.079L418.199 117.176C421.607 112.903 426.488 110.06 431.884 109.207L462.998 104.285C467.401 103.589 471.587 106.442 472.553 110.798C473.471 114.937 470.865 119.036 466.731 119.954C466.636 119.974 466.542 119.994 466.447 120.011L440.213 124.803C438.777 125.066 437.825 126.444 438.088 127.882L438.088 127.885C438.357 129.348 439.732 130.337 441.202 130.126L468.457 126.22C472.329 125.665 475.943 128.285 476.625 132.141C477.298 135.946 474.762 139.576 470.96 140.248L470.924 140.255L445.064 144.687C443.642 144.931 442.687 146.282 442.931 147.706C442.934 147.721 442.934 147.721 442.937 147.737C443.234 149.354 444.513 150.612 446.134 150.881L463.678 153.791C466.875 154.322 469.038 157.345 468.509 160.545C468.485 160.688 468.456 160.831 468.422 160.972C467.585 164.422 464.251 166.658 460.745 166.12L432.44 161.774L419.649 173.89C412.912 180.271 402.281 179.974 395.905 173.228C395.309 172.597 394.762 171.922 394.27 171.206C392.499 168.631 391.416 164.724 391.011 159.484C390.638 154.671 392.104 149.897 395.112 146.125L396.538 144.337ZM397.123 144.583C395.85 155.249 396.366 162.144 398.628 165.227C400.863 168.274 403.413 170.565 406.584 171.91C410.712 173.662 415.548 173.606 421.229 171.323C421.308 171.291 421.393 171.295 421.466 171.327L432.237 161.124L460.837 165.515C464.03 166.005 467.066 163.97 467.828 160.828C467.859 160.701 467.885 160.573 467.906 160.445C468.38 157.578 466.442 154.87 463.579 154.395L446.034 151.484C444.159 151.173 442.68 149.718 442.336 147.847C442.333 147.828 442.333 147.828 442.329 147.809C442.028 146.052 443.207 144.385 444.961 144.084L470.821 139.652L470.854 139.646C474.323 139.033 476.637 135.72 476.023 132.247C475.399 128.716 472.089 126.317 468.544 126.825L441.289 130.732C439.494 130.989 437.816 129.781 437.488 127.996L437.487 127.992C437.164 126.222 438.335 124.525 440.103 124.202L466.337 119.409C466.425 119.393 466.512 119.376 466.598 119.356C470.403 118.512 472.802 114.74 471.957 110.931C471.06 106.89 467.178 104.243 463.094 104.889L431.979 109.811C426.734 110.64 421.989 113.404 418.676 117.558L397.123 144.583Z" fill="black"/>
<path fill-rule="evenodd" clip-rule="evenodd" d="M527.205 100.812L527.349 101.629C528.082 105.792 532.043 108.58 536.21 107.866L541.921 106.887C537.264 108.059 534.451 110.126 533.481 113.09C531.954 117.759 534.5 122.781 539.168 124.308C540.544 124.758 542.009 124.865 543.436 124.621L545.921 124.195L545.299 124.645C540.925 127.807 539.943 133.916 543.105 138.289C543.295 138.553 543.499 138.807 543.715 139.051C546.542 141.838 551.092 141.806 553.879 138.979C554.066 138.79 554.241 138.591 554.406 138.383L558.152 133.632C560.221 131.008 560.806 127.51 559.703 124.355C559.623 124.126 559.548 123.918 559.477 123.733C559.045 122.601 557.944 120.997 556.173 118.922C556.788 116.886 556.666 114.563 555.805 111.953C554.945 109.343 553.406 107.194 551.188 105.505C551.699 103.01 551.385 100.375 550.246 97.6006C549.795 96.5018 549.275 95.5887 548.685 94.8613C547.603 93.5272 545.942 92.8007 544.228 92.9125L532.823 93.6564C529.457 93.876 526.906 96.7832 527.125 100.15C527.14 100.372 527.166 100.593 527.205 100.812Z" fill="white"/>
<path d="M545.92 123.678L556.014 118.486C556.568 116.544 556.437 114.326 555.612 111.825C554.773 109.281 553.277 107.187 551.118 105.539L551.13 105.618L541.85 107.022C537.431 108.18 534.784 110.164 533.868 112.962C532.395 117.467 534.849 122.317 539.35 123.794C540.678 124.23 542.092 124.334 543.469 124.098L545.92 123.678ZM546.178 124.233L545.57 124.672C541.339 127.731 540.388 133.644 543.445 137.88C543.631 138.138 543.83 138.386 544.027 138.609C546.736 141.281 551.095 141.249 553.763 138.537C553.939 138.358 554.106 138.169 554.262 137.971L558.004 133.225C560.012 130.678 560.579 127.281 559.507 124.218C559.43 123.997 559.357 123.797 559.289 123.618C558.885 122.56 557.853 121.042 556.194 119.081L546.178 124.233ZM541.972 106.385L551.026 105.016C551.467 102.643 551.146 100.138 550.061 97.493C549.621 96.4216 549.116 95.535 548.547 94.8328C547.527 93.574 545.961 92.8884 544.346 92.9937L532.94 93.7377C529.741 93.9463 527.318 96.711 527.528 99.9128C527.542 100.124 527.567 100.334 527.604 100.542L527.747 101.352C528.451 105.35 532.25 108.027 536.247 107.342L541.967 106.362L541.972 106.385ZM533.288 112.771C534.012 110.559 535.713 108.836 538.375 107.598L536.35 107.945C532.022 108.687 527.908 105.787 527.145 101.458L527.002 100.648C526.962 100.418 526.934 100.186 526.918 99.9525C526.687 96.4137 529.365 93.3581 532.9 93.1275L544.306 92.3835C546.119 92.2652 547.877 93.0348 549.021 94.4477C549.63 95.1993 550.165 96.1371 550.626 97.2607C551.759 100.02 552.092 102.653 551.621 105.155C553.807 106.863 555.332 109.024 556.192 111.633C557.049 114.232 557.19 116.564 556.61 118.625C558.339 120.665 559.421 122.251 559.859 123.4C559.929 123.584 560.004 123.79 560.084 124.016C561.225 127.276 560.621 130.893 558.484 133.604L554.741 138.35C554.571 138.566 554.39 138.771 554.198 138.967C551.293 141.918 546.548 141.953 543.584 139.03C543.359 138.777 543.148 138.512 542.949 138.238C539.797 133.869 540.649 127.824 544.801 124.49L543.572 124.701C542.097 124.953 540.582 124.842 539.16 124.375C534.338 122.793 531.709 117.597 533.288 112.771ZM534.154 95.1814C534.319 95.1506 534.479 95.2602 534.51 95.4262C534.541 95.5922 534.431 95.7518 534.265 95.7826C532.052 96.1944 531.294 97.6908 531.961 100.438C532.632 103.198 533.835 104.282 535.623 103.845C535.787 103.805 535.953 103.906 535.993 104.07C536.033 104.234 535.932 104.399 535.768 104.439C533.593 104.971 532.109 103.633 531.368 100.582C530.624 97.5191 531.563 95.6632 534.154 95.1814ZM539.977 111.875C540.14 111.832 540.307 111.931 540.349 112.094C540.391 112.257 540.293 112.424 540.13 112.467C537.95 113.032 537.299 114.577 538.157 117.272C539.018 119.978 540.293 120.975 542.047 120.415C542.208 120.363 542.38 120.452 542.431 120.613C542.483 120.774 542.394 120.946 542.233 120.997C540.1 121.679 538.526 120.449 537.574 117.457C536.619 114.453 537.426 112.536 539.977 111.875ZM547.209 128.727C547.366 128.665 547.543 128.742 547.605 128.899C547.667 129.056 547.59 129.234 547.434 129.296C545.339 130.122 544.881 131.736 546.06 134.305C547.245 136.887 548.633 137.721 550.305 136.951C550.458 136.88 550.64 136.948 550.71 137.101C550.781 137.254 550.714 137.436 550.561 137.506C548.527 138.443 546.814 137.414 545.505 134.56C544.19 131.695 544.758 129.694 547.209 128.727Z" fill="black"/>
<path fill-rule="evenodd" clip-rule="evenodd" d="M295.666 227.353L322.856 327.461L327.874 326.601L305.483 224.661C304.895 221.986 302.25 220.294 299.576 220.882C299.494 220.9 299.412 220.92 299.331 220.942C296.551 221.702 294.911 224.571 295.666 227.353Z" fill="white"/>
<path d="M295.34 227.242L322.602 327.618L328.209 326.657L305.749 224.405C305.125 221.565 302.318 219.769 299.478 220.392C299.391 220.411 299.304 220.433 299.219 220.456C296.275 221.261 294.54 224.297 295.34 227.242ZM323.046 326.922L295.929 227.082C295.218 224.462 296.762 221.761 299.38 221.045C299.456 221.025 299.532 221.006 299.609 220.989C302.119 220.438 304.601 222.026 305.152 224.536L327.475 326.163L323.046 326.922Z" fill="black"/>
<path d="M320.902 330.82C320.866 330.985 320.703 331.089 320.538 331.052C320.373 331.016 320.269 330.853 320.306 330.688C322.613 320.296 323.763 313.114 323.754 309.159C323.754 308.99 323.89 308.853 324.059 308.853C324.228 308.852 324.365 308.989 324.365 309.157C324.374 313.171 323.219 320.386 320.902 330.82ZM321.235 295.785C321.315 295.934 321.259 296.119 321.111 296.199C320.962 296.279 320.777 296.223 320.697 296.075C318.026 291.106 313.684 287.221 307.66 284.417C307.507 284.346 307.441 284.164 307.512 284.011C307.584 283.858 307.765 283.792 307.918 283.863C314.056 286.721 318.499 290.695 321.235 295.785ZM320.575 317.872C320.532 318.036 320.365 318.133 320.202 318.091C320.039 318.048 319.941 317.881 319.984 317.718C320.318 316.441 320.512 315.414 320.567 314.641C321.319 304.025 318.494 296.845 313.163 292.312C313.035 292.202 313.019 292.01 313.129 291.881C313.238 291.752 313.431 291.737 313.559 291.846C319.042 296.509 321.942 303.879 321.176 314.684C321.118 315.501 320.918 316.562 320.575 317.872ZM296.843 222.029C296.794 221.868 296.885 221.697 297.046 221.648C297.207 221.599 297.378 221.69 297.427 221.851C303.541 241.854 315.185 250.991 332.416 249.345C332.584 249.329 332.733 249.452 332.749 249.62C332.765 249.788 332.642 249.937 332.474 249.953C314.933 251.629 303.037 242.294 296.843 222.029ZM301.198 220.964C301.154 220.801 301.25 220.634 301.413 220.589C301.576 220.545 301.743 220.642 301.788 220.804C306.584 238.519 316.334 246.512 331.143 245.081C331.311 245.065 331.46 245.188 331.477 245.356C331.493 245.524 331.37 245.673 331.202 245.689C316.073 247.151 306.067 238.948 301.198 220.964Z" fill="black"/>
<path fill-rule="evenodd" clip-rule="evenodd" d="M434.073 33.7483C433.297 33.8813 432.544 33.2695 432.392 32.3817C432.24 31.494 432.746 30.6665 433.522 30.5336C434.297 30.4006 435.05 31.0124 435.202 31.9001C435.354 32.7879 434.848 33.6153 434.073 33.7483ZM446.516 31.6156C445.74 31.7486 444.988 31.1367 444.836 30.249C444.683 29.3613 445.189 28.5338 445.965 28.4008C446.741 28.2678 447.493 28.8797 447.645 29.7674C447.797 30.6551 447.292 31.4826 446.516 31.6156ZM430.774 31.2049C430.688 31.3504 430.501 31.3987 430.356 31.3129C430.211 31.227 430.162 31.0396 430.248 30.8941C430.286 30.8294 430.356 30.7204 430.456 30.5803C430.621 30.3487 430.811 30.113 431.024 29.8864C431.646 29.226 432.337 28.7717 433.091 28.6426C434.181 28.4558 434.822 28.6143 435.538 29.1728C435.651 29.261 435.767 29.3587 435.92 29.4932C435.965 29.5327 436.244 29.78 436.331 29.856C436.459 29.9671 436.472 30.1602 436.361 30.2874C436.25 30.4147 436.057 30.4278 435.93 30.3167C435.841 30.2389 435.561 29.9911 435.518 29.9531C435.372 29.8256 435.265 29.7347 435.163 29.6551C434.583 29.2029 434.115 29.0874 433.194 29.2454C432.594 29.3482 432.008 29.7332 431.469 30.306C431.276 30.5109 431.103 30.7253 430.953 30.9354C430.864 31.0603 430.804 31.1547 430.774 31.2049ZM443.624 28.9938C443.544 29.1422 443.359 29.1973 443.21 29.1168C443.062 29.0363 443.007 28.8507 443.087 28.7023C443.122 28.638 443.186 28.5298 443.277 28.391C443.428 28.1614 443.603 27.9279 443.799 27.7037C444.374 27.0475 445.017 26.5984 445.728 26.4767C446.751 26.3013 447.359 26.4698 448.036 27.0392C448.143 27.1287 448.252 27.2276 448.396 27.3637C448.439 27.4037 448.701 27.6537 448.783 27.7307C448.906 27.8462 448.912 28.0397 448.797 28.1629C448.681 28.286 448.488 28.2922 448.365 28.1766C448.281 28.0978 448.018 27.8472 447.977 27.8088C447.841 27.6799 447.739 27.588 447.643 27.5074C447.103 27.0529 446.676 26.9346 445.831 27.0794C445.284 27.1731 444.75 27.5464 444.259 28.107C444.082 28.3086 443.924 28.52 443.788 28.7274C443.706 28.8508 443.651 28.9441 443.624 28.9938ZM442.461 34.8959L444.831 34.4897L441.011 28.1214C440.924 27.9766 440.971 27.7888 441.116 27.7019C441.26 27.615 441.448 27.6619 441.535 27.8067L445.584 34.5584C445.695 34.7428 445.586 34.9808 445.374 35.0171L442.564 35.4986C442.398 35.5271 442.24 35.4153 442.212 35.2489C442.183 35.0824 442.295 34.9244 442.461 34.8959ZM441.715 39.3303C441.581 39.4341 441.39 39.4101 441.286 39.2769C441.182 39.1436 441.206 38.9515 441.339 38.8478C442.329 38.076 443.38 37.896 444.45 38.3235C444.607 38.3861 444.683 38.564 444.62 38.7208C444.558 38.8777 444.38 38.9541 444.224 38.8914C443.362 38.547 442.539 38.6881 441.715 39.3303Z" fill="black"/>
<path fill-rule="evenodd" clip-rule="evenodd" d="M250.528 253.813L275.09 300.689L352.542 276.453L342.589 218.386L266.96 247.49L267.17 254.477L261.073 249.755L250.528 253.813Z" fill="white"/>
<path d="M261.229 249.33C261.145 249.264 261.032 249.248 260.933 249.286L250.388 253.344C250.217 253.41 250.142 253.609 250.227 253.771L274.789 300.647C274.857 300.777 275.01 300.841 275.15 300.796L352.602 276.56C352.748 276.514 352.837 276.368 352.812 276.217L342.859 218.15C342.827 217.96 342.629 217.848 342.449 217.917L266.819 247.021C266.698 247.067 266.62 247.185 266.624 247.315L266.814 253.655L261.229 249.33ZM260.991 249.918L266.952 254.534C267.156 254.692 267.452 254.542 267.444 254.284L267.241 247.513L342.32 218.621L352.164 276.057L275.211 300.137L250.927 253.791L260.991 249.918Z" fill="black"/>
<path fill-rule="evenodd" clip-rule="evenodd" d="M256.543 394.987L283.236 390.412C289.055 361.216 295.777 342.457 303.402 334.137C303.852 333.646 299.99 329.715 291.816 322.344C296.758 325.043 300.147 326.737 301.984 327.427C302.849 327.751 301.791 321.176 298.81 307.702L309.729 328.249C312.23 326.405 314.151 325.083 315.494 324.284C334.366 313.052 354.32 329.832 375.357 374.623L646.704 328.116" fill="white"/>
<path d="M301.862 327.614C302.177 327.732 302.409 327.533 302.498 327.207C302.556 326.996 302.576 326.687 302.563 326.268C302.538 325.471 302.392 324.247 302.126 322.592C301.655 319.662 300.803 315.37 299.572 309.715L309.445 328.294C309.533 328.458 309.746 328.507 309.896 328.396C312.389 326.557 314.303 325.24 315.635 324.448C334.286 313.348 354.097 330.008 375.066 374.654C375.125 374.779 375.259 374.849 375.394 374.825L646.741 328.318C646.907 328.29 647.019 328.132 646.99 327.966C646.962 327.799 646.804 327.688 646.638 327.716L375.52 374.184C354.452 329.406 334.387 312.577 315.323 323.923C314.022 324.697 312.188 325.954 309.819 327.695L299.065 307.46C298.898 307.146 298.42 307.322 298.497 307.669C299.986 314.401 300.995 319.408 301.523 322.689C301.785 324.321 301.928 325.522 301.952 326.287C301.962 326.601 301.951 326.836 301.923 326.983C300.071 326.266 296.742 324.596 291.948 321.977C291.63 321.804 291.328 322.23 291.597 322.472C295.68 326.154 298.685 328.976 300.611 330.936C301.568 331.911 302.257 332.67 302.675 333.212C302.875 333.472 303.01 333.677 303.077 333.822C303.09 333.85 303.1 333.874 303.106 333.893C295.473 342.278 288.769 360.987 282.963 390.048L256.477 394.587C256.311 394.616 256.199 394.774 256.227 394.94C256.256 395.106 256.414 395.218 256.58 395.19L283.273 390.614C283.398 390.593 283.496 390.497 283.521 390.373C289.329 361.229 296.037 342.511 303.612 334.245C304.04 333.778 303.24 332.741 301.046 330.508C299.419 328.851 297.03 326.588 293.88 323.717C297.642 325.729 300.3 327.028 301.862 327.614Z" fill="black"/>
<path d="M431.544 0.365765L420.142 2.31997C415.02 3.19794 411.569 8.04242 412.395 13.1673L407.301 24.0958C407.197 24.3194 407.386 24.5683 407.629 24.5266L453.389 16.6837C453.654 16.6382 453.735 16.2957 453.518 16.1359L441.986 7.65366C441.084 2.78337 436.436 -0.472638 431.544 0.365765ZM412.989 13.3402C413.015 13.2837 413.024 13.2206 413.013 13.1592C412.186 8.33216 415.424 3.74914 420.246 2.92273L431.648 0.968531C436.248 0.180117 440.616 3.27415 441.406 7.87924C441.419 7.9573 441.462 8.02713 441.526 8.07403L452.577 16.2024L408.101 23.8253L412.989 13.3402Z" fill="black"/>
<path fill-rule="evenodd" clip-rule="evenodd" d="M441.62 8.04876L412.62 13.4329L411.129 16.7907L445.449 10.9085L441.62 8.04876Z" fill="black"/>
<path d="M441.729 7.51539L412.729 12.8995C412.63 12.9179 412.546 12.9839 412.505 13.0759L411.015 16.4337C410.916 16.6569 411.105 16.9006 411.346 16.8594L445.665 10.9772C445.93 10.9318 446.012 10.5914 445.796 10.4307L441.967 7.57101C441.899 7.52003 441.813 7.49988 441.729 7.51539ZM444.861 10.4947L411.805 16.1602L412.998 13.4715L441.709 8.14109L444.861 10.4947Z" fill="black"/>
<path fill-rule="evenodd" clip-rule="evenodd" d="M417.952 359.158L417.364 376.218L430.61 373.948L481.989 365.142C477.953 359.39 473.728 355.633 469.314 353.87C464.9 352.108 457.413 352.219 446.853 354.204L447.45 325.146L414.971 330.92L418.186 352.085L417.952 359.158Z" fill="white"/>
<path fill-rule="evenodd" clip-rule="evenodd" d="M504.844 341.781L508.115 360.869L516.109 359.292L567.488 350.486C563.452 344.734 559.227 340.977 554.813 339.215C550.399 337.452 542.912 337.564 532.352 339.549L532.625 311.011L497.46 316.78L503.685 337.43L504.844 341.781Z" fill="white"/>
<path fill-rule="evenodd" clip-rule="evenodd" d="M418.22 352.285C421.378 352.256 424.12 353.785 426.444 356.873C428.768 359.961 430.485 364.355 431.595 370.054L417.512 372.261" fill="black"/>
<path fill-rule="evenodd" clip-rule="evenodd" d="M504.12 337.562C509.825 337.924 513.839 339.649 516.163 342.737C518.488 345.825 520.002 349.84 520.707 354.782L507.426 356.851L504.12 337.562Z" fill="black"/>
<path d="M424.528 329.117L424.121 313.322L419.329 314.143L419.225 313.541L424.105 312.705L423.888 304.262L419.62 304.993L419.516 304.391L442.798 300.401L442.901 301.003L438.234 301.803L438.12 310.303L442.507 309.551L442.61 310.153L438.111 310.924L437.898 326.741L447.799 324.981L447.31 348.787L448.122 344.32C448.156 344.132 448.208 343.948 448.275 343.77C448.891 342.137 450.714 341.313 452.346 341.93C452.621 342.033 452.878 342.18 453.107 342.364C454.309 343.328 454.501 345.084 453.537 346.286L447.484 353.828C448.77 353.263 451.922 351.851 456.551 349.76C456.705 349.69 456.886 349.758 456.955 349.912C457.024 350.066 456.956 350.247 456.802 350.316C453.431 351.84 450.999 352.934 449.392 353.649C458.666 352.104 465.351 352.145 469.464 353.787C473.939 355.574 478.208 359.37 482.275 365.166L482.552 365.561L417.082 376.782L417.683 359.348L417.916 352.304L414.661 330.871L424.528 329.117ZM425.136 329.009L430.952 327.975L430.67 312.199L424.73 313.218L425.136 329.009ZM431.561 327.867L437.286 326.849L437.499 311.029L431.279 312.095L431.561 327.867ZM447.195 354.658C447.17 354.667 447.143 354.674 447.116 354.676L440.36 356.04C440.195 356.073 440.034 355.966 440.001 355.801C439.967 355.635 440.074 355.474 440.24 355.441L446.273 354.223L437.817 348.98C436.508 348.168 436.105 346.448 436.917 345.139C437.071 344.889 437.265 344.665 437.489 344.476C438.823 343.351 440.816 343.521 441.941 344.855C442.064 345.001 442.174 345.158 442.268 345.323L446.571 352.848L446.621 352.574L447.173 325.712L415.354 331.369L418.489 352.008C425.057 352.794 429.742 358.611 431.808 369.502L478.624 361.478C475.59 358.015 472.461 355.641 469.237 354.354C464.925 352.632 457.571 352.728 447.195 354.658ZM447.231 352.635L447.219 353.182L453.06 345.903C453.814 344.965 453.663 343.593 452.725 342.84C452.546 342.697 452.345 342.582 452.131 342.501C450.814 342.004 449.343 342.669 448.846 343.985C448.792 344.129 448.751 344.278 448.723 344.429L447.231 352.635ZM479.089 362.018L417.84 372.516L417.718 376.054L481.496 365.122C480.7 364.01 479.898 362.975 479.089 362.018ZM417.861 371.893L431.206 369.605C429.194 359.012 424.711 353.423 418.516 352.627L418.293 359.368L417.861 371.893ZM441.738 345.626C441.662 345.493 441.573 345.367 441.474 345.249C440.567 344.173 438.959 344.036 437.883 344.943C437.708 345.091 437.557 345.266 437.436 345.461C436.802 346.483 437.117 347.827 438.139 348.461L446.226 353.475L441.738 345.626ZM437.622 301.908L431.117 303.022L431.268 311.477L437.507 310.408L437.622 301.908ZM430.508 303.127L424.496 304.157L424.714 312.6L430.659 311.581L430.508 303.127Z" fill="black"/>
<path fill-rule="evenodd" clip-rule="evenodd" d="M375.183 116.852L368.56 117.987L373.822 105.296" fill="black"/>
<path d="M504.471 315.31L499.627 300.379L495.796 301.036L495.692 300.434L499.436 299.792L496.83 291.759L493.076 292.402L492.973 291.8L517.258 287.637L517.361 288.24L512.175 289.128L514.416 297.225L518.974 296.444L519.077 297.046L514.58 297.816L518.768 312.944L532.924 310.601L532.895 337.929L534.424 329.527C534.458 329.339 534.509 329.155 534.576 328.977C535.192 327.344 537.015 326.521 538.648 327.137C538.922 327.241 539.179 327.387 539.408 327.571C540.61 328.535 540.802 330.291 539.838 331.493L534.057 338.697C535.681 337.975 538.408 336.75 542.049 335.104C542.203 335.035 542.384 335.103 542.454 335.257C542.523 335.411 542.455 335.592 542.301 335.661C538.931 337.184 536.5 338.278 534.893 338.993C544.27 337.413 551.021 337.443 555.163 339.097C559.639 340.884 563.907 344.68 567.974 350.477L568.252 350.872L507.87 361.221L507.816 360.923L503.629 337.686L497.065 316.536L504.471 315.31ZM505.081 315.209L511.132 314.207L507.141 299.091L500.235 300.275L505.081 315.209ZM511.737 314.107L518.162 313.044L513.975 297.92L507.746 298.988L511.737 314.107ZM504.133 337.256C513.153 337.519 518.761 343.205 520.917 354.228L564.323 346.789C561.29 343.325 558.16 340.952 554.936 339.664C550.64 337.949 543.323 338.037 533.007 339.947C532.968 339.963 532.927 339.97 532.887 339.969C532.816 339.983 532.745 339.996 532.673 340.009C532.654 340.015 532.635 340.019 532.615 340.021L525.859 341.385C525.694 341.418 525.532 341.311 525.499 341.146C525.466 340.98 525.573 340.819 525.738 340.786L531.772 339.568L523.316 334.325C522.007 333.513 521.603 331.793 522.415 330.484C522.57 330.234 522.763 330.01 522.988 329.821C524.322 328.696 526.315 328.866 527.44 330.2C527.563 330.346 527.672 330.502 527.767 330.668L532.284 338.567L532.312 311.321L497.857 317.024L504.133 337.256ZM504.281 337.872L507.64 356.504L520.315 354.331C518.222 343.647 512.889 338.19 504.281 337.872ZM564.788 347.329L507.748 357.105L508.363 360.516L567.195 350.433C566.4 349.32 565.597 348.285 564.788 347.329ZM527.236 330.971C527.16 330.838 527.072 330.711 526.973 330.594C526.065 329.518 524.458 329.381 523.382 330.288C523.206 330.436 523.055 330.61 522.934 330.805C522.3 331.828 522.615 333.171 523.638 333.805L531.724 338.82L527.236 330.971ZM535.025 329.636L533.407 338.531L539.362 331.111C540.115 330.172 539.965 328.801 539.026 328.047C538.847 327.904 538.647 327.789 538.432 327.708C537.115 327.211 535.645 327.876 535.148 329.192C535.093 329.336 535.052 329.485 535.025 329.636ZM511.569 289.232L505.447 290.282L507.589 298.395L513.811 297.328L511.569 289.232ZM504.843 290.385L497.438 291.654L500.045 299.688L506.985 298.498L504.843 290.385Z" fill="black"/>
<path d="M294.817 268.346L296.051 271.985L292.703 273.12L293.628 275.849L289.324 277.308L288.399 274.579L276.586 278.583L275.352 274.945L283.643 260.55L287.948 259.091L291.47 269.481L294.817 268.346ZM279.991 273.372L287.165 270.94L285.104 264.86L279.991 273.372ZM307.985 271.249C301.338 273.503 297.142 271.508 295.252 265.93C293.369 260.376 295.495 256.266 302.143 254.013C308.767 251.767 312.986 253.753 314.86 259.283C316.743 264.837 314.609 269.004 307.985 271.249ZM306.76 267.634C310.538 266.353 311.619 263.879 310.556 260.743C309.501 257.63 307.146 256.347 303.368 257.627C299.59 258.908 298.493 261.335 299.556 264.471C300.627 267.631 302.982 268.915 306.76 267.634ZM336.426 254.242L337.66 257.88L334.312 259.015L335.237 261.744L330.933 263.204L330.008 260.474L318.194 264.479L316.961 260.84L325.252 246.446L329.556 244.987L333.078 255.377L336.426 254.242ZM321.6 259.267L328.774 256.836L326.713 250.755L321.6 259.267Z" fill="black"/>
<path d="M295.165 267.724L296.595 271.942L293.247 273.077L294.172 275.806L289.289 277.461L288.364 274.732L276.551 278.736L275.175 274.677L283.593 260.064L288.296 258.469L291.818 268.859L295.165 267.724ZM291.435 269.634L287.913 259.244L284.007 260.568L275.843 274.743L276.934 277.962L288.747 273.957L289.672 276.686L293.398 275.423L292.473 272.694L295.82 271.559L294.783 268.499L291.435 269.634ZM279.458 273.694L285.338 263.903L287.709 270.897L279.458 273.694ZM286.935 270.514L285.183 265.347L280.839 272.581L286.935 270.514ZM308.24 271.304C301.557 273.569 297.103 271.645 295.119 265.794C293.145 259.969 295.516 255.755 302.201 253.489C308.862 251.231 313.34 253.149 315.306 258.951C317.282 264.779 314.899 269.047 308.24 271.304ZM308.044 270.725C314.396 268.572 316.591 264.642 314.728 259.147C312.875 253.68 308.752 251.913 302.398 254.067C296.018 256.23 293.837 260.108 295.698 265.598C297.568 271.116 301.668 272.887 308.044 270.725ZM307.015 267.689C303.197 268.983 300.588 267.769 299.423 264.335C298.268 260.927 299.607 258.398 303.427 257.104C307.238 255.812 309.852 257.017 311.002 260.41C312.161 263.829 310.824 266.398 307.015 267.689ZM306.819 267.11C310.314 265.926 311.472 263.7 310.424 260.606C309.384 257.54 307.121 256.496 303.623 257.682C300.116 258.871 298.958 261.058 300.002 264.139C301.056 267.248 303.315 268.298 306.819 267.11ZM336.774 253.62L338.204 257.837L334.856 258.972L335.781 261.701L330.898 263.356L329.973 260.627L318.16 264.632L316.784 260.573L325.202 245.959L329.905 244.365L333.426 254.755L336.774 253.62ZM333.044 255.529L329.522 245.14L325.616 246.464L317.451 260.638L318.543 263.857L330.356 259.853L331.281 262.582L335.007 261.319L334.081 258.59L337.429 257.455L336.392 254.394L333.044 255.529ZM321.066 259.589L326.947 249.798L329.318 256.792L321.066 259.589ZM328.544 256.41L326.792 251.243L322.448 258.476L328.544 256.41Z" fill="black"/>
<path d="M373.688 104.984C373.701 104.841 373.71 104.709 373.716 104.587L372.854 97.5819C371.425 85.9702 379.36 75.2862 390.878 73.312L413.539 69.4281L413.642 70.0309L390.982 73.9148C379.785 75.8339 372.071 86.2197 373.46 97.5074L373.711 99.5439C374.075 95.2757 375.5 91.2687 378.005 87.6083C381.782 82.0907 387.867 83.4751 396.1 91.5738C396.22 91.6921 396.222 91.8857 396.104 92.0062C395.985 92.1266 395.792 92.1283 395.672 92.0099C387.67 84.139 382.003 82.8497 378.509 87.9541C375.222 92.758 373.841 98.1659 374.321 103.995C374.334 104.157 374.337 104.346 374.328 104.562L376.725 124.046L376.119 124.12L375.236 116.944L368.777 118.051C368.54 118.092 368.351 117.855 368.443 117.632L373.688 104.984ZM375.161 116.337L373.898 106.072L369.22 117.355L375.161 116.337Z" fill="black"/>
<path d="M467.164 116.731C466.996 116.753 466.843 116.635 466.821 116.468C466.799 116.3 466.916 116.147 467.083 116.125C469.316 115.829 470.15 114.375 469.628 111.596C469.103 108.805 467.958 107.659 466.149 108.002C465.984 108.033 465.824 107.924 465.792 107.758C465.761 107.593 465.87 107.433 466.035 107.401C468.236 106.984 469.648 108.398 470.228 111.483C470.811 114.581 469.776 116.385 467.164 116.731ZM470.155 138.041C469.987 138.055 469.84 137.929 469.826 137.761C469.813 137.592 469.938 137.445 470.107 137.432C472.351 137.253 473.261 135.844 472.885 133.042C472.507 130.227 471.423 129.024 469.599 129.271C469.432 129.294 469.278 129.177 469.255 129.009C469.232 128.842 469.349 128.688 469.517 128.665C471.736 128.364 473.072 129.849 473.49 132.961C473.91 136.085 472.781 137.833 470.155 138.041ZM461.016 163.756C460.852 163.715 460.753 163.549 460.793 163.385C460.834 163.221 461 163.121 461.163 163.162C463.363 163.708 464.626 162.886 465.085 160.604C465.547 158.306 464.883 157.051 463.062 156.688C462.897 156.655 462.789 156.494 462.822 156.329C462.856 156.163 463.016 156.056 463.182 156.089C465.363 156.523 466.207 158.119 465.684 160.724C465.157 163.345 463.557 164.386 461.016 163.756ZM425.59 87.2405L426.198 87.2961C425.806 91.6076 423.932 94.4335 420.586 95.7212L420.366 95.1503C423.48 93.9519 425.218 91.3329 425.59 87.2405Z" fill="black"/>
<path d="M393.242 101.011L394.562 103.887C394.632 104.041 394.813 104.108 394.967 104.038C395.12 103.967 395.187 103.786 395.117 103.632L393.797 100.756C393.727 100.603 393.546 100.535 393.392 100.606C393.239 100.676 393.172 100.858 393.242 101.011Z" fill="black"/>
<path d="M393.502 101.189L396.215 101.344C396.383 101.354 396.528 101.225 396.537 101.057C396.547 100.888 396.418 100.744 396.25 100.734L393.537 100.578C393.369 100.569 393.224 100.698 393.215 100.866C393.205 101.035 393.334 101.179 393.502 101.189Z" fill="black"/>
<path d="M507.121 83.6808C504.671 81.578 501.098 81.9239 498.517 84.3383C497.512 85.2789 496.868 86.4837 496.688 87.7651C496.234 90.9941 501.419 98.158 512.285 109.452C512.402 109.574 512.595 109.578 512.716 109.461C512.838 109.344 512.842 109.15 512.725 109.028C502.036 97.9176 496.879 90.7931 497.293 87.8506C497.453 86.7102 498.03 85.632 498.935 84.7852C501.301 82.5713 504.526 82.2591 506.723 84.1449C506.851 84.2549 507.044 84.2401 507.154 84.1119C507.264 83.9837 507.249 83.7907 507.121 83.6808Z" fill="black"/>
<g filter="url(#filter2_b_3065_18994)">
<rect x="211.107" y="152.39" width="54.2917" height="26.6459" rx="10.6459" transform="rotate(-9.24098 211.107 152.39)" fill="white" fill-opacity="0.5"/>
<path d="M223.748 160.807L223.472 159.113L226.638 158.598L228.196 168.173L226.304 168.481L225.022 160.6L223.748 160.807ZM236.602 166.926C235.902 167.04 235.247 166.99 234.636 166.775C234.025 166.55 233.51 166.18 233.094 165.664C232.686 165.146 232.422 164.515 232.3 163.77C232.179 163.026 232.235 162.343 232.466 161.721C232.706 161.098 233.086 160.587 233.605 160.188C234.123 159.78 234.732 159.519 235.433 159.405C236.133 159.291 236.794 159.345 237.414 159.568C238.033 159.782 238.551 160.147 238.968 160.663C239.393 161.178 239.666 161.808 239.787 162.552C239.908 163.297 239.844 163.981 239.595 164.606C239.355 165.229 238.972 165.746 238.445 166.155C237.926 166.554 237.312 166.811 236.602 166.926ZM236.342 165.324C236.674 165.27 236.973 165.141 237.236 164.936C237.506 164.721 237.703 164.437 237.825 164.085C237.948 163.733 237.971 163.324 237.896 162.86C237.783 162.168 237.513 161.669 237.086 161.361C236.665 161.042 236.192 160.926 235.667 161.012C235.142 161.097 234.73 161.357 234.432 161.792C234.142 162.217 234.053 162.775 234.166 163.467C234.278 164.159 234.536 164.665 234.939 164.986C235.349 165.297 235.816 165.41 236.342 165.324ZM244.126 159.662L242.852 159.87L243.79 165.636L241.925 165.939L240.987 160.173L240.159 160.308L239.914 158.797L240.741 158.663L240.681 158.295C240.536 157.402 240.683 156.704 241.123 156.201C241.562 155.698 242.296 155.376 243.325 155.236L243.577 156.786C243.129 156.849 242.83 156.974 242.681 157.161C242.531 157.347 242.49 157.645 242.557 158.057L242.606 158.359L243.88 158.152L244.126 159.662ZM252.971 156.767C252.824 156.414 252.626 156.163 252.377 156.014C252.137 155.865 251.816 155.823 251.413 155.888C250.809 155.987 250.402 156.304 250.193 156.842C249.991 157.369 249.975 158.18 250.144 159.276C250.297 158.892 250.559 158.571 250.931 158.313C251.301 158.046 251.722 157.874 252.195 157.797C252.764 157.704 253.288 157.745 253.765 157.919C254.243 158.093 254.643 158.396 254.965 158.829C255.286 159.253 255.5 159.794 255.606 160.451C255.708 161.072 255.671 161.649 255.497 162.181C255.33 162.702 255.028 163.138 254.591 163.488C254.153 163.837 253.602 164.066 252.936 164.175C252.026 164.323 251.275 164.238 250.684 163.921C250.102 163.602 249.647 163.101 249.32 162.417C249 161.723 248.754 160.846 248.582 159.787C248.321 158.184 248.401 156.931 248.82 156.027C249.237 155.114 250.042 154.561 251.233 154.367C252.152 154.217 252.906 154.351 253.495 154.767C254.084 155.184 254.479 155.758 254.679 156.489L252.971 156.767ZM252.021 159.376C251.556 159.451 251.189 159.65 250.918 159.973C250.647 160.296 250.553 160.715 250.637 161.232C250.721 161.749 250.932 162.132 251.27 162.383C251.616 162.632 252.056 162.713 252.59 162.627C253.063 162.55 253.411 162.345 253.636 162.011C253.869 161.677 253.946 161.264 253.866 160.774C253.783 160.266 253.582 159.886 253.262 159.632C252.951 159.377 252.537 159.292 252.021 159.376Z" fill="black" fill-opacity="0.8"/>
</g>
<rect x="197.363" y="142.491" width="263.485" height="263.485" rx="9.31513" transform="rotate(-9.24098 197.363 142.491)" stroke="black" stroke-width="2.66147"/>
<rect x="241.995" y="425.1" width="46.9482" height="46.9482" rx="6.65366" transform="rotate(-9.24098 241.995 425.1)" fill="#F5F5F5"/>
<rect x="243.522" y="426.199" width="44.2868" height="44.2868" rx="5.32293" transform="rotate(-9.24098 243.522 426.199)" stroke="black" stroke-opacity="0.1" stroke-width="2.66147"/>
<path d="M268.344 445.514L265.862 445.918L266.276 448.466L264.542 448.748L264.128 446.2L261.645 446.604L261.385 445.002L263.867 444.598L263.453 442.05L265.186 441.767L265.601 444.316L268.083 443.912L268.344 445.514ZM269.099 442.129C269 441.246 269.197 440.522 269.689 439.956C270.189 439.381 270.907 439.017 271.844 438.864C272.483 438.76 273.049 438.785 273.541 438.939C274.032 439.083 274.423 439.33 274.713 439.678C275.011 440.016 275.199 440.426 275.277 440.908C275.367 441.459 275.299 441.951 275.072 442.384C274.854 442.806 274.558 443.115 274.185 443.31L274.194 443.363C274.727 443.438 275.167 443.654 275.512 444.011C275.867 444.367 276.096 444.86 276.198 445.49C276.284 446.016 276.237 446.504 276.059 446.955C275.89 447.405 275.588 447.787 275.153 448.1C274.726 448.404 274.184 448.609 273.528 448.716C272.538 448.876 271.692 448.758 270.989 448.36C270.286 447.962 269.838 447.28 269.645 446.314L271.431 446.023C271.518 446.449 271.719 446.772 272.033 446.99C272.355 447.199 272.757 447.264 273.238 447.185C273.685 447.113 274.006 446.934 274.203 446.651C274.407 446.357 274.477 446.013 274.412 445.619C274.327 445.094 274.099 444.744 273.73 444.571C273.36 444.397 272.825 444.367 272.124 444.481L271.743 444.543L271.497 443.033L271.878 442.971C273.122 442.768 273.676 442.251 273.54 441.419C273.479 441.043 273.318 440.768 273.056 440.595C272.803 440.42 272.466 440.367 272.046 440.436C271.634 440.503 271.333 440.669 271.142 440.933C270.959 441.188 270.878 441.489 270.898 441.836L269.099 442.129Z" fill="black"/>
<path opacity="0.8" d="M265.375 489.642C265.514 490.497 265.445 491.313 265.169 492.092C264.891 492.856 264.381 493.521 263.639 494.088C262.897 494.654 261.923 495.036 260.718 495.232L258.491 495.594L259.352 500.89L255.759 501.475L253.359 486.722L259.18 485.775C260.357 485.583 261.384 485.625 262.263 485.899C263.142 486.173 263.843 486.634 264.365 487.283C264.888 487.931 265.224 488.717 265.375 489.642ZM259.98 492.418C260.667 492.306 261.152 492.062 261.436 491.685C261.72 491.308 261.814 490.826 261.718 490.237C261.622 489.649 261.38 489.221 260.991 488.953C260.603 488.686 260.065 488.608 259.378 488.719L257.424 489.037L258.026 492.736L259.98 492.418ZM267.201 493.573C267.005 492.368 267.057 491.274 267.357 490.29C267.671 489.304 268.181 488.502 268.886 487.884C269.59 487.266 270.426 486.879 271.393 486.722C272.22 486.587 272.968 486.638 273.64 486.874C274.325 487.107 274.88 487.47 275.305 487.962L275.035 486.302L278.629 485.717L280.536 497.443L276.943 498.028L276.673 496.368C276.411 496.971 275.993 497.492 275.417 497.931C274.855 498.368 274.161 498.653 273.335 498.788C272.382 498.943 271.473 498.839 270.609 498.476C269.742 498.099 269.004 497.493 268.393 496.658C267.794 495.806 267.397 494.778 267.201 493.573ZM275.989 492.165C275.843 491.268 275.476 490.602 274.887 490.165C274.312 489.727 273.668 489.566 272.953 489.682C272.239 489.798 271.671 490.156 271.251 490.757C270.843 491.341 270.712 492.081 270.858 492.978C271.004 493.875 271.365 494.549 271.942 495.002C272.531 495.438 273.182 495.598 273.897 495.482C274.611 495.366 275.172 495.009 275.578 494.41C275.998 493.81 276.135 493.061 275.989 492.165ZM285.656 484.401C286.483 484.266 287.232 484.317 287.903 484.553C288.588 484.787 289.143 485.149 289.568 485.641L289.298 483.981L292.892 483.396L294.796 495.102C294.972 496.181 294.913 497.19 294.62 498.129C294.344 499.08 293.806 499.886 293.008 500.548C292.223 501.208 291.18 501.644 289.877 501.856C288.14 502.139 286.664 501.954 285.451 501.303C284.24 500.666 283.443 499.66 283.061 498.284L286.613 497.706C286.798 498.136 287.121 498.443 287.583 498.627C288.046 498.825 288.586 498.873 289.203 498.773C289.945 498.652 290.498 498.339 290.862 497.834C291.242 497.341 291.356 496.625 291.203 495.686L290.933 494.026C290.671 494.63 290.261 495.157 289.701 495.607C289.14 496.044 288.446 496.329 287.619 496.464C286.652 496.621 285.737 496.518 284.872 496.156C284.006 495.779 283.267 495.173 282.657 494.337C282.058 493.486 281.66 492.457 281.464 491.252C281.268 490.048 281.32 488.953 281.621 487.97C281.935 486.984 282.444 486.182 283.149 485.564C283.854 484.946 284.69 484.558 285.656 484.401ZM290.252 489.844C290.106 488.948 289.739 488.281 289.15 487.845C288.576 487.406 287.931 487.245 287.217 487.361C286.502 487.477 285.935 487.836 285.515 488.436C285.106 489.02 284.975 489.761 285.121 490.657C285.267 491.554 285.628 492.229 286.205 492.681C286.794 493.118 287.446 493.278 288.16 493.161C288.875 493.045 289.435 492.688 289.841 492.09C290.261 491.489 290.398 490.741 290.252 489.844ZM307.469 486.849C307.524 487.185 307.56 487.539 307.577 487.91L299.444 489.233C299.619 489.953 299.941 490.475 300.411 490.802C300.893 491.111 301.435 491.217 302.037 491.119C302.934 490.973 303.496 490.494 303.723 489.68L307.548 489.058C307.477 489.86 307.233 490.612 306.815 491.313C306.411 492.011 305.852 492.598 305.138 493.074C304.425 493.55 303.592 493.865 302.639 494.02C301.49 494.207 300.427 494.128 299.451 493.784C298.474 493.439 297.66 492.853 297.007 492.024C296.355 491.195 295.93 490.172 295.731 488.953C295.533 487.734 295.605 486.629 295.947 485.639C296.303 484.646 296.89 483.832 297.707 483.195C298.524 482.559 299.513 482.146 300.676 481.957C301.811 481.773 302.859 481.847 303.819 482.179C304.779 482.512 305.576 483.08 306.21 483.883C306.858 484.683 307.278 485.672 307.469 486.849ZM303.637 486.502C303.537 485.885 303.247 485.429 302.768 485.133C302.288 484.837 301.733 484.741 301.103 484.843C300.5 484.941 300.017 485.199 299.654 485.618C299.305 486.034 299.133 486.573 299.14 487.233L303.637 486.502ZM328.001 489.721L324.407 490.306L316.916 482.184L318.397 491.284L314.803 491.868L312.403 477.116L315.996 476.531L323.494 484.695L322.007 475.553L325.6 474.968L328.001 489.721ZM335.971 488.597C334.822 488.784 333.745 488.707 332.741 488.367C331.751 488.025 330.915 487.442 330.234 486.618C329.568 485.792 329.135 484.769 328.937 483.55C328.741 482.345 328.835 481.244 329.219 480.247C329.601 479.236 330.215 478.41 331.06 477.769C331.905 477.128 332.901 476.714 334.05 476.527C335.199 476.34 336.276 476.417 337.28 476.757C338.285 477.097 339.128 477.686 339.811 478.524C340.492 479.348 340.93 480.362 341.126 481.567C341.322 482.772 341.222 483.881 340.826 484.895C340.442 485.892 339.82 486.712 338.962 487.355C338.117 487.996 337.12 488.41 335.971 488.597ZM335.465 485.487C336.151 485.375 336.692 485.028 337.086 484.446C337.494 483.862 337.622 483.101 337.469 482.162C337.317 481.223 336.961 480.541 336.403 480.114C335.858 479.685 335.243 479.526 334.556 479.638C333.856 479.751 333.315 480.098 332.935 480.678C332.553 481.243 332.439 482.003 332.594 482.955C332.747 483.894 333.088 484.579 333.619 485.01C334.163 485.44 334.778 485.598 335.465 485.487ZM350.027 483.01L350.522 486.057L348.694 486.354C347.391 486.566 346.324 486.416 345.493 485.904C344.659 485.378 344.125 484.394 343.891 482.951L343.132 478.285L341.703 478.518L341.217 475.534L342.646 475.301L342.181 472.443L345.775 471.859L346.24 474.717L348.593 474.334L349.079 477.318L346.725 477.701L347.491 482.408C347.548 482.758 347.673 482.997 347.866 483.124C348.06 483.251 348.352 483.282 348.745 483.218L350.027 483.01ZM364.181 468.691L364.65 471.57L358.639 472.548L359.145 475.658L363.643 474.927L364.097 477.722L359.6 478.454L360.571 484.422L356.977 485.007L354.577 470.254L364.181 468.691ZM373.836 482.436C372.687 482.623 371.61 482.547 370.606 482.207C369.615 481.865 368.78 481.282 368.099 480.458C367.433 479.631 367 478.609 366.802 477.39C366.606 476.185 366.7 475.084 367.084 474.086C367.466 473.075 368.079 472.249 368.924 471.608C369.769 470.967 370.766 470.554 371.915 470.367C373.064 470.18 374.14 470.256 375.145 470.596C376.149 470.936 376.993 471.525 377.676 472.363C378.356 473.187 378.795 474.202 378.991 475.407C379.187 476.611 379.087 477.721 378.691 478.734C378.307 479.732 377.685 480.552 376.826 481.195C375.981 481.836 374.984 482.249 373.836 482.436ZM373.33 479.326C374.016 479.214 374.556 478.868 374.951 478.286C375.359 477.702 375.487 476.94 375.334 476.001C375.181 475.063 374.826 474.38 374.267 473.953C373.723 473.524 373.108 473.365 372.421 473.477C371.72 473.591 371.18 473.938 370.8 474.517C370.417 475.083 370.303 475.842 370.458 476.795C370.611 477.733 370.953 478.418 371.483 478.85C372.028 479.279 372.643 479.438 373.33 479.326ZM391.523 467.349L393.431 479.076L389.837 479.66L389.577 478.063C389.297 478.641 388.868 479.142 388.29 479.567C387.724 479.975 387.062 480.241 386.306 480.364C385.409 480.51 384.586 480.443 383.835 480.162C383.083 479.868 382.456 479.373 381.955 478.678C381.453 477.983 381.119 477.124 380.953 476.101L379.838 469.25L383.411 468.669L384.447 475.037C384.574 475.821 384.877 476.398 385.354 476.766C385.831 477.134 386.412 477.262 387.099 477.151C387.799 477.037 388.318 476.729 388.653 476.229C388.989 475.729 389.093 475.086 388.965 474.301L387.929 467.934L391.523 467.349ZM401.229 465.641C402.602 465.417 403.768 465.688 404.726 466.452C405.696 467.2 406.308 468.352 406.561 469.907L407.675 476.758L404.103 477.339L403.067 470.972C402.939 470.187 402.637 469.611 402.16 469.242C401.683 468.874 401.101 468.746 400.415 468.858C399.728 468.969 399.217 469.275 398.882 469.776C398.546 470.276 398.442 470.919 398.57 471.703L399.606 478.071L396.012 478.656L394.104 466.929L397.698 466.344L397.951 467.9C398.231 467.322 398.655 466.836 399.223 466.441C399.79 466.033 400.458 465.766 401.229 465.641ZM408.501 470.584C408.305 469.379 408.357 468.285 408.657 467.301C408.971 466.315 409.481 465.513 410.185 464.895C410.89 464.277 411.726 463.889 412.693 463.732C413.463 463.607 414.19 463.654 414.873 463.874C415.57 464.091 416.145 464.443 416.598 464.93L415.712 459.487L419.306 458.903L421.836 474.454L418.243 475.039L417.969 473.358C417.724 473.973 417.314 474.5 416.738 474.938C416.176 475.375 415.482 475.661 414.655 475.795C413.689 475.952 412.773 475.85 411.909 475.487C411.042 475.11 410.304 474.504 409.693 473.669C409.094 472.817 408.697 471.789 408.501 470.584ZM417.289 469.176C417.143 468.279 416.775 467.612 416.187 467.176C415.612 466.737 414.967 466.576 414.253 466.693C413.538 466.809 412.971 467.167 412.551 467.768C412.143 468.352 412.012 469.092 412.157 469.989C412.303 470.885 412.665 471.56 413.242 472.013C413.83 472.449 414.482 472.609 415.197 472.493C415.911 472.377 416.471 472.019 416.877 471.421C417.297 470.821 417.435 470.072 417.289 469.176Z" fill="black"/>
<rect x="258.838" y="528.624" width="106.583" height="30.6459" rx="10.6459" transform="rotate(-9.24098 258.838 528.624)" fill="#6C66E9" fill-opacity="0.1"/>
<g clip-path="url(#clip0_3065_18994)">
<path fill-rule="evenodd" clip-rule="evenodd" d="M276.112 535.001C276.179 534.744 276.391 534.551 276.654 534.509L281.893 533.656C282.385 533.576 282.791 534.043 282.642 534.52L281.637 537.743L283.842 537.384C284.433 537.288 284.845 537.954 284.495 538.44L277.923 547.567C277.508 548.142 276.6 547.767 276.714 547.067L277.571 541.775L275.208 542.159C275.097 542.177 274.984 542.167 274.878 542.13C274.773 542.093 274.678 542.031 274.603 541.948C274.527 541.865 274.474 541.765 274.447 541.656C274.421 541.547 274.421 541.433 274.45 541.325L276.112 535.001Z" fill="#6C66E9"/>
</g>
<path d="M293.522 538.529C293.275 537.014 293.353 535.783 293.757 534.837C294.169 533.889 295.01 533.312 296.279 533.105C297.549 532.899 298.525 533.18 299.208 533.95C299.899 534.718 300.368 535.86 300.614 537.375C300.862 538.898 300.781 540.139 300.37 541.095C299.968 542.05 299.133 542.631 297.863 542.838C296.593 543.044 295.612 542.759 294.919 541.982C294.235 541.203 293.769 540.052 293.522 538.529ZM298.802 537.67C298.696 537.022 298.564 536.486 298.405 536.062C298.254 535.629 298.028 535.292 297.729 535.053C297.438 534.813 297.047 534.733 296.557 534.813C296.067 534.892 295.717 535.093 295.509 535.415C295.309 535.735 295.202 536.125 295.187 536.586C295.18 537.037 295.229 537.586 295.334 538.234C295.442 538.899 295.573 539.453 295.726 539.896C295.877 540.33 296.103 540.666 296.402 540.905C296.7 541.135 297.095 541.21 297.585 541.13C298.075 541.051 298.425 540.854 298.635 540.542C298.844 540.22 298.951 539.83 298.957 539.37C298.962 538.902 298.91 538.335 298.802 537.67ZM311.473 540.745C310.615 540.884 309.794 540.811 309.011 540.525C308.227 540.239 307.568 539.776 307.032 539.135C306.495 538.485 306.153 537.71 306.006 536.808C305.861 535.914 305.941 535.079 306.245 534.301C306.549 533.515 307.027 532.862 307.679 532.342C308.332 531.823 309.087 531.493 309.945 531.354C310.812 531.212 311.633 531.286 312.408 531.573C313.191 531.859 313.847 532.328 314.376 532.979C314.912 533.619 315.252 534.387 315.397 535.28C315.544 536.182 315.466 537.026 315.162 537.812C314.866 538.588 314.392 539.236 313.739 539.756C313.087 540.276 312.331 540.605 311.473 540.745ZM311.206 539.103C311.758 539.013 312.224 538.812 312.604 538.498C312.983 538.176 313.253 537.763 313.414 537.261C313.575 536.758 313.606 536.2 313.506 535.587C313.406 534.974 313.201 534.46 312.891 534.043C312.579 533.617 312.193 533.316 311.732 533.139C311.272 532.962 310.766 532.919 310.215 533.008C309.663 533.098 309.193 533.301 308.803 533.616C308.423 533.929 308.152 534.337 307.991 534.84C307.829 535.334 307.798 535.887 307.897 536.5C307.997 537.113 308.203 537.632 308.515 538.058C308.827 538.483 309.214 538.789 309.675 538.975C310.144 539.15 310.655 539.193 311.206 539.103ZM322.21 529.493L322.452 530.977L318.63 531.599L319.012 533.95L321.941 533.473L322.178 534.931L319.249 535.408L319.88 539.283L318.041 539.582L316.549 530.414L322.21 529.493ZM329.701 528.274L329.942 529.758L326.12 530.38L326.502 532.731L329.431 532.255L329.669 533.713L326.74 534.189L327.37 538.064L325.531 538.363L324.04 529.195L329.701 528.274ZM333.61 529.162L333.984 531.46L337.071 530.958L337.308 532.416L334.221 532.918L334.617 535.348L338.097 534.782L338.341 536.279L333.022 537.145L331.528 527.963L336.847 527.098L337.091 528.595L333.61 529.162ZM345.266 535.152L342.662 531.909L341.795 532.05L342.376 535.623L340.537 535.922L339.046 526.754L342.487 526.194C343.196 526.078 343.821 526.107 344.362 526.28C344.901 526.444 345.328 526.72 345.643 527.11C345.965 527.489 346.169 527.941 346.254 528.466C346.353 529.07 346.267 529.646 345.996 530.193C345.724 530.732 345.257 531.15 344.596 531.446L347.394 534.806L345.266 535.152ZM341.571 530.671L343.107 530.421C343.607 530.34 343.959 530.161 344.166 529.884C344.371 529.599 344.439 529.242 344.369 528.813C344.301 528.393 344.126 528.089 343.843 527.901C343.56 527.705 343.168 527.647 342.669 527.728L341.133 527.978L341.571 530.671ZM352.658 534.044C352.018 534.148 351.423 534.133 350.87 533.998C350.327 533.862 349.873 533.612 349.508 533.249C349.144 532.886 348.911 532.425 348.811 531.866L350.781 531.545C350.869 531.917 351.049 532.194 351.321 532.374C351.602 532.553 351.952 532.608 352.372 532.54C352.802 532.47 353.122 532.315 353.335 532.073C353.546 531.823 353.624 531.532 353.57 531.199C353.526 530.928 353.406 530.718 353.211 530.57C353.017 530.422 352.784 530.32 352.515 530.265C352.252 530.2 351.892 530.142 351.435 530.091C350.811 530.012 350.297 529.921 349.893 529.816C349.497 529.7 349.135 529.494 348.808 529.197C348.489 528.889 348.282 528.446 348.188 527.868C348.1 527.326 348.158 526.831 348.364 526.384C348.57 525.937 348.901 525.568 349.357 525.278C349.812 524.98 350.355 524.779 350.985 524.676C351.931 524.523 352.735 524.63 353.397 524.999C354.067 525.357 354.499 525.943 354.694 526.756L352.671 527.085C352.603 526.773 352.425 526.536 352.138 526.376C351.859 526.206 351.513 526.154 351.102 526.221C350.743 526.28 350.469 526.419 350.28 526.638C350.1 526.856 350.038 527.14 350.095 527.491C350.135 527.736 350.247 527.929 350.432 528.07C350.624 528.2 350.847 528.299 351.1 528.365C351.361 528.422 351.721 528.48 352.18 528.54C352.804 528.618 353.318 528.714 353.724 528.828C354.129 528.942 354.495 529.152 354.824 529.458C355.152 529.764 355.363 530.202 355.455 530.771C355.535 531.262 355.482 531.738 355.297 532.199C355.111 532.661 354.794 533.058 354.345 533.392C353.894 533.717 353.332 533.934 352.658 534.044Z" fill="#6C66E9"/>
<circle cx="378.32" cy="524.709" r="1.33073" transform="rotate(-9.24098 378.32 524.709)" fill="black"/>
<path opacity="0.8" d="M398.399 519.545C398.547 520.459 398.356 521.272 397.825 521.984C397.302 522.684 396.4 523.138 395.118 523.347L393.006 523.69L393.752 528.277L392.318 528.51L390.531 517.525L394.077 516.948C395.317 516.746 396.306 516.892 397.045 517.387C397.793 517.88 398.245 518.599 398.399 519.545ZM394.926 522.165C395.724 522.035 396.285 521.766 396.607 521.357C396.928 520.949 397.037 520.424 396.933 519.783C396.712 518.428 395.825 517.877 394.269 518.13L392.157 518.473L392.814 522.508L394.926 522.165ZM400.202 522.762C400.058 521.88 400.111 521.078 400.361 520.358C400.609 519.628 401.013 519.028 401.573 518.559C402.143 518.089 402.812 517.791 403.579 517.667C404.336 517.543 405.019 517.599 405.629 517.835C406.239 518.07 406.721 518.412 407.074 518.861L406.818 517.285L408.268 517.049L409.673 525.687L408.223 525.923L407.962 524.315C407.76 524.865 407.403 525.355 406.89 525.784C406.386 526.2 405.761 526.469 405.015 526.59C404.248 526.715 403.524 526.639 402.842 526.361C402.161 526.084 401.586 525.633 401.117 525.008C400.649 524.383 400.344 523.634 400.202 522.762ZM407.518 521.588C407.412 520.937 407.188 520.391 406.847 519.95C406.506 519.509 406.088 519.2 405.596 519.021C405.112 518.83 404.602 518.778 404.066 518.866C403.53 518.953 403.062 519.158 402.661 519.482C402.261 519.806 401.969 520.231 401.785 520.757C401.601 521.284 401.562 521.872 401.668 522.524C401.775 523.186 402.001 523.742 402.344 524.193C402.685 524.634 403.098 524.95 403.582 525.141C404.064 525.321 404.573 525.368 405.109 525.281C405.645 525.193 406.113 524.988 406.514 524.664C406.923 524.328 407.219 523.896 407.403 523.37C407.586 522.834 407.624 522.24 407.518 521.588ZM414.231 515.934C414.977 515.812 415.655 515.869 416.265 516.104C416.885 516.338 417.372 516.679 417.726 517.128L417.469 515.552L418.919 515.316L420.355 524.143C420.483 524.931 420.429 525.657 420.192 526.321C419.957 526.996 419.552 527.558 418.978 528.007C418.414 528.455 417.717 528.746 416.887 528.881C415.753 529.066 414.763 528.952 413.919 528.539C413.076 528.126 412.51 527.469 412.223 526.566L413.642 526.335C413.885 526.835 414.279 527.202 414.824 527.437C415.371 527.683 415.991 527.749 416.685 527.636C417.473 527.508 418.074 527.157 418.487 526.582C418.911 526.006 419.051 525.272 418.905 524.379L418.61 522.566C418.409 523.117 418.057 523.605 417.555 524.032C417.052 524.459 416.428 524.733 415.682 524.855C414.915 524.979 414.186 524.904 413.494 524.628C412.812 524.351 412.237 523.9 411.769 523.275C411.3 522.65 410.995 521.901 410.853 521.029C410.71 520.147 410.763 519.345 411.012 518.625C411.26 517.895 411.664 517.295 412.224 516.826C412.795 516.356 413.464 516.058 414.231 515.934ZM418.169 519.855C418.063 519.204 417.84 518.658 417.498 518.217C417.157 517.776 416.74 517.467 416.247 517.288C415.763 517.097 415.253 517.045 414.717 517.133C414.181 517.22 413.713 517.425 413.313 517.749C412.912 518.073 412.62 518.498 412.436 519.024C412.252 519.551 412.213 520.139 412.319 520.791C412.427 521.453 412.652 522.009 412.995 522.461C413.337 522.901 413.749 523.217 414.233 523.408C414.716 523.588 415.225 523.635 415.761 523.548C416.297 523.46 416.765 523.255 417.165 522.931C417.574 522.595 417.871 522.163 418.055 521.637C418.237 521.101 418.275 520.507 418.169 519.855ZM429.873 517.628C429.917 517.901 429.948 518.192 429.966 518.502L423.063 519.625C423.254 520.468 423.651 521.088 424.255 521.486C424.868 521.872 425.553 522.003 426.309 521.88C426.929 521.779 427.421 521.553 427.785 521.203C428.157 520.84 428.388 520.404 428.478 519.893L430.022 519.642C429.926 520.509 429.574 521.262 428.966 521.901C428.356 522.528 427.537 522.926 426.507 523.093C425.687 523.227 424.922 523.163 424.211 522.901C423.51 522.637 422.921 522.199 422.444 521.587C421.965 520.963 421.653 520.205 421.507 519.312C421.362 518.419 421.413 517.607 421.661 516.876C421.909 516.146 422.324 515.55 422.907 515.088C423.499 514.614 424.215 514.309 425.055 514.172C425.875 514.039 426.629 514.1 427.318 514.354C428.006 514.609 428.57 515.024 429.009 515.6C429.456 516.164 429.744 516.839 429.873 517.628ZM428.342 517.569C428.253 517.023 428.056 516.575 427.752 516.225C427.445 515.865 427.065 515.62 426.612 515.488C426.168 515.345 425.694 515.314 425.19 515.396C424.465 515.514 423.882 515.846 423.443 516.392C423.014 516.937 422.829 517.625 422.889 518.456L428.342 517.569ZM435.728 518.843L435.551 517.755L439.837 509.195L441.555 508.915L442.776 516.418L444.352 516.162L444.555 517.407L442.979 517.663L443.392 520.201L441.973 520.432L441.56 517.894L435.728 518.843ZM440.444 510.633L437.181 517.328L441.421 516.639L440.444 510.633ZM445.454 513.895C445.16 512.088 445.225 510.632 445.65 509.527C446.072 508.413 447.019 507.735 448.49 507.496C449.951 507.258 451.058 507.601 451.812 508.525C452.565 509.438 453.088 510.798 453.382 512.605C453.681 514.444 453.62 515.921 453.197 517.036C452.775 518.151 451.833 518.827 450.372 519.065C448.901 519.304 447.789 518.962 447.034 518.039C446.28 517.115 445.753 515.734 445.454 513.895ZM451.964 512.836C451.815 511.922 451.626 511.16 451.398 510.55C451.178 509.928 450.847 509.453 450.406 509.126C449.975 508.797 449.407 508.69 448.703 508.804C447.988 508.92 447.474 509.204 447.159 509.654C446.854 510.103 446.691 510.658 446.669 511.319C446.656 511.969 446.724 512.75 446.873 513.664C447.027 514.61 447.213 515.394 447.433 516.016C447.664 516.637 447.994 517.111 448.425 517.44C448.867 517.768 449.445 517.873 450.16 517.757C450.864 517.642 451.368 517.361 451.672 516.912C451.987 516.462 452.151 515.907 452.162 515.247C452.184 514.585 452.118 513.782 451.964 512.836ZM455.538 515.62L455.361 514.532L459.647 505.972L461.365 505.692L462.586 513.195L464.162 512.939L464.364 514.184L462.788 514.44L463.201 516.978L461.783 517.209L461.37 514.671L455.538 515.62ZM460.253 507.41L456.99 514.105L461.23 513.416L460.253 507.41Z" fill="black"/>
<rect x="160.711" y="116.097" width="327.36" height="526.012" rx="9.31513" transform="rotate(-9.24098 160.711 116.097)" stroke="black" stroke-width="2.66147" shape-rendering="crispEdges"/>
</g>
<g filter="url(#filter3_d_3065_18994)">
<circle cx="586.969" cy="539.802" r="52.4425" transform="rotate(43.2782 586.969 539.802)" fill="#ECECEC"/>
<circle cx="586.969" cy="539.802" r="51.3576" transform="rotate(43.2782 586.969 539.802)" stroke="black" stroke-width="2.16987"/>
</g>
<path d="M584.743 540.505C587.121 538.77 590.248 538.547 592.653 537.151C595.189 535.693 596.213 531.245 591.877 529.232C589.037 527.913 586.643 529.416 585.228 530.925L581.726 527.072C584.581 524.046 589.252 522.477 593.975 524.669C597.924 526.503 599.795 529.558 600.127 532.449C600.406 534.928 599.418 538.861 596.354 540.707C592.957 542.746 590.603 542.756 588.671 544.188C587.892 544.766 587.49 545.192 586.335 547.679L581.478 545.424C582.07 544.106 582.859 541.878 584.743 540.505ZM584.088 554.807C583.23 556.656 581.015 557.466 579.166 556.608C577.318 555.75 576.507 553.535 577.366 551.686C578.224 549.838 580.439 549.027 582.287 549.886C584.136 550.744 584.946 552.959 584.088 554.807Z" fill="black"/>
<g filter="url(#filter4_d_3065_18994)">
<circle cx="65.0715" cy="323.621" r="58.9668" fill="#ECECEC" stroke="black" stroke-width="3.36953"/>
<path d="M56.459 315.958L53.0112 318.776L50.774 316.039L48.5429 317.863L45.2798 313.871L47.5109 312.048L39.6166 302.39L42.9349 299.678L59.5728 302.433L62.7155 306.278L54.2217 313.221L56.459 315.958ZM53.3621 313.135L61.8559 306.192L59.2457 302.998L43.1076 300.326L40.4762 302.477L48.3705 312.134L46.1394 313.958L48.6292 317.004L50.8603 315.18L53.0976 317.917L55.5994 315.872L53.3621 313.135ZM45.3579 303.343L56.5903 305.415L50.8723 310.089L45.3579 303.343ZM50.9587 309.229L55.1827 305.776L46.8849 304.246L50.9587 309.229ZM57.6941 329.458C53.2279 323.994 53.467 319.148 58.2505 315.237C63.0121 311.345 67.7902 312.087 72.2582 317.552C76.7095 322.998 76.4838 327.864 71.7409 331.741C66.9763 335.636 62.1438 334.901 57.6941 329.458ZM58.1671 329.071C62.4115 334.263 66.8622 334.94 71.3543 331.268C75.8239 327.614 76.0317 323.134 71.7852 317.939C67.522 312.724 63.1254 312.041 58.6371 315.71C54.1262 319.398 53.9061 323.858 58.1671 329.071ZM60.6493 327.042C58.0979 323.921 58.3191 321.051 61.1269 318.756C63.913 316.479 66.7503 316.845 69.303 319.968C71.8496 323.084 71.6383 325.954 68.8645 328.222C66.0689 330.507 63.1948 330.156 60.6493 327.042ZM61.1223 326.655C63.4579 329.513 65.9482 329.817 68.4779 327.749C70.9846 325.7 71.1675 323.214 68.83 320.355C66.4861 317.487 64.0322 317.17 61.5135 319.229C58.9719 321.307 58.7805 323.79 61.1223 326.655ZM84.2647 349.974L80.8169 352.792L78.5797 350.055L76.3486 351.879L73.0855 347.887L75.3166 346.063L67.4224 336.406L70.7406 333.694L87.3786 336.449L90.5212 340.294L82.0275 347.237L84.2647 349.974ZM81.1679 347.151L89.6617 340.207L87.0514 337.014L70.9133 334.341L68.2819 336.492L76.1762 346.15L73.9451 347.974L76.435 351.019L78.666 349.196L80.9033 351.933L83.4051 349.887L81.1679 347.151ZM73.1636 337.359L84.396 339.431L78.678 344.105L73.1636 337.359ZM78.7644 343.245L82.9885 339.792L74.6906 338.262L78.7644 343.245Z" fill="black"/>
</g>
<g filter="url(#filter5_d_3065_18994)">
<path d="M646.402 635.581C646.113 635.343 645.762 635.191 645.391 635.145C645.019 635.099 644.642 635.159 644.304 635.319C643.965 635.478 643.679 635.731 643.479 636.048C643.278 636.364 643.172 636.731 643.172 637.105V664.743C643.172 666.574 645.443 667.419 646.639 666.037L653.597 657.995C653.875 657.674 654.219 657.416 654.605 657.24C654.992 657.063 655.411 656.972 655.836 656.972H666.877C668.729 656.972 669.562 654.65 668.133 653.473L646.402 635.581Z" fill="black"/>
<path d="M642.528 635.445L643.479 636.048L642.528 635.445C642.213 635.942 642.047 636.517 642.047 637.105C642.047 637.105 642.047 637.105 642.047 637.105V664.743C642.047 667.616 645.611 668.943 647.49 666.773L647.49 666.773L654.448 658.731C654.448 658.731 654.448 658.731 654.448 658.731C654.448 658.731 654.448 658.731 654.448 658.731C654.62 658.532 654.833 658.373 655.073 658.263C655.312 658.154 655.573 658.097 655.836 658.097H655.836H666.877C669.784 658.097 671.093 654.453 668.848 652.605C668.848 652.605 668.848 652.605 668.848 652.604L647.118 634.712C647.118 634.712 647.118 634.712 647.118 634.712C647.117 634.712 647.117 634.712 647.117 634.712C646.664 634.338 646.113 634.101 645.53 634.029C644.947 633.956 644.355 634.05 643.824 634.301C643.292 634.552 642.843 634.949 642.528 635.445Z" stroke="white" stroke-width="2.25043"/>
</g>
<defs>
<filter id="filter0_d_3065_18994" x="484.923" y="112.515" width="103.797" height="110.451" filterUnits="userSpaceOnUse" color-interpolation-filters="sRGB">
<feFlood flood-opacity="0" result="BackgroundImageFix"/>
<feColorMatrix in="SourceAlpha" type="matrix" values="0 0 0 0 0 0 0 0 0 0 0 0 0 0 0 0 0 0 127 0" result="hardAlpha"/>
<feOffset dx="7.9844" dy="14.6381"/>
<feComposite in2="hardAlpha" operator="out"/>
<feColorMatrix type="matrix" values="0 0 0 0 0 0 0 0 0 0 0 0 0 0 0 0 0 0 1 0"/>
<feBlend mode="normal" in2="BackgroundImageFix" result="effect1_dropShadow_3065_18994"/>
<feBlend mode="normal" in="SourceGraphic" in2="effect1_dropShadow_3065_18994" result="shape"/>
</filter>
<filter id="filter1_d_3065_18994" x="145.876" y="0.234375" width="501.118" height="663.19" filterUnits="userSpaceOnUse" color-interpolation-filters="sRGB">
<feFlood flood-opacity="0" result="BackgroundImageFix"/>
<feColorMatrix in="SourceAlpha" type="matrix" values="0 0 0 0 0 0 0 0 0 0 0 0 0 0 0 0 0 0 127 0" result="hardAlpha"/>
<feOffset dx="-13.3073" dy="26.6147"/>
<feComposite in2="hardAlpha" operator="out"/>
<feColorMatrix type="matrix" values="0 0 0 0 0 0 0 0 0 0 0 0 0 0 0 0 0 0 1 0"/>
<feBlend mode="normal" in2="BackgroundImageFix" result="effect1_dropShadow_3065_18994"/>
<feBlend mode="normal" in="SourceGraphic" in2="effect1_dropShadow_3065_18994" result="shape"/>
</filter>
<filter id="filter2_b_3065_18994" x="205.784" y="138.348" width="68.5121" height="45.6644" filterUnits="userSpaceOnUse" color-interpolation-filters="sRGB">
<feFlood flood-opacity="0" result="BackgroundImageFix"/>
<feGaussianBlur in="BackgroundImageFix" stdDeviation="2.66147"/>
<feComposite in2="SourceAlpha" operator="in" result="effect1_backgroundBlur_3065_18994"/>
<feBlend mode="normal" in="SourceGraphic" in2="effect1_backgroundBlur_3065_18994" result="shape"/>
</filter>
<filter id="filter3_d_3065_18994" x="534.526" y="487.359" width="117.904" height="117.905" filterUnits="userSpaceOnUse" color-interpolation-filters="sRGB">
<feFlood flood-opacity="0" result="BackgroundImageFix"/>
<feColorMatrix in="SourceAlpha" type="matrix" values="0 0 0 0 0 0 0 0 0 0 0 0 0 0 0 0 0 0 127 0" result="hardAlpha"/>
<feOffset dx="13.0192" dy="13.0192"/>
<feComposite in2="hardAlpha" operator="out"/>
<feColorMatrix type="matrix" values="0 0 0 0 0 0 0 0 0 0 0 0 0 0 0 0 0 0 1 0"/>
<feBlend mode="normal" in2="BackgroundImageFix" result="effect1_dropShadow_3065_18994"/>
<feBlend mode="normal" in="SourceGraphic" in2="effect1_dropShadow_3065_18994" result="shape"/>
</filter>
<filter id="filter4_d_3065_18994" x="0.427724" y="262.97" width="125.295" height="135.941" filterUnits="userSpaceOnUse" color-interpolation-filters="sRGB">
<feFlood flood-opacity="0" result="BackgroundImageFix"/>
<feColorMatrix in="SourceAlpha" type="matrix" values="0 0 0 0 0 0 0 0 0 0 0 0 0 0 0 0 0 0 127 0" result="hardAlpha"/>
<feOffset dx="-3.9922" dy="14.6381"/>
<feComposite in2="hardAlpha" operator="out"/>
<feColorMatrix type="matrix" values="0 0 0 0 0 0 0 0 0 0 0 0 0 0 0 0 0 0 1 0"/>
<feBlend mode="normal" in2="BackgroundImageFix" result="effect1_dropShadow_3065_18994"/>
<feBlend mode="normal" in="SourceGraphic" in2="effect1_dropShadow_3065_18994" result="shape"/>
</filter>
<filter id="filter5_d_3065_18994" x="636.421" y="628.379" width="39.1912" height="45.0994" filterUnits="userSpaceOnUse" color-interpolation-filters="sRGB">
<feFlood flood-opacity="0" result="BackgroundImageFix"/>
<feColorMatrix in="SourceAlpha" type="matrix" values="0 0 0 0 0 0 0 0 0 0 0 0 0 0 0 0 0 0 127 0" result="hardAlpha"/>
<feOffset/>
<feGaussianBlur stdDeviation="2.25043"/>
<feComposite in2="hardAlpha" operator="out"/>
<feColorMatrix type="matrix" values="0 0 0 0 0 0 0 0 0 0 0 0 0 0 0 0 0 0 0.25 0"/>
<feBlend mode="normal" in2="BackgroundImageFix" result="effect1_dropShadow_3065_18994"/>
<feBlend mode="normal" in="SourceGraphic" in2="effect1_dropShadow_3065_18994" result="shape"/>
</filter>
<clipPath id="clip0_3065_18994">
<rect width="15.9688" height="15.9688" fill="white" transform="translate(270.524 534.158) rotate(-9.24098)"/>
</clipPath>
</defs>
</svg>
