<svg xmlns="http://www.w3.org/2000/svg" width="861" height="882" viewBox="0 0 861 882" fill="none">
<rect x="0.665039" y="147.255" width="409.735" height="673.724" rx="22.76" transform="rotate(-18.2177 0.665039 147.255)" fill="#600A75" fill-opacity="0.3"/>
<rect x="211.33" width="649" height="881.196" rx="22.7618" fill="#A571BE"/>
<path d="M276.403 86.9835C275.042 86.9835 273.809 86.7665 272.705 86.3325C271.62 85.8788 270.683 85.2081 269.894 84.3204C269.124 83.4327 268.532 82.3378 268.118 81.0358C267.704 79.7141 267.497 78.1853 267.497 76.4493C267.497 74.7133 267.704 73.1746 268.118 71.8332C268.532 70.4721 269.124 69.3378 269.894 68.4303C270.683 67.5032 271.62 66.8028 272.705 66.3294C273.809 65.856 275.042 65.6192 276.403 65.6192C278.258 65.6192 279.796 66.0138 281.02 66.8028C282.243 67.5919 283.219 68.7854 283.949 70.3833L280.605 72.1587C280.309 71.2315 279.826 70.4918 279.155 69.9394C278.485 69.3673 277.567 69.0813 276.403 69.0813C274.944 69.0813 273.78 69.5745 272.912 70.5608C272.063 71.5472 271.639 72.9281 271.639 74.7035V77.9584C271.639 79.7536 272.063 81.1345 272.912 82.1011C273.78 83.048 274.944 83.5214 276.403 83.5214C277.567 83.5214 278.514 83.2058 279.244 82.5745C279.994 81.9433 280.536 81.1641 280.872 80.2369L284.038 82.1011C283.288 83.6398 282.292 84.8431 281.049 85.7111C279.806 86.5594 278.258 86.9835 276.403 86.9835ZM293.258 86.9835C292.153 86.9835 291.157 86.7961 290.27 86.4213C289.402 86.0465 288.652 85.504 288.021 84.7938C287.409 84.0836 286.936 83.2354 286.6 82.249C286.265 81.243 286.097 80.1185 286.097 78.8757C286.097 77.6329 286.265 76.5184 286.6 75.532C286.936 74.5457 287.409 73.7073 288.021 73.0168C288.652 72.3067 289.402 71.7642 290.27 71.3894C291.157 71.0145 292.153 70.8271 293.258 70.8271C294.363 70.8271 295.359 71.0145 296.247 71.3894C297.135 71.7642 297.884 72.3067 298.496 73.0168C299.127 73.7073 299.61 74.5457 299.946 75.532C300.281 76.5184 300.449 77.6329 300.449 78.8757C300.449 80.1185 300.281 81.243 299.946 82.249C299.61 83.2354 299.127 84.0836 298.496 84.7938C297.884 85.504 297.135 86.0465 296.247 86.4213C295.359 86.7961 294.363 86.9835 293.258 86.9835ZM293.258 83.9357C294.264 83.9357 295.053 83.6299 295.625 83.0184C296.197 82.4069 296.484 81.5093 296.484 80.3257V77.4554C296.484 76.2915 296.197 75.4038 295.625 74.7923C295.053 74.1807 294.264 73.875 293.258 73.875C292.272 73.875 291.493 74.1807 290.921 74.7923C290.348 75.4038 290.062 76.2915 290.062 77.4554V80.3257C290.062 81.5093 290.348 82.4069 290.921 83.0184C291.493 83.6299 292.272 83.9357 293.258 83.9357ZM303.806 86.6284V71.1822H307.594V73.7566H307.742C308.038 72.9478 308.511 72.2573 309.162 71.6853C309.813 71.1132 310.721 70.8271 311.885 70.8271C312.95 70.8271 313.867 71.0836 314.637 71.5965C315.406 72.1094 315.978 72.8886 316.353 73.9341H316.412C316.688 73.0662 317.231 72.3363 318.039 71.7444C318.868 71.1329 319.904 70.8271 321.146 70.8271C322.665 70.8271 323.829 71.3499 324.638 72.3954C325.467 73.441 325.881 74.9303 325.881 76.8636V86.6284H322.093V77.2483C322.093 75.0388 321.265 73.9341 319.608 73.9341C319.233 73.9341 318.868 73.9933 318.513 74.1117C318.178 74.2103 317.872 74.3681 317.596 74.5851C317.339 74.7824 317.132 75.0388 316.974 75.3545C316.816 75.6504 316.737 76.0055 316.737 76.4197V86.6284H312.95V77.2483C312.95 75.0388 312.121 73.9341 310.464 73.9341C310.109 73.9341 309.754 73.9933 309.399 74.1117C309.064 74.2103 308.758 74.3681 308.482 74.5851C308.225 74.7824 308.008 75.0388 307.831 75.3545C307.673 75.6504 307.594 76.0055 307.594 76.4197V86.6284H303.806ZM330.074 86.6284V71.1822H333.861V73.7566H334.009C334.305 72.9478 334.779 72.2573 335.43 71.6853C336.081 71.1132 336.988 70.8271 338.152 70.8271C339.217 70.8271 340.134 71.0836 340.904 71.5965C341.673 72.1094 342.245 72.8886 342.62 73.9341H342.679C342.955 73.0662 343.498 72.3363 344.307 71.7444C345.135 71.1329 346.171 70.8271 347.414 70.8271C348.933 70.8271 350.097 71.3499 350.905 72.3954C351.734 73.441 352.148 74.9303 352.148 76.8636V86.6284H348.361V77.2483C348.361 75.0388 347.532 73.9341 345.875 73.9341C345.5 73.9341 345.135 73.9933 344.78 74.1117C344.445 74.2103 344.139 74.3681 343.863 74.5851C343.606 74.7824 343.399 75.0388 343.241 75.3545C343.084 75.6504 343.005 76.0055 343.005 76.4197V86.6284H339.217V77.2483C339.217 75.0388 338.389 73.9341 336.732 73.9341C336.376 73.9341 336.021 73.9933 335.666 74.1117C335.331 74.2103 335.025 74.3681 334.749 74.5851C334.493 74.7824 334.276 75.0388 334.098 75.3545C333.94 75.6504 333.861 76.0055 333.861 76.4197V86.6284H330.074ZM365.573 84.0541H365.425C365.287 84.4486 365.1 84.8234 364.863 85.1785C364.646 85.5138 364.36 85.8196 364.005 86.0958C363.67 86.372 363.255 86.589 362.762 86.7468C362.289 86.9046 361.736 86.9835 361.105 86.9835C359.507 86.9835 358.284 86.4607 357.436 85.4152C356.588 84.3697 356.163 82.8803 356.163 80.9471V71.1822H359.951V80.5624C359.951 81.6276 360.158 82.4463 360.572 83.0184C360.987 83.5707 361.648 83.8469 362.555 83.8469C362.93 83.8469 363.295 83.7976 363.65 83.699C364.025 83.6003 364.35 83.4524 364.626 83.2551C364.902 83.0381 365.129 82.7817 365.307 82.4858C365.484 82.1701 365.573 81.8052 365.573 81.3909V71.1822H369.361V86.6284H365.573V84.0541ZM373.737 86.6284V71.1822H377.524V73.7566H377.672C377.988 72.9281 378.481 72.2376 379.152 71.6853C379.842 71.1132 380.789 70.8271 381.993 70.8271C383.59 70.8271 384.814 71.3499 385.662 72.3954C386.51 73.441 386.934 74.9303 386.934 76.8636V86.6284H383.147V77.2483C383.147 76.1436 382.949 75.315 382.555 74.7627C382.16 74.2103 381.509 73.9341 380.602 73.9341C380.207 73.9341 379.823 73.9933 379.448 74.1117C379.093 74.2103 378.767 74.3681 378.471 74.5851C378.195 74.7824 377.968 75.0388 377.791 75.3545C377.613 75.6504 377.524 76.0055 377.524 76.4197V86.6284H373.737ZM393.027 68.9334C392.238 68.9334 391.665 68.7558 391.31 68.4007C390.975 68.0456 390.807 67.5919 390.807 67.0396V66.4478C390.807 65.8954 390.975 65.4417 391.31 65.0866C391.665 64.7315 392.238 64.554 393.027 64.554C393.796 64.554 394.358 64.7315 394.713 65.0866C395.068 65.4417 395.246 65.8954 395.246 66.4478V67.0396C395.246 67.5919 395.068 68.0456 394.713 68.4007C394.358 68.7558 393.796 68.9334 393.027 68.9334ZM391.133 71.1822H394.92V86.6284H391.133V71.1822ZM404.134 86.6284C402.832 86.6284 401.836 86.2931 401.145 85.6223C400.475 84.9319 400.139 83.9554 400.139 82.6929V74.2004H397.861V71.1822H399.044C399.616 71.1822 400.001 71.054 400.198 70.7976C400.415 70.5214 400.524 70.117 400.524 69.5843V66.9508H403.927V71.1822H407.093V74.2004H403.927V83.6102H406.856V86.6284H404.134ZM412.272 68.9334C411.483 68.9334 410.911 68.7558 410.556 68.4007C410.22 68.0456 410.053 67.5919 410.053 67.0396V66.4478C410.053 65.8954 410.22 65.4417 410.556 65.0866C410.911 64.7315 411.483 64.554 412.272 64.554C413.041 64.554 413.603 64.7315 413.959 65.0866C414.314 65.4417 414.491 65.8954 414.491 66.4478V67.0396C414.491 67.5919 414.314 68.0456 413.959 68.4007C413.603 68.7558 413.041 68.9334 412.272 68.9334ZM410.378 71.1822H414.166V86.6284H410.378V71.1822ZM424.8 86.9835C423.655 86.9835 422.63 86.7961 421.722 86.4213C420.834 86.0267 420.075 85.4843 419.444 84.7938C418.832 84.0836 418.359 83.2354 418.023 82.249C417.688 81.243 417.52 80.1185 417.52 78.8757C417.52 77.6527 417.678 76.548 417.994 75.5616C418.329 74.5753 418.803 73.7369 419.414 73.0464C420.026 72.3363 420.775 71.7938 421.663 71.419C422.551 71.0244 423.557 70.8271 424.681 70.8271C425.884 70.8271 426.93 71.0343 427.818 71.4485C428.705 71.8628 429.435 72.425 430.007 73.1352C430.579 73.8454 431.004 74.6739 431.28 75.6208C431.576 76.548 431.724 77.5442 431.724 78.6094V79.8522H421.456V80.2369C421.456 81.3613 421.771 82.2688 422.403 82.9592C423.034 83.6299 423.971 83.9653 425.214 83.9653C426.161 83.9653 426.93 83.768 427.522 83.3735C428.133 82.9789 428.676 82.4759 429.149 81.8644L431.191 84.1428C430.56 85.0305 429.692 85.7308 428.587 86.2437C427.502 86.7369 426.24 86.9835 424.8 86.9835ZM424.74 73.6678C423.734 73.6678 422.935 74.0032 422.344 74.6739C421.752 75.3446 421.456 76.2126 421.456 77.2779V77.5146H427.788V77.2483C427.788 76.183 427.522 75.3249 426.989 74.6739C426.476 74.0032 425.727 73.6678 424.74 73.6678ZM440.116 86.9835C438.636 86.9835 437.394 86.7369 436.388 86.2437C435.382 85.7308 434.494 85.0305 433.724 84.1428L436.033 81.894C436.605 82.5449 437.226 83.0578 437.897 83.4327C438.587 83.8075 439.376 83.9949 440.264 83.9949C441.171 83.9949 441.822 83.8371 442.217 83.5214C442.631 83.2058 442.838 82.7718 442.838 82.2194C442.838 81.7657 442.69 81.4106 442.394 81.1542C442.118 80.878 441.635 80.6906 440.945 80.592L439.406 80.3848C437.729 80.1678 436.447 79.6944 435.559 78.9645C434.691 78.2149 434.257 77.1299 434.257 75.7096C434.257 74.9599 434.395 74.2892 434.671 73.6974C434.948 73.0859 435.342 72.573 435.855 72.1587C436.368 71.7247 436.979 71.3992 437.69 71.1822C438.419 70.9455 439.228 70.8271 440.116 70.8271C440.866 70.8271 441.526 70.8863 442.099 71.0047C442.69 71.1033 443.223 71.2611 443.696 71.4781C444.17 71.6754 444.604 71.9319 444.998 72.2475C445.393 72.5434 445.778 72.8787 446.152 73.2536L443.933 75.4728C443.479 74.9994 442.937 74.6049 442.306 74.2892C441.674 73.9736 440.984 73.8158 440.234 73.8158C439.406 73.8158 438.804 73.9637 438.429 74.2596C438.074 74.5555 437.897 74.9402 437.897 75.4137C437.897 75.9266 438.045 76.3211 438.341 76.5973C438.656 76.8537 439.179 77.0411 439.909 77.1595L441.477 77.3666C444.811 77.8401 446.478 79.359 446.478 81.9235C446.478 82.6732 446.32 83.3636 446.005 83.9949C445.709 84.6064 445.284 85.139 444.732 85.5928C444.18 86.0267 443.509 86.372 442.72 86.6284C441.951 86.8651 441.083 86.9835 440.116 86.9835ZM465.071 86.9835C463.71 86.9835 462.477 86.7665 461.372 86.3325C460.287 85.8788 459.35 85.2081 458.561 84.3204C457.792 83.4327 457.2 82.3378 456.786 81.0358C456.372 79.7141 456.164 78.1853 456.164 76.4493C456.164 74.7133 456.372 73.1746 456.786 71.8332C457.2 70.4721 457.792 69.3378 458.561 68.4303C459.35 67.5032 460.287 66.8028 461.372 66.3294C462.477 65.856 463.71 65.6192 465.071 65.6192C466.925 65.6192 468.464 66.0138 469.687 66.8028C470.91 67.5919 471.887 68.7854 472.617 70.3833L469.273 72.1587C468.977 71.2315 468.494 70.4918 467.823 69.9394C467.152 69.3673 466.235 69.0813 465.071 69.0813C463.611 69.0813 462.447 69.5745 461.579 70.5608C460.731 71.5472 460.307 72.9281 460.307 74.7035V77.9584C460.307 79.7536 460.731 81.1345 461.579 82.1011C462.447 83.048 463.611 83.5214 465.071 83.5214C466.235 83.5214 467.182 83.2058 467.912 82.5745C468.661 81.9433 469.204 81.1641 469.539 80.2369L472.705 82.1011C471.956 83.6398 470.96 84.8431 469.717 85.7111C468.474 86.5594 466.925 86.9835 465.071 86.9835ZM475.801 86.6284V71.1822H479.588V74.378H479.736C479.835 73.9637 479.983 73.5692 480.18 73.1944C480.397 72.7998 480.673 72.4546 481.009 72.1587C481.344 71.8628 481.738 71.6261 482.192 71.4485C482.666 71.271 483.208 71.1822 483.82 71.1822H484.648V74.7627H483.465C482.182 74.7627 481.216 74.9501 480.565 75.3249C479.914 75.6997 479.588 76.3112 479.588 77.1595V86.6284H475.801ZM493.516 86.9835C492.372 86.9835 491.346 86.7961 490.439 86.4213C489.551 86.0267 488.792 85.4843 488.16 84.7938C487.549 84.0836 487.075 83.2354 486.74 82.249C486.405 81.243 486.237 80.1185 486.237 78.8757C486.237 77.6527 486.395 76.548 486.71 75.5616C487.046 74.5753 487.519 73.7369 488.131 73.0464C488.742 72.3363 489.492 71.7938 490.38 71.419C491.267 71.0244 492.273 70.8271 493.398 70.8271C494.601 70.8271 495.647 71.0343 496.534 71.4485C497.422 71.8628 498.152 72.425 498.724 73.1352C499.296 73.8454 499.72 74.6739 499.997 75.6208C500.292 76.548 500.44 77.5442 500.44 78.6094V79.8522H490.173V80.2369C490.173 81.3613 490.488 82.2688 491.119 82.9592C491.751 83.6299 492.688 83.9653 493.931 83.9653C494.877 83.9653 495.647 83.768 496.239 83.3735C496.85 82.9789 497.393 82.4759 497.866 81.8644L499.908 84.1428C499.277 85.0305 498.409 85.7308 497.304 86.2437C496.219 86.7369 494.956 86.9835 493.516 86.9835ZM493.457 73.6678C492.451 73.6678 491.652 74.0032 491.06 74.6739C490.468 75.3446 490.173 76.2126 490.173 77.2779V77.5146H496.505V77.2483C496.505 76.183 496.239 75.3249 495.706 74.6739C495.193 74.0032 494.443 73.6678 493.457 73.6678ZM515.136 86.6284C514.307 86.6284 513.646 86.3917 513.153 85.9182C512.68 85.4251 512.384 84.7741 512.265 83.9653H512.088C511.831 84.9714 511.309 85.7308 510.519 86.2437C509.73 86.7369 508.754 86.9835 507.59 86.9835C506.012 86.9835 504.799 86.5692 503.95 85.7407C503.102 84.9122 502.678 83.8075 502.678 82.4266C502.678 80.8287 503.25 79.6451 504.394 78.8757C505.538 78.0867 507.166 77.6921 509.277 77.6921H511.91V76.5677C511.91 75.6997 511.683 75.029 511.23 74.5555C510.776 74.0821 510.046 73.8454 509.04 73.8454C508.152 73.8454 507.432 74.0426 506.88 74.4372C506.347 74.812 505.893 75.2657 505.519 75.7983L503.27 73.7862C503.842 72.8985 504.601 72.1883 505.548 71.6557C506.495 71.1033 507.748 70.8271 509.306 70.8271C511.397 70.8271 512.985 71.3006 514.07 72.2475C515.155 73.1944 515.698 74.5555 515.698 76.331V83.6102H517.236V86.6284H515.136ZM508.862 84.2316C509.711 84.2316 510.431 84.0442 511.022 83.6694C511.614 83.2946 511.91 82.7422 511.91 82.0123V79.9706H509.484C507.511 79.9706 506.525 80.6018 506.525 81.8644V82.3674C506.525 82.9987 506.722 83.4721 507.117 83.7877C507.531 84.0836 508.113 84.2316 508.862 84.2316ZM525.009 86.6284C523.707 86.6284 522.711 86.2931 522.021 85.6223C521.35 84.9319 521.015 83.9554 521.015 82.6929V74.2004H518.736V71.1822H519.92C520.492 71.1822 520.877 71.054 521.074 70.7976C521.291 70.5214 521.399 70.117 521.399 69.5843V66.9508H524.802V71.1822H527.969V74.2004H524.802V83.6102H527.732V86.6284H525.009ZM533.148 68.9334C532.358 68.9334 531.786 68.7558 531.431 68.4007C531.096 68.0456 530.928 67.5919 530.928 67.0396V66.4478C530.928 65.8954 531.096 65.4417 531.431 65.0866C531.786 64.7315 532.358 64.554 533.148 64.554C533.917 64.554 534.479 64.7315 534.834 65.0866C535.189 65.4417 535.367 65.8954 535.367 66.4478V67.0396C535.367 67.5919 535.189 68.0456 534.834 68.4007C534.479 68.7558 533.917 68.9334 533.148 68.9334ZM531.254 71.1822H535.041V86.6284H531.254V71.1822ZM539.432 86.6284V71.1822H543.219V73.7566H543.367C543.683 72.9281 544.176 72.2376 544.847 71.6853C545.537 71.1132 546.484 70.8271 547.687 70.8271C549.285 70.8271 550.508 71.3499 551.357 72.3954C552.205 73.441 552.629 74.9303 552.629 76.8636V86.6284H548.841V77.2483C548.841 76.1436 548.644 75.315 548.25 74.7627C547.855 74.2103 547.204 73.9341 546.297 73.9341C545.902 73.9341 545.517 73.9933 545.143 74.1117C544.787 74.2103 544.462 74.3681 544.166 74.5851C543.89 74.7824 543.663 75.0388 543.485 75.3545C543.308 75.6504 543.219 76.0055 543.219 76.4197V86.6284H539.432ZM570.765 87.9304C570.765 88.7392 570.617 89.4494 570.321 90.0609C570.045 90.6922 569.581 91.2149 568.93 91.6292C568.279 92.0435 567.441 92.3591 566.415 92.5761C565.389 92.7931 564.136 92.9016 562.657 92.9016C561.355 92.9016 560.25 92.8128 559.343 92.6353C558.435 92.4775 557.686 92.2407 557.094 91.9251C556.522 91.6292 556.107 91.2544 555.851 90.8007C555.595 90.3469 555.466 89.834 555.466 89.262C555.466 88.394 555.703 87.7134 556.176 87.2202C556.67 86.7468 557.35 86.441 558.218 86.3029V85.9774C557.587 85.8196 557.094 85.5138 556.739 85.0601C556.403 84.5867 556.236 84.0343 556.236 83.4031C556.236 83.0085 556.315 82.6633 556.472 82.3674C556.63 82.0518 556.837 81.7855 557.094 81.5685C557.37 81.3515 557.676 81.1739 558.011 81.0358C558.346 80.878 558.702 80.7597 559.076 80.6807V80.5624C558.129 80.1284 557.419 79.5267 556.946 78.7574C556.492 77.988 556.265 77.0904 556.265 76.0646C556.265 74.4865 556.808 73.224 557.893 72.2771C558.978 71.3105 560.566 70.8271 562.657 70.8271C563.13 70.8271 563.594 70.8567 564.048 70.9159C564.521 70.9751 564.955 71.0737 565.35 71.2118V70.7088C565.35 69.2095 566.079 68.4599 567.539 68.4599H569.936V71.3598H566.651V71.774C567.46 72.2278 568.062 72.8196 568.457 73.5495C568.851 74.2794 569.048 75.1178 569.048 76.0646C569.048 77.6231 568.506 78.8757 567.421 79.8226C566.356 80.7695 564.768 81.243 562.657 81.243C561.749 81.243 560.96 81.1542 560.29 80.9767C559.994 81.1147 559.737 81.3021 559.52 81.5389C559.303 81.7559 559.195 82.032 559.195 82.3674C559.195 83.1368 559.865 83.5214 561.207 83.5214H565.35C567.243 83.5214 568.614 83.916 569.463 84.705C570.331 85.4744 570.765 86.5495 570.765 87.9304ZM567.214 88.3743C567.214 87.8811 567.016 87.4964 566.622 87.2202C566.227 86.944 565.547 86.806 564.58 86.806H559.313C558.78 87.2005 558.514 87.7331 558.514 88.4038C558.514 88.9957 558.761 89.4592 559.254 89.7946C559.747 90.1299 560.585 90.2976 561.769 90.2976H563.663C564.906 90.2976 565.803 90.1398 566.356 89.8242C566.928 89.5086 567.214 89.0252 567.214 88.3743ZM562.657 78.6686C564.511 78.6686 565.438 77.8795 565.438 76.3014V75.7983C565.438 74.2202 564.511 73.4311 562.657 73.4311C560.802 73.4311 559.875 74.2202 559.875 75.7983V76.3014C559.875 77.8795 560.802 78.6686 562.657 78.6686ZM588.201 86.9835C586.84 86.9835 585.607 86.7665 584.502 86.3325C583.417 85.8788 582.48 85.2081 581.691 84.3204C580.921 83.4327 580.33 82.3378 579.915 81.0358C579.501 79.7141 579.294 78.1853 579.294 76.4493C579.294 74.7133 579.501 73.1746 579.915 71.8332C580.33 70.4721 580.921 69.3378 581.691 68.4303C582.48 67.5032 583.417 66.8028 584.502 66.3294C585.607 65.856 586.84 65.6192 588.201 65.6192C590.055 65.6192 591.594 66.0138 592.817 66.8028C594.04 67.5919 595.016 68.7854 595.746 70.3833L592.403 72.1587C592.107 71.2315 591.623 70.4918 590.953 69.9394C590.282 69.3673 589.365 69.0813 588.201 69.0813C586.741 69.0813 585.577 69.5745 584.709 70.5608C583.861 71.5472 583.437 72.9281 583.437 74.7035V77.9584C583.437 79.7536 583.861 81.1345 584.709 82.1011C585.577 83.048 586.741 83.5214 588.201 83.5214C589.365 83.5214 590.312 83.2058 591.041 82.5745C591.791 81.9433 592.334 81.1641 592.669 80.2369L595.835 82.1011C595.085 83.6398 594.089 84.8431 592.846 85.7111C591.604 86.5594 590.055 86.9835 588.201 86.9835ZM598.93 64.7315H602.718V73.7566H602.866C603.181 72.9281 603.675 72.2376 604.345 71.6853C605.036 71.1132 605.983 70.8271 607.186 70.8271C608.784 70.8271 610.007 71.3499 610.855 72.3954C611.703 73.441 612.128 74.9303 612.128 76.8636V86.6284H608.34V77.2483C608.34 76.1436 608.143 75.315 607.748 74.7627C607.354 74.2103 606.703 73.9341 605.795 73.9341C605.401 73.9341 605.016 73.9933 604.641 74.1117C604.286 74.2103 603.961 74.3681 603.665 74.5851C603.389 74.7824 603.162 75.0388 602.984 75.3545C602.807 75.6504 602.718 76.0055 602.718 76.4197V86.6284H598.93V64.7315ZM627.689 86.6284C626.86 86.6284 626.199 86.3917 625.706 85.9182C625.233 85.4251 624.937 84.7741 624.819 83.9653H624.641C624.385 84.9714 623.862 85.7308 623.073 86.2437C622.284 86.7369 621.307 86.9835 620.143 86.9835C618.565 86.9835 617.352 86.5692 616.504 85.7407C615.655 84.9122 615.231 83.8075 615.231 82.4266C615.231 80.8287 615.803 79.6451 616.948 78.8757C618.092 78.0867 619.719 77.6921 621.83 77.6921H624.464V76.5677C624.464 75.6997 624.237 75.029 623.783 74.5555C623.329 74.0821 622.599 73.8454 621.593 73.8454C620.706 73.8454 619.986 74.0426 619.433 74.4372C618.901 74.812 618.447 75.2657 618.072 75.7983L615.823 73.7862C616.395 72.8985 617.155 72.1883 618.102 71.6557C619.048 71.1033 620.301 70.8271 621.86 70.8271C623.951 70.8271 625.539 71.3006 626.624 72.2475C627.709 73.1944 628.251 74.5555 628.251 76.331V83.6102H629.79V86.6284H627.689ZM621.416 84.2316C622.264 84.2316 622.984 84.0442 623.576 83.6694C624.168 83.2946 624.464 82.7422 624.464 82.0123V79.9706H622.037C620.064 79.9706 619.078 80.6018 619.078 81.8644V82.3674C619.078 82.9987 619.275 83.4721 619.67 83.7877C620.084 84.0836 620.666 84.2316 621.416 84.2316ZM632.855 86.6284V71.1822H636.643V73.7566H636.791C637.106 72.9281 637.599 72.2376 638.27 71.6853C638.961 71.1132 639.908 70.8271 641.111 70.8271C642.709 70.8271 643.932 71.3499 644.78 72.3954C645.628 73.441 646.052 74.9303 646.052 76.8636V86.6284H642.265V77.2483C642.265 76.1436 642.068 75.315 641.673 74.7627C641.279 74.2103 640.628 73.9341 639.72 73.9341C639.326 73.9341 638.941 73.9933 638.566 74.1117C638.211 74.2103 637.886 74.3681 637.59 74.5851C637.313 74.7824 637.087 75.0388 636.909 75.3545C636.731 75.6504 636.643 76.0055 636.643 76.4197V86.6284H632.855ZM664.188 87.9304C664.188 88.7392 664.04 89.4494 663.744 90.0609C663.468 90.6922 663.005 91.2149 662.354 91.6292C661.703 92.0435 660.864 92.3591 659.838 92.5761C658.813 92.7931 657.56 92.9016 656.08 92.9016C654.778 92.9016 653.674 92.8128 652.766 92.6353C651.859 92.4775 651.109 92.2407 650.517 91.9251C649.945 91.6292 649.531 91.2544 649.275 90.8007C649.018 90.3469 648.89 89.834 648.89 89.262C648.89 88.394 649.127 87.7134 649.6 87.2202C650.093 86.7468 650.774 86.441 651.642 86.3029V85.9774C651.011 85.8196 650.517 85.5138 650.162 85.0601C649.827 84.5867 649.659 84.0343 649.659 83.4031C649.659 83.0085 649.738 82.6633 649.896 82.3674C650.054 82.0518 650.261 81.7855 650.517 81.5685C650.794 81.3515 651.099 81.1739 651.435 81.0358C651.77 80.878 652.125 80.7597 652.5 80.6807V80.5624C651.553 80.1284 650.843 79.5267 650.369 78.7574C649.916 77.988 649.689 77.0904 649.689 76.0646C649.689 74.4865 650.231 73.224 651.316 72.2771C652.401 71.3105 653.989 70.8271 656.08 70.8271C656.554 70.8271 657.017 70.8567 657.471 70.9159C657.945 70.9751 658.379 71.0737 658.773 71.2118V70.7088C658.773 69.2095 659.503 68.4599 660.963 68.4599H663.36V71.3598H660.075V71.774C660.884 72.2278 661.486 72.8196 661.88 73.5495C662.275 74.2794 662.472 75.1178 662.472 76.0646C662.472 77.6231 661.929 78.8757 660.844 79.8226C659.779 80.7695 658.191 81.243 656.08 81.243C655.173 81.243 654.384 81.1542 653.713 80.9767C653.417 81.1147 653.161 81.3021 652.944 81.5389C652.727 81.7559 652.618 82.032 652.618 82.3674C652.618 83.1368 653.289 83.5214 654.63 83.5214H658.773C660.667 83.5214 662.038 83.916 662.886 84.705C663.754 85.4744 664.188 86.5495 664.188 87.9304ZM660.637 88.3743C660.637 87.8811 660.44 87.4964 660.046 87.2202C659.651 86.944 658.97 86.806 658.004 86.806H652.737C652.204 87.2005 651.938 87.7331 651.938 88.4038C651.938 88.9957 652.184 89.4592 652.678 89.7946C653.171 90.1299 654.009 90.2976 655.193 90.2976H657.086C658.329 90.2976 659.227 90.1398 659.779 89.8242C660.351 89.5086 660.637 89.0252 660.637 88.3743ZM656.08 78.6686C657.935 78.6686 658.862 77.8795 658.862 76.3014V75.7983C658.862 74.2202 657.935 73.4311 656.08 73.4311C654.226 73.4311 653.299 74.2202 653.299 75.7983V76.3014C653.299 77.8795 654.226 78.6686 656.08 78.6686ZM672.446 86.9835C671.302 86.9835 670.276 86.7961 669.368 86.4213C668.481 86.0267 667.721 85.4843 667.09 84.7938C666.478 84.0836 666.005 83.2354 665.67 82.249C665.334 81.243 665.167 80.1185 665.167 78.8757C665.167 77.6527 665.324 76.548 665.64 75.5616C665.975 74.5753 666.449 73.7369 667.06 73.0464C667.672 72.3363 668.421 71.7938 669.309 71.419C670.197 71.0244 671.203 70.8271 672.327 70.8271C673.531 70.8271 674.576 71.0343 675.464 71.4485C676.352 71.8628 677.082 72.425 677.654 73.1352C678.226 73.8454 678.65 74.6739 678.926 75.6208C679.222 76.548 679.37 77.5442 679.37 78.6094V79.8522H669.102V80.2369C669.102 81.3613 669.418 82.2688 670.049 82.9592C670.68 83.6299 671.617 83.9653 672.86 83.9653C673.807 83.9653 674.576 83.768 675.168 83.3735C675.78 82.9789 676.322 82.4759 676.796 81.8644L678.837 84.1428C678.206 85.0305 677.338 85.7308 676.233 86.2437C675.148 86.7369 673.886 86.9835 672.446 86.9835ZM672.387 73.6678C671.38 73.6678 670.582 74.0032 669.99 74.6739C669.398 75.3446 669.102 76.2126 669.102 77.2779V77.5146H675.434V77.2483C675.434 76.183 675.168 75.3249 674.635 74.6739C674.123 74.0032 673.373 73.6678 672.387 73.6678Z" fill="#FFC4C9"/>
<path d="M269.567 142.376H287.786C292.713 142.376 296.494 142.763 299.13 143.537C301.794 144.31 303.785 145.427 305.103 146.888C306.449 148.349 307.351 150.125 307.81 152.216C308.297 154.279 308.54 157.487 308.54 161.841V167.9C308.54 172.34 308.082 175.577 307.165 177.611C306.248 179.645 304.558 181.206 302.095 182.294C299.66 183.383 296.466 183.927 292.513 183.927H287.657V211.943H269.567V142.376ZM287.657 154.279V171.982C288.173 172.011 288.617 172.025 288.989 172.025C290.651 172.025 291.797 171.624 292.427 170.822C293.086 169.991 293.415 168.287 293.415 165.708V159.994C293.415 157.616 293.043 156.069 292.298 155.353C291.553 154.637 290.006 154.279 287.657 154.279ZM343.881 142.376L354.237 211.943H335.717L334.815 199.439H328.327L327.252 211.943H308.518L317.713 142.376H343.881ZM334.299 187.107C333.383 179.229 332.466 169.504 331.549 157.931C329.716 171.223 328.57 180.948 328.112 187.107H334.299ZM399.976 167.986H381.887V161.669C381.887 157.688 381.715 155.195 381.371 154.193C381.027 153.19 380.211 152.689 378.922 152.689C377.805 152.689 377.045 153.119 376.644 153.978C376.243 154.837 376.043 157.043 376.043 160.595V193.982C376.043 197.104 376.243 199.167 376.644 200.169C377.045 201.143 377.847 201.63 379.051 201.63C380.368 201.63 381.256 201.072 381.715 199.955C382.202 198.837 382.445 196.66 382.445 193.423V185.173H378.793V174.603H399.976V211.943H388.59L386.914 206.958C385.682 209.107 384.121 210.725 382.23 211.814C380.368 212.874 378.163 213.404 375.613 213.404C372.577 213.404 369.726 212.673 367.062 211.212C364.427 209.723 362.422 207.889 361.047 205.712C359.672 203.535 358.812 201.258 358.469 198.88C358.125 196.474 357.953 192.879 357.953 188.095V167.427C357.953 160.781 358.311 155.955 359.027 152.947C359.743 149.939 361.791 147.189 365.172 144.697C368.581 142.176 372.978 140.916 378.363 140.916C383.663 140.916 388.06 142.004 391.555 144.181C395.049 146.358 397.327 148.951 398.387 151.958C399.446 154.938 399.976 159.278 399.976 164.978V167.986ZM408.161 142.376H438.325V156.298H426.251V169.49H437.552V182.724H426.251V198.021H439.529V211.943H408.161V142.376ZM502.992 142.376V211.943H487.137L477.727 180.318V211.943H462.602V142.376H477.727L487.867 173.701V142.376H502.992ZM552.771 183.111C552.771 190.1 552.599 195.056 552.255 197.978C551.94 200.871 550.909 203.521 549.162 205.927C547.443 208.333 545.108 210.181 542.158 211.47C539.207 212.759 535.77 213.404 531.845 213.404C528.121 213.404 524.77 212.802 521.79 211.599C518.84 210.367 516.462 208.534 514.658 206.099C512.853 203.664 511.779 201.014 511.435 198.15C511.091 195.285 510.919 190.272 510.919 183.111V171.208C510.919 164.219 511.077 159.278 511.392 156.384C511.736 153.462 512.767 150.798 514.486 148.392C516.233 145.986 518.582 144.138 521.533 142.849C524.483 141.56 527.921 140.916 531.845 140.916C535.569 140.916 538.906 141.531 541.857 142.763C544.836 143.966 547.228 145.785 549.033 148.22C550.837 150.655 551.912 153.305 552.255 156.169C552.599 159.034 552.771 164.047 552.771 171.208V183.111ZM534.681 160.251C534.681 157.014 534.495 154.952 534.122 154.064C533.779 153.147 533.048 152.689 531.931 152.689C530.986 152.689 530.255 153.061 529.74 153.806C529.253 154.522 529.009 156.671 529.009 160.251V192.736C529.009 196.775 529.167 199.267 529.482 200.212C529.826 201.158 530.599 201.63 531.802 201.63C533.034 201.63 533.822 201.086 534.165 199.998C534.509 198.909 534.681 196.317 534.681 192.22V160.251ZM597.136 142.376V156.298H586.393V211.943H568.304V156.298H557.604V142.376H597.136ZM269.567 249.376H300.204V263.298H287.657V276.49H298.829V289.724H287.657V318.943H269.567V249.376ZM347.104 290.111C347.104 297.1 346.932 302.056 346.588 304.978C346.273 307.871 345.242 310.521 343.495 312.927C341.776 315.333 339.441 317.181 336.491 318.47C333.54 319.759 330.103 320.404 326.178 320.404C322.454 320.404 319.103 319.802 316.123 318.599C313.173 317.367 310.795 315.534 308.991 313.099C307.186 310.664 306.112 308.014 305.768 305.15C305.424 302.285 305.252 297.272 305.252 290.111V278.208C305.252 271.219 305.41 266.278 305.725 263.384C306.069 260.462 307.1 257.798 308.819 255.392C310.566 252.986 312.915 251.138 315.866 249.849C318.816 248.56 322.254 247.916 326.178 247.916C329.902 247.916 333.239 248.531 336.19 249.763C339.169 250.966 341.561 252.785 343.366 255.22C345.17 257.655 346.245 260.305 346.588 263.169C346.932 266.034 347.104 271.047 347.104 278.208V290.111ZM329.014 267.251C329.014 264.014 328.828 261.952 328.455 261.064C328.112 260.147 327.381 259.689 326.264 259.689C325.319 259.689 324.588 260.061 324.073 260.806C323.586 261.522 323.342 263.671 323.342 267.251V299.736C323.342 303.775 323.5 306.267 323.815 307.212C324.159 308.158 324.932 308.63 326.135 308.63C327.367 308.63 328.155 308.086 328.498 306.998C328.842 305.909 329.014 303.317 329.014 299.22V267.251ZM396.152 249.376V295.869C396.152 301.139 395.98 304.849 395.637 306.998C395.293 309.117 394.276 311.309 392.586 313.572C390.896 315.806 388.661 317.511 385.883 318.685C383.133 319.831 379.881 320.404 376.129 320.404C371.975 320.404 368.308 319.716 365.129 318.341C361.949 316.966 359.571 315.176 357.996 312.97C356.42 310.764 355.489 308.444 355.203 306.009C354.916 303.546 354.773 298.389 354.773 290.541V249.376H372.863V301.541C372.863 304.577 373.021 306.525 373.336 307.384C373.68 308.215 374.353 308.63 375.355 308.63C376.501 308.63 377.232 308.172 377.547 307.255C377.89 306.31 378.062 304.104 378.062 300.638V249.376H396.152ZM444.685 249.376V318.943H428.829L419.419 287.318V318.943H404.294V249.376H419.419L429.56 280.701V249.376H444.685ZM453.128 249.376H466.663C475.4 249.376 481.301 249.778 484.366 250.58C487.46 251.382 489.809 252.699 491.413 254.533C493.017 256.366 494.019 258.414 494.421 260.677C494.822 262.912 495.022 267.323 495.022 273.912V298.275C495.022 304.52 494.721 308.702 494.12 310.822C493.547 312.913 492.53 314.56 491.069 315.763C489.608 316.938 487.803 317.768 485.655 318.255C483.506 318.714 480.269 318.943 475.944 318.943H453.128V249.376ZM471.217 261.279V307.041C473.824 307.041 475.428 306.525 476.03 305.494C476.631 304.434 476.932 301.583 476.932 296.943V269.916C476.932 266.764 476.832 264.745 476.631 263.857C476.431 262.969 475.973 262.324 475.256 261.923C474.54 261.494 473.194 261.279 471.217 261.279Z" fill="white"/>
<g clip-path="url(#clip0_491_5270)">
<path d="M491.828 711.32H412.515C392.934 711.32 389.194 715.94 397.444 719.35C405.695 722.76 366.203 721.11 359.493 727.16C352.673 733.211 370.053 735.521 388.864 735.521H540.01C555.08 735.521 551.34 724.52 542.32 723.09C533.299 721.66 556.95 723.64 565.971 720.45C574.991 717.26 568.501 711.32 491.828 711.32Z" fill="#99ADF9"/>
<path d="M607.553 731.45C605.242 734.641 597.542 735.411 584.452 735.081C574.551 734.751 564.211 733.981 564.211 729.36C564.211 724.74 589.402 725.29 598.202 726.28C605.792 727.16 608.873 729.58 607.553 731.45Z" fill="#C5D3FF"/>
<path d="M379.622 716.05C378.082 718.36 372.801 719.02 363.561 719.02C356.631 719.02 349.37 718.69 349.15 715.5C348.93 712.2 366.641 712.09 372.911 712.64C378.192 713.08 380.502 714.62 379.622 716.05Z" fill="#C5D3FF"/>
<path d="M766.948 708.57H727.677C726.191 708.564 724.767 707.971 723.716 706.92C722.666 705.869 722.072 704.446 722.066 702.96V662.368C722.072 660.882 722.666 659.459 723.716 658.408C724.767 657.357 726.191 656.764 727.677 656.758H766.948C768.434 656.764 769.858 657.357 770.908 658.408C771.959 659.459 772.552 660.882 772.558 662.368V702.96C772.552 704.446 771.959 705.869 770.908 706.92C769.858 707.971 768.434 708.564 766.948 708.57Z" fill="#C5DFFF"/>
<path d="M765.078 706.7H727.347C725.918 706.697 724.548 706.129 723.538 705.118C722.528 704.108 721.959 702.738 721.957 701.309V662.148C721.959 660.719 722.528 659.349 723.538 658.339C724.548 657.329 725.918 656.76 727.347 656.758H765.078C766.507 656.76 767.877 657.329 768.887 658.339C769.897 659.349 770.466 660.719 770.468 662.148V701.309C770.466 702.738 769.897 704.108 768.887 705.118C767.877 706.129 766.507 706.697 765.078 706.7Z" fill="#E1ECFF"/>
<path d="M746.597 698.009C755.346 698.009 762.438 690.917 762.438 682.169C762.438 673.42 755.346 666.328 746.597 666.328C737.849 666.328 730.757 673.42 730.757 682.169C730.757 690.917 737.849 698.009 746.597 698.009Z" fill="#C5DFFF"/>
<path d="M740.327 689.319C740.065 689.319 739.813 689.215 739.627 689.029C739.442 688.843 739.337 688.591 739.337 688.329V676.118C739.337 675.856 739.442 675.604 739.627 675.418C739.813 675.233 740.065 675.128 740.327 675.128V675.128C740.59 675.128 740.842 675.233 741.028 675.418C741.213 675.604 741.317 675.856 741.317 676.118V688.329C741.317 688.591 741.213 688.843 741.028 689.029C740.842 689.215 740.59 689.319 740.327 689.319Z" fill="#1C3177"/>
<path d="M751.767 689.319C751.505 689.319 751.253 689.215 751.067 689.029C750.882 688.843 750.777 688.591 750.777 688.329V676.118C750.777 675.856 750.882 675.604 751.067 675.418C751.253 675.233 751.505 675.128 751.767 675.128V675.128C752.03 675.128 752.282 675.233 752.467 675.418C752.653 675.604 752.757 675.856 752.757 676.118V688.329C752.757 688.591 752.653 688.843 752.467 689.029C752.282 689.215 752.03 689.319 751.767 689.319Z" fill="#1C3177"/>
<path d="M650.674 639.927C649.902 639.945 649.13 639.908 648.364 639.817C631.313 638.607 619.653 632.777 600.072 602.965C593.252 592.625 588.632 582.065 584.121 571.834C576.421 554.344 569.821 539.163 554.86 532.123C531.87 521.342 509.319 539.163 509.099 539.383C508.63 539.748 508.038 539.914 507.448 539.847C506.859 539.78 506.319 539.484 505.945 539.024C505.571 538.563 505.392 537.974 505.447 537.383C505.502 536.793 505.786 536.247 506.239 535.863C507.229 535.093 531.21 516.062 556.73 528.053C573.231 535.753 580.491 552.364 588.192 569.964C592.592 580.085 597.212 590.535 603.812 600.435C622.403 628.596 633.073 634.097 648.694 635.307C660.354 636.187 666.625 629.146 672.675 622.216C674.698 619.848 676.865 617.607 679.165 615.506C684.476 610.875 690.935 607.759 697.866 606.486C698.155 606.442 698.449 606.456 698.733 606.527C699.016 606.597 699.283 606.723 699.518 606.897C699.753 607.07 699.951 607.289 700.102 607.539C700.253 607.789 700.352 608.067 700.396 608.356C700.439 608.645 700.425 608.939 700.355 609.223C700.284 609.506 700.158 609.773 699.985 610.008C699.811 610.243 699.593 610.441 699.343 610.592C699.092 610.743 698.815 610.842 698.526 610.886C692.468 612.126 686.827 614.89 682.135 618.916C679.983 620.871 677.962 622.966 676.085 625.186C669.925 632.227 663.104 639.927 650.674 639.927Z" fill="#1C3177"/>
<path d="M714.697 598.895L723.937 591.085C724.158 590.897 724.415 590.757 724.692 590.671C724.968 590.586 725.26 590.558 725.548 590.589C725.836 590.62 726.115 590.709 726.368 590.851C726.62 590.993 726.841 591.185 727.017 591.415C727.342 591.842 727.488 592.378 727.427 592.911C727.365 593.444 727.1 593.933 726.687 594.275L717.337 602.525L714.697 598.895Z" fill="#1C3177"/>
<path d="M708.977 592.295L718.217 584.485C718.438 584.297 718.694 584.157 718.971 584.071C719.248 583.986 719.54 583.958 719.828 583.989C720.116 584.02 720.395 584.109 720.647 584.251C720.9 584.393 721.121 584.585 721.297 584.815C721.621 585.242 721.768 585.778 721.707 586.311C721.645 586.844 721.38 587.333 720.967 587.675L711.617 595.925L708.977 592.295Z" fill="#1C3177"/>
<path d="M721.187 602.966C718.312 606.245 715.225 609.331 711.947 612.206C706.336 617.046 699.076 616.166 695.776 612.426C695.556 612.206 695.446 611.986 695.226 611.766C693.696 609.823 692.978 607.361 693.224 604.9C693.47 602.438 694.661 600.168 696.546 598.566C701.056 594.386 708.536 588.445 708.536 588.445L717.557 598.896L721.187 602.966Z" fill="#E1ECFF"/>
<path d="M721.187 602.966C718.312 606.245 715.226 609.331 711.947 612.206C706.336 617.046 699.076 616.166 695.776 612.426C695.556 612.206 695.446 611.986 695.226 611.766C699.208 611.782 703.107 610.635 706.446 608.466C710.372 605.586 714.052 602.385 717.447 598.896L721.187 602.966Z" fill="#C5DFFF"/>
<path d="M552.88 687.229H552.44C544.96 687.119 525.489 672.488 520.539 665.668C515.479 658.848 510.969 650.157 517.129 644.547C518.539 643.363 520.255 642.6 522.079 642.347C525.453 641.819 528.903 642.564 531.759 644.437C537.039 647.847 551.89 665.118 556.07 672.488C560.14 679.748 560.03 687.119 552.88 687.229Z" fill="#1C3177"/>
<path d="M552.88 687.229C553.98 686.569 554.75 685.469 555.41 683.268C556.51 679.418 552.66 671.718 540.01 656.977C532.419 648.067 525.929 644.107 522.079 642.347C525.453 641.819 528.903 642.564 531.759 644.437C537.04 647.847 551.89 665.118 556.07 672.488C560.141 679.748 560.031 687.119 552.88 687.229Z" fill="#384D89"/>
<path d="M515.699 649.278C516.799 646.198 523.179 646.748 528.679 652.138C534.18 657.528 542.54 668.199 540.45 672.819C538.36 677.439 530.439 673.699 523.949 667.319C517.459 660.939 513.939 654.228 515.699 649.278Z" fill="#142966"/>
<path d="M529.56 663.028C529.471 665.024 528.945 666.977 528.02 668.748C528.02 668.748 498.428 682.828 461.357 656.978C423.626 630.687 423.516 597.905 423.516 597.575C442.876 578.655 464.657 599.445 464.657 599.445C465.819 607.662 468.27 615.643 471.917 623.096C475.328 629.917 480.278 636.847 487.318 641.467C497.922 648.357 510.649 651.206 523.179 649.497C523.179 649.497 526.699 650.597 528.79 657.308C529.508 659.123 529.773 661.087 529.56 663.028Z" fill="#E1ECFF"/>
<path d="M529.56 663.028C529.471 665.024 528.945 666.977 528.02 668.748C528.02 668.748 498.428 682.828 461.357 656.978C423.626 630.687 423.516 597.905 423.516 597.575C442.876 578.655 464.657 599.445 464.657 599.445C465.819 607.662 468.27 615.643 471.917 623.096C469.015 625.362 465.789 627.179 462.347 628.486C458.255 629.588 454.043 630.179 449.807 630.247C449.807 630.247 468.397 658.078 495.898 663.138C510.749 665.668 522.189 664.568 529.56 663.028Z" fill="#C5DFFF"/>
<path d="M488.087 668.636C487.79 668.635 487.501 668.538 487.263 668.359C487.025 668.181 486.851 667.931 486.767 667.646C486.698 667.466 486.665 667.273 486.672 667.08C486.679 666.887 486.725 666.698 486.808 666.523C486.89 666.348 487.007 666.192 487.151 666.064C487.295 665.935 487.464 665.837 487.647 665.776C487.757 665.776 493.697 663.466 495.457 658.626C496.583 655.781 496.7 652.636 495.787 649.715C495.65 649.364 495.653 648.974 495.797 648.626C495.94 648.277 496.213 647.998 496.557 647.845C496.908 647.708 497.299 647.711 497.647 647.855C497.995 647.998 498.275 648.271 498.427 648.615C499.58 652.212 499.464 656.095 498.097 659.616C495.787 665.776 488.857 668.306 488.527 668.416C488.484 668.492 488.419 668.554 488.341 668.593C488.262 668.632 488.174 668.647 488.087 668.636Z" fill="#C5DFFF"/>
<path d="M462.567 657.308C462.386 657.316 462.205 657.289 462.035 657.227C461.864 657.166 461.708 657.07 461.575 656.948C461.442 656.825 461.335 656.676 461.259 656.512C461.184 656.347 461.142 656.169 461.137 655.988C461.133 655.615 461.265 655.253 461.507 654.97C461.75 654.686 462.088 654.501 462.457 654.448C462.567 654.448 470.267 653.897 474.117 648.837C476.417 645.876 477.691 642.246 477.747 638.497C477.718 638.118 477.841 637.742 478.088 637.454C478.336 637.165 478.688 636.986 479.067 636.957C479.447 636.928 479.822 637.05 480.111 637.298C480.4 637.545 480.578 637.898 480.608 638.277C480.664 642.741 479.189 647.089 476.427 650.597C471.697 656.648 463.007 657.198 462.567 657.308Z" fill="#C5DFFF"/>
<path d="M410.425 636.515C409.963 637.574 409.372 638.572 408.665 639.485C407.438 641.076 405.856 642.357 404.045 643.226C402.8 643.867 401.465 644.312 400.085 644.546C400.085 644.546 384.574 629.475 371.043 602.634C357.513 575.903 356.523 545.102 356.523 545.102C357.663 544.483 358.838 543.932 360.043 543.452C363.604 542.04 367.472 541.584 371.263 542.132C374.068 542.482 376.766 543.419 379.184 544.882C379.184 544.882 380.064 570.403 389.084 593.394C398.104 616.495 411.305 630.135 411.305 630.135C411.585 632.302 411.281 634.505 410.425 636.515Z" fill="#E1ECFF"/>
<path d="M410.425 636.516C405.585 632.226 396.344 622.436 387.434 603.515C376.764 580.854 372.474 551.703 371.374 542.133C374.178 542.483 376.876 543.42 379.294 544.883C379.294 544.883 380.174 570.404 389.194 593.395C398.215 616.496 411.415 630.136 411.415 630.136C411.621 632.312 411.281 634.505 410.425 636.516Z" fill="#F8FBFF"/>
<path d="M404.045 643.227C402.8 643.868 401.465 644.313 400.085 644.547C400.085 644.547 384.574 629.476 371.043 602.635C357.513 575.904 356.523 545.103 356.523 545.103C357.663 544.484 358.838 543.934 360.043 543.453C360.813 553.353 364.443 585.915 379.844 611.436C390.404 628.816 398.875 638.277 404.045 643.227Z" fill="#C5DFFF"/>
<path d="M434.736 659.068C430.939 661.125 426.541 661.787 422.306 660.938C415.596 659.398 413.066 657.198 413.066 657.198C413.066 657.198 410.865 653.898 412.516 652.028L412.736 651.808C414.153 650.634 415.865 649.873 417.686 649.607C419.779 651.245 422.071 652.613 424.506 653.678C427.366 654.668 432.426 653.678 434.296 654.888C434.667 655.158 434.948 655.533 435.105 655.964C435.262 656.395 435.286 656.863 435.176 657.308C435.17 657.921 435.019 658.524 434.736 659.068Z" fill="#E1ECFF"/>
<path d="M434.736 659.068C430.939 661.125 426.541 661.787 422.306 660.938C415.596 659.398 413.066 657.198 413.066 657.198C413.066 657.198 410.865 653.897 412.516 652.027C414.496 653.897 419.226 657.968 424.726 658.628C428.265 659.061 431.856 658.607 435.176 657.308C435.17 657.921 435.019 658.524 434.736 659.068Z" fill="#C5DFFF"/>
<path d="M432.646 655.987C428.218 656.717 423.673 655.901 419.776 653.677C418.049 652.818 416.572 651.53 415.485 649.937C415.493 649.218 415.642 648.508 415.926 647.847C416.209 647.186 416.62 646.588 417.135 646.087C418.015 645.317 419.445 644.987 421.646 645.647C421.646 645.647 425.936 649.387 433.086 646.857C440.236 644.327 439.796 642.787 441.336 642.347C442.436 642.017 443.866 643.667 444.196 645.537C444.403 646.381 444.326 647.27 443.976 648.067C442.734 650.096 441.087 651.846 439.137 653.209C437.188 654.572 434.978 655.518 432.646 655.987Z" fill="#E1ECFF"/>
<path d="M432.646 655.987C428.218 656.717 423.673 655.901 419.776 653.677C418.049 652.818 416.572 651.53 415.485 649.937C415.493 649.218 415.642 648.508 415.926 647.847C416.209 647.186 416.62 646.588 417.135 646.087C419.776 648.727 425.496 653.457 431.766 652.247C436.487 651.216 440.829 648.892 444.306 645.537C444.513 646.381 444.436 647.27 444.086 648.067C442.807 650.085 441.135 651.827 439.169 653.187C437.204 654.548 434.986 655.5 432.646 655.987Z" fill="#C5DFFF"/>
<path d="M431.436 648.728C427.234 649.443 422.914 648.665 419.225 646.528C417.575 645.745 416.168 644.529 415.155 643.008C415.172 641.61 415.723 640.272 416.695 639.268C417.575 638.498 418.895 638.168 420.985 638.828C420.985 638.828 425.056 642.348 431.876 639.928C438.696 637.508 438.256 636.078 439.686 635.638C440.676 635.308 442.106 636.958 442.436 638.718C442.638 639.526 442.56 640.379 442.216 641.138C441.052 643.088 439.491 644.772 437.634 646.08C435.776 647.387 433.665 648.29 431.436 648.728Z" fill="#E1ECFF"/>
<path d="M431.436 648.728C427.234 649.443 422.914 648.665 419.225 646.528C417.575 645.745 416.168 644.529 415.155 643.008C415.172 641.61 415.723 640.272 416.695 639.268C419.115 641.798 424.616 646.308 430.556 645.098C435.019 644.083 439.125 641.878 442.436 638.718C442.638 639.526 442.56 640.379 442.216 641.138C441.052 643.088 439.491 644.772 437.634 646.08C435.776 647.387 433.665 648.29 431.436 648.728Z" fill="#C5DFFF"/>
<path d="M430.665 643.227C427.013 644.461 423.045 644.383 419.444 643.007C417.888 642.538 416.483 641.665 415.374 640.477C415.287 639.853 415.33 639.219 415.5 638.613C415.67 638.007 415.965 637.443 416.364 636.957C417.024 636.186 418.234 635.746 420.214 635.966C420.214 635.966 424.285 638.497 430.115 635.526C435.945 632.446 435.395 631.236 436.605 630.576C437.485 630.136 438.915 631.346 439.465 632.886C439.723 633.592 439.762 634.359 439.575 635.086C437.782 638.859 434.584 641.781 430.665 643.227Z" fill="#E1ECFF"/>
<path d="M430.665 643.227C427.013 644.461 423.045 644.383 419.444 643.007C417.888 642.538 416.483 641.665 415.374 640.477C415.287 639.853 415.33 639.218 415.5 638.613C415.67 638.007 415.965 637.443 416.364 636.956C418.894 638.826 424.285 642.127 429.455 640.257C433.379 638.774 436.809 636.221 439.355 632.886C439.613 633.592 439.652 634.359 439.465 635.086C438.619 636.964 437.404 638.652 435.892 640.05C434.38 641.449 432.602 642.529 430.665 643.227Z" fill="#C5DFFF"/>
<path d="M426.816 637.947C426.529 639.433 426.162 640.901 425.716 642.347C424.807 645.59 423.396 648.67 421.536 651.477C420.74 652.505 419.856 653.462 418.896 654.338C417.299 655.905 415.331 657.04 413.175 657.638C413.175 657.638 404.705 649.497 402.285 646.747C400.71 645.003 399.24 643.167 397.885 641.247C397.497 639.138 397.497 636.976 397.885 634.867C398.168 632.998 398.968 631.245 400.195 629.807C400.836 629.19 401.536 628.637 402.285 628.157C404.749 627.067 407.525 626.91 410.095 627.717C410.095 627.717 418.236 632.777 421.866 634.757C423.624 635.642 425.283 636.711 426.816 637.947Z" fill="#E1ECFF"/>
<path d="M426.816 637.947C426.53 639.433 426.162 640.901 425.716 642.347C422.745 640.652 419.88 638.778 417.136 636.737C412.361 633.584 407.402 630.719 402.285 628.157C404.749 627.067 407.525 626.91 410.095 627.717C410.095 627.717 418.236 632.777 421.866 634.757C423.624 635.642 425.284 636.711 426.816 637.947Z" fill="#F8FBFF"/>
<path d="M418.896 654.228C417.262 655.744 415.306 656.873 413.175 657.528C413.175 657.528 404.705 649.277 402.285 646.637C400.71 644.893 399.24 643.057 397.885 641.137C397.497 639.028 397.497 636.866 397.885 634.757C401.295 638.607 410.425 648.507 416.805 652.687C417.575 653.348 418.346 653.788 418.896 654.228Z" fill="#C5DFFF"/>
<path d="M387.434 626.066C386.488 625.994 385.56 625.772 384.684 625.406C384.369 625.225 384.136 624.93 384.034 624.582C383.931 624.233 383.967 623.859 384.134 623.536C384.205 623.377 384.308 623.233 384.435 623.113C384.562 622.993 384.712 622.9 384.876 622.838C385.04 622.777 385.214 622.749 385.389 622.755C385.564 622.762 385.735 622.803 385.894 622.876C386.004 622.986 389.084 624.416 393.154 621.776C397.224 619.136 397.884 615.836 397.884 615.726C397.897 615.546 397.949 615.37 398.038 615.212C398.126 615.054 398.248 614.918 398.395 614.813C398.542 614.708 398.711 614.637 398.889 614.604C399.067 614.572 399.25 614.579 399.425 614.626C399.779 614.718 400.086 614.937 400.289 615.241C400.492 615.545 400.576 615.914 400.525 616.276C400.525 616.496 399.755 620.896 394.584 624.306C392.428 625.588 389.939 626.2 387.434 626.066Z" fill="#C5DFFF"/>
<path d="M375.664 603.955C374.304 603.812 372.971 603.479 371.704 602.965C371.389 602.784 371.156 602.489 371.053 602.141C370.951 601.792 370.987 601.418 371.153 601.095C371.216 600.942 371.309 600.803 371.427 600.686C371.545 600.569 371.685 600.477 371.839 600.416C371.993 600.354 372.157 600.324 372.323 600.327C372.489 600.331 372.652 600.367 372.804 600.435C372.914 600.545 376.764 602.415 381.824 600.105C386.774 597.905 387.654 594.715 387.654 594.495C387.683 594.325 387.747 594.164 387.842 594.02C387.937 593.876 388.061 593.754 388.206 593.661C388.351 593.568 388.514 593.506 388.684 593.479C388.854 593.452 389.028 593.461 389.194 593.505C389.536 593.632 389.818 593.885 389.981 594.212C390.144 594.538 390.178 594.915 390.074 595.265C390.074 595.485 388.864 599.885 382.704 602.745C380.508 603.771 378.076 604.189 375.664 603.955Z" fill="#C5DFFF"/>
<path d="M367.304 579.205C365.525 579.169 363.798 578.594 362.354 577.555C362.081 577.309 361.908 576.972 361.867 576.607C361.827 576.242 361.921 575.874 362.133 575.575C362.227 575.419 362.356 575.287 362.508 575.189C362.661 575.091 362.834 575.028 363.015 575.007C363.195 574.986 363.378 575.006 363.549 575.067C363.721 575.127 363.876 575.225 364.004 575.355C364.114 575.355 366.534 577.225 371.924 576.125C378.744 574.695 380.614 572.055 380.724 571.945C380.819 571.793 380.945 571.663 381.094 571.564C381.242 571.464 381.41 571.396 381.586 571.365C381.762 571.334 381.943 571.34 382.117 571.383C382.29 571.426 382.453 571.505 382.594 571.615C382.867 571.86 383.04 572.198 383.081 572.563C383.121 572.928 383.026 573.295 382.814 573.595C382.594 573.925 380.174 577.115 372.474 578.875C370.776 579.24 369.034 579.351 367.304 579.205Z" fill="#C5DFFF"/>
<path d="M383.584 560.834C378.579 563.109 373.13 564.236 367.633 564.134C364.232 564.168 360.86 563.493 357.733 562.154C356.568 561.674 355.49 561.005 354.543 560.174C354.543 560.174 354.653 558.194 354.323 551.704C353.223 531.243 362.463 528.603 368.513 528.383C369.969 528.378 371.417 528.601 372.804 529.043C375.09 529.908 377.145 531.292 378.806 533.086C380.467 534.881 381.688 537.036 382.374 539.383C384.244 546.094 383.584 560.834 383.584 560.834Z" fill="#1C3177"/>
<path d="M370.054 541.033C363.123 544.773 360.263 542.353 360.263 542.353C360.263 542.353 358.613 547.964 357.843 559.074C357.733 560.174 357.733 561.274 357.623 562.154C356.458 561.674 355.38 561.005 354.433 560.174C354.433 560.174 354.543 558.194 354.213 551.704C353.113 531.243 362.353 528.603 368.403 528.383C369.859 528.378 371.307 528.601 372.694 529.043C374.454 532.013 376.434 537.623 370.054 541.033Z" fill="#384D89"/>
<path d="M510.529 575.355C510.199 577.115 509.869 578.765 509.429 580.415C506.789 590.645 502.169 598.896 495.679 604.286C477.088 619.796 451.567 628.047 418.786 606.816C392.605 589.875 368.514 551.484 359.824 536.633C357.624 532.893 356.414 530.583 356.414 530.583C356.414 530.583 371.484 529.813 395.245 518.923C406.963 513.443 418.188 506.965 428.796 499.562C450.247 484.601 462.678 470.631 469.828 459.74C478.298 446.98 479.508 438.62 479.508 438.62C479.508 438.62 481.598 442.47 485.228 450.94C492.407 468.43 498.577 486.316 503.709 504.512C511.739 532.233 513.939 556.764 510.529 575.355Z" fill="#E1ECFF"/>
<path d="M485.228 450.94C482.123 457.034 478.556 462.881 474.558 468.43C463.013 484.009 448.693 497.322 432.316 507.702C421.931 514.525 411.004 520.485 399.645 525.522C380.064 534.213 366.534 536.193 359.713 536.523C357.513 532.783 356.303 530.473 356.303 530.473C356.303 530.473 371.374 529.703 395.135 518.812C406.853 513.333 418.078 506.855 428.686 499.452C450.137 484.491 462.567 470.52 469.717 459.63C478.188 446.87 479.398 438.509 479.398 438.509C481.558 442.548 483.504 446.697 485.228 450.94Z" fill="#1C3177"/>
<path d="M509.429 580.415C506.789 590.645 502.169 598.895 495.679 604.286C477.088 619.796 451.567 628.046 418.786 606.816C392.605 589.875 368.514 551.484 359.824 536.633C357.624 532.893 356.414 530.583 356.414 530.583C356.414 530.583 371.484 529.813 395.245 518.922C404.595 533.443 425.276 563.474 445.627 581.185C469.278 601.865 496.229 589.655 509.429 580.415Z" fill="#C5DFFF"/>
<path d="M399.645 525.633C380.064 534.323 366.534 536.303 359.713 536.633C357.513 532.893 356.303 530.583 356.303 530.583C356.303 530.583 371.374 529.813 395.135 518.922C396.455 520.902 397.995 523.213 399.645 525.633Z" fill="#142966"/>
<path d="M507.449 564.684C504.699 553.354 500.959 539.053 496.229 523.873C488.639 499.232 480.058 480.201 475.328 471.951C481.928 461.94 483.138 457.87 483.138 457.87C483.138 457.87 484.788 460.95 487.649 467.55C493.243 481.236 498.054 495.23 502.059 509.462C508.439 531.023 510.199 550.164 507.449 564.684Z" fill="#F8FBFF"/>
<path d="M485.228 450.94C482.124 457.034 478.556 462.881 474.558 468.43C472.798 465.02 471.258 462.05 469.828 459.63C478.298 446.87 479.508 438.509 479.508 438.509C479.508 438.509 481.708 442.579 485.228 450.94Z" fill="#384D89"/>
<path d="M450.797 573.924C450.797 573.924 440.896 581.405 420.766 589.765C415.155 592.075 409.655 594.055 404.705 595.705L403.385 594.385C389.304 580.855 376.654 563.364 368.074 550.163C367.524 549.393 367.084 548.623 366.644 547.963C378.131 544.873 389.351 540.863 400.195 535.973C418.785 527.723 423.516 523.982 423.516 523.982L450.797 573.924Z" fill="#E1ECFF"/>
<path d="M447.716 573.814C447.716 573.814 438.806 580.965 419.885 588.445C414.055 590.755 408.225 592.735 403.275 594.385C389.194 580.855 376.544 563.364 367.963 550.164L369.723 549.724C380.329 546.807 390.699 543.093 400.745 538.613C417.905 530.913 422.745 528.383 422.745 528.383L447.716 573.814Z" fill="#1C3177"/>
<path d="M398.654 578.105C398.296 578.113 397.945 577.996 397.664 577.775L385.564 566.994L384.793 569.304C384.732 569.487 384.634 569.656 384.506 569.8C384.377 569.945 384.221 570.062 384.046 570.144C383.872 570.226 383.682 570.272 383.489 570.279C383.296 570.286 383.104 570.254 382.923 570.184C382.74 570.123 382.571 570.025 382.427 569.897C382.283 569.768 382.166 569.612 382.084 569.437C382.002 569.263 381.956 569.073 381.949 568.88C381.942 568.687 381.974 568.494 382.043 568.314L383.583 563.914C383.671 563.69 383.805 563.486 383.975 563.316C384.145 563.145 384.349 563.012 384.573 562.924C384.822 562.872 385.078 562.875 385.325 562.932C385.572 562.989 385.803 563.099 386.004 563.254L396.674 572.714L396.124 568.424C396.06 568.105 396.113 567.772 396.275 567.489C396.437 567.206 396.696 566.991 397.004 566.884L433.415 551.154C433.596 551.073 433.79 551.028 433.988 551.023C434.186 551.018 434.382 551.053 434.566 551.124C434.751 551.196 434.919 551.304 435.061 551.441C435.203 551.578 435.317 551.742 435.395 551.924C435.476 552.104 435.52 552.299 435.526 552.496C435.531 552.694 435.496 552.891 435.425 553.075C435.353 553.259 435.245 553.427 435.108 553.569C434.971 553.712 434.807 553.825 434.625 553.904L399.204 569.194L400.194 576.345C400.243 576.65 400.195 576.962 400.057 577.238C399.918 577.515 399.697 577.741 399.424 577.885C399.179 577.994 398.92 578.069 398.654 578.105Z" fill="#FFCE94"/>
<path d="M479.507 438.62C479.507 438.62 477.857 450.39 465.207 466.781C457.947 476.241 446.946 487.241 430.446 498.462C403.385 516.943 382.044 524.753 369.283 528.163C365.042 529.375 360.696 530.186 356.303 530.583C356.303 530.583 328.692 483.501 333.202 440.82C334.412 429.709 337.822 420.469 342.992 412.879C346.666 407.412 351.285 402.643 356.633 398.798C371.924 387.798 392.494 383.948 412.515 386.368C449.036 390.878 479.507 438.62 479.507 438.62Z" fill="#FEC272"/>
<path d="M479.507 438.62C479.507 438.62 478.737 443.9 474.557 452.26C471.934 457.436 468.802 462.337 465.207 466.891C457.947 476.351 446.946 487.351 430.445 498.572C401.294 518.373 378.744 525.963 366.533 528.933C363.172 529.777 359.752 530.365 356.303 530.693C356.303 530.363 356.413 505.062 397.554 472.941C438.916 440.49 479.507 438.62 479.507 438.62Z" fill="#FCAD4F"/>
<path d="M474.557 452.26C471.934 457.436 468.802 462.337 465.207 466.891C457.947 476.351 446.946 487.352 430.446 498.572C401.294 518.373 378.744 525.963 366.533 528.933C371.153 518.373 381.274 502.752 404.045 484.931C424.645 468.636 448.806 457.441 474.557 452.26V452.26Z" fill="#F99D3A"/>
<path d="M479.508 438.62C479.508 438.62 477.858 450.39 465.207 466.781C461.262 459.898 456.813 453.317 451.897 447.09C451.897 447.09 435.726 461.72 422.526 451.27C409.325 440.71 419.226 421.349 419.226 421.349C409.558 411.903 397.441 405.349 384.244 402.428C375.117 400.473 365.847 399.259 356.523 398.798C371.814 387.798 392.385 383.948 412.406 386.368C449.037 390.878 479.508 438.62 479.508 438.62Z" fill="#FFDBB3"/>
<path d="M369.393 528.163C365.152 529.376 360.806 530.186 356.413 530.583C356.413 530.583 328.802 483.502 333.312 440.82C334.522 429.71 337.932 420.469 343.102 412.879C340.929 437.655 343.62 462.617 351.023 486.362C355.674 500.897 361.831 514.907 369.393 528.163Z" fill="#FFDBB3"/>
<path d="M495.018 719.79C495.034 720.489 494.997 721.187 494.908 721.88C494.468 728.37 474.558 729.581 460.697 730.241C447.057 730.901 432.646 727.05 437.596 722.54L437.816 722.32C441.336 719.35 448.157 715.94 455.747 713.19C460.135 711.567 464.617 710.208 469.167 709.12C475.108 707.69 487.208 704.83 491.168 707.8C491.995 708.455 492.67 709.28 493.148 710.22C494.498 713.224 495.138 716.499 495.018 719.79Z" fill="#1C3177"/>
<path d="M495.018 719.79C495.034 720.488 494.997 721.187 494.908 721.88C494.468 728.37 474.558 729.58 460.697 730.24C447.057 730.9 432.646 727.05 437.596 722.54C440.566 724.3 447.057 726.39 460.587 725.84C479.068 725.07 490.288 721.99 495.018 719.79Z" fill="#384D89"/>
<path d="M493.037 710.22C491.843 711.275 490.511 712.163 489.077 712.86C483.797 715.5 467.736 718.36 457.946 716.71C453.656 715.94 453.986 714.62 455.636 713.19C460.024 711.567 464.506 710.208 469.056 709.12C474.997 707.69 487.097 704.83 491.057 707.8C491.884 708.455 492.559 709.28 493.037 710.22Z" fill="#142966"/>
<path d="M468.287 657.418C472.687 685.579 488.748 707.14 488.748 707.14C487.467 708.795 485.903 710.21 484.128 711.32C482.648 712.247 481.059 712.986 479.398 713.52C476.604 714.277 473.693 714.501 470.817 714.18C468.961 713.995 467.121 713.664 465.317 713.19C465.317 713.19 437.926 677.879 434.516 637.617C431.106 597.356 452.777 577.115 452.777 577.115C452.938 577.027 453.087 576.916 453.217 576.785C456.752 574.606 460.819 573.443 464.972 573.424C469.124 573.405 473.202 574.529 476.757 576.675C477.557 577.102 478.329 577.579 479.068 578.105C487.978 583.935 489.298 589.875 489.298 589.875C485.136 593.721 481.576 598.171 478.738 603.076C474.227 610.776 463.887 629.257 468.287 657.418Z" fill="#E1ECFF"/>
<path d="M468.287 657.418C472.687 685.579 488.748 707.14 488.748 707.14C487.467 708.795 485.903 710.211 484.128 711.32C476.097 700.21 456.847 666.548 457.507 634.537C458.057 605.276 473.237 584.925 479.178 578.105C488.088 583.935 489.408 589.875 489.408 589.875C485.246 593.721 481.686 598.171 478.848 603.076C474.227 610.776 463.887 629.257 468.287 657.418Z" fill="#C5DFFF"/>
<path d="M470.707 714.07C468.851 713.885 467.012 713.554 465.207 713.08C465.207 713.08 437.816 677.769 434.406 637.507C430.996 597.246 452.667 577.005 452.667 577.005C452.829 576.917 452.977 576.806 453.107 576.675C448.927 585.255 439.576 607.476 440.456 632.557C441.556 664.788 455.527 689.649 465.317 705.49C467.187 708.68 469.057 711.54 470.707 714.07Z" fill="#F8FBFF"/>
<path d="M449.807 685.468C449.619 685.478 449.431 685.443 449.259 685.367C449.087 685.29 448.936 685.174 448.817 685.028C448.539 684.758 448.373 684.392 448.352 684.005C448.332 683.617 448.458 683.236 448.707 682.938C451.466 680.407 454.782 678.56 458.387 677.548C464.877 675.568 472.028 677.768 472.358 677.878C472.732 678.002 473.044 678.266 473.228 678.614C473.413 678.962 473.455 679.369 473.348 679.748C473.224 680.122 472.96 680.434 472.611 680.618C472.263 680.803 471.857 680.846 471.478 680.738C471.368 680.738 464.877 678.758 459.267 680.408C453.657 682.168 450.907 684.918 450.907 685.028C450.773 685.185 450.603 685.307 450.411 685.384C450.219 685.46 450.012 685.489 449.807 685.468Z" fill="#C5DFFF"/>
<path d="M438.472 650.267C438.202 650.276 437.935 650.208 437.701 650.072C437.468 649.936 437.277 649.737 437.152 649.497C437.044 649.326 436.972 649.134 436.941 648.933C436.91 648.733 436.92 648.528 436.972 648.332C437.024 648.136 437.115 647.953 437.241 647.794C437.366 647.634 437.523 647.503 437.702 647.407C442.046 645.032 446.846 643.607 451.782 643.227C456.749 643.097 461.633 644.52 465.753 647.297C465.918 647.408 466.058 647.551 466.165 647.719C466.271 647.886 466.342 648.074 466.373 648.27C466.404 648.466 466.395 648.667 466.345 648.859C466.295 649.051 466.206 649.231 466.083 649.387C465.972 649.552 465.829 649.692 465.661 649.799C465.494 649.905 465.306 649.977 465.11 650.008C464.914 650.038 464.713 650.029 464.521 649.979C464.329 649.929 464.149 649.84 463.993 649.717C463.883 649.717 458.383 645.867 451.892 646.197C447.409 646.534 443.054 647.848 439.132 650.047C439.022 650.267 438.692 650.267 438.472 650.267Z" fill="#C5DFFF"/>
<path d="M468.618 621.221C468.429 621.231 468.242 621.197 468.07 621.12C467.898 621.044 467.746 620.928 467.627 620.781C467.517 620.671 459.377 613.301 451.237 612.311C443.317 611.321 438.476 614.731 438.476 614.841C438.152 615.064 437.754 615.153 437.366 615.092C436.977 615.031 436.627 614.823 436.386 614.511C436.164 614.187 436.074 613.789 436.136 613.4C436.197 613.012 436.405 612.661 436.716 612.421C436.936 612.201 442.547 608.131 451.677 609.341C460.697 610.551 469.278 618.251 469.718 618.581C469.868 618.707 469.991 618.863 470.079 619.039C470.166 619.214 470.217 619.406 470.227 619.602C470.238 619.799 470.207 619.995 470.139 620.179C470.07 620.362 469.964 620.53 469.828 620.671C469.487 620.969 469.066 621.16 468.618 621.221Z" fill="#C5DFFF"/>
<path d="M564.651 589.985C563.072 594.64 560.022 598.655 555.961 601.425C549.361 605.715 545.621 606.155 545.621 606.155C545.621 606.155 541.331 605.495 541.331 602.745V602.415C541.6 600.376 542.396 598.443 543.641 596.805C546.622 596.286 549.537 595.438 552.331 594.275C555.411 592.735 558.711 587.785 561.131 587.235C561.631 587.144 562.145 587.2 562.614 587.395C563.082 587.59 563.484 587.916 563.771 588.335C564.177 588.817 564.476 589.38 564.651 589.985Z" fill="#E1ECFF"/>
<path d="M564.651 589.985C563.072 594.64 560.022 598.655 555.961 601.425C549.361 605.715 545.621 606.155 545.621 606.155C545.621 606.155 541.331 605.495 541.331 602.745C544.301 602.525 551.341 601.645 556.291 597.685C559.493 595.163 562.056 591.922 563.771 588.225C564.168 588.754 564.466 589.35 564.651 589.985Z" fill="#C5DFFF"/>
<path d="M560.581 589.435C557.559 593.6 553.278 596.685 548.371 598.235C546.381 599.023 544.222 599.288 542.1 599.005C541.543 598.466 541.107 597.815 540.823 597.094C540.538 596.373 540.411 595.599 540.45 594.825C540.56 593.505 541.44 592.075 543.75 590.755C543.75 590.755 550.021 589.985 553.981 582.284C557.941 574.584 556.291 573.814 557.281 572.274C557.941 571.174 560.361 571.284 562.011 572.274C562.816 572.725 563.409 573.477 563.661 574.364C564.651 577.114 564.541 584.045 560.581 589.435Z" fill="#E1ECFF"/>
<path d="M560.581 589.435C557.559 593.6 553.278 596.685 548.371 598.235C546.381 599.023 544.222 599.288 542.1 599.005C541.543 598.466 541.107 597.815 540.823 597.094C540.538 596.373 540.411 595.599 540.45 594.825C544.52 594.605 552.881 593.505 556.951 587.454C559.992 582.951 561.742 577.701 562.011 572.274C562.816 572.725 563.409 573.477 563.661 574.364C564.651 577.114 564.541 584.044 560.581 589.435Z" fill="#C5DFFF"/>
<path d="M553.211 586.025C550.333 590.002 546.241 592.936 541.551 594.385C539.66 595.11 537.615 595.337 535.611 595.045C535.083 594.536 534.672 593.918 534.406 593.234C534.14 592.55 534.026 591.817 534.071 591.085C534.181 589.875 535.061 588.445 537.261 587.235C537.261 587.235 543.201 586.575 546.941 579.204C550.681 571.944 549.141 571.174 550.021 569.634C550.681 568.644 552.881 568.644 554.531 569.634C555.302 570.074 555.887 570.777 556.181 571.614C557.061 574.364 556.951 580.965 553.211 586.025Z" fill="#E1ECFF"/>
<path d="M553.211 586.025C550.333 590.002 546.241 592.936 541.551 594.385C539.66 595.11 537.615 595.337 535.611 595.045C535.083 594.536 534.672 593.918 534.406 593.234C534.14 592.55 534.026 591.817 534.071 591.085C537.921 590.865 545.841 589.875 549.801 584.155C552.646 579.856 554.314 574.888 554.641 569.744C555.412 570.184 555.997 570.887 556.291 571.724C556.775 574.192 556.751 576.733 556.222 579.191C555.692 581.65 554.668 583.975 553.211 586.025Z" fill="#C5DFFF"/>
<path d="M550.241 595.815C550.331 598.502 549.804 601.174 548.701 603.626C548.061 605.032 547.208 606.33 546.171 607.476C546.171 607.476 518.34 617.266 489.079 592.845C474.008 580.305 461.908 563.914 453.767 551.044C449.377 544.158 445.374 537.034 441.777 529.703C441.777 529.703 439.467 522.553 443.757 516.392C445.367 514.06 447.569 512.2 450.137 511.002C455.307 508.362 459.598 508.142 463.008 509.022C466.506 509.944 469.624 511.945 471.918 514.742C471.918 514.742 476.208 524.203 482.588 535.863C490.069 549.394 500.409 565.894 510.309 573.594C528.68 587.895 543.971 582.395 543.971 582.395C545.199 583.682 546.303 585.082 547.271 586.575C548.481 588.885 550.131 592.185 550.241 595.815Z" fill="#E1ECFF"/>
<path d="M482.257 535.643C478.685 541.254 473.343 545.512 467.077 547.743C462.735 549.424 458.182 550.498 453.546 550.933C449.156 544.048 445.153 536.924 441.556 529.593C441.556 529.593 437.596 517.162 449.806 510.782C463.557 503.632 471.587 514.522 471.587 514.522C471.587 514.522 475.877 524.092 482.257 535.643Z" fill="#C5DFFF"/>
<path d="M548.591 603.515C547.951 604.922 547.098 606.22 546.061 607.366C546.061 607.366 518.23 617.156 488.969 592.735C473.898 580.195 461.798 563.804 453.657 550.934C449.267 544.048 445.264 536.924 441.667 529.593C441.667 529.593 439.357 522.442 443.647 516.282C447.277 524.533 462.788 558.194 482.479 577.554C505.029 599.665 517.24 602.415 538.911 603.295C542.431 603.405 545.731 603.515 548.591 603.515Z" fill="#C5DFFF"/>
<path d="M546.94 586.465C541.33 588.115 533.519 589.325 525.379 586.795C510.198 582.065 497.768 572.494 485.557 554.124C475.547 538.943 465.867 516.502 462.787 508.912C466.285 509.834 469.403 511.835 471.697 514.632C471.697 514.632 475.987 524.093 482.367 535.753C489.848 549.284 500.188 565.784 510.088 573.485C528.459 587.785 543.75 582.285 543.75 582.285C544.953 583.565 546.022 584.966 546.94 586.465Z" fill="#F8FBFF"/>
<path d="M470.706 569.194C469.142 569.2 467.585 568.977 466.086 568.534C465.712 568.384 465.413 568.093 465.252 567.724C465.092 567.355 465.083 566.938 465.227 566.563C465.372 566.187 465.658 565.883 466.024 565.717C466.391 565.551 466.808 565.535 467.186 565.674C467.406 565.784 472.576 567.544 479.506 563.804C483.639 561.492 486.715 557.667 488.086 553.134C488.13 552.946 488.21 552.768 488.322 552.612C488.433 552.455 488.575 552.321 488.739 552.219C488.902 552.117 489.084 552.048 489.274 552.016C489.464 551.984 489.659 551.99 489.846 552.034C490.034 552.077 490.212 552.157 490.369 552.269C490.526 552.381 490.659 552.522 490.761 552.686C490.863 552.849 490.932 553.031 490.964 553.221C490.996 553.411 490.99 553.606 490.946 553.794C490.191 556.472 488.906 558.971 487.168 561.144C485.43 563.317 483.273 565.119 480.826 566.444C477.751 568.23 474.262 569.178 470.706 569.194Z" fill="#C5DFFF"/>
<path d="M491.718 593.836C491.309 593.836 490.918 593.674 490.629 593.385C490.34 593.096 490.178 592.704 490.178 592.296C490.178 591.887 490.34 591.496 490.629 591.207C490.918 590.918 491.309 590.756 491.718 590.756C491.828 590.756 498.648 590.646 502.498 585.915C506.458 581.075 505.688 574.255 505.688 574.145C505.666 573.95 505.683 573.753 505.738 573.564C505.792 573.375 505.884 573.199 506.006 573.046C506.129 572.893 506.28 572.765 506.452 572.671C506.624 572.576 506.813 572.516 507.008 572.495C507.399 572.468 507.785 572.588 508.091 572.833C508.397 573.078 508.599 573.428 508.658 573.815C508.658 574.145 509.538 581.955 504.808 587.786C500.078 593.836 492.048 593.836 491.718 593.836Z" fill="#C5DFFF"/>
<path d="M515.917 606.706C515.606 606.707 515.302 606.613 515.046 606.436C514.79 606.259 514.595 606.007 514.487 605.715C514.343 605.336 514.355 604.915 514.52 604.545C514.685 604.174 514.989 603.883 515.367 603.735C517.296 602.888 519.009 601.617 520.38 600.018C521.751 598.418 522.745 596.531 523.287 594.495C524.937 587.675 522.627 583.715 522.517 583.605C522.313 583.265 522.244 582.861 522.326 582.473C522.408 582.085 522.633 581.743 522.957 581.515C523.297 581.31 523.701 581.242 524.089 581.323C524.477 581.405 524.819 581.63 525.047 581.955C525.157 582.175 528.238 587.125 526.147 595.155C525.476 597.66 524.247 599.98 522.551 601.943C520.856 603.905 518.738 605.458 516.357 606.486C516.247 606.706 516.137 606.706 515.917 606.706Z" fill="#C5DFFF"/>
<path d="M483.134 522.443C482.908 523.571 482.576 524.676 482.144 525.743C480.604 529.483 476.974 535.643 468.724 541.033C455.963 549.284 444.633 545.764 444.633 545.764C439.344 538.219 435.983 529.495 434.843 520.353C433.853 511.882 439.463 505.282 446.723 502.092C452.113 499.782 458.383 499.342 463.444 501.542C475.434 506.932 483.134 522.443 483.134 522.443Z" fill="#1C3177"/>
<path d="M483.139 522.443C482.912 523.571 482.58 524.676 482.148 525.743C482.148 525.633 482.038 525.633 482.038 525.523C471.808 511.992 463.778 509.242 463.778 509.242C463.778 509.242 460.808 516.283 451.017 512.212C444.197 509.462 445.407 504.622 446.837 502.092C452.227 499.782 458.498 499.342 463.558 501.542C475.438 506.932 483.139 522.443 483.139 522.443Z" fill="#384D89"/>
<path d="M349.482 464.251C348.493 464.083 347.479 464.296 346.642 464.848C345.805 465.399 345.208 466.247 344.971 467.221C343.628 472.774 342.563 478.391 341.781 484.051C341.231 488.671 341.011 492.522 340.901 495.162C340.873 496.094 341.179 497.005 341.764 497.732C342.349 498.458 343.174 498.951 344.091 499.122C344.607 499.204 345.133 499.179 345.638 499.05C346.144 498.92 346.617 498.688 347.029 498.369C347.442 498.049 347.784 497.649 348.036 497.192C348.287 496.735 348.442 496.231 348.492 495.712C348.828 490.833 349.49 485.982 350.472 481.191C351.572 475.581 352.342 471.621 352.892 468.981C353.032 467.906 352.758 466.819 352.124 465.94C351.49 465.061 350.545 464.457 349.482 464.251Z" fill="#1C3177"/>
<path d="M330.452 476.021C330.566 475.504 330.796 475.019 331.123 474.603C331.451 474.187 331.868 473.85 332.344 473.617C332.819 473.384 333.342 473.262 333.871 473.259C334.401 473.257 334.924 473.373 335.402 473.601C338.703 475.031 343.543 477.121 348.163 478.771C352.893 480.421 357.293 482.071 360.043 483.171C360.945 483.508 361.69 484.166 362.137 485.019C362.583 485.871 362.7 486.858 362.463 487.791C362.334 488.295 362.105 488.767 361.79 489.18C361.474 489.592 361.079 489.937 360.627 490.194C360.175 490.451 359.677 490.614 359.161 490.673C358.644 490.733 358.122 490.688 357.623 490.542C352.385 489.06 347.242 487.26 342.223 485.151C338.663 483.663 335.208 481.936 331.882 479.981C331.285 479.531 330.832 478.917 330.578 478.214C330.324 477.511 330.28 476.749 330.452 476.021Z" fill="#1C3177"/>
<path d="M396.781 437.409C395.49 437.219 394.174 437.52 393.094 438.254C392.015 438.987 391.25 440.099 390.95 441.369C389.74 446.869 387.98 456.11 387.21 463.37C386.66 469.42 386.33 474.371 386.33 477.781C386.284 478.979 386.686 480.151 387.46 481.067C388.233 481.983 389.322 482.576 390.51 482.731C391.18 482.834 391.863 482.796 392.517 482.62C393.171 482.445 393.781 482.135 394.308 481.711C394.836 481.287 395.27 480.757 395.582 480.156C395.894 479.555 396.077 478.896 396.121 478.221C396.341 473.82 397.001 467.11 398.211 459.41C399.421 452.04 400.411 446.869 400.961 443.459C401.11 442.785 401.118 442.088 400.985 441.411C400.852 440.734 400.581 440.091 400.189 439.524C399.797 438.956 399.291 438.475 398.705 438.111C398.119 437.747 397.464 437.508 396.781 437.409Z" fill="#1C3177"/>
<path d="M372.36 453.25C372.514 452.584 372.811 451.96 373.23 451.421C373.65 450.881 374.181 450.439 374.788 450.125C375.395 449.811 376.062 449.633 376.745 449.603C377.427 449.573 378.108 449.691 378.741 449.95C383.031 451.71 389.301 454.24 395.351 456.33C401.512 458.42 407.232 460.4 410.862 461.72C412.04 462.132 413.021 462.971 413.611 464.07C414.202 465.17 414.359 466.451 414.052 467.661C413.893 468.322 413.603 468.944 413.199 469.492C412.796 470.039 412.287 470.501 411.703 470.849C411.119 471.198 410.472 471.426 409.798 471.52C409.125 471.615 408.439 471.574 407.782 471.401C400.975 469.629 394.287 467.424 387.761 464.8C383.116 463.01 378.628 460.84 374.341 458.31C373.568 457.738 372.973 456.96 372.622 456.065C372.272 455.17 372.181 454.194 372.36 453.25Z" fill="#1C3177"/>
<path d="M769.148 647.627C772.873 648.88 776.209 651.078 778.829 654.007C782.899 658.848 783.449 666.658 783.449 666.658L805.67 656.317C805.67 656.317 794.449 660.608 790.709 653.127C786.969 645.647 799.4 633.767 799.4 633.767C799.4 633.767 785.649 644.987 780.259 643.337C774.869 641.687 773.989 634.977 773.989 634.977L769.148 647.627Z" fill="#FEC272"/>
<path d="M748.138 645.097L752.098 645.207L758.258 600.105L744.288 597.465L748.138 645.097Z" fill="#D2E9FF"/>
<path d="M757.818 645.317L767.058 603.076L780.369 609.566L760.238 646.417L757.818 645.317Z" fill="#D2E9FF"/>
<path d="M317.582 432.129L315.272 437.189L266.98 422.339L273.47 403.308L317.582 432.129Z" fill="#FEC272"/>
<path d="M324.842 415.409L320.552 421.569L265.99 379.987L281.06 364.257L324.842 415.409Z" fill="#FEC272"/>
</g>
<defs>
<clipPath id="clip0_491_5270">
<rect width="539.68" height="371.264" fill="white" transform="translate(265.99 364.257)"/>
</clipPath>
</defs>
</svg>