<svg width="97" height="96" viewBox="0 0 97 96" fill="none" xmlns="http://www.w3.org/2000/svg">
<path d="M42.9 55.2L34.2 46.5C33.4667 45.7667 32.5667 45.4 31.5 45.4C30.4333 45.4 29.5 45.8 28.7 46.6C27.9667 47.3333 27.6 48.2667 27.6 49.4C27.6 50.5333 27.9667 51.4667 28.7 52.2L40.1 63.6C40.8333 64.3333 41.7667 64.7 42.9 64.7C44.0333 64.7 44.9667 64.3333 45.7 63.6L68.4 40.9C69.1333 40.1667 69.5 39.2667 69.5 38.2C69.5 37.1333 69.1 36.2 68.3 35.4C67.5667 34.6667 66.6333 34.3 65.5 34.3C64.3667 34.3 63.4333 34.6667 62.7 35.4L42.9 55.2ZM48.5 88C42.9667 88 37.7667 86.9493 32.9 84.848C28.0333 82.7493 23.8 79.9 20.2 76.3C16.6 72.7 13.7507 68.4667 11.652 63.6C9.55067 58.7333 8.5 53.5333 8.5 48C8.5 42.4667 9.55067 37.2667 11.652 32.4C13.7507 27.5333 16.6 23.3 20.2 19.7C23.8 16.1 28.0333 13.2493 32.9 11.148C37.7667 9.04933 42.9667 8 48.5 8C54.0333 8 59.2333 9.04933 64.1 11.148C68.9667 13.2493 73.2 16.1 76.8 19.7C80.4 23.3 83.2493 27.5333 85.348 32.4C87.4493 37.2667 88.5 42.4667 88.5 48C88.5 53.5333 87.4493 58.7333 85.348 63.6C83.2493 68.4667 80.4 72.7 76.8 76.3C73.2 79.9 68.9667 82.7493 64.1 84.848C59.2333 86.9493 54.0333 88 48.5 88Z" fill="#6C66E9"/>
</svg>
