<svg width="72" height="73" viewBox="0 0 72 73" fill="none" xmlns="http://www.w3.org/2000/svg">
<g clip-path="url(#clip0_6_39912)">
<path d="M36.0005 0.54834C26.4549 0.54834 17.2917 4.34353 10.5474 11.0924C3.79603 17.844 0.00235842 27.0004 0.000488281 36.5483C0.000488281 46.0923 3.79736 55.2554 10.5474 62.0043C17.2917 68.7532 26.4549 72.5483 36.0005 72.5483C45.5461 72.5483 54.7092 68.7532 61.4536 62.0043C68.2036 55.2554 72.0005 46.0923 72.0005 36.5483C72.0005 27.0044 68.2036 17.8413 61.4536 11.0924C54.7092 4.34353 45.5461 0.54834 36.0005 0.54834Z" fill="url(#paint0_linear_6_39912)"/>
<path d="M16.296 36.1681C26.7923 31.5961 33.7898 28.5817 37.2885 27.1253C47.2898 22.9668 49.3654 22.2445 50.721 22.2201C51.0191 22.2153 51.6829 22.289 52.116 22.6391C52.476 22.9344 52.5773 23.3338 52.6279 23.6142C52.6729 23.8943 52.7348 24.5328 52.6841 25.0312C52.1441 30.7237 49.7985 44.5375 48.606 50.9135C48.1054 53.6112 47.1098 54.5157 46.1479 54.604C44.0554 54.7964 42.4691 53.2225 40.4441 51.8956C37.2773 49.8183 35.4885 48.5257 32.4116 46.499C28.8566 44.1567 31.1629 42.8692 33.1879 40.7654C33.7166 40.2147 42.9304 31.8363 43.1048 31.0763C43.1273 30.9813 43.1498 30.6269 42.936 30.4402C42.7279 30.2528 42.4185 30.317 42.1935 30.3676C41.8729 30.4396 36.816 33.7853 27.006 40.4043C25.5716 41.3909 24.2723 41.8718 23.1023 41.8465C21.8198 41.819 19.3448 41.1198 17.5054 40.5224C15.2554 39.7895 13.461 39.4019 13.6185 38.1571C13.6973 37.5091 14.5916 36.8459 16.296 36.1681Z" fill="white"/>
</g>
<defs>
<linearGradient id="paint0_linear_6_39912" x1="36.0005" y1="0.54834" x2="36.0005" y2="72.5483" gradientUnits="userSpaceOnUse">
<stop stop-color="#2AABEE"/>
<stop offset="1" stop-color="#229ED9"/>
</linearGradient>
<clipPath id="clip0_6_39912">
<rect width="72" height="72" fill="white" transform="translate(0.000488281 0.54834)"/>
</clipPath>
</defs>
</svg>
