<svg width="79" height="65" viewBox="0 0 79 65" fill="none" xmlns="http://www.w3.org/2000/svg">
<path d="M64.9334 24.336C65.1157 23.3365 65.2036 22.3225 65.196 21.3072C65.1726 14.9204 62.1714 8.91044 57.0806 5.0544C51.9891 1.19866 45.3908 -0.0622793 39.2372 1.64583C33.083 3.35334 28.0778 7.83393 25.7015 13.7618C24.2947 13.0795 22.7483 12.7319 21.185 12.7466C18.2419 12.7185 15.4113 13.875 13.3298 15.9559C11.2489 18.0373 10.0924 20.8679 10.1205 23.8111C10.0924 24.1839 10.0924 24.5585 10.1205 24.9313C7.22663 25.7302 4.67789 27.4623 2.87029 29.8592C1.06254 32.2555 0.0972205 35.1822 0.124081 38.184V38.8668C0.12877 42.5245 1.58364 46.0303 4.1698 48.6166C6.7559 51.2027 10.2625 52.6576 13.9195 52.6623H30.0253C30.9924 52.6623 31.7761 51.8786 31.7761 50.9114C31.7761 49.9448 30.9924 49.1611 30.0253 49.1611H13.9195C11.2062 49.1072 8.61887 48.0052 6.69978 46.0867C4.78128 44.1676 3.67926 41.5803 3.62539 38.867V38.1841C3.6119 35.7051 4.51107 33.3072 6.15116 31.4478C7.7907 29.5879 10.0573 28.3969 12.5193 28.1002C13.0199 28.0457 13.473 27.7778 13.762 27.3652C14.0545 26.9478 14.15 26.4232 14.0246 25.9296L13.9021 25.4572V25.4566C13.7415 24.9337 13.6471 24.3927 13.6219 23.8465C13.6031 21.8348 14.3939 19.8998 15.8165 18.4779C17.2385 17.0552 19.1734 16.2645 21.1851 16.2833C22.7337 16.2375 24.2414 16.7821 25.4037 17.8067C25.858 18.2709 26.5321 18.4462 27.1546 18.2615C27.7554 18.095 28.222 17.6214 28.3803 17.0188C29.8275 11.6942 33.7718 7.40462 38.957 5.51659C44.1416 3.62856 49.9205 4.37768 54.4534 7.52482C58.9864 10.672 61.7061 15.8248 61.7488 21.3431C61.808 22.71 61.5624 24.0734 61.0308 25.3343C60.7564 25.8789 60.7852 26.5272 61.107 27.0453C61.4282 27.5634 61.9968 27.877 62.6064 27.8729H64.6374C67.3443 27.9403 69.9211 29.05 71.8291 30.9713C73.7377 32.8928 74.8297 35.4765 74.8789 38.184V38.8669C74.825 41.5803 73.723 44.1676 71.8045 46.0867C69.8854 48.0051 67.2981 49.1072 64.5847 49.161H48.461C47.4938 49.161 46.7101 49.9448 46.7101 50.9113C46.7101 51.8785 47.4938 52.6622 48.461 52.6622H64.5847C68.2418 52.6575 71.7482 51.2026 74.3345 48.6165C76.9206 46.0304 78.3755 42.5244 78.3802 38.8668V38.1839C78.3907 34.5772 76.9898 31.11 74.4775 28.5221C71.9652 25.9348 68.5403 24.4324 64.9347 24.3362L64.9334 24.336Z" fill="#98A2B3"/>
<path d="M41.1586 37.3083C41.0015 37.1711 40.8244 37.0592 40.6334 36.9759H40.4757H40.4763C40.3286 36.9279 40.1756 36.8986 40.0208 36.888H39.8631C39.6715 36.8874 39.4815 36.9232 39.3033 36.9929C39.1117 37.0662 38.9387 37.1794 38.7951 37.3259L33.9634 42.1576C33.634 42.4853 33.4476 42.9296 33.4464 43.3944C33.4447 43.8593 33.6275 44.3053 33.9546 44.6347C34.6363 45.3211 35.7454 45.3253 36.4318 44.6435L38.27 42.8053V63.1487C38.27 64.1159 39.0543 64.8996 40.0209 64.8996C40.988 64.8996 41.7717 64.1159 41.7717 63.1487V42.7888L43.6275 44.627C44.3104 45.3058 45.4129 45.3058 46.0958 44.627C46.427 44.2982 46.6134 43.8509 46.6134 43.3844C46.6134 42.9172 46.427 42.4699 46.0958 42.1411L41.1586 37.3083Z" fill="#CF5C10"/>
<path d="M35.1019 20.3085C35.7789 20.3038 36.3926 19.9082 36.6775 19.2933C36.8352 18.9779 40.5292 11.3103 48.6699 14.3736L48.6693 14.3742C49.5731 14.7042 50.5743 14.2429 50.9102 13.3414C51.242 12.4422 50.7895 11.4435 49.895 11.1004C46.8253 9.87769 43.4003 9.89586 40.3435 11.1497C37.2861 12.4041 34.8359 14.7968 33.5088 17.8226C33.0979 18.6977 33.4742 19.7399 34.3488 20.1515C34.5862 20.2552 34.8428 20.3091 35.1019 20.3085Z" fill="#98A2B3"/>
</svg>
