<svg width="48" height="48" viewBox="0 0 48 48" fill="none" xmlns="http://www.w3.org/2000/svg">
<path d="M46.0488 14.6341C44.813 11.7723 43.1219 9.23584 40.9106 7.02432C38.6992 4.81296 36.1626 3.12192 33.3008 1.88624C30.3739 0.6504 27.187 0 24 0C20.748 0 17.6261 0.6504 14.6341 1.88624C11.7723 3.12192 9.23584 4.81296 7.02432 7.02432C4.81296 9.23584 3.12192 11.7723 1.88624 14.6341C0.6504 17.6261 0 20.748 0 24C0 27.252 0.6504 30.3739 1.88624 33.3659C3.12192 36.2277 4.81296 38.7642 7.02432 40.9757C9.23584 43.187 11.7723 44.8781 14.6341 46.1138C17.561 47.3496 20.748 48 24 48C27.252 48 30.3739 47.3496 33.3659 46.1138C36.2277 44.8781 38.7642 43.187 40.9757 40.9757C43.187 38.7642 44.8781 36.2277 46.1138 33.3659C47.3496 30.439 48 27.252 48 24C47.935 20.748 47.3496 17.6261 46.0488 14.6341ZM16 21.7235C16.9757 17.8862 20.4878 15.0243 24.6504 15.0243H41.3008C42.3414 17.1058 43.057 19.3171 43.3171 21.7235H16ZM43.3171 26.2114C43.057 28.5528 42.3414 30.8293 41.3008 32.9106H24.6504C20.4878 32.9106 17.0406 30.0488 16 26.2114H43.3171ZM10.2114 10.2114C13.9187 6.504 18.7968 4.48784 24 4.48784C29.2032 4.48784 34.0813 6.504 37.7235 10.2114C37.8536 10.3414 37.9187 10.4066 38.0488 10.5366H24.6504C21.0731 10.5366 17.691 11.9024 15.1544 14.439C13.1382 16.4554 11.8374 18.9269 11.3821 21.6586H4.61792C5.13824 17.3659 7.08944 13.3333 10.2114 10.2114ZM24 43.4472C18.7968 43.4472 13.9187 41.4309 10.2114 37.7235C7.08944 34.6016 5.13824 30.5691 4.61792 26.2114H11.3821C11.8374 28.943 13.1382 31.4797 15.1544 33.4309C17.691 35.9675 21.0731 37.3333 24.6504 37.3333H38.1138C37.9837 37.4634 37.9187 37.5934 37.7886 37.6586C34.0813 41.4309 29.2032 43.4472 24 43.4472Z" fill="black"/>
</svg>
